<?xml version="1.0" encoding="UTF-8" standalone="no"?>
<!DOCTYPE svg PUBLIC "-//W3C//DTD SVG 1.1//EN"
 "http://www.w3.org/Graphics/SVG/1.1/DTD/svg11.dtd">
<!-- Generated by graphviz version 2.42.4 (0)
 -->
<!-- Title: G Pages: 1 -->
<svg width="222pt" height="332pt"
 viewBox="0.00 0.00 221.74 332.27" xmlns="http://www.w3.org/2000/svg" xmlns:xlink="http://www.w3.org/1999/xlink">
<g id="graph0" class="graph" transform="scale(1 1) rotate(0) translate(28.8 303.47)">
<title>G</title>
<polygon fill="#f7f8fa" stroke="transparent" points="-28.8,28.8 -28.8,-303.47 192.94,-303.47 192.94,28.8 -28.8,28.8"/>
<text text-anchor="middle" x="82.07" y="-253.07" font-family="Helvetica,sans-Serif" font-size="22.00">Agent Tools</text>
<!-- cat:agent&#45;tools -->
<g id="node1" class="node">
<title>cat:agent&#45;tools</title>
<ellipse fill="#6aa9ff" stroke="black" stroke-width="0" cx="82.07" cy="-201.48" rx="41.38" ry="41.38"/>
<text text-anchor="middle" x="82.07" y="-198.98" font-family="Helvetica,sans-Serif" font-size="10.00" fill="#1a1f2c">Agent Tools</text>
</g>
<!-- cat:agent&#45;tools/comms -->
<g id="node2" class="node">
<title>cat:agent&#45;tools/comms</title>
<ellipse fill="#6aa9ff" stroke="black" stroke-width="0" cx="82.07" cy="-94.65" rx="29.8" ry="29.8"/>
<text text-anchor="middle" x="82.07" y="-92.15" font-family="Helvetica,sans-Serif" font-size="10.00" fill="#1a1f2c">Comms</text>
</g>
<!-- cat:agent&#45;tools&#45;&gt;cat:agent&#45;tools/comms -->
<g id="edge1" class="edge">
<title>cat:agent&#45;tools&#45;&gt;cat:agent&#45;tools/comms</title>
<path fill="none" stroke="#c8cfdb" stroke-width="0.8" d="M82.07,-160.25C82.07,-150.12 82.07,-139.35 82.07,-129.56"/>
<polygon fill="#c8cfdb" stroke="#c8cfdb" stroke-width="0.8" points="83.82,-129.55 82.07,-124.55 80.32,-129.55 83.82,-129.55"/>
</g>
<!-- proj:mcp&#45;agent&#45;mail -->
<g id="node3" class="node">
<title>proj:mcp&#45;agent&#45;mail</title>
<g id="a_node3"><a xlink:href="https://github.com/Dicklesworthstone/mcp_agent_mail" xlink:title="https://github.com/Dicklesworthstone/mcp_agent_mail">
<polygon fill="#f59e0b" stroke="black" stroke-width="0" points="82.07,-29 -0.07,-14.5 82.07,0 164.21,-14.5 82.07,-29"/>
<text text-anchor="middle" x="82.07" y="-12.3" font-family="Helvetica,sans-Serif" font-size="9.00" fill="#1a1f2c">mcp_agent_mail</text>
</a>
</g>
</g>
<!-- cat:agent&#45;tools/comms&#45;&gt;proj:mcp&#45;agent&#45;mail -->
<g id="edge2" class="edge">
<title>cat:agent&#45;tools/comms&#45;&gt;proj:mcp&#45;agent&#45;mail</title>
<path fill="none" stroke="#c8cfdb" stroke-width="0.8" d="M82.07,-64.99C82.07,-54.8 82.07,-43.58 82.07,-34.41"/>
<polygon fill="#c8cfdb" stroke="#c8cfdb" stroke-width="0.8" points="83.82,-34.26 82.07,-29.26 80.32,-34.26 83.82,-34.26"/>
</g>
</g>
</svg>
