<?xml version="1.0" encoding="UTF-8" standalone="no"?>
<!DOCTYPE svg PUBLIC "-//W3C//DTD SVG 1.1//EN"
 "http://www.w3.org/Graphics/SVG/1.1/DTD/svg11.dtd">
<!-- Generated by graphviz version 2.42.4 (0)
 -->
<!-- Title: G Pages: 1 -->
<svg width="605pt" height="460pt"
 viewBox="0.00 0.00 604.65 459.57" xmlns="http://www.w3.org/2000/svg" xmlns:xlink="http://www.w3.org/1999/xlink">
<g id="graph0" class="graph" transform="scale(1 1) rotate(0) translate(28.8 430.77)">
<title>G</title>
<polygon fill="#f7f8fa" stroke="transparent" points="-28.8,28.8 -28.8,-430.77 575.85,-430.77 575.85,28.8 -28.8,28.8"/>
<text text-anchor="middle" x="273.52" y="-380.37" font-family="Helvetica,sans-Serif" font-size="22.00">Agent to Agent</text>
<!-- cat:agent&#45;to&#45;agent -->
<g id="node1" class="node">
<title>cat:agent&#45;to&#45;agent</title>
<g id="a_node1"><a xlink:title="Communication protocols and transports that let agents talk directly to other agents.">
<ellipse fill="#6aa9ff" stroke="black" stroke-width="0" cx="284.13" cy="-322.66" rx="47.11" ry="47.11"/>
<text text-anchor="middle" x="284.13" y="-320.16" font-family="Helvetica,sans-Serif" font-size="10.00" fill="#1a1f2c">Agent to Agent</text>
</a>
</g>
</g>
<!-- proj:openagents -->
<g id="node2" class="node">
<title>proj:openagents</title>
<g id="a_node2"><a xlink:href="https://github.com/openagents-org/openagents" xlink:title="https://github.com/openagents&#45;org/openagents">
<polygon fill="#f59e0b" stroke="black" stroke-width="0" points="63.13,-211.03 -0.13,-196.53 63.13,-182.03 126.39,-196.53 63.13,-211.03"/>
<text text-anchor="middle" x="63.13" y="-194.33" font-family="Helvetica,sans-Serif" font-size="9.00" fill="#1a1f2c">openagents</text>
</a>
</g>
</g>
<!-- cat:agent&#45;to&#45;agent&#45;&gt;proj:openagents -->
<g id="edge1" class="edge">
<title>cat:agent&#45;to&#45;agent&#45;&gt;proj:openagents</title>
<path fill="none" stroke="#c8cfdb" stroke-width="0.8" d="M242.89,-299.19C212.9,-282.78 171.38,-259.89 135.13,-239.35 117.95,-229.62 98.61,-218.37 84.31,-209.99"/>
<polygon fill="#c8cfdb" stroke="#c8cfdb" stroke-width="0.8" points="84.86,-208.29 79.66,-207.27 83.09,-211.3 84.86,-208.29"/>
</g>
<!-- proj:agentchattr -->
<g id="node3" class="node">
<title>proj:agentchattr</title>
<g id="a_node3"><a xlink:href="https://github.com/bcurts/agentchattr" xlink:title="https://github.com/bcurts/agentchattr">
<polygon fill="#f59e0b" stroke="black" stroke-width="0" points="208.13,-211.03 144.07,-196.53 208.13,-182.03 272.19,-196.53 208.13,-211.03"/>
<text text-anchor="middle" x="208.13" y="-194.33" font-family="Helvetica,sans-Serif" font-size="9.00" fill="#1a1f2c">agentchattr</text>
</a>
</g>
</g>
<!-- cat:agent&#45;to&#45;agent&#45;&gt;proj:agentchattr -->
<g id="edge2" class="edge">
<title>cat:agent&#45;to&#45;agent&#45;&gt;proj:agentchattr</title>
<path fill="none" stroke="#c8cfdb" stroke-width="0.8" d="M259.87,-282.04C245.82,-259.08 228.86,-231.39 218.28,-214.11"/>
<polygon fill="#c8cfdb" stroke="#c8cfdb" stroke-width="0.8" points="219.58,-212.88 215.48,-209.53 216.6,-214.71 219.58,-212.88"/>
</g>
<!-- proj:connectonion -->
<g id="node4" class="node">
<title>proj:connectonion</title>
<g id="a_node4"><a xlink:href="https://github.com/openonion/connectonion" xlink:title="https://github.com/openonion/connectonion">
<polygon fill="#f59e0b" stroke="black" stroke-width="0" points="360.13,-211.03 289.94,-196.53 360.13,-182.03 430.32,-196.53 360.13,-211.03"/>
<text text-anchor="middle" x="360.13" y="-194.33" font-family="Helvetica,sans-Serif" font-size="9.00" fill="#1a1f2c">connectonion</text>
</a>
</g>
</g>
<!-- cat:agent&#45;to&#45;agent&#45;&gt;proj:connectonion -->
<g id="edge3" class="edge">
<title>cat:agent&#45;to&#45;agent&#45;&gt;proj:connectonion</title>
<path fill="none" stroke="#c8cfdb" stroke-width="0.8" d="M308.39,-282.04C322.44,-259.08 339.4,-231.39 349.98,-214.11"/>
<polygon fill="#c8cfdb" stroke="#c8cfdb" stroke-width="0.8" points="351.66,-214.71 352.78,-209.53 348.68,-212.88 351.66,-214.71"/>
</g>
<!-- cat:agent&#45;to&#45;agent/experiments -->
<g id="node5" class="node">
<title>cat:agent&#45;to&#45;agent/experiments</title>
<ellipse fill="#6aa9ff" stroke="black" stroke-width="0" cx="491.13" cy="-196.53" rx="42.65" ry="42.65"/>
<text text-anchor="middle" x="491.13" y="-194.03" font-family="Helvetica,sans-Serif" font-size="10.00" fill="#1a1f2c">Experiments</text>
</g>
<!-- cat:agent&#45;to&#45;agent&#45;&gt;cat:agent&#45;to&#45;agent/experiments -->
<g id="edge4" class="edge">
<title>cat:agent&#45;to&#45;agent&#45;&gt;cat:agent&#45;to&#45;agent/experiments</title>
<path fill="none" stroke="#c8cfdb" stroke-width="0.8" d="M326.81,-301.72C358.65,-286.2 402.75,-263.33 439.13,-239.35 444.27,-235.97 449.51,-232.18 454.6,-228.32"/>
<polygon fill="#c8cfdb" stroke="#c8cfdb" stroke-width="0.8" points="455.94,-229.49 458.83,-225.05 453.8,-226.72 455.94,-229.49"/>
</g>
<!-- cat:agent&#45;to&#45;agent/experiments/voices -->
<g id="node6" class="node">
<title>cat:agent&#45;to&#45;agent/experiments/voices</title>
<ellipse fill="#6aa9ff" stroke="black" stroke-width="0" cx="491.13" cy="-91.35" rx="26.21" ry="26.21"/>
<text text-anchor="middle" x="491.13" y="-88.85" font-family="Helvetica,sans-Serif" font-size="10.00" fill="#1a1f2c">Voices</text>
</g>
<!-- cat:agent&#45;to&#45;agent/experiments&#45;&gt;cat:agent&#45;to&#45;agent/experiments/voices -->
<g id="edge5" class="edge">
<title>cat:agent&#45;to&#45;agent/experiments&#45;&gt;cat:agent&#45;to&#45;agent/experiments/voices</title>
<path fill="none" stroke="#c8cfdb" stroke-width="0.8" d="M491.13,-153.56C491.13,-143.4 491.13,-132.71 491.13,-123.17"/>
<polygon fill="#c8cfdb" stroke="#c8cfdb" stroke-width="0.8" points="492.88,-122.99 491.13,-117.99 489.38,-122.99 492.88,-122.99"/>
</g>
<!-- proj:gibberlink -->
<g id="node7" class="node">
<title>proj:gibberlink</title>
<g id="a_node7"><a xlink:href="https://github.com/PennyroyalTea/gibberlink" xlink:title="https://github.com/PennyroyalTea/gibberlink">
<polygon fill="#f59e0b" stroke="black" stroke-width="0" points="491.13,-29 435.3,-14.5 491.13,0 546.96,-14.5 491.13,-29"/>
<text text-anchor="middle" x="491.13" y="-12.3" font-family="Helvetica,sans-Serif" font-size="9.00" fill="#1a1f2c">gibberlink</text>
</a>
</g>
</g>
<!-- cat:agent&#45;to&#45;agent/experiments/voices&#45;&gt;proj:gibberlink -->
<g id="edge6" class="edge">
<title>cat:agent&#45;to&#45;agent/experiments/voices&#45;&gt;proj:gibberlink</title>
<path fill="none" stroke="#c8cfdb" stroke-width="0.8" d="M491.13,-64.59C491.13,-54.69 491.13,-43.59 491.13,-34.44"/>
<polygon fill="#c8cfdb" stroke="#c8cfdb" stroke-width="0.8" points="492.88,-34.31 491.13,-29.31 489.38,-34.31 492.88,-34.31"/>
</g>
</g>
</svg>
