<?xml version="1.0" encoding="UTF-8" standalone="no"?>
<!DOCTYPE svg PUBLIC "-//W3C//DTD SVG 1.1//EN"
 "http://www.w3.org/Graphics/SVG/1.1/DTD/svg11.dtd">
<!-- Generated by graphviz version 2.42.4 (0)
 -->
<!-- Title: G Pages: 1 -->
<svg width="2351pt" height="750pt"
 viewBox="0.00 0.00 2350.88 750.25" xmlns="http://www.w3.org/2000/svg" xmlns:xlink="http://www.w3.org/1999/xlink">
<g id="graph0" class="graph" transform="scale(1 1) rotate(0) translate(28.8 721.45)">
<title>G</title>
<polygon fill="#f7f8fa" stroke="transparent" points="-28.8,28.8 -28.8,-721.45 2322.08,-721.45 2322.08,28.8 -28.8,28.8"/>
<text text-anchor="middle" x="1146.64" y="-671.05" font-family="Helvetica,sans-Serif" font-size="22.00">Agents</text>
<!-- cat:agents -->
<g id="node1" class="node">
<title>cat:agents</title>
<g id="a_node1"><a xlink:title="General agent projects and agent subtypes that do not fit more specific segments.">
<ellipse fill="#1f6feb" stroke="black" stroke-width="0" cx="1065.84" cy="-599.65" rx="61" ry="61"/>
<text text-anchor="middle" x="1065.84" y="-596.85" font-family="Helvetica,sans-Serif" font-size="11.00" fill="#1a1f2c">Agents</text>
</a>
</g>
</g>
<!-- proj:xataio&#45;agent -->
<g id="node2" class="node">
<title>proj:xataio&#45;agent</title>
<g id="a_node2"><a xlink:href="https://github.com/xataio/agent" xlink:title="https://github.com/xataio/agent">
<polygon fill="#f59e0b" stroke="black" stroke-width="0" points="65.84,-432.6 0.16,-418.1 65.84,-403.6 131.51,-418.1 65.84,-432.6"/>
<text text-anchor="middle" x="65.84" y="-415.9" font-family="Helvetica,sans-Serif" font-size="9.00" fill="#1a1f2c">xataio/agent</text>
</a>
</g>
</g>
<!-- cat:agents&#45;&gt;proj:xataio&#45;agent -->
<g id="edge1" class="edge">
<title>cat:agents&#45;&gt;proj:xataio&#45;agent</title>
<path fill="none" stroke="#c8cfdb" stroke-width="0.8" d="M1004.85,-597.97C823.83,-595.09 292.78,-580.08 140.84,-502.65 111.38,-487.63 88.03,-455.84 75.63,-436.09"/>
<polygon fill="#c8cfdb" stroke="#c8cfdb" stroke-width="0.8" points="76.82,-434.69 72.71,-431.34 73.84,-436.52 76.82,-434.69"/>
</g>
<!-- cat:agents/autonomous -->
<g id="node3" class="node">
<title>cat:agents/autonomous</title>
<ellipse fill="#6aa9ff" stroke="black" stroke-width="0" cx="192.84" cy="-418.1" rx="42.65" ry="42.65"/>
<text text-anchor="middle" x="192.84" y="-415.6" font-family="Helvetica,sans-Serif" font-size="10.00" fill="#1a1f2c">Autonomous</text>
</g>
<!-- cat:agents&#45;&gt;cat:agents/autonomous -->
<g id="edge2" class="edge">
<title>cat:agents&#45;&gt;cat:agents/autonomous</title>
<path fill="none" stroke="#c8cfdb" stroke-width="0.8" d="M1004.77,-598.3C836.47,-596.32 370.05,-583.46 243.84,-502.65 229.18,-493.26 218.09,-478.02 210.05,-463.1"/>
<polygon fill="#c8cfdb" stroke="#c8cfdb" stroke-width="0.8" points="211.52,-462.12 207.66,-458.49 208.41,-463.73 211.52,-462.12"/>
</g>
<!-- cat:agents/autonomous&#45;agent&#45;creation -->
<g id="node6" class="node">
<title>cat:agents/autonomous&#45;agent&#45;creation</title>
<ellipse fill="#6aa9ff" stroke="black" stroke-width="0" cx="337.84" cy="-418.1" rx="84.6" ry="84.6"/>
<text text-anchor="middle" x="337.84" y="-415.6" font-family="Helvetica,sans-Serif" font-size="10.00" fill="#1a1f2c">Autonomous Agent Creation</text>
</g>
<!-- cat:agents&#45;&gt;cat:agents/autonomous&#45;agent&#45;creation -->
<g id="edge5" class="edge">
<title>cat:agents&#45;&gt;cat:agents/autonomous&#45;agent&#45;creation</title>
<path fill="none" stroke="#c8cfdb" stroke-width="0.8" d="M1004.9,-593.86C866.62,-582.28 533.2,-550.17 431.84,-502.65 420.75,-497.45 410.02,-490.53 400.01,-482.87"/>
<polygon fill="#c8cfdb" stroke="#c8cfdb" stroke-width="0.8" points="401.08,-481.49 396.06,-479.79 398.92,-484.25 401.08,-481.49"/>
</g>
<!-- cat:agents/backend&#45;platforms -->
<g id="node8" class="node">
<title>cat:agents/backend&#45;platforms</title>
<ellipse fill="#6aa9ff" stroke="black" stroke-width="0" cx="499.84" cy="-418.1" rx="59.09" ry="59.09"/>
<text text-anchor="middle" x="499.84" y="-415.6" font-family="Helvetica,sans-Serif" font-size="10.00" fill="#1a1f2c">Backend Platforms</text>
</g>
<!-- cat:agents&#45;&gt;cat:agents/backend&#45;platforms -->
<g id="edge7" class="edge">
<title>cat:agents&#45;&gt;cat:agents/backend&#45;platforms</title>
<path fill="none" stroke="#c8cfdb" stroke-width="0.8" d="M1004.95,-592.09C889.12,-578.77 642.05,-546.1 568.84,-502.65 555.9,-494.97 544.31,-483.94 534.5,-472.4"/>
<polygon fill="#c8cfdb" stroke="#c8cfdb" stroke-width="0.8" points="535.77,-471.2 531.23,-468.47 533.08,-473.43 535.77,-471.2"/>
</g>
<!-- cat:agents/clis&#45;toolkits -->
<g id="node10" class="node">
<title>cat:agents/clis&#45;toolkits</title>
<ellipse fill="#6aa9ff" stroke="black" stroke-width="0" cx="619.84" cy="-418.1" rx="42.05" ry="42.05"/>
<text text-anchor="middle" x="619.84" y="-415.6" font-family="Helvetica,sans-Serif" font-size="10.00" fill="#1a1f2c">CLIs/Toolkits</text>
</g>
<!-- cat:agents&#45;&gt;cat:agents/clis&#45;toolkits -->
<g id="edge9" class="edge">
<title>cat:agents&#45;&gt;cat:agents/clis&#45;toolkits</title>
<path fill="none" stroke="#c8cfdb" stroke-width="0.8" d="M1004.67,-597.89C921.51,-593.95 771.58,-576.2 670.84,-502.65 656.78,-492.39 645.81,-476.97 637.7,-462.15"/>
<polygon fill="#c8cfdb" stroke="#c8cfdb" stroke-width="0.8" points="639.17,-461.18 635.28,-457.58 636.08,-462.82 639.17,-461.18"/>
</g>
<!-- cat:agents/computer&#45;use -->
<g id="node13" class="node">
<title>cat:agents/computer&#45;use</title>
<g id="a_node13"><a xlink:title="Agents and frameworks that operate a computer the way a human would (mouse, keyboard, screen).">
<ellipse fill="#6aa9ff" stroke="black" stroke-width="0" cx="726.84" cy="-418.1" rx="47.43" ry="47.43"/>
<text text-anchor="middle" x="726.84" y="-415.6" font-family="Helvetica,sans-Serif" font-size="10.00" fill="#1a1f2c">Computer Use</text>
</a>
</g>
</g>
<!-- cat:agents&#45;&gt;cat:agents/computer&#45;use -->
<g id="edge12" class="edge">
<title>cat:agents&#45;&gt;cat:agents/computer&#45;use</title>
<path fill="none" stroke="#c8cfdb" stroke-width="0.8" d="M1005.52,-589.84C944.28,-578.4 849.25,-553.52 782.84,-502.65 769.88,-492.73 758.93,-478.92 750.23,-465.38"/>
<polygon fill="#c8cfdb" stroke="#c8cfdb" stroke-width="0.8" points="751.51,-464.12 747.37,-460.81 748.54,-465.97 751.51,-464.12"/>
</g>
<!-- cat:agents/development -->
<g id="node15" class="node">
<title>cat:agents/development</title>
<ellipse fill="#6aa9ff" stroke="black" stroke-width="0" cx="837.84" cy="-418.1" rx="45.64" ry="45.64"/>
<text text-anchor="middle" x="837.84" y="-415.6" font-family="Helvetica,sans-Serif" font-size="10.00" fill="#1a1f2c">Development</text>
</g>
<!-- cat:agents&#45;&gt;cat:agents/development -->
<g id="edge14" class="edge">
<title>cat:agents&#45;&gt;cat:agents/development</title>
<path fill="none" stroke="#c8cfdb" stroke-width="0.8" d="M1009.62,-575.9C973.43,-559.33 926.97,-534.29 892.84,-502.65 880.82,-491.51 870.19,-477.24 861.56,-463.65"/>
<polygon fill="#c8cfdb" stroke="#c8cfdb" stroke-width="0.8" points="862.84,-462.39 858.71,-459.07 859.87,-464.24 862.84,-462.39"/>
</g>
<!-- cat:agents/domain&#45;specific -->
<g id="node17" class="node">
<title>cat:agents/domain&#45;specific</title>
<ellipse fill="#6aa9ff" stroke="black" stroke-width="0" cx="953.84" cy="-418.1" rx="52.31" ry="52.31"/>
<text text-anchor="middle" x="953.84" y="-415.6" font-family="Helvetica,sans-Serif" font-size="10.00" fill="#1a1f2c">Domain Specific</text>
</g>
<!-- cat:agents&#45;&gt;cat:agents/domain&#45;specific -->
<g id="edge16" class="edge">
<title>cat:agents&#45;&gt;cat:agents/domain&#45;specific</title>
<path fill="none" stroke="#c8cfdb" stroke-width="0.8" d="M1033.74,-547.2C1018.04,-522.03 999.25,-491.91 983.84,-467.21"/>
<polygon fill="#c8cfdb" stroke="#c8cfdb" stroke-width="0.8" points="985.14,-465.97 981.01,-462.66 982.17,-467.83 985.14,-465.97"/>
</g>
<!-- cat:agents/frameworks -->
<g id="node20" class="node">
<title>cat:agents/frameworks</title>
<g id="a_node20"><a xlink:title="General&#45;purpose frameworks for building agents and agentic applications.">
<ellipse fill="#6aa9ff" stroke="black" stroke-width="0" cx="1065.84" cy="-418.1" rx="42.05" ry="42.05"/>
<text text-anchor="middle" x="1065.84" y="-415.6" font-family="Helvetica,sans-Serif" font-size="10.00" fill="#1a1f2c">Frameworks</text>
</a>
</g>
</g>
<!-- cat:agents&#45;&gt;cat:agents/frameworks -->
<g id="edge19" class="edge">
<title>cat:agents&#45;&gt;cat:agents/frameworks</title>
<path fill="none" stroke="#c8cfdb" stroke-width="0.8" d="M1065.84,-538.36C1065.84,-514.69 1065.84,-487.94 1065.84,-465.78"/>
<polygon fill="#c8cfdb" stroke="#c8cfdb" stroke-width="0.8" points="1067.59,-465.54 1065.84,-460.54 1064.09,-465.54 1067.59,-465.54"/>
</g>
<!-- cat:agents/frontends -->
<g id="node23" class="node">
<title>cat:agents/frontends</title>
<g id="a_node23"><a xlink:title="User&#45;facing interfaces — web, desktop, mobile, terminal — for interacting with agents.">
<ellipse fill="#6aa9ff" stroke="black" stroke-width="0" cx="1171.84" cy="-418.1" rx="35.87" ry="35.87"/>
<text text-anchor="middle" x="1171.84" y="-415.6" font-family="Helvetica,sans-Serif" font-size="10.00" fill="#1a1f2c">Frontends</text>
</a>
</g>
</g>
<!-- cat:agents&#45;&gt;cat:agents/frontends -->
<g id="edge22" class="edge">
<title>cat:agents&#45;&gt;cat:agents/frontends</title>
<path fill="none" stroke="#c8cfdb" stroke-width="0.8" d="M1096.5,-546.72C1114.12,-516.85 1135.79,-480.16 1151.36,-453.79"/>
<polygon fill="#c8cfdb" stroke="#c8cfdb" stroke-width="0.8" points="1152.96,-454.52 1153.99,-449.32 1149.94,-452.74 1152.96,-454.52"/>
</g>
<!-- cat:agents/harnesses -->
<g id="node25" class="node">
<title>cat:agents/harnesses</title>
<g id="a_node25"><a xlink:title="Test harnesses and runner frameworks that host and exercise agents.">
<ellipse fill="#6aa9ff" stroke="black" stroke-width="0" cx="1271.84" cy="-418.1" rx="37.17" ry="37.17"/>
<text text-anchor="middle" x="1271.84" y="-415.6" font-family="Helvetica,sans-Serif" font-size="10.00" fill="#1a1f2c">Harnesses</text>
</a>
</g>
</g>
<!-- cat:agents&#45;&gt;cat:agents/harnesses -->
<g id="edge24" class="edge">
<title>cat:agents&#45;&gt;cat:agents/harnesses</title>
<path fill="none" stroke="#c8cfdb" stroke-width="0.8" d="M1120.08,-571.57C1150.75,-554.54 1188.5,-530.54 1216.84,-502.65 1230.64,-489.06 1242.85,-471.46 1252.24,-455.92"/>
<polygon fill="#c8cfdb" stroke="#c8cfdb" stroke-width="0.8" points="1253.76,-456.78 1254.81,-451.59 1250.75,-455 1253.76,-456.78"/>
</g>
<!-- cat:agents/memory -->
<g id="node31" class="node">
<title>cat:agents/memory</title>
<g id="a_node31"><a xlink:title="Memory systems for agents — short&#45;term, long&#45;term, episodic, file&#45;backed, graph&#45;backed.">
<ellipse fill="#6aa9ff" stroke="black" stroke-width="0" cx="1392.84" cy="-418.1" rx="31.09" ry="31.09"/>
<text text-anchor="middle" x="1392.84" y="-415.6" font-family="Helvetica,sans-Serif" font-size="10.00" fill="#1a1f2c">Memory</text>
</a>
</g>
</g>
<!-- cat:agents&#45;&gt;cat:agents/memory -->
<g id="edge30" class="edge">
<title>cat:agents&#45;&gt;cat:agents/memory</title>
<path fill="none" stroke="#c8cfdb" stroke-width="0.8" d="M1125.14,-584.65C1178.76,-570.08 1258.2,-543.59 1317.84,-502.65 1339.02,-488.1 1358.27,-466.38 1371.97,-448.74"/>
<polygon fill="#c8cfdb" stroke="#c8cfdb" stroke-width="0.8" points="1373.68,-449.38 1375.33,-444.34 1370.9,-447.25 1373.68,-449.38"/>
</g>
<!-- cat:agents/personal&#45;focused -->
<g id="node34" class="node">
<title>cat:agents/personal&#45;focused</title>
<ellipse fill="#6aa9ff" stroke="black" stroke-width="0" cx="1514.84" cy="-418.1" rx="55.4" ry="55.4"/>
<text text-anchor="middle" x="1514.84" y="-415.6" font-family="Helvetica,sans-Serif" font-size="10.00" fill="#1a1f2c">Personal Focused</text>
</g>
<!-- cat:agents&#45;&gt;cat:agents/personal&#45;focused -->
<g id="edge33" class="edge">
<title>cat:agents&#45;&gt;cat:agents/personal&#45;focused</title>
<path fill="none" stroke="#c8cfdb" stroke-width="0.8" d="M1126.46,-592.81C1202.47,-583.33 1334.69,-559.54 1432.84,-502.65 1449.23,-493.15 1464.56,-479.48 1477.42,-465.95"/>
<polygon fill="#c8cfdb" stroke="#c8cfdb" stroke-width="0.8" points="1478.85,-466.99 1480.99,-462.14 1476.29,-464.6 1478.85,-466.99"/>
</g>
<!-- cat:agents/purpose&#45;specific -->
<g id="node36" class="node">
<title>cat:agents/purpose&#45;specific</title>
<ellipse fill="#6aa9ff" stroke="black" stroke-width="0" cx="1647.84" cy="-418.1" rx="51.95" ry="51.95"/>
<text text-anchor="middle" x="1647.84" y="-415.6" font-family="Helvetica,sans-Serif" font-size="10.00" fill="#1a1f2c">Purpose Specific</text>
</g>
<!-- cat:agents&#45;&gt;cat:agents/purpose&#45;specific -->
<g id="edge35" class="edge">
<title>cat:agents&#45;&gt;cat:agents/purpose&#45;specific</title>
<path fill="none" stroke="#c8cfdb" stroke-width="0.8" d="M1126.83,-592.49C1245.58,-579.65 1502.83,-547.46 1578.84,-502.65 1593.82,-493.82 1606.97,-480.47 1617.67,-467.02"/>
<polygon fill="#c8cfdb" stroke="#c8cfdb" stroke-width="0.8" points="1619.23,-467.87 1620.91,-462.85 1616.46,-465.72 1619.23,-467.87"/>
</g>
<!-- cat:agents/team&#45;formation -->
<g id="node40" class="node">
<title>cat:agents/team&#45;formation</title>
<ellipse fill="#6aa9ff" stroke="black" stroke-width="0" cx="1824.84" cy="-418.1" rx="52.31" ry="52.31"/>
<text text-anchor="middle" x="1824.84" y="-415.6" font-family="Helvetica,sans-Serif" font-size="10.00" fill="#1a1f2c">Team Formation</text>
</g>
<!-- cat:agents&#45;&gt;cat:agents/team&#45;formation -->
<g id="edge39" class="edge">
<title>cat:agents&#45;&gt;cat:agents/team&#45;formation</title>
<path fill="none" stroke="#c8cfdb" stroke-width="0.8" d="M1127.29,-598.97C1244.73,-597.56 1507.3,-584.59 1708.84,-502.65 1735.45,-491.82 1761.72,-473.7 1782.51,-457.1"/>
<polygon fill="#c8cfdb" stroke="#c8cfdb" stroke-width="0.8" points="1783.81,-458.3 1786.6,-453.8 1781.61,-455.58 1783.81,-458.3"/>
</g>
<!-- cat:agents/teams -->
<g id="node42" class="node">
<title>cat:agents/teams</title>
<ellipse fill="#6aa9ff" stroke="black" stroke-width="0" cx="1978.84" cy="-418.1" rx="26.21" ry="26.21"/>
<text text-anchor="middle" x="1978.84" y="-415.6" font-family="Helvetica,sans-Serif" font-size="10.00" fill="#1a1f2c">Teams</text>
</g>
<!-- cat:agents&#45;&gt;cat:agents/teams -->
<g id="edge41" class="edge">
<title>cat:agents&#45;&gt;cat:agents/teams</title>
<path fill="none" stroke="#c8cfdb" stroke-width="0.8" d="M1126.88,-596.27C1293.01,-589.06 1749.9,-564.04 1885.84,-502.65 1915.51,-489.25 1942.34,-462.87 1959.47,-443.32"/>
<polygon fill="#c8cfdb" stroke="#c8cfdb" stroke-width="0.8" points="1960.82,-444.43 1962.76,-439.5 1958.17,-442.14 1960.82,-444.43"/>
</g>
<!-- cat:agents/vision -->
<g id="node44" class="node">
<title>cat:agents/vision</title>
<ellipse fill="#6aa9ff" stroke="black" stroke-width="0" cx="2135.84" cy="-418.1" rx="25.61" ry="25.61"/>
<text text-anchor="middle" x="2135.84" y="-415.6" font-family="Helvetica,sans-Serif" font-size="10.00" fill="#1a1f2c">Vision</text>
</g>
<!-- cat:agents&#45;&gt;cat:agents/vision -->
<g id="edge43" class="edge">
<title>cat:agents&#45;&gt;cat:agents/vision</title>
<path fill="none" stroke="#c8cfdb" stroke-width="0.8" d="M1126.92,-596.4C1309.65,-589.07 1849.55,-562.75 2013.84,-502.65 2052.35,-488.56 2090.31,-459.52 2113.4,-439.67"/>
<polygon fill="#c8cfdb" stroke="#c8cfdb" stroke-width="0.8" points="2114.63,-440.92 2117.26,-436.32 2112.34,-438.28 2114.63,-440.92"/>
</g>
<!-- cat:agents/autonomous/trading -->
<g id="node4" class="node">
<title>cat:agents/autonomous/trading</title>
<ellipse fill="#6aa9ff" stroke="black" stroke-width="0" cx="182.84" cy="-237.16" rx="28.6" ry="28.6"/>
<text text-anchor="middle" x="182.84" y="-234.66" font-family="Helvetica,sans-Serif" font-size="10.00" fill="#1a1f2c">Trading</text>
</g>
<!-- cat:agents/autonomous&#45;&gt;cat:agents/autonomous/trading -->
<g id="edge3" class="edge">
<title>cat:agents/autonomous&#45;&gt;cat:agents/autonomous/trading</title>
<path fill="none" stroke="#c8cfdb" stroke-width="0.8" d="M190.49,-375.15C188.72,-343.44 186.32,-300.53 184.68,-271.23"/>
<polygon fill="#c8cfdb" stroke="#c8cfdb" stroke-width="0.8" points="186.41,-270.82 184.39,-265.93 182.92,-271.02 186.41,-270.82"/>
</g>
<!-- proj:ai&#45;trader -->
<g id="node5" class="node">
<title>proj:ai&#45;trader</title>
<g id="a_node5"><a xlink:href="https://github.com/HKUDS/AI-Trader" xlink:title="https://github.com/HKUDS/AI&#45;Trader">
<polygon fill="#f59e0b" stroke="black" stroke-width="0" points="182.84,-117.38 132.33,-102.88 182.84,-88.38 233.34,-102.88 182.84,-117.38"/>
<text text-anchor="middle" x="182.84" y="-100.68" font-family="Helvetica,sans-Serif" font-size="9.00" fill="#1a1f2c">AI&#45;Trader</text>
</a>
</g>
</g>
<!-- cat:agents/autonomous/trading&#45;&gt;proj:ai&#45;trader -->
<g id="edge4" class="edge">
<title>cat:agents/autonomous/trading&#45;&gt;proj:ai&#45;trader</title>
<path fill="none" stroke="#c8cfdb" stroke-width="0.8" d="M182.84,-208.43C182.84,-182.62 182.84,-144.87 182.84,-122.49"/>
<polygon fill="#c8cfdb" stroke="#c8cfdb" stroke-width="0.8" points="184.59,-122.42 182.84,-117.42 181.09,-122.42 184.59,-122.42"/>
</g>
<!-- proj:bankrbot&#45;skills -->
<g id="node7" class="node">
<title>proj:bankrbot&#45;skills</title>
<g id="a_node7"><a xlink:href="https://github.com/BankrBot/skills" xlink:title="https://github.com/BankrBot/skills">
<polygon fill="#f59e0b" stroke="black" stroke-width="0" points="303.84,-251.66 229.93,-237.16 303.84,-222.66 377.74,-237.16 303.84,-251.66"/>
<text text-anchor="middle" x="303.84" y="-234.96" font-family="Helvetica,sans-Serif" font-size="9.00" fill="#1a1f2c">BankrBot/skills</text>
</a>
</g>
</g>
<!-- cat:agents/autonomous&#45;agent&#45;creation&#45;&gt;proj:bankrbot&#45;skills -->
<g id="edge6" class="edge">
<title>cat:agents/autonomous&#45;agent&#45;creation&#45;&gt;proj:bankrbot&#45;skills</title>
<path fill="none" stroke="#c8cfdb" stroke-width="0.8" d="M322.23,-334.96C316.64,-305.57 310.86,-275.11 307.3,-256.4"/>
<polygon fill="#c8cfdb" stroke="#c8cfdb" stroke-width="0.8" points="309.01,-256.03 306.36,-251.44 305.57,-256.68 309.01,-256.03"/>
</g>
<!-- proj:dify -->
<g id="node9" class="node">
<title>proj:dify</title>
<g id="a_node9"><a xlink:href="https://github.com/langgenius/dify" xlink:title="https://github.com/langgenius/dify">
<polygon fill="#f59e0b" stroke="black" stroke-width="0" points="425.84,-251.66 396.31,-237.16 425.84,-222.66 455.36,-237.16 425.84,-251.66"/>
<text text-anchor="middle" x="425.84" y="-234.96" font-family="Helvetica,sans-Serif" font-size="9.00" fill="#1a1f2c">dify</text>
</a>
</g>
</g>
<!-- cat:agents/backend&#45;platforms&#45;&gt;proj:dify -->
<g id="edge8" class="edge">
<title>cat:agents/backend&#45;platforms&#45;&gt;proj:dify</title>
<path fill="none" stroke="#c8cfdb" stroke-width="0.8" d="M477.43,-362.92C462.02,-325.66 442.59,-278.67 432.54,-254.37"/>
<polygon fill="#c8cfdb" stroke="#c8cfdb" stroke-width="0.8" points="434.07,-253.5 430.54,-249.54 430.84,-254.83 434.07,-253.5"/>
</g>
<!-- cat:agents/clis&#45;toolkits/vendor -->
<g id="node11" class="node">
<title>cat:agents/clis&#45;toolkits/vendor</title>
<ellipse fill="#6aa9ff" stroke="black" stroke-width="0" cx="500.84" cy="-237.16" rx="27.4" ry="27.4"/>
<text text-anchor="middle" x="500.84" y="-234.66" font-family="Helvetica,sans-Serif" font-size="10.00" fill="#1a1f2c">Vendor</text>
</g>
<!-- cat:agents/clis&#45;toolkits&#45;&gt;cat:agents/clis&#45;toolkits/vendor -->
<g id="edge10" class="edge">
<title>cat:agents/clis&#45;toolkits&#45;&gt;cat:agents/clis&#45;toolkits/vendor</title>
<path fill="none" stroke="#c8cfdb" stroke-width="0.8" d="M599,-380.93C589.93,-365.93 578.86,-348.56 567.84,-333.55 555.33,-316.54 549.24,-314.64 536.84,-297.55 529.65,-287.65 522.5,-276.27 516.5,-266.13"/>
<polygon fill="#c8cfdb" stroke="#c8cfdb" stroke-width="0.8" points="517.86,-265 513.82,-261.57 514.84,-266.77 517.86,-265"/>
</g>
<!-- proj:qwen&#45;code -->
<g id="node12" class="node">
<title>proj:qwen&#45;code</title>
<g id="a_node12"><a xlink:href="https://github.com/QwenLM/qwen-code" xlink:title="https://github.com/QwenLM/qwen&#45;code">
<polygon fill="#f59e0b" stroke="black" stroke-width="0" points="500.84,-117.38 441.29,-102.88 500.84,-88.38 560.38,-102.88 500.84,-117.38"/>
<text text-anchor="middle" x="500.84" y="-100.68" font-family="Helvetica,sans-Serif" font-size="9.00" fill="#1a1f2c">qwen&#45;code</text>
</a>
</g>
</g>
<!-- cat:agents/clis&#45;toolkits/vendor&#45;&gt;proj:qwen&#45;code -->
<g id="edge11" class="edge">
<title>cat:agents/clis&#45;toolkits/vendor&#45;&gt;proj:qwen&#45;code</title>
<path fill="none" stroke="#c8cfdb" stroke-width="0.8" d="M500.84,-209.39C500.84,-183.67 500.84,-145.46 500.84,-122.78"/>
<polygon fill="#c8cfdb" stroke="#c8cfdb" stroke-width="0.8" points="502.59,-122.63 500.84,-117.63 499.09,-122.63 502.59,-122.63"/>
</g>
<!-- proj:open&#45;computer&#45;use -->
<g id="node14" class="node">
<title>proj:open&#45;computer&#45;use</title>
<g id="a_node14"><a xlink:href="https://github.com/coasty-ai/open-computer-use" xlink:title="https://github.com/coasty&#45;ai/open&#45;computer&#45;use">
<polygon fill="#f59e0b" stroke="black" stroke-width="0" points="639.84,-251.66 546.25,-237.16 639.84,-222.66 733.42,-237.16 639.84,-251.66"/>
<text text-anchor="middle" x="639.84" y="-234.96" font-family="Helvetica,sans-Serif" font-size="9.00" fill="#1a1f2c">open&#45;computer&#45;use</text>
</a>
</g>
</g>
<!-- cat:agents/computer&#45;use&#45;&gt;proj:open&#45;computer&#45;use -->
<g id="edge13" class="edge">
<title>cat:agents/computer&#45;use&#45;&gt;proj:open&#45;computer&#45;use</title>
<path fill="none" stroke="#c8cfdb" stroke-width="0.8" d="M706.44,-375.15C688,-337.22 661.76,-283.24 648.38,-255.74"/>
<polygon fill="#c8cfdb" stroke="#c8cfdb" stroke-width="0.8" points="649.8,-254.65 646.04,-250.92 646.65,-256.18 649.8,-254.65"/>
</g>
<!-- proj:openhands -->
<g id="node16" class="node">
<title>proj:openhands</title>
<g id="a_node16"><a xlink:href="https://github.com/OpenHands/OpenHands" xlink:title="https://github.com/OpenHands/OpenHands">
<polygon fill="#f59e0b" stroke="black" stroke-width="0" points="813.84,-251.66 751.38,-237.16 813.84,-222.66 876.29,-237.16 813.84,-251.66"/>
<text text-anchor="middle" x="813.84" y="-234.96" font-family="Helvetica,sans-Serif" font-size="9.00" fill="#1a1f2c">OpenHands</text>
</a>
</g>
</g>
<!-- cat:agents/development&#45;&gt;proj:openhands -->
<g id="edge15" class="edge">
<title>cat:agents/development&#45;&gt;proj:openhands</title>
<path fill="none" stroke="#c8cfdb" stroke-width="0.8" d="M831.9,-372.87C826.88,-335.41 819.93,-283.61 816.29,-256.45"/>
<polygon fill="#c8cfdb" stroke="#c8cfdb" stroke-width="0.8" points="818.01,-256.08 815.61,-251.36 814.54,-256.55 818.01,-256.08"/>
</g>
<!-- cat:agents/domain&#45;specific/biotech -->
<g id="node18" class="node">
<title>cat:agents/domain&#45;specific/biotech</title>
<ellipse fill="#6aa9ff" stroke="black" stroke-width="0" cx="922.84" cy="-237.16" rx="29.2" ry="29.2"/>
<text text-anchor="middle" x="922.84" y="-234.66" font-family="Helvetica,sans-Serif" font-size="10.00" fill="#1a1f2c">Biotech</text>
</g>
<!-- cat:agents/domain&#45;specific&#45;&gt;cat:agents/domain&#45;specific/biotech -->
<g id="edge17" class="edge">
<title>cat:agents/domain&#45;specific&#45;&gt;cat:agents/domain&#45;specific/biotech</title>
<path fill="none" stroke="#c8cfdb" stroke-width="0.8" d="M945.04,-366.3C939.75,-335.79 933.18,-297.84 928.56,-271.19"/>
<polygon fill="#c8cfdb" stroke="#c8cfdb" stroke-width="0.8" points="930.24,-270.64 927.66,-266.02 926.79,-271.24 930.24,-270.64"/>
</g>
<!-- proj:biomni -->
<g id="node19" class="node">
<title>proj:biomni</title>
<g id="a_node19"><a xlink:href="https://github.com/snap-stanford/Biomni" xlink:title="https://github.com/snap&#45;stanford/Biomni">
<polygon fill="#f59e0b" stroke="black" stroke-width="0" points="900.84,-117.38 858.56,-102.88 900.84,-88.38 943.11,-102.88 900.84,-117.38"/>
<text text-anchor="middle" x="900.84" y="-100.68" font-family="Helvetica,sans-Serif" font-size="9.00" fill="#1a1f2c">Biomni</text>
</a>
</g>
</g>
<!-- cat:agents/domain&#45;specific/biotech&#45;&gt;proj:biomni -->
<g id="edge18" class="edge">
<title>cat:agents/domain&#45;specific/biotech&#45;&gt;proj:biomni</title>
<path fill="none" stroke="#c8cfdb" stroke-width="0.8" d="M918.17,-208.11C913.83,-181.99 907.48,-143.85 903.8,-121.68"/>
<polygon fill="#c8cfdb" stroke="#c8cfdb" stroke-width="0.8" points="905.51,-121.32 902.96,-116.67 902.06,-121.89 905.51,-121.32"/>
</g>
<!-- cat:agents/frameworks/open&#45;source -->
<g id="node21" class="node">
<title>cat:agents/frameworks/open&#45;source</title>
<ellipse fill="#6aa9ff" stroke="black" stroke-width="0" cx="1012.84" cy="-237.16" rx="42.65" ry="42.65"/>
<text text-anchor="middle" x="1012.84" y="-234.66" font-family="Helvetica,sans-Serif" font-size="10.00" fill="#1a1f2c">Open Source</text>
</g>
<!-- cat:agents/frameworks&#45;&gt;cat:agents/frameworks/open&#45;source -->
<g id="edge20" class="edge">
<title>cat:agents/frameworks&#45;&gt;cat:agents/frameworks/open&#45;source</title>
<path fill="none" stroke="#c8cfdb" stroke-width="0.8" d="M1054.07,-377.39C1045.83,-349.55 1034.79,-312.29 1026.21,-283.32"/>
<polygon fill="#c8cfdb" stroke="#c8cfdb" stroke-width="0.8" points="1027.85,-282.68 1024.75,-278.38 1024.49,-283.67 1027.85,-282.68"/>
</g>
<!-- proj:hermes&#45;agent -->
<g id="node22" class="node">
<title>proj:hermes&#45;agent</title>
<g id="a_node22"><a xlink:href="https://github.com/NousResearch/hermes-agent" xlink:title="https://github.com/NousResearch/hermes&#45;agent">
<polygon fill="#f59e0b" stroke="black" stroke-width="0" points="1033.84,-117.38 961.54,-102.88 1033.84,-88.38 1106.13,-102.88 1033.84,-117.38"/>
<text text-anchor="middle" x="1033.84" y="-100.68" font-family="Helvetica,sans-Serif" font-size="9.00" fill="#1a1f2c">hermes&#45;agent</text>
</a>
</g>
</g>
<!-- cat:agents/frameworks/open&#45;source&#45;&gt;proj:hermes&#45;agent -->
<g id="edge21" class="edge">
<title>cat:agents/frameworks/open&#45;source&#45;&gt;proj:hermes&#45;agent</title>
<path fill="none" stroke="#c8cfdb" stroke-width="0.8" d="M1019.42,-194.67C1023.29,-170.29 1027.99,-140.7 1030.95,-122.07"/>
<polygon fill="#c8cfdb" stroke="#c8cfdb" stroke-width="0.8" points="1032.68,-122.34 1031.73,-117.13 1029.22,-121.79 1032.68,-122.34"/>
</g>
<!-- proj:openclaw&#45;mission&#45;control -->
<g id="node24" class="node">
<title>proj:openclaw&#45;mission&#45;control</title>
<g id="a_node24"><a xlink:href="https://github.com/abhi1693/openclaw-mission-control" xlink:title="https://github.com/abhi1693/openclaw&#45;mission&#45;control">
<polygon fill="#f59e0b" stroke="black" stroke-width="0" points="1191.84,-251.66 1073.55,-237.16 1191.84,-222.66 1310.12,-237.16 1191.84,-251.66"/>
<text text-anchor="middle" x="1191.84" y="-234.96" font-family="Helvetica,sans-Serif" font-size="9.00" fill="#1a1f2c">openclaw&#45;mission&#45;control</text>
</a>
</g>
</g>
<!-- cat:agents/frontends&#45;&gt;proj:openclaw&#45;mission&#45;control -->
<g id="edge23" class="edge">
<title>cat:agents/frontends&#45;&gt;proj:openclaw&#45;mission&#45;control</title>
<path fill="none" stroke="#c8cfdb" stroke-width="0.8" d="M1175.69,-382.6C1179.88,-345.12 1186.42,-286.63 1189.74,-256.89"/>
<polygon fill="#c8cfdb" stroke="#c8cfdb" stroke-width="0.8" points="1191.51,-256.84 1190.32,-251.68 1188.03,-256.46 1191.51,-256.84"/>
</g>
<!-- cat:agents/harnesses/clis -->
<g id="node26" class="node">
<title>cat:agents/harnesses/clis</title>
<ellipse fill="#6aa9ff" stroke="black" stroke-width="0" cx="1353.84" cy="-237.16" rx="25.5" ry="25.5"/>
<text text-anchor="middle" x="1353.84" y="-234.66" font-family="Helvetica,sans-Serif" font-size="10.00" fill="#1a1f2c">CLIs</text>
</g>
<!-- cat:agents/harnesses&#45;&gt;cat:agents/harnesses/clis -->
<g id="edge25" class="edge">
<title>cat:agents/harnesses&#45;&gt;cat:agents/harnesses/clis</title>
<path fill="none" stroke="#c8cfdb" stroke-width="0.8" d="M1287.07,-383.86C1302.67,-349.8 1326.66,-297.46 1341.23,-265.66"/>
<polygon fill="#c8cfdb" stroke="#c8cfdb" stroke-width="0.8" points="1343,-266.01 1343.49,-260.73 1339.82,-264.55 1343,-266.01"/>
</g>
<!-- cat:agents/harnesses/clis/third&#45;party -->
<g id="node27" class="node">
<title>cat:agents/harnesses/clis/third&#45;party</title>
<ellipse fill="#6aa9ff" stroke="black" stroke-width="0" cx="1257.84" cy="-102.88" rx="37.77" ry="37.77"/>
<text text-anchor="middle" x="1257.84" y="-100.38" font-family="Helvetica,sans-Serif" font-size="10.00" fill="#1a1f2c">Third Party</text>
</g>
<!-- cat:agents/harnesses/clis&#45;&gt;cat:agents/harnesses/clis/third&#45;party -->
<g id="edge26" class="edge">
<title>cat:agents/harnesses/clis&#45;&gt;cat:agents/harnesses/clis/third&#45;party</title>
<path fill="none" stroke="#c8cfdb" stroke-width="0.8" d="M1342.19,-214.46C1335.74,-202.97 1327.33,-188.79 1318.84,-176.76 1308.92,-162.72 1296.97,-148.03 1286.28,-135.55"/>
<polygon fill="#c8cfdb" stroke="#c8cfdb" stroke-width="0.8" points="1287.6,-134.39 1283.01,-131.75 1284.94,-136.68 1287.6,-134.39"/>
</g>
<!-- cat:agents/harnesses/clis/vendor -->
<g id="node29" class="node">
<title>cat:agents/harnesses/clis/vendor</title>
<ellipse fill="#6aa9ff" stroke="black" stroke-width="0" cx="1353.84" cy="-102.88" rx="27.4" ry="27.4"/>
<text text-anchor="middle" x="1353.84" y="-100.38" font-family="Helvetica,sans-Serif" font-size="10.00" fill="#1a1f2c">Vendor</text>
</g>
<!-- cat:agents/harnesses/clis&#45;&gt;cat:agents/harnesses/clis/vendor -->
<g id="edge28" class="edge">
<title>cat:agents/harnesses/clis&#45;&gt;cat:agents/harnesses/clis/vendor</title>
<path fill="none" stroke="#c8cfdb" stroke-width="0.8" d="M1353.84,-211.59C1353.84,-190.19 1353.84,-159.04 1353.84,-135.74"/>
<polygon fill="#c8cfdb" stroke="#c8cfdb" stroke-width="0.8" points="1355.59,-135.59 1353.84,-130.59 1352.09,-135.59 1355.59,-135.59"/>
</g>
<!-- proj:crush -->
<g id="node28" class="node">
<title>proj:crush</title>
<g id="a_node28"><a xlink:href="https://github.com/charmbracelet/crush" xlink:title="https://github.com/charmbracelet/crush">
<polygon fill="#f59e0b" stroke="black" stroke-width="0" points="1250.84,-29 1213.08,-14.5 1250.84,0 1288.59,-14.5 1250.84,-29"/>
<text text-anchor="middle" x="1250.84" y="-12.3" font-family="Helvetica,sans-Serif" font-size="9.00" fill="#1a1f2c">crush</text>
</a>
</g>
</g>
<!-- cat:agents/harnesses/clis/third&#45;party&#45;&gt;proj:crush -->
<g id="edge27" class="edge">
<title>cat:agents/harnesses/clis/third&#45;party&#45;&gt;proj:crush</title>
<path fill="none" stroke="#c8cfdb" stroke-width="0.8" d="M1254.85,-65C1253.98,-54.26 1253.06,-43 1252.33,-33.93"/>
<polygon fill="#c8cfdb" stroke="#c8cfdb" stroke-width="0.8" points="1254.07,-33.71 1251.92,-28.87 1250.58,-34 1254.07,-33.71"/>
</g>
<!-- proj:gemini&#45;cli -->
<g id="node30" class="node">
<title>proj:gemini&#45;cli</title>
<g id="a_node30"><a xlink:href="https://github.com/google-gemini/gemini-cli" xlink:title="https://github.com/google&#45;gemini/gemini&#45;cli">
<polygon fill="#f59e0b" stroke="black" stroke-width="0" points="1360.84,-29 1306.61,-14.5 1360.84,0 1415.06,-14.5 1360.84,-29"/>
<text text-anchor="middle" x="1360.84" y="-12.3" font-family="Helvetica,sans-Serif" font-size="9.00" fill="#1a1f2c">gemini&#45;cli</text>
</a>
</g>
</g>
<!-- cat:agents/harnesses/clis/vendor&#45;&gt;proj:gemini&#45;cli -->
<g id="edge29" class="edge">
<title>cat:agents/harnesses/clis/vendor&#45;&gt;proj:gemini&#45;cli</title>
<path fill="none" stroke="#c8cfdb" stroke-width="0.8" d="M1355.97,-75.5C1357.06,-62.07 1358.36,-46.08 1359.34,-33.99"/>
<polygon fill="#c8cfdb" stroke="#c8cfdb" stroke-width="0.8" points="1361.1,-33.85 1359.76,-28.73 1357.62,-33.57 1361.1,-33.85"/>
</g>
<!-- cat:agents/memory/graph&#45;builders -->
<g id="node32" class="node">
<title>cat:agents/memory/graph&#45;builders</title>
<ellipse fill="#6aa9ff" stroke="black" stroke-width="0" cx="1445.84" cy="-237.16" rx="48.73" ry="48.73"/>
<text text-anchor="middle" x="1445.84" y="-234.66" font-family="Helvetica,sans-Serif" font-size="10.00" fill="#1a1f2c">Graph Builders</text>
</g>
<!-- cat:agents/memory&#45;&gt;cat:agents/memory/graph&#45;builders -->
<g id="edge31" class="edge">
<title>cat:agents/memory&#45;&gt;cat:agents/memory/graph&#45;builders</title>
<path fill="none" stroke="#c8cfdb" stroke-width="0.8" d="M1401.47,-387.95C1409.35,-361.35 1421.17,-321.43 1430.63,-289.48"/>
<polygon fill="#c8cfdb" stroke="#c8cfdb" stroke-width="0.8" points="1432.39,-289.72 1432.13,-284.43 1429.03,-288.73 1432.39,-289.72"/>
</g>
<!-- proj:graphiti -->
<g id="node33" class="node">
<title>proj:graphiti</title>
<g id="a_node33"><a xlink:href="https://github.com/getzep/graphiti" xlink:title="https://github.com/getzep/graphiti">
<polygon fill="#f59e0b" stroke="black" stroke-width="0" points="1445.84,-117.38 1399.04,-102.88 1445.84,-88.38 1492.63,-102.88 1445.84,-117.38"/>
<text text-anchor="middle" x="1445.84" y="-100.68" font-family="Helvetica,sans-Serif" font-size="9.00" fill="#1a1f2c">graphiti</text>
</a>
</g>
</g>
<!-- cat:agents/memory/graph&#45;builders&#45;&gt;proj:graphiti -->
<g id="edge32" class="edge">
<title>cat:agents/memory/graph&#45;builders&#45;&gt;proj:graphiti</title>
<path fill="none" stroke="#c8cfdb" stroke-width="0.8" d="M1445.84,-188.03C1445.84,-165.46 1445.84,-139.87 1445.84,-122.9"/>
<polygon fill="#c8cfdb" stroke="#c8cfdb" stroke-width="0.8" points="1447.59,-122.49 1445.84,-117.49 1444.09,-122.49 1447.59,-122.49"/>
</g>
<!-- proj:crucix -->
<g id="node35" class="node">
<title>proj:crucix</title>
<g id="a_node35"><a xlink:href="https://github.com/calesthio/Crucix" xlink:title="https://github.com/calesthio/Crucix">
<polygon fill="#f59e0b" stroke="black" stroke-width="0" points="1552.84,-251.66 1512.17,-237.16 1552.84,-222.66 1593.5,-237.16 1552.84,-251.66"/>
<text text-anchor="middle" x="1552.84" y="-234.96" font-family="Helvetica,sans-Serif" font-size="9.00" fill="#1a1f2c">Crucix</text>
</a>
</g>
</g>
<!-- cat:agents/personal&#45;focused&#45;&gt;proj:crucix -->
<g id="edge34" class="edge">
<title>cat:agents/personal&#45;focused&#45;&gt;proj:crucix</title>
<path fill="none" stroke="#c8cfdb" stroke-width="0.8" d="M1526.24,-363.41C1533.99,-326.89 1543.77,-280.84 1549.05,-256.01"/>
<polygon fill="#c8cfdb" stroke="#c8cfdb" stroke-width="0.8" points="1550.77,-256.29 1550.1,-251.04 1547.35,-255.57 1550.77,-256.29"/>
</g>
<!-- proj:inkos -->
<g id="node37" class="node">
<title>proj:inkos</title>
<g id="a_node37"><a xlink:href="https://github.com/Narcooo/inkos" xlink:title="https://github.com/Narcooo/inkos">
<polygon fill="#f59e0b" stroke="black" stroke-width="0" points="1647.84,-251.66 1611.69,-237.16 1647.84,-222.66 1683.98,-237.16 1647.84,-251.66"/>
<text text-anchor="middle" x="1647.84" y="-234.96" font-family="Helvetica,sans-Serif" font-size="9.00" fill="#1a1f2c">inkos</text>
</a>
</g>
</g>
<!-- cat:agents/purpose&#45;specific&#45;&gt;proj:inkos -->
<g id="edge36" class="edge">
<title>cat:agents/purpose&#45;specific&#45;&gt;proj:inkos</title>
<path fill="none" stroke="#c8cfdb" stroke-width="0.8" d="M1647.84,-366.3C1647.84,-329.84 1647.84,-282.76 1647.84,-257.03"/>
<polygon fill="#c8cfdb" stroke="#c8cfdb" stroke-width="0.8" points="1649.59,-256.87 1647.84,-251.87 1646.09,-256.87 1649.59,-256.87"/>
</g>
<!-- cat:agents/purpose&#45;specific/penetration&#45;testing -->
<g id="node38" class="node">
<title>cat:agents/purpose&#45;specific/penetration&#45;testing</title>
<ellipse fill="#6aa9ff" stroke="black" stroke-width="0" cx="1761.84" cy="-237.16" rx="60.28" ry="60.28"/>
<text text-anchor="middle" x="1761.84" y="-234.66" font-family="Helvetica,sans-Serif" font-size="10.00" fill="#1a1f2c">Penetration Testing</text>
</g>
<!-- cat:agents/purpose&#45;specific&#45;&gt;cat:agents/purpose&#45;specific/penetration&#45;testing -->
<g id="edge37" class="edge">
<title>cat:agents/purpose&#45;specific&#45;&gt;cat:agents/purpose&#45;specific/penetration&#45;testing</title>
<path fill="none" stroke="#c8cfdb" stroke-width="0.8" d="M1675.43,-373.78C1690.88,-349.53 1710.3,-319.06 1726.81,-293.14"/>
<polygon fill="#c8cfdb" stroke="#c8cfdb" stroke-width="0.8" points="1728.43,-293.84 1729.64,-288.69 1725.48,-291.96 1728.43,-293.84"/>
</g>
<!-- proj:pentagi -->
<g id="node39" class="node">
<title>proj:pentagi</title>
<g id="a_node39"><a xlink:href="https://github.com/vxcontrol/pentagi" xlink:title="https://github.com/vxcontrol/pentagi">
<polygon fill="#f59e0b" stroke="black" stroke-width="0" points="1761.84,-117.38 1715.85,-102.88 1761.84,-88.38 1807.82,-102.88 1761.84,-117.38"/>
<text text-anchor="middle" x="1761.84" y="-100.68" font-family="Helvetica,sans-Serif" font-size="9.00" fill="#1a1f2c">pentagi</text>
</a>
</g>
</g>
<!-- cat:agents/purpose&#45;specific/penetration&#45;testing&#45;&gt;proj:pentagi -->
<g id="edge38" class="edge">
<title>cat:agents/purpose&#45;specific/penetration&#45;testing&#45;&gt;proj:pentagi</title>
<path fill="none" stroke="#c8cfdb" stroke-width="0.8" d="M1761.84,-176.6C1761.84,-157.23 1761.84,-137.09 1761.84,-122.94"/>
<polygon fill="#c8cfdb" stroke="#c8cfdb" stroke-width="0.8" points="1763.59,-122.63 1761.84,-117.63 1760.09,-122.63 1763.59,-122.63"/>
</g>
<!-- proj:squad -->
<g id="node41" class="node">
<title>proj:squad</title>
<g id="a_node41"><a xlink:href="https://github.com/bradygaster/squad" xlink:title="https://github.com/bradygaster/squad">
<polygon fill="#f59e0b" stroke="black" stroke-width="0" points="1879.84,-251.66 1839.97,-237.16 1879.84,-222.66 1919.7,-237.16 1879.84,-251.66"/>
<text text-anchor="middle" x="1879.84" y="-234.96" font-family="Helvetica,sans-Serif" font-size="9.00" fill="#1a1f2c">squad</text>
</a>
</g>
</g>
<!-- cat:agents/team&#45;formation&#45;&gt;proj:squad -->
<g id="edge40" class="edge">
<title>cat:agents/team&#45;formation&#45;&gt;proj:squad</title>
<path fill="none" stroke="#c8cfdb" stroke-width="0.8" d="M1840.01,-367.73C1851.52,-330.29 1866.65,-281.05 1874.54,-255.39"/>
<polygon fill="#c8cfdb" stroke="#c8cfdb" stroke-width="0.8" points="1876.22,-255.87 1876.02,-250.58 1872.88,-254.85 1876.22,-255.87"/>
</g>
<!-- proj:ai&#45;data&#45;science&#45;team -->
<g id="node43" class="node">
<title>proj:ai&#45;data&#45;science&#45;team</title>
<g id="a_node43"><a xlink:href="https://github.com/business-science/ai-data-science-team" xlink:title="https://github.com/business&#45;science/ai&#45;data&#45;science&#45;team">
<polygon fill="#f59e0b" stroke="black" stroke-width="0" points="2036.84,-251.66 1937.43,-237.16 2036.84,-222.66 2136.24,-237.16 2036.84,-251.66"/>
<text text-anchor="middle" x="2036.84" y="-234.96" font-family="Helvetica,sans-Serif" font-size="9.00" fill="#1a1f2c">ai&#45;data&#45;science&#45;team</text>
</a>
</g>
</g>
<!-- cat:agents/teams&#45;&gt;proj:ai&#45;data&#45;science&#45;team -->
<g id="edge42" class="edge">
<title>cat:agents/teams&#45;&gt;proj:ai&#45;data&#45;science&#45;team</title>
<path fill="none" stroke="#c8cfdb" stroke-width="0.8" d="M1986.78,-392.59C1998.62,-356.07 2020.61,-288.21 2031.05,-256"/>
<polygon fill="#c8cfdb" stroke="#c8cfdb" stroke-width="0.8" points="2032.75,-256.45 2032.62,-251.15 2029.42,-255.37 2032.75,-256.45"/>
</g>
<!-- proj:vision&#45;agents -->
<g id="node45" class="node">
<title>proj:vision&#45;agents</title>
<g id="a_node45"><a xlink:href="https://github.com/GetStream/Vision-Agents" xlink:title="https://github.com/GetStream/Vision&#45;Agents">
<polygon fill="#f59e0b" stroke="black" stroke-width="0" points="2223.84,-251.66 2154.45,-237.16 2223.84,-222.66 2293.22,-237.16 2223.84,-251.66"/>
<text text-anchor="middle" x="2223.84" y="-234.96" font-family="Helvetica,sans-Serif" font-size="9.00" fill="#1a1f2c">Vision&#45;Agents</text>
</a>
</g>
</g>
<!-- cat:agents/vision&#45;&gt;proj:vision&#45;agents -->
<g id="edge44" class="edge">
<title>cat:agents/vision&#45;&gt;proj:vision&#45;agents</title>
<path fill="none" stroke="#c8cfdb" stroke-width="0.8" d="M2146.98,-394.44C2164.8,-358.19 2199.34,-287.97 2215.33,-255.45"/>
<polygon fill="#c8cfdb" stroke="#c8cfdb" stroke-width="0.8" points="2217.1,-255.83 2217.73,-250.57 2213.95,-254.28 2217.1,-255.83"/>
</g>
</g>
</svg>
