<?xml version="1.0" encoding="UTF-8" standalone="no"?>
<!DOCTYPE svg PUBLIC "-//W3C//DTD SVG 1.1//EN"
 "http://www.w3.org/Graphics/SVG/1.1/DTD/svg11.dtd">
<!-- Generated by graphviz version 2.42.4 (0)
 -->
<!-- Title: G Pages: 1 -->
<svg width="409pt" height="339pt"
 viewBox="0.00 0.00 409.44 338.66" xmlns="http://www.w3.org/2000/svg" xmlns:xlink="http://www.w3.org/1999/xlink">
<g id="graph0" class="graph" transform="scale(1 1) rotate(0) translate(28.8 309.86)">
<title>G</title>
<polygon fill="#f7f8fa" stroke="transparent" points="-28.8,28.8 -28.8,-309.86 380.64,-309.86 380.64,28.8 -28.8,28.8"/>
<text text-anchor="middle" x="175.92" y="-259.46" font-family="Helvetica,sans-Serif" font-size="22.00">AI Browsers</text>
<!-- cat:ai&#45;browsers -->
<g id="node1" class="node">
<title>cat:ai&#45;browsers</title>
<g id="a_node1"><a xlink:title="Browsers built or adapted specifically for AI agent use, including headless variants optimised for programmatic navigation.">
<ellipse fill="#6aa9ff" stroke="black" stroke-width="0" cx="134.5" cy="-208.44" rx="40.76" ry="40.76"/>
<text text-anchor="middle" x="134.5" y="-205.94" font-family="Helvetica,sans-Serif" font-size="10.00" fill="#1a1f2c">AI Browsers</text>
</a>
</g>
</g>
<!-- proj:browseros -->
<g id="node2" class="node">
<title>proj:browseros</title>
<g id="a_node2"><a xlink:href="https://github.com/browseros-ai/BrowserOS" xlink:title="https://github.com/browseros&#45;ai/BrowserOS">
<polygon fill="#f59e0b" stroke="black" stroke-width="0" points="79.5,-112.9 20.76,-98.4 79.5,-83.9 138.24,-98.4 79.5,-112.9"/>
<text text-anchor="middle" x="79.5" y="-96.2" font-family="Helvetica,sans-Serif" font-size="9.00" fill="#1a1f2c">BrowserOS</text>
</a>
</g>
</g>
<!-- cat:ai&#45;browsers&#45;&gt;proj:browseros -->
<g id="edge1" class="edge">
<title>cat:ai&#45;browsers&#45;&gt;proj:browseros</title>
<path fill="none" stroke="#c8cfdb" stroke-width="0.8" d="M116.34,-171.76C106.84,-153.1 95.65,-131.12 88.11,-116.33"/>
<polygon fill="#c8cfdb" stroke="#c8cfdb" stroke-width="0.8" points="89.53,-115.26 85.71,-111.6 86.42,-116.85 89.53,-115.26"/>
</g>
<!-- cat:ai&#45;browsers/headless -->
<g id="node3" class="node">
<title>cat:ai&#45;browsers/headless</title>
<ellipse fill="#6aa9ff" stroke="black" stroke-width="0" cx="189.5" cy="-98.4" rx="33.31" ry="33.31"/>
<text text-anchor="middle" x="189.5" y="-95.9" font-family="Helvetica,sans-Serif" font-size="10.00" fill="#1a1f2c">Headless</text>
</g>
<!-- cat:ai&#45;browsers&#45;&gt;cat:ai&#45;browsers/headless -->
<g id="edge2" class="edge">
<title>cat:ai&#45;browsers&#45;&gt;cat:ai&#45;browsers/headless</title>
<path fill="none" stroke="#c8cfdb" stroke-width="0.8" d="M152.66,-171.76C158.96,-159.39 166,-145.57 172.22,-133.34"/>
<polygon fill="#c8cfdb" stroke="#c8cfdb" stroke-width="0.8" points="173.95,-133.81 174.65,-128.56 170.83,-132.22 173.95,-133.81"/>
</g>
<!-- proj:lightpanda&#45;browser -->
<g id="node4" class="node">
<title>proj:lightpanda&#45;browser</title>
<g id="a_node4"><a xlink:href="https://github.com/lightpanda-io/browser" xlink:title="https://github.com/lightpanda&#45;io/browser">
<polygon fill="#f59e0b" stroke="black" stroke-width="0" points="96.5,-29 0,-14.5 96.5,0 193,-14.5 96.5,-29"/>
<text text-anchor="middle" x="96.5" y="-12.3" font-family="Helvetica,sans-Serif" font-size="9.00" fill="#1a1f2c">Lightpanda Browser</text>
</a>
</g>
</g>
<!-- cat:ai&#45;browsers/headless&#45;&gt;proj:lightpanda&#45;browser -->
<g id="edge3" class="edge">
<title>cat:ai&#45;browsers/headless&#45;&gt;proj:lightpanda&#45;browser</title>
<path fill="none" stroke="#c8cfdb" stroke-width="0.8" d="M164.58,-75.46C148.45,-61.25 127.86,-43.12 113.57,-30.54"/>
<polygon fill="#c8cfdb" stroke="#c8cfdb" stroke-width="0.8" points="114.63,-29.13 109.72,-27.14 112.31,-31.76 114.63,-29.13"/>
</g>
<!-- proj:steel&#45;browser -->
<g id="node5" class="node">
<title>proj:steel&#45;browser</title>
<g id="a_node5"><a xlink:href="https://github.com/steel-dev/steel-browser" xlink:title="https://github.com/steel&#45;dev/steel&#45;browser">
<polygon fill="#f59e0b" stroke="black" stroke-width="0" points="281.5,-29 211.31,-14.5 281.5,0 351.69,-14.5 281.5,-29"/>
<text text-anchor="middle" x="281.5" y="-12.3" font-family="Helvetica,sans-Serif" font-size="9.00" fill="#1a1f2c">Steel Browser</text>
</a>
</g>
</g>
<!-- cat:ai&#45;browsers/headless&#45;&gt;proj:steel&#45;browser -->
<g id="edge4" class="edge">
<title>cat:ai&#45;browsers/headless&#45;&gt;proj:steel&#45;browser</title>
<path fill="none" stroke="#c8cfdb" stroke-width="0.8" d="M214.15,-75.46C230.4,-60.99 251.22,-42.46 265.38,-29.85"/>
<polygon fill="#c8cfdb" stroke="#c8cfdb" stroke-width="0.8" points="266.61,-31.09 269.19,-26.46 264.29,-28.48 266.61,-31.09"/>
</g>
</g>
</svg>
