<?xml version="1.0" encoding="UTF-8" standalone="no"?>
<!DOCTYPE svg PUBLIC "-//W3C//DTD SVG 1.1//EN"
 "http://www.w3.org/Graphics/SVG/1.1/DTD/svg11.dtd">
<!-- Generated by graphviz version 2.42.4 (0)
 -->
<!-- Title: G Pages: 1 -->
<svg width="296pt" height="469pt"
 viewBox="0.00 0.00 295.63 469.03" xmlns="http://www.w3.org/2000/svg" xmlns:xlink="http://www.w3.org/1999/xlink">
<g id="graph0" class="graph" transform="scale(1 1) rotate(0) translate(28.8 440.23)">
<title>G</title>
<polygon fill="#f7f8fa" stroke="transparent" points="-28.8,28.8 -28.8,-440.23 266.83,-440.23 266.83,28.8 -28.8,28.8"/>
<text text-anchor="middle" x="119.01" y="-389.83" font-family="Helvetica,sans-Serif" font-size="22.00">Automation</text>
<!-- cat:automation -->
<g id="node1" class="node">
<title>cat:automation</title>
<g id="a_node1"><a xlink:title="General&#45;purpose automation tools and frameworks, including GUI&#45;driven and script&#45;driven flows.">
<ellipse fill="#6aa9ff" stroke="black" stroke-width="0" cx="129.84" cy="-337.68" rx="41.51" ry="41.51"/>
<text text-anchor="middle" x="129.84" y="-335.18" font-family="Helvetica,sans-Serif" font-size="10.00" fill="#1a1f2c">Automation</text>
</a>
</g>
</g>
<!-- cat:automation/open&#45;source -->
<g id="node2" class="node">
<title>cat:automation/open&#45;source</title>
<ellipse fill="#6aa9ff" stroke="black" stroke-width="0" cx="129.84" cy="-217.1" rx="42.65" ry="42.65"/>
<text text-anchor="middle" x="129.84" y="-214.6" font-family="Helvetica,sans-Serif" font-size="10.00" fill="#1a1f2c">Open Source</text>
</g>
<!-- cat:automation&#45;&gt;cat:automation/open&#45;source -->
<g id="edge1" class="edge">
<title>cat:automation&#45;&gt;cat:automation/open&#45;source</title>
<path fill="none" stroke="#c8cfdb" stroke-width="0.8" d="M129.84,-295.87C129.84,-286.06 129.84,-275.49 129.84,-265.41"/>
<polygon fill="#c8cfdb" stroke="#c8cfdb" stroke-width="0.8" points="131.59,-265.19 129.84,-260.19 128.09,-265.19 131.59,-265.19"/>
</g>
<!-- cat:automation/open&#45;source/gui&#45;based -->
<g id="node3" class="node">
<title>cat:automation/open&#45;source/gui&#45;based</title>
<ellipse fill="#6aa9ff" stroke="black" stroke-width="0" cx="129.84" cy="-101.64" rx="36.78" ry="36.78"/>
<text text-anchor="middle" x="129.84" y="-99.14" font-family="Helvetica,sans-Serif" font-size="10.00" fill="#1a1f2c">GUI Based</text>
</g>
<!-- cat:automation/open&#45;source&#45;&gt;cat:automation/open&#45;source/gui&#45;based -->
<g id="edge2" class="edge">
<title>cat:automation/open&#45;source&#45;&gt;cat:automation/open&#45;source/gui&#45;based</title>
<path fill="none" stroke="#c8cfdb" stroke-width="0.8" d="M129.84,-174.17C129.84,-164.17 129.84,-153.52 129.84,-143.56"/>
<polygon fill="#c8cfdb" stroke="#c8cfdb" stroke-width="0.8" points="131.59,-143.43 129.84,-138.43 128.09,-143.43 131.59,-143.43"/>
</g>
<!-- proj:activepieces -->
<g id="node4" class="node">
<title>proj:activepieces</title>
<g id="a_node4"><a xlink:href="https://github.com/activepieces/activepieces" xlink:title="https://github.com/activepieces/activepieces">
<polygon fill="#f59e0b" stroke="black" stroke-width="0" points="65.84,-29 0.16,-14.5 65.84,0 131.51,-14.5 65.84,-29"/>
<text text-anchor="middle" x="65.84" y="-12.3" font-family="Helvetica,sans-Serif" font-size="9.00" fill="#1a1f2c">Activepieces</text>
</a>
</g>
</g>
<!-- cat:automation/open&#45;source/gui&#45;based&#45;&gt;proj:activepieces -->
<g id="edge3" class="edge">
<title>cat:automation/open&#45;source/gui&#45;based&#45;&gt;proj:activepieces</title>
<path fill="none" stroke="#c8cfdb" stroke-width="0.8" d="M108.17,-71.81C98.05,-58.36 86.39,-42.85 77.87,-31.51"/>
<polygon fill="#c8cfdb" stroke="#c8cfdb" stroke-width="0.8" points="79.06,-30.18 74.66,-27.24 76.26,-32.29 79.06,-30.18"/>
</g>
<!-- proj:flowise -->
<g id="node5" class="node">
<title>proj:flowise</title>
<g id="a_node5"><a xlink:href="https://github.com/FlowiseAI/Flowise" xlink:title="https://github.com/FlowiseAI/Flowise">
<polygon fill="#f59e0b" stroke="black" stroke-width="0" points="193.84,-29 149.45,-14.5 193.84,0 238.22,-14.5 193.84,-29"/>
<text text-anchor="middle" x="193.84" y="-12.3" font-family="Helvetica,sans-Serif" font-size="9.00" fill="#1a1f2c">Flowise</text>
</a>
</g>
</g>
<!-- cat:automation/open&#45;source/gui&#45;based&#45;&gt;proj:flowise -->
<g id="edge4" class="edge">
<title>cat:automation/open&#45;source/gui&#45;based&#45;&gt;proj:flowise</title>
<path fill="none" stroke="#c8cfdb" stroke-width="0.8" d="M151.5,-71.81C161.88,-58.02 173.87,-42.06 182.44,-30.66"/>
<polygon fill="#c8cfdb" stroke="#c8cfdb" stroke-width="0.8" points="184.05,-31.43 185.66,-26.38 181.25,-29.33 184.05,-31.43"/>
</g>
</g>
</svg>
