<?xml version="1.0" encoding="UTF-8" standalone="no"?>
<!DOCTYPE svg PUBLIC "-//W3C//DTD SVG 1.1//EN"
 "http://www.w3.org/Graphics/SVG/1.1/DTD/svg11.dtd">
<!-- Generated by graphviz version 2.42.4 (0)
 -->
<!-- Title: G Pages: 1 -->
<svg width="294pt" height="469pt"
 viewBox="0.00 0.00 293.72 469.03" xmlns="http://www.w3.org/2000/svg" xmlns:xlink="http://www.w3.org/1999/xlink">
<g id="graph0" class="graph" transform="scale(1 1) rotate(0) translate(28.8 440.23)">
<title>G</title>
<polygon fill="#f7f8fa" stroke="transparent" points="-28.8,28.8 -28.8,-440.23 264.92,-440.23 264.92,28.8 -28.8,28.8"/>
<text text-anchor="middle" x="118.06" y="-389.83" font-family="Helvetica,sans-Serif" font-size="22.00">Automation</text>
<!-- cat:automation -->
<g id="node1" class="node">
<title>cat:automation</title>
<g id="a_node1"><a xlink:title="General&#45;purpose automation tools and frameworks, including GUI&#45;driven and script&#45;driven flows.">
<ellipse fill="#6aa9ff" stroke="black" stroke-width="0" cx="127.93" cy="-337.68" rx="41.51" ry="41.51"/>
<text text-anchor="middle" x="127.93" y="-335.18" font-family="Helvetica,sans-Serif" font-size="10.00" fill="#1a1f2c">Automation</text>
</a>
</g>
</g>
<!-- cat:automation/open&#45;source -->
<g id="node2" class="node">
<title>cat:automation/open&#45;source</title>
<ellipse fill="#6aa9ff" stroke="black" stroke-width="0" cx="127.93" cy="-217.1" rx="42.65" ry="42.65"/>
<text text-anchor="middle" x="127.93" y="-214.6" font-family="Helvetica,sans-Serif" font-size="10.00" fill="#1a1f2c">Open Source</text>
</g>
<!-- cat:automation&#45;&gt;cat:automation/open&#45;source -->
<g id="edge1" class="edge">
<title>cat:automation&#45;&gt;cat:automation/open&#45;source</title>
<path fill="none" stroke="#c8cfdb" stroke-width="0.8" d="M127.93,-295.87C127.93,-286.06 127.93,-275.49 127.93,-265.41"/>
<polygon fill="#c8cfdb" stroke="#c8cfdb" stroke-width="0.8" points="129.68,-265.19 127.93,-260.19 126.18,-265.19 129.68,-265.19"/>
</g>
<!-- cat:automation/open&#45;source/gui&#45;based -->
<g id="node3" class="node">
<title>cat:automation/open&#45;source/gui&#45;based</title>
<ellipse fill="#6aa9ff" stroke="black" stroke-width="0" cx="127.93" cy="-101.64" rx="36.78" ry="36.78"/>
<text text-anchor="middle" x="127.93" y="-99.14" font-family="Helvetica,sans-Serif" font-size="10.00" fill="#1a1f2c">GUI Based</text>
</g>
<!-- cat:automation/open&#45;source&#45;&gt;cat:automation/open&#45;source/gui&#45;based -->
<g id="edge2" class="edge">
<title>cat:automation/open&#45;source&#45;&gt;cat:automation/open&#45;source/gui&#45;based</title>
<path fill="none" stroke="#c8cfdb" stroke-width="0.8" d="M127.93,-174.17C127.93,-164.17 127.93,-153.52 127.93,-143.56"/>
<polygon fill="#c8cfdb" stroke="#c8cfdb" stroke-width="0.8" points="129.68,-143.43 127.93,-138.43 126.18,-143.43 129.68,-143.43"/>
</g>
<!-- proj:activepieces -->
<g id="node4" class="node">
<title>proj:activepieces</title>
<g id="a_node4"><a xlink:href="https://github.com/activepieces/activepieces" xlink:title="https://github.com/activepieces/activepieces">
<polygon fill="#f59e0b" stroke="black" stroke-width="0" points="64.93,-29 0.07,-14.5 64.93,0 129.8,-14.5 64.93,-29"/>
<text text-anchor="middle" x="64.93" y="-12.3" font-family="Helvetica,sans-Serif" font-size="9.00" fill="#1a1f2c">activepieces</text>
</a>
</g>
</g>
<!-- cat:automation/open&#45;source/gui&#45;based&#45;&gt;proj:activepieces -->
<g id="edge3" class="edge">
<title>cat:automation/open&#45;source/gui&#45;based&#45;&gt;proj:activepieces</title>
<path fill="none" stroke="#c8cfdb" stroke-width="0.8" d="M106.6,-71.81C96.65,-58.36 85.17,-42.85 76.78,-31.51"/>
<polygon fill="#c8cfdb" stroke="#c8cfdb" stroke-width="0.8" points="78,-30.22 73.62,-27.24 75.19,-32.3 78,-30.22"/>
</g>
<!-- proj:flowise -->
<g id="node5" class="node">
<title>proj:flowise</title>
<g id="a_node5"><a xlink:href="https://github.com/FlowiseAI/Flowise" xlink:title="https://github.com/FlowiseAI/Flowise">
<polygon fill="#f59e0b" stroke="black" stroke-width="0" points="191.93,-29 147.55,-14.5 191.93,0 236.32,-14.5 191.93,-29"/>
<text text-anchor="middle" x="191.93" y="-12.3" font-family="Helvetica,sans-Serif" font-size="9.00" fill="#1a1f2c">Flowise</text>
</a>
</g>
</g>
<!-- cat:automation/open&#45;source/gui&#45;based&#45;&gt;proj:flowise -->
<g id="edge4" class="edge">
<title>cat:automation/open&#45;source/gui&#45;based&#45;&gt;proj:flowise</title>
<path fill="none" stroke="#c8cfdb" stroke-width="0.8" d="M149.6,-71.81C159.97,-58.02 171.97,-42.06 180.54,-30.66"/>
<polygon fill="#c8cfdb" stroke="#c8cfdb" stroke-width="0.8" points="182.15,-31.43 183.75,-26.38 179.35,-29.33 182.15,-31.43"/>
</g>
</g>
</svg>
