<?xml version="1.0" encoding="UTF-8" standalone="no"?>
<!DOCTYPE svg PUBLIC "-//W3C//DTD SVG 1.1//EN"
 "http://www.w3.org/Graphics/SVG/1.1/DTD/svg11.dtd">
<!-- Generated by graphviz version 2.42.4 (0)
 -->
<!-- Title: G Pages: 1 -->
<svg width="308pt" height="239pt"
 viewBox="0.00 0.00 307.94 239.15" xmlns="http://www.w3.org/2000/svg" xmlns:xlink="http://www.w3.org/1999/xlink">
<g id="graph0" class="graph" transform="scale(1 1) rotate(0) translate(28.8 210.35)">
<title>G</title>
<polygon fill="#f7f8fa" stroke="transparent" points="-28.8,28.8 -28.8,-210.35 279.14,-210.35 279.14,28.8 -28.8,28.8"/>
<text text-anchor="middle" x="125.17" y="-159.95" font-family="Helvetica,sans-Serif" font-size="22.00">Benchmarks</text>
<!-- cat:benchmarks -->
<g id="node1" class="node">
<title>cat:benchmarks</title>
<g id="a_node1"><a xlink:title="Standardised benchmarks for evaluating agent and model capabilities.">
<ellipse fill="#6aa9ff" stroke="black" stroke-width="0" cx="133.74" cy="-107.27" rx="42.05" ry="42.05"/>
<text text-anchor="middle" x="133.74" y="-104.77" font-family="Helvetica,sans-Serif" font-size="10.00" fill="#1a1f2c">Benchmarks</text>
</a>
</g>
</g>
<!-- proj:aicgseceval -->
<g id="node2" class="node">
<title>proj:aicgseceval</title>
<g id="a_node2"><a xlink:href="https://github.com/Tencent/AICGSecEval" xlink:title="https://github.com/Tencent/AICGSecEval">
<polygon fill="#f59e0b" stroke="black" stroke-width="0" points="66.74,-29 -0.24,-14.5 66.74,0 133.71,-14.5 66.74,-29"/>
<text text-anchor="middle" x="66.74" y="-12.3" font-family="Helvetica,sans-Serif" font-size="9.00" fill="#1a1f2c">AICGSecEval</text>
</a>
</g>
</g>
<!-- cat:benchmarks&#45;&gt;proj:aicgseceval -->
<g id="edge1" class="edge">
<title>cat:benchmarks&#45;&gt;proj:aicgseceval</title>
<path fill="none" stroke="#c8cfdb" stroke-width="0.8" d="M108.98,-72.73C98.58,-58.64 86.97,-42.92 78.56,-31.52"/>
<polygon fill="#c8cfdb" stroke="#c8cfdb" stroke-width="0.8" points="79.77,-30.21 75.39,-27.22 76.95,-32.29 79.77,-30.21"/>
</g>
<!-- proj:osworld -->
<g id="node3" class="node">
<title>proj:osworld</title>
<g id="a_node3"><a xlink:href="https://github.com/xlang-ai/OSWorld" xlink:title="https://github.com/xlang&#45;ai/OSWorld">
<polygon fill="#f59e0b" stroke="black" stroke-width="0" points="200.74,-29 151.03,-14.5 200.74,0 250.44,-14.5 200.74,-29"/>
<text text-anchor="middle" x="200.74" y="-12.3" font-family="Helvetica,sans-Serif" font-size="9.00" fill="#1a1f2c">OSWorld</text>
</a>
</g>
</g>
<!-- cat:benchmarks&#45;&gt;proj:osworld -->
<g id="edge2" class="edge">
<title>cat:benchmarks&#45;&gt;proj:osworld</title>
<path fill="none" stroke="#c8cfdb" stroke-width="0.8" d="M158.5,-72.73C169.03,-58.46 180.8,-42.52 189.23,-31.09"/>
<polygon fill="#c8cfdb" stroke="#c8cfdb" stroke-width="0.8" points="190.84,-31.85 192.4,-26.79 188.03,-29.77 190.84,-31.85"/>
</g>
</g>
</svg>
