<?xml version="1.0" encoding="UTF-8" standalone="no"?>
<!DOCTYPE svg PUBLIC "-//W3C//DTD SVG 1.1//EN"
 "http://www.w3.org/Graphics/SVG/1.1/DTD/svg11.dtd">
<!-- Generated by graphviz version 2.42.4 (0)
 -->
<!-- Title: G Pages: 1 -->
<svg width="913pt" height="547pt"
 viewBox="0.00 0.00 913.04 546.86" xmlns="http://www.w3.org/2000/svg" xmlns:xlink="http://www.w3.org/1999/xlink">
<g id="graph0" class="graph" transform="scale(1 1) rotate(0) translate(28.8 518.06)">
<title>G</title>
<polygon fill="#f7f8fa" stroke="transparent" points="-28.8,28.8 -28.8,-518.06 884.24,-518.06 884.24,28.8 -28.8,28.8"/>
<text text-anchor="middle" x="427.72" y="-467.66" font-family="Helvetica,sans-Serif" font-size="22.00">Context</text>
<!-- cat:context -->
<g id="node1" class="node">
<title>cat:context</title>
<g id="a_node1"><a xlink:title="Tools for building, optimising, managing and visualising the context window supplied to LLMs.">
<ellipse fill="#6aa9ff" stroke="black" stroke-width="0" cx="419.5" cy="-421.76" rx="35.5" ry="35.5"/>
<text text-anchor="middle" x="419.5" y="-419.26" font-family="Helvetica,sans-Serif" font-size="10.00" fill="#1a1f2c">Context</text>
</a>
</g>
</g>
<!-- proj:promptx -->
<g id="node2" class="node">
<title>proj:promptx</title>
<g id="a_node2"><a xlink:href="https://github.com/Deepractice/PromptX" xlink:title="https://github.com/Deepractice/PromptX">
<polygon fill="#f59e0b" stroke="black" stroke-width="0" points="50.5,-298.32 -0,-283.82 50.5,-269.32 101.01,-283.82 50.5,-298.32"/>
<text text-anchor="middle" x="50.5" y="-281.62" font-family="Helvetica,sans-Serif" font-size="9.00" fill="#1a1f2c">PromptX</text>
</a>
</g>
</g>
<!-- cat:context&#45;&gt;proj:promptx -->
<g id="edge1" class="edge">
<title>cat:context&#45;&gt;proj:promptx</title>
<path fill="none" stroke="#c8cfdb" stroke-width="0.8" d="M383.97,-419.56C323.58,-416.09 198.78,-402.6 109.5,-350.26 88.7,-338.06 71.14,-316.06 60.72,-300.96"/>
<polygon fill="#c8cfdb" stroke="#c8cfdb" stroke-width="0.8" points="61.97,-299.69 57.72,-296.52 59.07,-301.64 61.97,-299.69"/>
</g>
<!-- proj:weknora -->
<g id="node3" class="node">
<title>proj:weknora</title>
<g id="a_node3"><a xlink:href="https://github.com/Tencent/WeKnora" xlink:title="https://github.com/Tencent/WeKnora">
<polygon fill="#f59e0b" stroke="black" stroke-width="0" points="169.5,-298.32 119,-283.82 169.5,-269.32 220.01,-283.82 169.5,-298.32"/>
<text text-anchor="middle" x="169.5" y="-281.62" font-family="Helvetica,sans-Serif" font-size="9.00" fill="#1a1f2c">WeKnora</text>
</a>
</g>
</g>
<!-- cat:context&#45;&gt;proj:weknora -->
<g id="edge2" class="edge">
<title>cat:context&#45;&gt;proj:weknora</title>
<path fill="none" stroke="#c8cfdb" stroke-width="0.8" d="M384.97,-413.18C345.05,-403.29 278.55,-383.24 229.5,-350.26 209.45,-336.77 191.46,-315.26 180.52,-300.62"/>
<polygon fill="#c8cfdb" stroke="#c8cfdb" stroke-width="0.8" points="181.73,-299.3 177.36,-296.31 178.91,-301.37 181.73,-299.3"/>
</g>
<!-- cat:context/context&#45;optimisation -->
<g id="node4" class="node">
<title>cat:context/context&#45;optimisation</title>
<ellipse fill="#6aa9ff" stroke="black" stroke-width="0" cx="304.5" cy="-283.82" rx="66.36" ry="66.36"/>
<text text-anchor="middle" x="304.5" y="-281.32" font-family="Helvetica,sans-Serif" font-size="10.00" fill="#1a1f2c">Context Optimisation</text>
</g>
<!-- cat:context&#45;&gt;cat:context/context&#45;optimisation -->
<g id="edge3" class="edge">
<title>cat:context&#45;&gt;cat:context/context&#45;optimisation</title>
<path fill="none" stroke="#c8cfdb" stroke-width="0.8" d="M397.06,-394.22C383.87,-378.64 366.71,-358.35 350.75,-339.48"/>
<polygon fill="#c8cfdb" stroke="#c8cfdb" stroke-width="0.8" points="351.71,-337.92 347.15,-335.23 349.04,-340.18 351.71,-337.92"/>
</g>
<!-- cat:context/engines -->
<g id="node6" class="node">
<title>cat:context/engines</title>
<ellipse fill="#6aa9ff" stroke="black" stroke-width="0" cx="419.5" cy="-283.82" rx="30.39" ry="30.39"/>
<text text-anchor="middle" x="419.5" y="-281.32" font-family="Helvetica,sans-Serif" font-size="10.00" fill="#1a1f2c">Engines</text>
</g>
<!-- cat:context&#45;&gt;cat:context/engines -->
<g id="edge5" class="edge">
<title>cat:context&#45;&gt;cat:context/engines</title>
<path fill="none" stroke="#c8cfdb" stroke-width="0.8" d="M419.5,-386.1C419.5,-365.65 419.5,-339.86 419.5,-319.42"/>
<polygon fill="#c8cfdb" stroke="#c8cfdb" stroke-width="0.8" points="421.25,-319.35 419.5,-314.35 417.75,-319.35 421.25,-319.35"/>
</g>
<!-- cat:context/frontend&#45;tools -->
<g id="node8" class="node">
<title>cat:context/frontend&#45;tools</title>
<ellipse fill="#6aa9ff" stroke="black" stroke-width="0" cx="515.5" cy="-283.82" rx="47.53" ry="47.53"/>
<text text-anchor="middle" x="515.5" y="-281.32" font-family="Helvetica,sans-Serif" font-size="10.00" fill="#1a1f2c">Frontend Tools</text>
</g>
<!-- cat:context&#45;&gt;cat:context/frontend&#45;tools -->
<g id="edge7" class="edge">
<title>cat:context&#45;&gt;cat:context/frontend&#45;tools</title>
<path fill="none" stroke="#c8cfdb" stroke-width="0.8" d="M439.63,-392.26C452.88,-373.5 470.46,-348.61 485.36,-327.51"/>
<polygon fill="#c8cfdb" stroke="#c8cfdb" stroke-width="0.8" points="486.85,-328.43 488.3,-323.34 483.99,-326.41 486.85,-328.43"/>
</g>
<!-- cat:context/tools -->
<g id="node10" class="node">
<title>cat:context/tools</title>
<g id="a_node10"><a xlink:title="Utility tools, SDKs and toolkits for building, debugging and extending agentic systems.">
<ellipse fill="#6aa9ff" stroke="black" stroke-width="0" cx="627.5" cy="-283.82" rx="23" ry="23"/>
<text text-anchor="middle" x="627.5" y="-281.32" font-family="Helvetica,sans-Serif" font-size="10.00" fill="#1a1f2c">Tools</text>
</a>
</g>
</g>
<!-- cat:context&#45;&gt;cat:context/tools -->
<g id="edge9" class="edge">
<title>cat:context&#45;&gt;cat:context/tools</title>
<path fill="none" stroke="#c8cfdb" stroke-width="0.8" d="M453.14,-410.1C485.78,-398.7 535.65,-378.38 572.5,-350.26 588.11,-338.34 602.28,-321.27 612.32,-307.55"/>
<polygon fill="#c8cfdb" stroke="#c8cfdb" stroke-width="0.8" points="613.81,-308.48 615.31,-303.4 610.97,-306.44 613.81,-308.48"/>
</g>
<!-- cat:context/visualisation -->
<g id="node13" class="node">
<title>cat:context/visualisation</title>
<ellipse fill="#6aa9ff" stroke="black" stroke-width="0" cx="762.5" cy="-283.82" rx="43.84" ry="43.84"/>
<text text-anchor="middle" x="762.5" y="-281.32" font-family="Helvetica,sans-Serif" font-size="10.00" fill="#1a1f2c">Visualisation</text>
</g>
<!-- cat:context&#45;&gt;cat:context/visualisation -->
<g id="edge12" class="edge">
<title>cat:context&#45;&gt;cat:context/visualisation</title>
<path fill="none" stroke="#c8cfdb" stroke-width="0.8" d="M454.37,-413.74C502.07,-403.43 589.7,-381.92 659.5,-350.26 681.57,-340.25 704.47,-326.13 723.06,-313.56"/>
<polygon fill="#c8cfdb" stroke="#c8cfdb" stroke-width="0.8" points="724.06,-315 727.2,-310.74 722.09,-312.11 724.06,-315"/>
</g>
<!-- proj:context&#45;mode -->
<g id="node5" class="node">
<title>proj:context&#45;mode</title>
<g id="a_node5"><a xlink:href="https://github.com/mksglu/context-mode" xlink:title="https://github.com/mksglu/context&#45;mode">
<polygon fill="#f59e0b" stroke="black" stroke-width="0" points="248.5,-137.7 176.21,-123.2 248.5,-108.7 320.8,-123.2 248.5,-137.7"/>
<text text-anchor="middle" x="248.5" y="-121" font-family="Helvetica,sans-Serif" font-size="9.00" fill="#1a1f2c">context&#45;mode</text>
</a>
</g>
</g>
<!-- cat:context/context&#45;optimisation&#45;&gt;proj:context&#45;mode -->
<g id="edge4" class="edge">
<title>cat:context/context&#45;optimisation&#45;&gt;proj:context&#45;mode</title>
<path fill="none" stroke="#c8cfdb" stroke-width="0.8" d="M282.69,-221.04C272.7,-192.73 261.6,-161.29 254.83,-142.13"/>
<polygon fill="#c8cfdb" stroke="#c8cfdb" stroke-width="0.8" points="256.36,-141.2 253.05,-137.06 253.06,-142.36 256.36,-141.2"/>
</g>
<!-- proj:contexto -->
<g id="node7" class="node">
<title>proj:contexto</title>
<g id="a_node7"><a xlink:href="https://github.com/ekailabs/contexto" xlink:title="https://github.com/ekailabs/contexto">
<polygon fill="#f59e0b" stroke="black" stroke-width="0" points="389.5,-137.7 339,-123.2 389.5,-108.7 440.01,-123.2 389.5,-137.7"/>
<text text-anchor="middle" x="389.5" y="-121" font-family="Helvetica,sans-Serif" font-size="9.00" fill="#1a1f2c">contexto</text>
</a>
</g>
</g>
<!-- cat:context/engines&#45;&gt;proj:contexto -->
<g id="edge6" class="edge">
<title>cat:context/engines&#45;&gt;proj:contexto</title>
<path fill="none" stroke="#c8cfdb" stroke-width="0.8" d="M414.07,-254.1C407.93,-221.62 398.11,-169.72 392.95,-142.39"/>
<polygon fill="#c8cfdb" stroke="#c8cfdb" stroke-width="0.8" points="394.62,-141.86 391.98,-137.27 391.19,-142.51 394.62,-141.86"/>
</g>
<!-- proj:react&#45;grab -->
<g id="node9" class="node">
<title>proj:react&#45;grab</title>
<g id="a_node9"><a xlink:href="https://github.com/aidenybai/react-grab" xlink:title="https://github.com/aidenybai/react&#45;grab">
<polygon fill="#f59e0b" stroke="black" stroke-width="0" points="515.5,-137.7 457.57,-123.2 515.5,-108.7 573.44,-123.2 515.5,-137.7"/>
<text text-anchor="middle" x="515.5" y="-121" font-family="Helvetica,sans-Serif" font-size="9.00" fill="#1a1f2c">react&#45;grab</text>
</a>
</g>
</g>
<!-- cat:context/frontend&#45;tools&#45;&gt;proj:react&#45;grab -->
<g id="edge8" class="edge">
<title>cat:context/frontend&#45;tools&#45;&gt;proj:react&#45;grab</title>
<path fill="none" stroke="#c8cfdb" stroke-width="0.8" d="M515.5,-235.66C515.5,-204.55 515.5,-165.49 515.5,-142.83"/>
<polygon fill="#c8cfdb" stroke="#c8cfdb" stroke-width="0.8" points="517.25,-142.71 515.5,-137.71 513.75,-142.71 517.25,-142.71"/>
</g>
<!-- cat:context/tools/context&#45;managers -->
<g id="node11" class="node">
<title>cat:context/tools/context&#45;managers</title>
<ellipse fill="#6aa9ff" stroke="black" stroke-width="0" cx="649.5" cy="-123.2" rx="58.39" ry="58.39"/>
<text text-anchor="middle" x="649.5" y="-120.7" font-family="Helvetica,sans-Serif" font-size="10.00" fill="#1a1f2c">Context Managers</text>
</g>
<!-- cat:context/tools&#45;&gt;cat:context/tools/context&#45;managers -->
<g id="edge10" class="edge">
<title>cat:context/tools&#45;&gt;cat:context/tools/context&#45;managers</title>
<path fill="none" stroke="#c8cfdb" stroke-width="0.8" d="M630.56,-260.77C633.24,-241.45 637.27,-212.44 640.92,-186.12"/>
<polygon fill="#c8cfdb" stroke="#c8cfdb" stroke-width="0.8" points="642.69,-186.08 641.64,-180.89 639.22,-185.6 642.69,-186.08"/>
</g>
<!-- proj:dotai -->
<g id="node12" class="node">
<title>proj:dotai</title>
<g id="a_node12"><a xlink:href="https://github.com/udecode/dotai" xlink:title="https://github.com/udecode/dotai">
<polygon fill="#f59e0b" stroke="black" stroke-width="0" points="649.5,-29 614.16,-14.5 649.5,0 684.85,-14.5 649.5,-29"/>
<text text-anchor="middle" x="649.5" y="-12.3" font-family="Helvetica,sans-Serif" font-size="9.00" fill="#1a1f2c">dotai</text>
</a>
</g>
</g>
<!-- cat:context/tools/context&#45;managers&#45;&gt;proj:dotai -->
<g id="edge11" class="edge">
<title>cat:context/tools/context&#45;managers&#45;&gt;proj:dotai</title>
<path fill="none" stroke="#c8cfdb" stroke-width="0.8" d="M649.5,-64.79C649.5,-53.84 649.5,-43.12 649.5,-34.49"/>
<polygon fill="#c8cfdb" stroke="#c8cfdb" stroke-width="0.8" points="651.25,-34.41 649.5,-29.41 647.75,-34.41 651.25,-34.41"/>
</g>
<!-- proj:context&#45;lens -->
<g id="node14" class="node">
<title>proj:context&#45;lens</title>
<g id="a_node14"><a xlink:href="https://github.com/larsderidder/context-lens" xlink:title="https://github.com/larsderidder/context&#45;lens">
<polygon fill="#f59e0b" stroke="black" stroke-width="0" points="790.5,-137.7 725.64,-123.2 790.5,-108.7 855.37,-123.2 790.5,-137.7"/>
<text text-anchor="middle" x="790.5" y="-121" font-family="Helvetica,sans-Serif" font-size="9.00" fill="#1a1f2c">context&#45;lens</text>
</a>
</g>
</g>
<!-- cat:context/visualisation&#45;&gt;proj:context&#45;lens -->
<g id="edge13" class="edge">
<title>cat:context/visualisation&#45;&gt;proj:context&#45;lens</title>
<path fill="none" stroke="#c8cfdb" stroke-width="0.8" d="M770.01,-240.31C775.64,-208.41 783.08,-166.28 787.27,-142.54"/>
<polygon fill="#c8cfdb" stroke="#c8cfdb" stroke-width="0.8" points="789.01,-142.7 788.16,-137.48 785.57,-142.1 789.01,-142.7"/>
</g>
</g>
</svg>
