<?xml version="1.0" encoding="UTF-8" standalone="no"?>
<!DOCTYPE svg PUBLIC "-//W3C//DTD SVG 1.1//EN"
 "http://www.w3.org/Graphics/SVG/1.1/DTD/svg11.dtd">
<!-- Generated by graphviz version 2.42.4 (0)
 -->
<!-- Title: G Pages: 1 -->
<svg width="222pt" height="348pt"
 viewBox="0.00 0.00 221.60 347.89" xmlns="http://www.w3.org/2000/svg" xmlns:xlink="http://www.w3.org/1999/xlink">
<g id="graph0" class="graph" transform="scale(1 1) rotate(0) translate(28.8 319.09)">
<title>G</title>
<polygon fill="#f7f8fa" stroke="transparent" points="-28.8,28.8 -28.8,-319.09 192.8,-319.09 192.8,28.8 -28.8,28.8"/>
<text text-anchor="middle" x="82" y="-268.69" font-family="Helvetica,sans-Serif" font-size="22.00">Data Sources</text>
<!-- cat:data&#45;sources -->
<g id="node1" class="node">
<title>cat:data&#45;sources</title>
<g id="a_node1"><a xlink:title="Curated data feeds and providers that agents can draw on.">
<ellipse fill="#6aa9ff" stroke="black" stroke-width="0" cx="82" cy="-212.59" rx="45.91" ry="45.91"/>
<text text-anchor="middle" x="82" y="-210.09" font-family="Helvetica,sans-Serif" font-size="10.00" fill="#1a1f2c">Data Sources</text>
</a>
</g>
</g>
<!-- cat:data&#45;sources/financial -->
<g id="node2" class="node">
<title>cat:data&#45;sources/financial</title>
<ellipse fill="#6aa9ff" stroke="black" stroke-width="0" cx="82" cy="-97.94" rx="32.88" ry="32.88"/>
<text text-anchor="middle" x="82" y="-95.44" font-family="Helvetica,sans-Serif" font-size="10.00" fill="#1a1f2c">Financial</text>
</g>
<!-- cat:data&#45;sources&#45;&gt;cat:data&#45;sources/financial -->
<g id="edge1" class="edge">
<title>cat:data&#45;sources&#45;&gt;cat:data&#45;sources/financial</title>
<path fill="none" stroke="#c8cfdb" stroke-width="0.8" d="M82,-166.74C82,-156.61 82,-145.95 82,-136.17"/>
<polygon fill="#c8cfdb" stroke="#c8cfdb" stroke-width="0.8" points="83.75,-136.14 82,-131.14 80.25,-136.14 83.75,-136.14"/>
</g>
<!-- proj:openbb -->
<g id="node3" class="node">
<title>proj:openbb</title>
<g id="a_node3"><a xlink:href="https://github.com/OpenBB-finance/OpenBB" xlink:title="https://github.com/OpenBB&#45;finance/OpenBB">
<polygon fill="#f59e0b" stroke="black" stroke-width="0" points="82,-29 34.4,-14.5 82,0 129.6,-14.5 82,-29"/>
<text text-anchor="middle" x="82" y="-12.3" font-family="Helvetica,sans-Serif" font-size="9.00" fill="#1a1f2c">OpenBB</text>
</a>
</g>
</g>
<!-- cat:data&#45;sources/financial&#45;&gt;proj:openbb -->
<g id="edge2" class="edge">
<title>cat:data&#45;sources/financial&#45;&gt;proj:openbb</title>
<path fill="none" stroke="#c8cfdb" stroke-width="0.8" d="M82,-64.75C82,-54.35 82,-43.16 82,-34.08"/>
<polygon fill="#c8cfdb" stroke="#c8cfdb" stroke-width="0.8" points="83.75,-34.01 82,-29.01 80.25,-34.01 83.75,-34.01"/>
</g>
</g>
</svg>
