<?xml version="1.0" encoding="UTF-8" standalone="no"?>
<!DOCTYPE svg PUBLIC "-//W3C//DTD SVG 1.1//EN"
 "http://www.w3.org/Graphics/SVG/1.1/DTD/svg11.dtd">
<!-- Generated by graphviz version 2.42.4 (0)
 -->
<!-- Title: G Pages: 1 -->
<svg width="179pt" height="374pt"
 viewBox="0.00 0.00 178.60 373.73" xmlns="http://www.w3.org/2000/svg" xmlns:xlink="http://www.w3.org/1999/xlink">
<g id="graph0" class="graph" transform="scale(1 1) rotate(0) translate(28.8 344.93)">
<title>G</title>
<polygon fill="#f7f8fa" stroke="transparent" points="-28.8,28.8 -28.8,-344.93 149.8,-344.93 149.8,28.8 -28.8,28.8"/>
<text text-anchor="middle" x="60.5" y="-294.53" font-family="Helvetica,sans-Serif" font-size="22.00">Dev Tools</text>
<!-- cat:dev&#45;tools -->
<g id="node1" class="node">
<title>cat:dev&#45;tools</title>
<g id="a_node1"><a xlink:title="Developer tooling that uses agents or supports agent development workflows.">
<ellipse fill="#6aa9ff" stroke="black" stroke-width="0" cx="60.5" cy="-248.01" rx="36.22" ry="36.22"/>
<text text-anchor="middle" x="60.5" y="-245.51" font-family="Helvetica,sans-Serif" font-size="10.00" fill="#1a1f2c">Dev Tools</text>
</a>
</g>
</g>
<!-- cat:dev&#45;tools/repo&#45;refactoring -->
<g id="node2" class="node">
<title>cat:dev&#45;tools/repo&#45;refactoring</title>
<ellipse fill="#6aa9ff" stroke="black" stroke-width="0" cx="60.5" cy="-120.45" rx="55.4" ry="55.4"/>
<text text-anchor="middle" x="60.5" y="-117.95" font-family="Helvetica,sans-Serif" font-size="10.00" fill="#1a1f2c">Repo Refactoring</text>
</g>
<!-- cat:dev&#45;tools&#45;&gt;cat:dev&#45;tools/repo&#45;refactoring -->
<g id="edge1" class="edge">
<title>cat:dev&#45;tools&#45;&gt;cat:dev&#45;tools/repo&#45;refactoring</title>
<path fill="none" stroke="#c8cfdb" stroke-width="0.8" d="M60.5,-211.7C60.5,-202.23 60.5,-191.71 60.5,-181.31"/>
<polygon fill="#c8cfdb" stroke="#c8cfdb" stroke-width="0.8" points="62.25,-181.21 60.5,-176.21 58.75,-181.21 62.25,-181.21"/>
</g>
<!-- proj:agentrc -->
<g id="node3" class="node">
<title>proj:agentrc</title>
<g id="a_node3"><a xlink:href="https://github.com/microsoft/agentrc" xlink:title="https://github.com/microsoft/agentrc">
<polygon fill="#f59e0b" stroke="black" stroke-width="0" points="60.5,-29 13.71,-14.5 60.5,0 107.29,-14.5 60.5,-29"/>
<text text-anchor="middle" x="60.5" y="-12.3" font-family="Helvetica,sans-Serif" font-size="9.00" fill="#1a1f2c">agentrc</text>
</a>
</g>
</g>
<!-- cat:dev&#45;tools/repo&#45;refactoring&#45;&gt;proj:agentrc -->
<g id="edge2" class="edge">
<title>cat:dev&#45;tools/repo&#45;refactoring&#45;&gt;proj:agentrc</title>
<path fill="none" stroke="#c8cfdb" stroke-width="0.8" d="M60.5,-64.74C60.5,-53.72 60.5,-42.87 60.5,-34.16"/>
<polygon fill="#c8cfdb" stroke="#c8cfdb" stroke-width="0.8" points="62.25,-34.04 60.5,-29.04 58.75,-34.04 62.25,-34.04"/>
</g>
</g>
</svg>
