<?xml version="1.0" encoding="UTF-8" standalone="no"?>
<!DOCTYPE svg PUBLIC "-//W3C//DTD SVG 1.1//EN"
 "http://www.w3.org/Graphics/SVG/1.1/DTD/svg11.dtd">
<!-- Generated by graphviz version 2.42.4 (0)
 -->
<!-- Title: G Pages: 1 -->
<svg width="389pt" height="370pt"
 viewBox="0.00 0.00 389.26 370.47" xmlns="http://www.w3.org/2000/svg" xmlns:xlink="http://www.w3.org/1999/xlink">
<g id="graph0" class="graph" transform="scale(1 1) rotate(0) translate(28.8 341.67)">
<title>G</title>
<polygon fill="#f7f8fa" stroke="transparent" points="-28.8,28.8 -28.8,-341.67 360.46,-341.67 360.46,28.8 -28.8,28.8"/>
<text text-anchor="middle" x="165.83" y="-291.27" font-family="Helvetica,sans-Serif" font-size="22.00">Dev Tools</text>
<!-- cat:dev&#45;tools -->
<g id="node1" class="node">
<title>cat:dev&#45;tools</title>
<g id="a_node1"><a xlink:title="Developer tooling that uses agents or supports agent development workflows.">
<ellipse fill="#6aa9ff" stroke="black" stroke-width="0" cx="166.45" cy="-246.38" rx="34.46" ry="34.46"/>
<text text-anchor="middle" x="166.45" y="-243.88" font-family="Helvetica,sans-Serif" font-size="10.00" fill="#1a1f2c">Dev Tools</text>
</a>
</g>
</g>
<!-- cat:dev&#45;tools/repo&#45;refactoring -->
<g id="node2" class="node">
<title>cat:dev&#45;tools/repo&#45;refactoring</title>
<ellipse fill="#6aa9ff" stroke="black" stroke-width="0" cx="55.45" cy="-120.45" rx="55.4" ry="55.4"/>
<text text-anchor="middle" x="55.45" y="-117.95" font-family="Helvetica,sans-Serif" font-size="10.00" fill="#1a1f2c">Repo Refactoring</text>
</g>
<!-- cat:dev&#45;tools&#45;&gt;cat:dev&#45;tools/repo&#45;refactoring -->
<g id="edge1" class="edge">
<title>cat:dev&#45;tools&#45;&gt;cat:dev&#45;tools/repo&#45;refactoring</title>
<path fill="none" stroke="#c8cfdb" stroke-width="0.8" d="M143.72,-220.01C129.92,-204.6 111.91,-184.49 95.76,-166.46"/>
<polygon fill="#c8cfdb" stroke="#c8cfdb" stroke-width="0.8" points="96.77,-164.97 92.13,-162.41 94.17,-167.3 96.77,-164.97"/>
</g>
<!-- cat:dev&#45;tools/debugging -->
<g id="node6" class="node">
<title>cat:dev&#45;tools/debugging</title>
<g id="a_node6"><a xlink:title="Debugging and introspection tools for agent development.">
<ellipse fill="#6aa9ff" stroke="black" stroke-width="0" cx="166.45" cy="-120.45" rx="37.77" ry="37.77"/>
<text text-anchor="middle" x="166.45" y="-117.95" font-family="Helvetica,sans-Serif" font-size="10.00" fill="#1a1f2c">Debugging</text>
</a>
</g>
</g>
<!-- cat:dev&#45;tools&#45;&gt;cat:dev&#45;tools/debugging -->
<g id="edge5" class="edge">
<title>cat:dev&#45;tools&#45;&gt;cat:dev&#45;tools/debugging</title>
<path fill="none" stroke="#c8cfdb" stroke-width="0.8" d="M166.45,-211.85C166.45,-197.03 166.45,-179.45 166.45,-163.75"/>
<polygon fill="#c8cfdb" stroke="#c8cfdb" stroke-width="0.8" points="168.2,-163.51 166.45,-158.51 164.7,-163.51 168.2,-163.51"/>
</g>
<!-- cat:dev&#45;tools/ide&#45;integrations -->
<g id="node7" class="node">
<title>cat:dev&#45;tools/ide&#45;integrations</title>
<g id="a_node7"><a xlink:title="IDE extensions and plugins for agent&#45;assisted development.">
<ellipse fill="#6aa9ff" stroke="black" stroke-width="0" cx="276.45" cy="-120.45" rx="52.31" ry="52.31"/>
<text text-anchor="middle" x="276.45" y="-117.95" font-family="Helvetica,sans-Serif" font-size="10.00" fill="#1a1f2c">IDE Integrations</text>
</a>
</g>
</g>
<!-- cat:dev&#45;tools&#45;&gt;cat:dev&#45;tools/ide&#45;integrations -->
<g id="edge6" class="edge">
<title>cat:dev&#45;tools&#45;&gt;cat:dev&#45;tools/ide&#45;integrations</title>
<path fill="none" stroke="#c8cfdb" stroke-width="0.8" d="M188.98,-220.01C203.24,-203.94 222.03,-182.77 238.54,-164.16"/>
<polygon fill="#c8cfdb" stroke="#c8cfdb" stroke-width="0.8" points="240.24,-164.89 242.25,-159.99 237.62,-162.57 240.24,-164.89"/>
</g>
<!-- proj:agentrc -->
<g id="node3" class="node">
<title>proj:agentrc</title>
<g id="a_node3"><a xlink:href="https://github.com/microsoft/agentrc" xlink:title="https://github.com/microsoft/agentrc">
<polygon fill="#f59e0b" stroke="black" stroke-width="0" points="55.45,-29 4.94,-14.5 55.45,0 105.96,-14.5 55.45,-29"/>
<text text-anchor="middle" x="55.45" y="-12.3" font-family="Helvetica,sans-Serif" font-size="9.00" fill="#1a1f2c">AgentRC</text>
</a>
</g>
</g>
<!-- cat:dev&#45;tools/repo&#45;refactoring&#45;&gt;proj:agentrc -->
<g id="edge2" class="edge">
<title>cat:dev&#45;tools/repo&#45;refactoring&#45;&gt;proj:agentrc</title>
<path fill="none" stroke="#c8cfdb" stroke-width="0.8" d="M55.45,-64.74C55.45,-53.72 55.45,-42.87 55.45,-34.16"/>
<polygon fill="#c8cfdb" stroke="#c8cfdb" stroke-width="0.8" points="57.2,-34.04 55.45,-29.04 53.7,-34.04 57.2,-34.04"/>
</g>
<!-- proj:vllora -->
<g id="node4" class="node">
<title>proj:vllora</title>
<g id="a_node4"><a xlink:href="https://github.com/vllora/vllora" xlink:title="https://github.com/vllora/vllora">
<polygon fill="#f59e0b" stroke="black" stroke-width="0" points="165.45,-29 123.98,-14.5 165.45,0 206.92,-14.5 165.45,-29"/>
<text text-anchor="middle" x="165.45" y="-12.3" font-family="Helvetica,sans-Serif" font-size="9.00" fill="#1a1f2c">vLLora</text>
</a>
</g>
</g>
<!-- proj:roo&#45;code -->
<g id="node5" class="node">
<title>proj:roo&#45;code</title>
<g id="a_node5"><a xlink:href="https://github.com/RooCodeInc/Roo-Code" xlink:title="https://github.com/RooCodeInc/Roo&#45;Code">
<polygon fill="#f59e0b" stroke="black" stroke-width="0" points="278.45,-29 225.03,-14.5 278.45,0 331.87,-14.5 278.45,-29"/>
<text text-anchor="middle" x="278.45" y="-12.3" font-family="Helvetica,sans-Serif" font-size="9.00" fill="#1a1f2c">Roo&#45;Code</text>
</a>
</g>
</g>
<!-- cat:dev&#45;tools/debugging&#45;&gt;proj:vllora -->
<g id="edge3" class="edge">
<title>cat:dev&#45;tools/debugging&#45;&gt;proj:vllora</title>
<path fill="none" stroke="#c8cfdb" stroke-width="0.8" d="M166.1,-82.51C165.94,-66.13 165.76,-47.56 165.63,-34.14"/>
<polygon fill="#c8cfdb" stroke="#c8cfdb" stroke-width="0.8" points="167.38,-34.06 165.58,-29.08 163.88,-34.09 167.38,-34.06"/>
</g>
<!-- cat:dev&#45;tools/ide&#45;integrations&#45;&gt;proj:roo&#45;code -->
<g id="edge4" class="edge">
<title>cat:dev&#45;tools/ide&#45;integrations&#45;&gt;proj:roo&#45;code</title>
<path fill="none" stroke="#c8cfdb" stroke-width="0.8" d="M277.44,-68.08C277.67,-56 277.91,-43.87 278.09,-34.31"/>
<polygon fill="#c8cfdb" stroke="#c8cfdb" stroke-width="0.8" points="279.84,-34.32 278.19,-29.28 276.34,-34.25 279.84,-34.32"/>
</g>
</g>
</svg>
