<?xml version="1.0" encoding="UTF-8" standalone="no"?>
<!DOCTYPE svg PUBLIC "-//W3C//DTD SVG 1.1//EN"
 "http://www.w3.org/Graphics/SVG/1.1/DTD/svg11.dtd">
<!-- Generated by graphviz version 2.42.4 (0)
 -->
<!-- Title: G Pages: 1 -->
<svg width="502pt" height="458pt"
 viewBox="0.00 0.00 502.49 458.17" xmlns="http://www.w3.org/2000/svg" xmlns:xlink="http://www.w3.org/1999/xlink">
<g id="graph0" class="graph" transform="scale(1 1) rotate(0) translate(28.8 429.37)">
<title>G</title>
<polygon fill="#f7f8fa" stroke="transparent" points="-28.8,28.8 -28.8,-429.37 473.69,-429.37 473.69,28.8 -28.8,28.8"/>
<text text-anchor="middle" x="222.45" y="-378.97" font-family="Helvetica,sans-Serif" font-size="22.00">Evals and Experiment Tracking</text>
<!-- cat:evals&#45;and&#45;experiment&#45;tracking -->
<g id="node1" class="node">
<title>cat:evals&#45;and&#45;experiment&#45;tracking</title>
<g id="a_node1"><a xlink:title="Frameworks, harnesses and platforms for evaluating agents and tracking experiments.">
<ellipse fill="#6aa9ff" stroke="black" stroke-width="0" cx="221.29" cy="-279.8" rx="88.53" ry="88.53"/>
<text text-anchor="middle" x="221.29" y="-277.3" font-family="Helvetica,sans-Serif" font-size="10.00" fill="#1a1f2c">Evals and Experiment Tracking</text>
</a>
</g>
</g>
<!-- proj:trulens -->
<g id="node2" class="node">
<title>proj:trulens</title>
<g id="a_node2"><a xlink:href="https://github.com/truera/trulens" xlink:title="https://github.com/truera/trulens">
<polygon fill="#f59e0b" stroke="black" stroke-width="0" points="43.29,-124.52 0.21,-110.02 43.29,-95.52 86.37,-110.02 43.29,-124.52"/>
<text text-anchor="middle" x="43.29" y="-107.82" font-family="Helvetica,sans-Serif" font-size="9.00" fill="#1a1f2c">trulens</text>
</a>
</g>
</g>
<!-- cat:evals&#45;and&#45;experiment&#45;tracking&#45;&gt;proj:trulens -->
<g id="edge1" class="edge">
<title>cat:evals&#45;and&#45;experiment&#45;tracking&#45;&gt;proj:trulens</title>
<path fill="none" stroke="#c8cfdb" stroke-width="0.8" d="M157.03,-218.23C121.03,-184.3 79.16,-144.84 57.66,-124.57"/>
<polygon fill="#c8cfdb" stroke="#c8cfdb" stroke-width="0.8" points="58.73,-123.17 53.89,-121.01 56.33,-125.72 58.73,-123.17"/>
</g>
<!-- proj:langwatch -->
<g id="node3" class="node">
<title>proj:langwatch</title>
<g id="a_node3"><a xlink:href="https://github.com/langwatch/langwatch" xlink:title="https://github.com/langwatch/langwatch">
<polygon fill="#f59e0b" stroke="black" stroke-width="0" points="162.29,-124.52 104.35,-110.02 162.29,-95.52 220.23,-110.02 162.29,-124.52"/>
<text text-anchor="middle" x="162.29" y="-107.82" font-family="Helvetica,sans-Serif" font-size="9.00" fill="#1a1f2c">langwatch</text>
</a>
</g>
</g>
<!-- cat:evals&#45;and&#45;experiment&#45;tracking&#45;&gt;proj:langwatch -->
<g id="edge2" class="edge">
<title>cat:evals&#45;and&#45;experiment&#45;tracking&#45;&gt;proj:langwatch</title>
<path fill="none" stroke="#c8cfdb" stroke-width="0.8" d="M192.13,-195.9C183.14,-170.31 174.1,-144.6 168.36,-128.29"/>
<polygon fill="#c8cfdb" stroke="#c8cfdb" stroke-width="0.8" points="170,-127.68 166.69,-123.54 166.7,-128.84 170,-127.68"/>
</g>
<!-- cat:evals&#45;and&#45;experiment&#45;tracking/frameworks -->
<g id="node4" class="node">
<title>cat:evals&#45;and&#45;experiment&#45;tracking/frameworks</title>
<g id="a_node4"><a xlink:title="General&#45;purpose frameworks for building agents and agentic applications.">
<ellipse fill="#6aa9ff" stroke="black" stroke-width="0" cx="280.29" cy="-110.02" rx="42.05" ry="42.05"/>
<text text-anchor="middle" x="280.29" y="-107.52" font-family="Helvetica,sans-Serif" font-size="10.00" fill="#1a1f2c">Frameworks</text>
</a>
</g>
</g>
<!-- cat:evals&#45;and&#45;experiment&#45;tracking&#45;&gt;cat:evals&#45;and&#45;experiment&#45;tracking/frameworks -->
<g id="edge3" class="edge">
<title>cat:evals&#45;and&#45;experiment&#45;tracking&#45;&gt;cat:evals&#45;and&#45;experiment&#45;tracking/frameworks</title>
<path fill="none" stroke="#c8cfdb" stroke-width="0.8" d="M250.44,-195.9C255.42,-181.76 260.4,-167.58 264.83,-154.97"/>
<polygon fill="#c8cfdb" stroke="#c8cfdb" stroke-width="0.8" points="266.56,-155.33 266.57,-150.04 263.26,-154.17 266.56,-155.33"/>
</g>
<!-- cat:evals&#45;and&#45;experiment&#45;tracking/observability -->
<g id="node6" class="node">
<title>cat:evals&#45;and&#45;experiment&#45;tracking/observability</title>
<g id="a_node6"><a xlink:title="Logging, tracing and observability specifically for agent and LLM systems.">
<ellipse fill="#6aa9ff" stroke="black" stroke-width="0" cx="392.29" cy="-110.02" rx="45.04" ry="45.04"/>
<text text-anchor="middle" x="392.29" y="-107.52" font-family="Helvetica,sans-Serif" font-size="10.00" fill="#1a1f2c">Observability</text>
</a>
</g>
</g>
<!-- cat:evals&#45;and&#45;experiment&#45;tracking&#45;&gt;cat:evals&#45;and&#45;experiment&#45;tracking/observability -->
<g id="edge5" class="edge">
<title>cat:evals&#45;and&#45;experiment&#45;tracking&#45;&gt;cat:evals&#45;and&#45;experiment&#45;tracking/observability</title>
<path fill="none" stroke="#c8cfdb" stroke-width="0.8" d="M284.48,-216.8C308.84,-192.9 335.8,-166.45 356.67,-145.97"/>
<polygon fill="#c8cfdb" stroke="#c8cfdb" stroke-width="0.8" points="358.15,-146.97 360.49,-142.22 355.69,-144.48 358.15,-146.97"/>
</g>
<!-- proj:deepeval -->
<g id="node5" class="node">
<title>proj:deepeval</title>
<g id="a_node5"><a xlink:href="https://github.com/confident-ai/deepeval" xlink:title="https://github.com/confident&#45;ai/deepeval">
<polygon fill="#f59e0b" stroke="black" stroke-width="0" points="276.29,-29 224.98,-14.5 276.29,0 327.6,-14.5 276.29,-29"/>
<text text-anchor="middle" x="276.29" y="-12.3" font-family="Helvetica,sans-Serif" font-size="9.00" fill="#1a1f2c">deepeval</text>
</a>
</g>
</g>
<!-- cat:evals&#45;and&#45;experiment&#45;tracking/frameworks&#45;&gt;proj:deepeval -->
<g id="edge4" class="edge">
<title>cat:evals&#45;and&#45;experiment&#45;tracking/frameworks&#45;&gt;proj:deepeval</title>
<path fill="none" stroke="#c8cfdb" stroke-width="0.8" d="M278.52,-67.73C278.02,-56 277.5,-43.81 277.09,-34.16"/>
<polygon fill="#c8cfdb" stroke="#c8cfdb" stroke-width="0.8" points="278.83,-34 276.87,-29.08 275.34,-34.15 278.83,-34"/>
</g>
<!-- proj:langfuse -->
<g id="node7" class="node">
<title>proj:langfuse</title>
<g id="a_node7"><a xlink:href="https://github.com/langfuse/langfuse" xlink:title="https://github.com/langfuse/langfuse">
<polygon fill="#f59e0b" stroke="black" stroke-width="0" points="395.29,-29 345.58,-14.5 395.29,0 444.99,-14.5 395.29,-29"/>
<text text-anchor="middle" x="395.29" y="-12.3" font-family="Helvetica,sans-Serif" font-size="9.00" fill="#1a1f2c">langfuse</text>
</a>
</g>
</g>
<!-- cat:evals&#45;and&#45;experiment&#45;tracking/observability&#45;&gt;proj:langfuse -->
<g id="edge6" class="edge">
<title>cat:evals&#45;and&#45;experiment&#45;tracking/observability&#45;&gt;proj:langfuse</title>
<path fill="none" stroke="#c8cfdb" stroke-width="0.8" d="M393.7,-65C394.05,-54.17 394.4,-43.15 394.69,-34.26"/>
<polygon fill="#c8cfdb" stroke="#c8cfdb" stroke-width="0.8" points="396.44,-34.07 394.86,-29.02 392.95,-33.96 396.44,-34.07"/>
</g>
</g>
</svg>
