<?xml version="1.0" encoding="UTF-8" standalone="no"?>
<!DOCTYPE svg PUBLIC "-//W3C//DTD SVG 1.1//EN"
 "http://www.w3.org/Graphics/SVG/1.1/DTD/svg11.dtd">
<!-- Generated by graphviz version 2.42.4 (0)
 -->
<!-- Title: G Pages: 1 -->
<svg width="250pt" height="251pt"
 viewBox="0.00 0.00 250.08 251.23" xmlns="http://www.w3.org/2000/svg" xmlns:xlink="http://www.w3.org/1999/xlink">
<g id="graph0" class="graph" transform="scale(1 1) rotate(0) translate(28.8 222.43)">
<title>G</title>
<polygon fill="#f7f8fa" stroke="transparent" points="-28.8,28.8 -28.8,-222.43 221.28,-222.43 221.28,28.8 -28.8,28.8"/>
<text text-anchor="middle" x="96.24" y="-172.03" font-family="Helvetica,sans-Serif" font-size="22.00">Financial Tools</text>
<!-- cat:financial&#45;tools -->
<g id="node1" class="node">
<title>cat:financial&#45;tools</title>
<g id="a_node1"><a xlink:title="Agent&#45;oriented tools targeted at financial workflows.">
<ellipse fill="#6aa9ff" stroke="black" stroke-width="0" cx="88.98" cy="-113.31" rx="48.13" ry="48.13"/>
<text text-anchor="middle" x="88.98" y="-110.81" font-family="Helvetica,sans-Serif" font-size="10.00" fill="#1a1f2c">Financial Tools</text>
</a>
</g>
</g>
<!-- proj:goat -->
<g id="node2" class="node">
<title>proj:goat</title>
<g id="a_node2"><a xlink:href="https://github.com/goat-sdk/goat" xlink:title="https://github.com/goat&#45;sdk/goat">
<polygon fill="#f59e0b" stroke="black" stroke-width="0" points="36.98,-29 0.02,-14.5 36.98,0 73.93,-14.5 36.98,-29"/>
<text text-anchor="middle" x="36.98" y="-12.3" font-family="Helvetica,sans-Serif" font-size="9.00" fill="#1a1f2c">GOAT</text>
</a>
</g>
</g>
<!-- cat:financial&#45;tools&#45;&gt;proj:goat -->
<g id="edge1" class="edge">
<title>cat:financial&#45;tools&#45;&gt;proj:goat</title>
<path fill="none" stroke="#c8cfdb" stroke-width="0.8" d="M66.47,-70.41C59.04,-56.59 51.23,-42.04 45.51,-31.39"/>
<polygon fill="#c8cfdb" stroke="#c8cfdb" stroke-width="0.8" points="46.95,-30.37 43.04,-26.79 43.87,-32.03 46.95,-30.37"/>
</g>
<!-- proj:agentkit -->
<g id="node3" class="node">
<title>proj:agentkit</title>
<g id="a_node3"><a xlink:href="https://github.com/coinbase/agentkit" xlink:title="https://github.com/coinbase/agentkit">
<polygon fill="#f59e0b" stroke="black" stroke-width="0" points="141.98,-29 91.47,-14.5 141.98,0 192.48,-14.5 141.98,-29"/>
<text text-anchor="middle" x="141.98" y="-12.3" font-family="Helvetica,sans-Serif" font-size="9.00" fill="#1a1f2c">AgentKit</text>
</a>
</g>
</g>
<!-- cat:financial&#45;tools&#45;&gt;proj:agentkit -->
<g id="edge2" class="edge">
<title>cat:financial&#45;tools&#45;&gt;proj:agentkit</title>
<path fill="none" stroke="#c8cfdb" stroke-width="0.8" d="M111.76,-70.69C119.25,-57.01 127.15,-42.58 132.99,-31.91"/>
<polygon fill="#c8cfdb" stroke="#c8cfdb" stroke-width="0.8" points="134.66,-32.51 135.52,-27.29 131.59,-30.83 134.66,-32.51"/>
</g>
</g>
</svg>
