<?xml version="1.0" encoding="UTF-8" standalone="no"?>
<!DOCTYPE svg PUBLIC "-//W3C//DTD SVG 1.1//EN"
 "http://www.w3.org/Graphics/SVG/1.1/DTD/svg11.dtd">
<!-- Generated by graphviz version 2.42.4 (0)
 -->
<!-- Title: G Pages: 1 -->
<svg width="2144pt" height="585pt"
 viewBox="0.00 0.00 2144.15 584.56" xmlns="http://www.w3.org/2000/svg" xmlns:xlink="http://www.w3.org/1999/xlink">
<g id="graph0" class="graph" transform="scale(1 1) rotate(0) translate(28.8 555.76)">
<title>G</title>
<polygon fill="#f7f8fa" stroke="transparent" points="-28.8,28.8 -28.8,-555.76 2115.35,-555.76 2115.35,28.8 -28.8,28.8"/>
<text text-anchor="middle" x="1043.28" y="-505.36" font-family="Helvetica,sans-Serif" font-size="22.00">Frameworks</text>
<!-- cat:frameworks -->
<g id="node1" class="node">
<title>cat:frameworks</title>
<g id="a_node1"><a xlink:title="General&#45;purpose frameworks for building agents and agentic applications.">
<ellipse fill="#1f6feb" stroke="black" stroke-width="0" cx="851.7" cy="-438.96" rx="56" ry="56"/>
<text text-anchor="middle" x="851.7" y="-436.16" font-family="Helvetica,sans-Serif" font-size="11.00" fill="#1a1f2c">Frameworks</text>
</a>
</g>
</g>
<!-- proj:autogen -->
<g id="node2" class="node">
<title>proj:autogen</title>
<g id="a_node2"><a xlink:href="https://github.com/microsoft/autogen" xlink:title="https://github.com/microsoft/autogen">
<polygon fill="#f59e0b" stroke="black" stroke-width="0" points="48.7,-285.7 -0.2,-271.2 48.7,-256.7 97.6,-271.2 48.7,-285.7"/>
<text text-anchor="middle" x="48.7" y="-269" font-family="Helvetica,sans-Serif" font-size="9.00" fill="#1a1f2c">autogen</text>
</a>
</g>
</g>
<!-- cat:frameworks&#45;&gt;proj:autogen -->
<g id="edge1" class="edge">
<title>cat:frameworks&#45;&gt;proj:autogen</title>
<path fill="none" stroke="#c8cfdb" stroke-width="0.8" d="M795.55,-436.69C642.83,-432.36 223.5,-414.47 105.7,-346.96 82.4,-333.61 65.51,-306.54 56.41,-288.9"/>
<polygon fill="#c8cfdb" stroke="#c8cfdb" stroke-width="0.8" points="57.85,-287.88 54.05,-284.19 54.72,-289.44 57.85,-287.88"/>
</g>
<!-- proj:uagents -->
<g id="node3" class="node">
<title>proj:uagents</title>
<g id="a_node3"><a xlink:href="https://github.com/fetchai/uAgents" xlink:title="https://github.com/fetchai/uAgents">
<polygon fill="#f59e0b" stroke="black" stroke-width="0" points="163.7,-285.7 114.8,-271.2 163.7,-256.7 212.6,-271.2 163.7,-285.7"/>
<text text-anchor="middle" x="163.7" y="-269" font-family="Helvetica,sans-Serif" font-size="9.00" fill="#1a1f2c">uAgents</text>
</a>
</g>
</g>
<!-- cat:frameworks&#45;&gt;proj:uagents -->
<g id="edge2" class="edge">
<title>cat:frameworks&#45;&gt;proj:uagents</title>
<path fill="none" stroke="#c8cfdb" stroke-width="0.8" d="M795.34,-435.19C659.65,-427.67 318.87,-403.54 221.7,-346.96 198.34,-333.36 181.05,-306.36 171.68,-288.8"/>
<polygon fill="#c8cfdb" stroke="#c8cfdb" stroke-width="0.8" points="173.1,-287.75 169.24,-284.12 170,-289.36 173.1,-287.75"/>
</g>
<!-- proj:ii&#45;agent -->
<g id="node4" class="node">
<title>proj:ii&#45;agent</title>
<g id="a_node4"><a xlink:href="https://github.com/Intelligent-Internet/ii-agent" xlink:title="https://github.com/Intelligent&#45;Internet/ii&#45;agent">
<polygon fill="#f59e0b" stroke="black" stroke-width="0" points="275.7,-285.7 230.51,-271.2 275.7,-256.7 320.89,-271.2 275.7,-285.7"/>
<text text-anchor="middle" x="275.7" y="-269" font-family="Helvetica,sans-Serif" font-size="9.00" fill="#1a1f2c">ii&#45;agent</text>
</a>
</g>
</g>
<!-- cat:frameworks&#45;&gt;proj:ii&#45;agent -->
<g id="edge3" class="edge">
<title>cat:frameworks&#45;&gt;proj:ii&#45;agent</title>
<path fill="none" stroke="#c8cfdb" stroke-width="0.8" d="M795.8,-433.54C677.63,-423.35 407.01,-395.32 329.7,-346.96 307.49,-333.07 291.61,-306.39 283.04,-288.95"/>
<polygon fill="#c8cfdb" stroke="#c8cfdb" stroke-width="0.8" points="284.56,-288.05 280.82,-284.29 281.4,-289.56 284.56,-288.05"/>
</g>
<!-- proj:agentforge -->
<g id="node5" class="node">
<title>proj:agentforge</title>
<g id="a_node5"><a xlink:href="https://github.com/DataBassGit/AgentForge" xlink:title="https://github.com/DataBassGit/AgentForge">
<polygon fill="#f59e0b" stroke="black" stroke-width="0" points="399.7,-285.7 338.55,-271.2 399.7,-256.7 460.85,-271.2 399.7,-285.7"/>
<text text-anchor="middle" x="399.7" y="-269" font-family="Helvetica,sans-Serif" font-size="9.00" fill="#1a1f2c">AgentForge</text>
</a>
</g>
</g>
<!-- cat:frameworks&#45;&gt;proj:agentforge -->
<g id="edge4" class="edge">
<title>cat:frameworks&#45;&gt;proj:agentforge</title>
<path fill="none" stroke="#c8cfdb" stroke-width="0.8" d="M795.82,-434.71C717.93,-428.03 574.5,-407.81 469.7,-346.96 444.33,-332.23 422.58,-305.42 410.33,-288.23"/>
<polygon fill="#c8cfdb" stroke="#c8cfdb" stroke-width="0.8" points="411.72,-287.17 407.42,-284.08 408.85,-289.18 411.72,-287.17"/>
</g>
<!-- proj:evoagentx -->
<g id="node6" class="node">
<title>proj:evoagentx</title>
<g id="a_node6"><a xlink:href="https://github.com/EvoAgentX/EvoAgentX" xlink:title="https://github.com/EvoAgentX/EvoAgentX">
<polygon fill="#f59e0b" stroke="black" stroke-width="0" points="538.7,-285.7 479.16,-271.2 538.7,-256.7 598.25,-271.2 538.7,-285.7"/>
<text text-anchor="middle" x="538.7" y="-269" font-family="Helvetica,sans-Serif" font-size="9.00" fill="#1a1f2c">EvoAgentX</text>
</a>
</g>
</g>
<!-- cat:frameworks&#45;&gt;proj:evoagentx -->
<g id="edge5" class="edge">
<title>cat:frameworks&#45;&gt;proj:evoagentx</title>
<path fill="none" stroke="#c8cfdb" stroke-width="0.8" d="M796.89,-425.41C745.05,-411.79 666.63,-386.53 607.7,-346.96 583.84,-330.94 562.44,-305.09 550.01,-288.37"/>
<polygon fill="#c8cfdb" stroke="#c8cfdb" stroke-width="0.8" points="551.11,-286.91 546.74,-283.91 548.28,-288.98 551.11,-286.91"/>
</g>
<!-- proj:aiopslab -->
<g id="node7" class="node">
<title>proj:aiopslab</title>
<g id="a_node7"><a xlink:href="https://github.com/microsoft/AIOpsLab" xlink:title="https://github.com/microsoft/AIOpsLab">
<polygon fill="#f59e0b" stroke="black" stroke-width="0" points="669.7,-285.7 616.28,-271.2 669.7,-256.7 723.12,-271.2 669.7,-285.7"/>
<text text-anchor="middle" x="669.7" y="-269" font-family="Helvetica,sans-Serif" font-size="9.00" fill="#1a1f2c">AIOpsLab</text>
</a>
</g>
</g>
<!-- cat:frameworks&#45;&gt;proj:aiopslab -->
<g id="edge6" class="edge">
<title>cat:frameworks&#45;&gt;proj:aiopslab</title>
<path fill="none" stroke="#c8cfdb" stroke-width="0.8" d="M805.56,-406.78C782.38,-390.19 754.46,-368.75 731.7,-346.96 712.11,-328.2 692.65,-303.49 680.9,-287.72"/>
<polygon fill="#c8cfdb" stroke="#c8cfdb" stroke-width="0.8" points="682.18,-286.5 677.8,-283.52 679.36,-288.59 682.18,-286.5"/>
</g>
<!-- cat:frameworks/net -->
<g id="node8" class="node">
<title>cat:frameworks/net</title>
<ellipse fill="#6aa9ff" stroke="black" stroke-width="0" cx="763.7" cy="-271.2" rx="23" ry="23"/>
<text text-anchor="middle" x="763.7" y="-268.7" font-family="Helvetica,sans-Serif" font-size="10.00" fill="#1a1f2c">.NET</text>
</g>
<!-- cat:frameworks&#45;&gt;cat:frameworks/net -->
<g id="edge7" class="edge">
<title>cat:frameworks&#45;&gt;cat:frameworks/net</title>
<path fill="none" stroke="#c8cfdb" stroke-width="0.8" d="M821.29,-391.49C812.58,-377.43 803.38,-361.79 795.7,-346.96 787.41,-330.97 779.44,-312.35 773.52,-297.69"/>
<polygon fill="#c8cfdb" stroke="#c8cfdb" stroke-width="0.8" points="775.08,-296.87 771.6,-292.88 771.83,-298.17 775.08,-296.87"/>
</g>
<!-- cat:frameworks/computer&#45;use -->
<g id="node10" class="node">
<title>cat:frameworks/computer&#45;use</title>
<g id="a_node10"><a xlink:title="Agents and frameworks that operate a computer the way a human would (mouse, keyboard, screen).">
<ellipse fill="#6aa9ff" stroke="black" stroke-width="0" cx="851.7" cy="-271.2" rx="47.43" ry="47.43"/>
<text text-anchor="middle" x="851.7" y="-268.7" font-family="Helvetica,sans-Serif" font-size="10.00" fill="#1a1f2c">Computer Use</text>
</a>
</g>
</g>
<!-- cat:frameworks&#45;&gt;cat:frameworks/computer&#45;use -->
<g id="edge9" class="edge">
<title>cat:frameworks&#45;&gt;cat:frameworks/computer&#45;use</title>
<path fill="none" stroke="#c8cfdb" stroke-width="0.8" d="M851.7,-382.76C851.7,-363.74 851.7,-342.51 851.7,-323.79"/>
<polygon fill="#c8cfdb" stroke="#c8cfdb" stroke-width="0.8" points="853.45,-323.58 851.7,-318.58 849.95,-323.58 853.45,-323.58"/>
</g>
<!-- cat:frameworks/multi&#45;agent -->
<g id="node12" class="node">
<title>cat:frameworks/multi&#45;agent</title>
<ellipse fill="#6aa9ff" stroke="black" stroke-width="0" cx="956.7" cy="-271.2" rx="40.16" ry="40.16"/>
<text text-anchor="middle" x="956.7" y="-268.7" font-family="Helvetica,sans-Serif" font-size="10.00" fill="#1a1f2c">Multi&#45;agent</text>
</g>
<!-- cat:frameworks&#45;&gt;cat:frameworks/multi&#45;agent -->
<g id="edge11" class="edge">
<title>cat:frameworks&#45;&gt;cat:frameworks/multi&#45;agent</title>
<path fill="none" stroke="#c8cfdb" stroke-width="0.8" d="M881.23,-391.35C897.56,-365.56 917.59,-333.95 932.9,-309.76"/>
<polygon fill="#c8cfdb" stroke="#c8cfdb" stroke-width="0.8" points="934.51,-310.5 935.71,-305.34 931.55,-308.63 934.51,-310.5"/>
</g>
<!-- cat:frameworks/multiagent&#45;orchestration -->
<g id="node14" class="node">
<title>cat:frameworks/multiagent&#45;orchestration</title>
<ellipse fill="#6aa9ff" stroke="black" stroke-width="0" cx="1090.7" cy="-271.2" rx="75.53" ry="75.53"/>
<text text-anchor="middle" x="1090.7" y="-268.7" font-family="Helvetica,sans-Serif" font-size="10.00" fill="#1a1f2c">Multiagent Orchestration</text>
</g>
<!-- cat:frameworks&#45;&gt;cat:frameworks/multiagent&#45;orchestration -->
<g id="edge13" class="edge">
<title>cat:frameworks&#45;&gt;cat:frameworks/multiagent&#45;orchestration</title>
<path fill="none" stroke="#c8cfdb" stroke-width="0.8" d="M901.04,-411.92C932.01,-394.83 972.27,-371.21 1005.7,-346.96 1014.18,-340.81 1022.81,-333.99 1031.16,-327.03"/>
<polygon fill="#c8cfdb" stroke="#c8cfdb" stroke-width="0.8" points="1032.53,-328.16 1035.24,-323.6 1030.28,-325.48 1032.53,-328.16"/>
</g>
<!-- cat:frameworks/multimodal -->
<g id="node16" class="node">
<title>cat:frameworks/multimodal</title>
<ellipse fill="#6aa9ff" stroke="black" stroke-width="0" cx="1223.7" cy="-271.2" rx="39.56" ry="39.56"/>
<text text-anchor="middle" x="1223.7" y="-268.7" font-family="Helvetica,sans-Serif" font-size="10.00" fill="#1a1f2c">Multimodal</text>
</g>
<!-- cat:frameworks&#45;&gt;cat:frameworks/multimodal -->
<g id="edge15" class="edge">
<title>cat:frameworks&#45;&gt;cat:frameworks/multimodal</title>
<path fill="none" stroke="#c8cfdb" stroke-width="0.8" d="M907.67,-434.27C976.77,-427.2 1095.03,-406.64 1175.7,-346.96 1187.85,-337.97 1197.73,-324.92 1205.3,-312.22"/>
<polygon fill="#c8cfdb" stroke="#c8cfdb" stroke-width="0.8" points="1207,-312.77 1207.98,-307.57 1203.97,-311.02 1207,-312.77"/>
</g>
<!-- cat:frameworks/optimisation -->
<g id="node18" class="node">
<title>cat:frameworks/optimisation</title>
<ellipse fill="#6aa9ff" stroke="black" stroke-width="0" cx="1351.7" cy="-271.2" rx="43.84" ry="43.84"/>
<text text-anchor="middle" x="1351.7" y="-268.7" font-family="Helvetica,sans-Serif" font-size="10.00" fill="#1a1f2c">Optimisation</text>
</g>
<!-- cat:frameworks&#45;&gt;cat:frameworks/optimisation -->
<g id="edge17" class="edge">
<title>cat:frameworks&#45;&gt;cat:frameworks/optimisation</title>
<path fill="none" stroke="#c8cfdb" stroke-width="0.8" d="M907.76,-435.39C991.65,-429.5 1152.82,-410.19 1272.7,-346.96 1290.41,-337.62 1307,-323.19 1320.36,-309.49"/>
<polygon fill="#c8cfdb" stroke="#c8cfdb" stroke-width="0.8" points="1321.85,-310.47 1324.05,-305.65 1319.32,-308.05 1321.85,-310.47"/>
</g>
<!-- cat:frameworks/social&#45;simulations -->
<g id="node21" class="node">
<title>cat:frameworks/social&#45;simulations</title>
<ellipse fill="#6aa9ff" stroke="black" stroke-width="0" cx="1497.7" cy="-271.2" rx="57.8" ry="57.8"/>
<text text-anchor="middle" x="1497.7" y="-268.7" font-family="Helvetica,sans-Serif" font-size="10.00" fill="#1a1f2c">Social Simulations</text>
</g>
<!-- cat:frameworks&#45;&gt;cat:frameworks/social&#45;simulations -->
<g id="edge20" class="edge">
<title>cat:frameworks&#45;&gt;cat:frameworks/social&#45;simulations</title>
<path fill="none" stroke="#c8cfdb" stroke-width="0.8" d="M907.73,-438C1010.7,-436.11 1235.02,-422.76 1404.7,-346.96 1421.82,-339.32 1438.45,-327.73 1452.81,-315.95"/>
<polygon fill="#c8cfdb" stroke="#c8cfdb" stroke-width="0.8" points="1454.08,-317.17 1456.8,-312.63 1451.84,-314.49 1454.08,-317.17"/>
</g>
<!-- cat:frameworks/stateful&#45;design -->
<g id="node24" class="node">
<title>cat:frameworks/stateful&#45;design</title>
<ellipse fill="#6aa9ff" stroke="black" stroke-width="0" cx="1676.7" cy="-271.2" rx="50.52" ry="50.52"/>
<text text-anchor="middle" x="1676.7" y="-268.7" font-family="Helvetica,sans-Serif" font-size="10.00" fill="#1a1f2c">Stateful Design</text>
</g>
<!-- cat:frameworks&#45;&gt;cat:frameworks/stateful&#45;design -->
<g id="edge23" class="edge">
<title>cat:frameworks&#45;&gt;cat:frameworks/stateful&#45;design</title>
<path fill="none" stroke="#c8cfdb" stroke-width="0.8" d="M907.56,-434.15C1053.63,-423.66 1443.94,-392.11 1564.7,-346.96 1589.44,-337.71 1614.15,-322.07 1634.05,-307.47"/>
<polygon fill="#c8cfdb" stroke="#c8cfdb" stroke-width="0.8" points="1635.25,-308.76 1638.22,-304.38 1633.16,-305.95 1635.25,-308.76"/>
</g>
<!-- cat:frameworks/voice -->
<g id="node26" class="node">
<title>cat:frameworks/voice</title>
<g id="a_node26"><a xlink:title="Voice&#45;first agents and voice interaction frameworks.">
<ellipse fill="#6aa9ff" stroke="black" stroke-width="0" cx="1849.7" cy="-271.2" rx="25.5" ry="25.5"/>
<text text-anchor="middle" x="1849.7" y="-268.7" font-family="Helvetica,sans-Serif" font-size="10.00" fill="#1a1f2c">Voice</text>
</a>
</g>
</g>
<!-- cat:frameworks&#45;&gt;cat:frameworks/voice -->
<g id="edge25" class="edge">
<title>cat:frameworks&#45;&gt;cat:frameworks/voice</title>
<path fill="none" stroke="#c8cfdb" stroke-width="0.8" d="M907.78,-435.69C1077.38,-428.29 1582.63,-402.07 1736.7,-346.96 1771.11,-334.66 1805.36,-309.76 1826.98,-292.08"/>
<polygon fill="#c8cfdb" stroke="#c8cfdb" stroke-width="0.8" points="1828.13,-293.4 1830.87,-288.87 1825.9,-290.7 1828.13,-293.4"/>
</g>
<!-- proj:botsharp -->
<g id="node9" class="node">
<title>proj:botsharp</title>
<g id="a_node9"><a xlink:href="https://github.com/SciSharp/BotSharp" xlink:title="https://github.com/SciSharp/BotSharp">
<polygon fill="#f59e0b" stroke="black" stroke-width="0" points="732.7,-126.72 679.28,-112.22 732.7,-97.72 786.12,-112.22 732.7,-126.72"/>
<text text-anchor="middle" x="732.7" y="-110.02" font-family="Helvetica,sans-Serif" font-size="9.00" fill="#1a1f2c">BotSharp</text>
</a>
</g>
</g>
<!-- cat:frameworks/net&#45;&gt;proj:botsharp -->
<g id="edge8" class="edge">
<title>cat:frameworks/net&#45;&gt;proj:botsharp</title>
<path fill="none" stroke="#c8cfdb" stroke-width="0.8" d="M759.39,-248.37C753.22,-217.12 741.98,-160.22 736.26,-131.23"/>
<polygon fill="#c8cfdb" stroke="#c8cfdb" stroke-width="0.8" points="737.94,-130.72 735.26,-126.15 734.51,-131.4 737.94,-130.72"/>
</g>
<!-- proj:agent&#45;s -->
<g id="node11" class="node">
<title>proj:agent&#45;s</title>
<g id="a_node11"><a xlink:href="https://github.com/simular-ai/Agent-S" xlink:title="https://github.com/simular&#45;ai/Agent&#45;S">
<polygon fill="#f59e0b" stroke="black" stroke-width="0" points="851.7,-126.72 804.1,-112.22 851.7,-97.72 899.3,-112.22 851.7,-126.72"/>
<text text-anchor="middle" x="851.7" y="-110.02" font-family="Helvetica,sans-Serif" font-size="9.00" fill="#1a1f2c">Agent&#45;S</text>
</a>
</g>
</g>
<!-- cat:frameworks/computer&#45;use&#45;&gt;proj:agent&#45;s -->
<g id="edge10" class="edge">
<title>cat:frameworks/computer&#45;use&#45;&gt;proj:agent&#45;s</title>
<path fill="none" stroke="#c8cfdb" stroke-width="0.8" d="M851.7,-223.95C851.7,-193.3 851.7,-154.72 851.7,-132.13"/>
<polygon fill="#c8cfdb" stroke="#c8cfdb" stroke-width="0.8" points="853.45,-132.02 851.7,-127.02 849.95,-132.02 853.45,-132.02"/>
</g>
<!-- proj:camel -->
<g id="node13" class="node">
<title>proj:camel</title>
<g id="a_node13"><a xlink:href="https://github.com/camel-ai/camel" xlink:title="https://github.com/camel&#45;ai/camel">
<polygon fill="#f59e0b" stroke="black" stroke-width="0" points="956.7,-126.72 916.84,-112.22 956.7,-97.72 996.56,-112.22 956.7,-126.72"/>
<text text-anchor="middle" x="956.7" y="-110.02" font-family="Helvetica,sans-Serif" font-size="9.00" fill="#1a1f2c">camel</text>
</a>
</g>
</g>
<!-- cat:frameworks/multi&#45;agent&#45;&gt;proj:camel -->
<g id="edge12" class="edge">
<title>cat:frameworks/multi&#45;agent&#45;&gt;proj:camel</title>
<path fill="none" stroke="#c8cfdb" stroke-width="0.8" d="M956.7,-230.99C956.7,-199.41 956.7,-156.41 956.7,-132.06"/>
<polygon fill="#c8cfdb" stroke="#c8cfdb" stroke-width="0.8" points="958.45,-131.87 956.7,-126.87 954.95,-131.87 958.45,-131.87"/>
</g>
<!-- proj:crewai -->
<g id="node15" class="node">
<title>proj:crewai</title>
<g id="a_node15"><a xlink:href="https://github.com/crewAIInc/crewAI" xlink:title="https://github.com/crewAIInc/crewAI">
<polygon fill="#f59e0b" stroke="black" stroke-width="0" points="1056.7,-126.72 1014.43,-112.22 1056.7,-97.72 1098.98,-112.22 1056.7,-126.72"/>
<text text-anchor="middle" x="1056.7" y="-110.02" font-family="Helvetica,sans-Serif" font-size="9.00" fill="#1a1f2c">crewAI</text>
</a>
</g>
</g>
<!-- cat:frameworks/multiagent&#45;orchestration&#45;&gt;proj:crewai -->
<g id="edge14" class="edge">
<title>cat:frameworks/multiagent&#45;orchestration&#45;&gt;proj:crewai</title>
<path fill="none" stroke="#c8cfdb" stroke-width="0.8" d="M1074.8,-196.76C1069.52,-172.39 1064.1,-147.36 1060.58,-131.13"/>
<polygon fill="#c8cfdb" stroke="#c8cfdb" stroke-width="0.8" points="1062.23,-130.5 1059.47,-125.98 1058.81,-131.24 1062.23,-130.5"/>
</g>
<!-- proj:videosdk&#45;live&#45;agents -->
<g id="node17" class="node">
<title>proj:videosdk&#45;live&#45;agents</title>
<g id="a_node17"><a xlink:href="https://github.com/videosdk-live/agents" xlink:title="https://github.com/videosdk&#45;live/agents">
<polygon fill="#f59e0b" stroke="black" stroke-width="0" points="1214.7,-126.72 1117.4,-112.22 1214.7,-97.72 1312,-112.22 1214.7,-126.72"/>
<text text-anchor="middle" x="1214.7" y="-110.02" font-family="Helvetica,sans-Serif" font-size="9.00" fill="#1a1f2c">videosdk&#45;live/agents</text>
</a>
</g>
</g>
<!-- cat:frameworks/multimodal&#45;&gt;proj:videosdk&#45;live&#45;agents -->
<g id="edge16" class="edge">
<title>cat:frameworks/multimodal&#45;&gt;proj:videosdk&#45;live&#45;agents</title>
<path fill="none" stroke="#c8cfdb" stroke-width="0.8" d="M1221.48,-231.39C1219.67,-199.82 1217.19,-156.63 1215.79,-132.16"/>
<polygon fill="#c8cfdb" stroke="#c8cfdb" stroke-width="0.8" points="1217.52,-131.83 1215.49,-126.94 1214.03,-132.03 1217.52,-131.83"/>
</g>
<!-- cat:frameworks/optimisation/parallelisation -->
<g id="node19" class="node">
<title>cat:frameworks/optimisation/parallelisation</title>
<ellipse fill="#6aa9ff" stroke="black" stroke-width="0" cx="1377.7" cy="-112.22" rx="47.43" ry="47.43"/>
<text text-anchor="middle" x="1377.7" y="-109.72" font-family="Helvetica,sans-Serif" font-size="10.00" fill="#1a1f2c">Parallelisation</text>
</g>
<!-- cat:frameworks/optimisation&#45;&gt;cat:frameworks/optimisation/parallelisation -->
<g id="edge18" class="edge">
<title>cat:frameworks/optimisation&#45;&gt;cat:frameworks/optimisation/parallelisation</title>
<path fill="none" stroke="#c8cfdb" stroke-width="0.8" d="M1358.74,-227.72C1361.98,-208.13 1365.86,-184.72 1369.26,-164.19"/>
<polygon fill="#c8cfdb" stroke="#c8cfdb" stroke-width="0.8" points="1371.02,-164.25 1370.11,-159.03 1367.57,-163.68 1371.02,-164.25"/>
</g>
<!-- proj:ensoai -->
<g id="node20" class="node">
<title>proj:ensoai</title>
<g id="a_node20"><a xlink:href="https://github.com/J3n5en/EnsoAI" xlink:title="https://github.com/J3n5en/EnsoAI">
<polygon fill="#f59e0b" stroke="black" stroke-width="0" points="1377.7,-29 1335.43,-14.5 1377.7,0 1419.98,-14.5 1377.7,-29"/>
<text text-anchor="middle" x="1377.7" y="-12.3" font-family="Helvetica,sans-Serif" font-size="9.00" fill="#1a1f2c">EnsoAI</text>
</a>
</g>
</g>
<!-- cat:frameworks/optimisation/parallelisation&#45;&gt;proj:ensoai -->
<g id="edge19" class="edge">
<title>cat:frameworks/optimisation/parallelisation&#45;&gt;proj:ensoai</title>
<path fill="none" stroke="#c8cfdb" stroke-width="0.8" d="M1377.7,-64.76C1377.7,-54.03 1377.7,-43.21 1377.7,-34.45"/>
<polygon fill="#c8cfdb" stroke="#c8cfdb" stroke-width="0.8" points="1379.45,-34.28 1377.7,-29.28 1375.95,-34.28 1379.45,-34.28"/>
</g>
<!-- proj:concordia -->
<g id="node22" class="node">
<title>proj:concordia</title>
<g id="a_node22"><a xlink:href="https://github.com/google-deepmind/concordia" xlink:title="https://github.com/google&#45;deepmind/concordia">
<polygon fill="#f59e0b" stroke="black" stroke-width="0" points="1497.7,-126.72 1442.67,-112.22 1497.7,-97.72 1552.73,-112.22 1497.7,-126.72"/>
<text text-anchor="middle" x="1497.7" y="-110.02" font-family="Helvetica,sans-Serif" font-size="9.00" fill="#1a1f2c">concordia</text>
</a>
</g>
</g>
<!-- cat:frameworks/social&#45;simulations&#45;&gt;proj:concordia -->
<g id="edge21" class="edge">
<title>cat:frameworks/social&#45;simulations&#45;&gt;proj:concordia</title>
<path fill="none" stroke="#c8cfdb" stroke-width="0.8" d="M1497.7,-213.52C1497.7,-184.82 1497.7,-151.9 1497.7,-131.83"/>
<polygon fill="#c8cfdb" stroke="#c8cfdb" stroke-width="0.8" points="1499.45,-131.77 1497.7,-126.77 1495.95,-131.77 1499.45,-131.77"/>
</g>
<!-- proj:moltbook -->
<g id="node23" class="node">
<title>proj:moltbook</title>
<polygon fill="#f59e0b" stroke="black" stroke-width="0" points="1623.7,-126.72 1570.28,-112.22 1623.7,-97.72 1677.12,-112.22 1623.7,-126.72"/>
<text text-anchor="middle" x="1623.7" y="-110.02" font-family="Helvetica,sans-Serif" font-size="9.00" fill="#1a1f2c">moltbook</text>
</g>
<!-- cat:frameworks/social&#45;simulations&#45;&gt;proj:moltbook -->
<g id="edge22" class="edge">
<title>cat:frameworks/social&#45;simulations&#45;&gt;proj:moltbook</title>
<path fill="none" stroke="#c8cfdb" stroke-width="0.8" d="M1533.47,-225.63C1559.63,-193.03 1593.56,-150.77 1611.43,-128.5"/>
<polygon fill="#c8cfdb" stroke="#c8cfdb" stroke-width="0.8" points="1612.81,-129.58 1614.58,-124.58 1610.08,-127.38 1612.81,-129.58"/>
</g>
<!-- proj:letta -->
<g id="node25" class="node">
<title>proj:letta</title>
<g id="a_node25"><a xlink:href="https://github.com/letta-ai/letta" xlink:title="https://github.com/letta&#45;ai/letta">
<polygon fill="#f59e0b" stroke="black" stroke-width="0" points="1728.7,-126.72 1695.46,-112.22 1728.7,-97.72 1761.94,-112.22 1728.7,-126.72"/>
<text text-anchor="middle" x="1728.7" y="-110.02" font-family="Helvetica,sans-Serif" font-size="9.00" fill="#1a1f2c">letta</text>
</a>
</g>
</g>
<!-- cat:frameworks/stateful&#45;design&#45;&gt;proj:letta -->
<g id="edge24" class="edge">
<title>cat:frameworks/stateful&#45;design&#45;&gt;proj:letta</title>
<path fill="none" stroke="#c8cfdb" stroke-width="0.8" d="M1692.3,-223.1C1702.72,-191.66 1715.79,-152.18 1723.1,-130.12"/>
<polygon fill="#c8cfdb" stroke="#c8cfdb" stroke-width="0.8" points="1724.83,-130.46 1724.74,-125.17 1721.51,-129.36 1724.83,-130.46"/>
</g>
<!-- proj:livekit&#45;agents -->
<g id="node27" class="node">
<title>proj:livekit&#45;agents</title>
<g id="a_node27"><a xlink:href="https://github.com/livekit/agents" xlink:title="https://github.com/livekit/agents">
<polygon fill="#f59e0b" stroke="black" stroke-width="0" points="1849.7,-126.72 1780.31,-112.22 1849.7,-97.72 1919.09,-112.22 1849.7,-126.72"/>
<text text-anchor="middle" x="1849.7" y="-110.02" font-family="Helvetica,sans-Serif" font-size="9.00" fill="#1a1f2c">livekit/agents</text>
</a>
</g>
</g>
<!-- cat:frameworks/voice&#45;&gt;proj:livekit&#45;agents -->
<g id="edge26" class="edge">
<title>cat:frameworks/voice&#45;&gt;proj:livekit&#45;agents</title>
<path fill="none" stroke="#c8cfdb" stroke-width="0.8" d="M1849.7,-245.67C1849.7,-214.3 1849.7,-160.65 1849.7,-132.21"/>
<polygon fill="#c8cfdb" stroke="#c8cfdb" stroke-width="0.8" points="1851.45,-131.87 1849.7,-126.87 1847.95,-131.87 1851.45,-131.87"/>
</g>
<!-- proj:ten&#45;framework -->
<g id="node28" class="node">
<title>proj:ten&#45;framework</title>
<g id="a_node28"><a xlink:href="https://github.com/TEN-framework/ten-framework" xlink:title="https://github.com/TEN&#45;framework/ten&#45;framework">
<polygon fill="#f59e0b" stroke="black" stroke-width="0" points="2011.7,-126.72 1936.99,-112.22 2011.7,-97.72 2086.41,-112.22 2011.7,-126.72"/>
<text text-anchor="middle" x="2011.7" y="-110.02" font-family="Helvetica,sans-Serif" font-size="9.00" fill="#1a1f2c">ten&#45;framework</text>
</a>
</g>
</g>
<!-- cat:frameworks/voice&#45;&gt;proj:ten&#45;framework -->
<g id="edge27" class="edge">
<title>cat:frameworks/voice&#45;&gt;proj:ten&#45;framework</title>
<path fill="none" stroke="#c8cfdb" stroke-width="0.8" d="M1867.66,-252.8C1899.67,-221.78 1966.05,-157.45 1996.2,-128.24"/>
<polygon fill="#c8cfdb" stroke="#c8cfdb" stroke-width="0.8" points="1997.66,-129.26 2000.04,-124.52 1995.23,-126.74 1997.66,-129.26"/>
</g>
</g>
</svg>
