<?xml version="1.0" encoding="UTF-8" standalone="no"?>
<!DOCTYPE svg PUBLIC "-//W3C//DTD SVG 1.1//EN"
 "http://www.w3.org/Graphics/SVG/1.1/DTD/svg11.dtd">
<!-- Generated by graphviz version 2.42.4 (0)
 -->
<!-- Title: G Pages: 1 -->
<svg width="496pt" height="352pt"
 viewBox="0.00 0.00 495.51 351.93" xmlns="http://www.w3.org/2000/svg" xmlns:xlink="http://www.w3.org/1999/xlink">
<g id="graph0" class="graph" transform="scale(1 1) rotate(0) translate(28.8 323.13)">
<title>G</title>
<polygon fill="#f7f8fa" stroke="transparent" points="-28.8,28.8 -28.8,-323.13 466.71,-323.13 466.71,28.8 -28.8,28.8"/>
<text text-anchor="middle" x="218.95" y="-272.73" font-family="Helvetica,sans-Serif" font-size="22.00">Frontends</text>
<!-- cat:frontends -->
<g id="node1" class="node">
<title>cat:frontends</title>
<g id="a_node1"><a xlink:title="User&#45;facing interfaces — web, desktop, mobile, terminal — for interacting with agents.">
<ellipse fill="#6aa9ff" stroke="black" stroke-width="0" cx="198.68" cy="-227.78" rx="34.6" ry="34.6"/>
<text text-anchor="middle" x="198.68" y="-225.28" font-family="Helvetica,sans-Serif" font-size="10.00" fill="#1a1f2c">Frontends</text>
</a>
</g>
</g>
<!-- cat:frontends/android -->
<g id="node2" class="node">
<title>cat:frontends/android</title>
<ellipse fill="#6aa9ff" stroke="black" stroke-width="0" cx="57.68" cy="-111.12" rx="29.8" ry="29.8"/>
<text text-anchor="middle" x="57.68" y="-108.62" font-family="Helvetica,sans-Serif" font-size="10.00" fill="#1a1f2c">Android</text>
</g>
<!-- cat:frontends&#45;&gt;cat:frontends/android -->
<g id="edge1" class="edge">
<title>cat:frontends&#45;&gt;cat:frontends/android</title>
<path fill="none" stroke="#c8cfdb" stroke-width="0.8" d="M171.52,-206.14C153.75,-192.49 130.12,-174.07 109.68,-157.24 101.04,-150.12 91.76,-142.17 83.47,-134.95"/>
<polygon fill="#c8cfdb" stroke="#c8cfdb" stroke-width="0.8" points="84.4,-133.44 79.48,-131.47 82.1,-136.08 84.4,-133.44"/>
</g>
<!-- cat:frontends/chat&#45;uis -->
<g id="node4" class="node">
<title>cat:frontends/chat&#45;uis</title>
<ellipse fill="#6aa9ff" stroke="black" stroke-width="0" cx="150.68" cy="-111.12" rx="31.69" ry="31.69"/>
<text text-anchor="middle" x="150.68" y="-108.62" font-family="Helvetica,sans-Serif" font-size="10.00" fill="#1a1f2c">Chat UIs</text>
</g>
<!-- cat:frontends&#45;&gt;cat:frontends/chat&#45;uis -->
<g id="edge3" class="edge">
<title>cat:frontends&#45;&gt;cat:frontends/chat&#45;uis</title>
<path fill="none" stroke="#c8cfdb" stroke-width="0.8" d="M185.69,-195.75C179.2,-180.25 171.34,-161.46 164.71,-145.62"/>
<polygon fill="#c8cfdb" stroke="#c8cfdb" stroke-width="0.8" points="166.24,-144.75 162.69,-140.81 163.01,-146.1 166.24,-144.75"/>
</g>
<!-- cat:frontends/guis&#45;and&#45;clis -->
<g id="node6" class="node">
<title>cat:frontends/guis&#45;and&#45;clis</title>
<ellipse fill="#6aa9ff" stroke="black" stroke-width="0" cx="252.68" cy="-111.12" rx="46.24" ry="46.24"/>
<text text-anchor="middle" x="252.68" y="-108.62" font-family="Helvetica,sans-Serif" font-size="10.00" fill="#1a1f2c">GUIs and CLIs</text>
</g>
<!-- cat:frontends&#45;&gt;cat:frontends/guis&#45;and&#45;clis -->
<g id="edge5" class="edge">
<title>cat:frontends&#45;&gt;cat:frontends/guis&#45;and&#45;clis</title>
<path fill="none" stroke="#c8cfdb" stroke-width="0.8" d="M213.15,-196.06C218.66,-184.36 225.07,-170.76 231.09,-157.96"/>
<polygon fill="#c8cfdb" stroke="#c8cfdb" stroke-width="0.8" points="232.75,-158.55 233.29,-153.28 229.58,-157.06 232.75,-158.55"/>
</g>
<!-- cat:frontends/tuis&#45;and&#45;clis -->
<g id="node8" class="node">
<title>cat:frontends/tuis&#45;and&#45;clis</title>
<ellipse fill="#6aa9ff" stroke="black" stroke-width="0" cx="370.68" cy="-111.12" rx="45.64" ry="45.64"/>
<text text-anchor="middle" x="370.68" y="-108.62" font-family="Helvetica,sans-Serif" font-size="10.00" fill="#1a1f2c">TUIs and CLIs</text>
</g>
<!-- cat:frontends&#45;&gt;cat:frontends/tuis&#45;and&#45;clis -->
<g id="edge7" class="edge">
<title>cat:frontends&#45;&gt;cat:frontends/tuis&#45;and&#45;clis</title>
<path fill="none" stroke="#c8cfdb" stroke-width="0.8" d="M227.64,-208.9C249.77,-195.09 280.91,-175.35 307.68,-157.24 315.02,-152.28 322.74,-146.88 330.17,-141.61"/>
<polygon fill="#c8cfdb" stroke="#c8cfdb" stroke-width="0.8" points="331.21,-143.02 334.27,-138.7 329.18,-140.17 331.21,-143.02"/>
</g>
<!-- proj:operit -->
<g id="node3" class="node">
<title>proj:operit</title>
<g id="a_node3"><a xlink:href="https://github.com/AAswordman/Operit" xlink:title="https://github.com/AAswordman/Operit">
<polygon fill="#f59e0b" stroke="black" stroke-width="0" points="39.68,-29 -0.18,-14.5 39.68,0 79.55,-14.5 39.68,-29"/>
<text text-anchor="middle" x="39.68" y="-12.3" font-family="Helvetica,sans-Serif" font-size="9.00" fill="#1a1f2c">Operit</text>
</a>
</g>
</g>
<!-- cat:frontends/android&#45;&gt;proj:operit -->
<g id="edge2" class="edge">
<title>cat:frontends/android&#45;&gt;proj:operit</title>
<path fill="none" stroke="#c8cfdb" stroke-width="0.8" d="M52.28,-81.73C49.3,-66.06 45.69,-47.08 43.1,-33.46"/>
<polygon fill="#c8cfdb" stroke="#c8cfdb" stroke-width="0.8" points="44.78,-32.93 42.13,-28.35 41.34,-33.58 44.78,-32.93"/>
</g>
<!-- proj:agent&#45;ui -->
<g id="node5" class="node">
<title>proj:agent&#45;ui</title>
<g id="a_node5"><a xlink:href="https://github.com/agno-agi/agent-ui" xlink:title="https://github.com/agno&#45;agi/agent&#45;ui">
<polygon fill="#f59e0b" stroke="black" stroke-width="0" points="147.68,-29 97.17,-14.5 147.68,0 198.19,-14.5 147.68,-29"/>
<text text-anchor="middle" x="147.68" y="-12.3" font-family="Helvetica,sans-Serif" font-size="9.00" fill="#1a1f2c">Agent UI</text>
</a>
</g>
</g>
<!-- cat:frontends/chat&#45;uis&#45;&gt;proj:agent&#45;ui -->
<g id="edge4" class="edge">
<title>cat:frontends/chat&#45;uis&#45;&gt;proj:agent&#45;ui</title>
<path fill="none" stroke="#c8cfdb" stroke-width="0.8" d="M149.7,-79.14C149.23,-64.42 148.69,-47.31 148.29,-34.54"/>
<polygon fill="#c8cfdb" stroke="#c8cfdb" stroke-width="0.8" points="150.03,-34.29 148.12,-29.35 146.53,-34.4 150.03,-34.29"/>
</g>
<!-- proj:goose -->
<g id="node7" class="node">
<title>proj:goose</title>
<g id="a_node7"><a xlink:href="https://github.com/aaif-goose/goose" xlink:title="https://github.com/aaif&#45;goose/goose">
<polygon fill="#f59e0b" stroke="black" stroke-width="0" points="255.68,-29 215.82,-14.5 255.68,0 295.55,-14.5 255.68,-29"/>
<text text-anchor="middle" x="255.68" y="-12.3" font-family="Helvetica,sans-Serif" font-size="9.00" fill="#1a1f2c">Goose</text>
</a>
</g>
</g>
<!-- cat:frontends/guis&#45;and&#45;clis&#45;&gt;proj:goose -->
<g id="edge6" class="edge">
<title>cat:frontends/guis&#45;and&#45;clis&#45;&gt;proj:goose</title>
<path fill="none" stroke="#c8cfdb" stroke-width="0.8" d="M254.12,-64.75C254.46,-53.91 254.81,-42.93 255.09,-34.1"/>
<polygon fill="#c8cfdb" stroke="#c8cfdb" stroke-width="0.8" points="256.85,-33.95 255.26,-28.9 253.35,-33.84 256.85,-33.95"/>
</g>
<!-- proj:agent&#45;deck -->
<g id="node9" class="node">
<title>proj:agent&#45;deck</title>
<g id="a_node9"><a xlink:href="https://github.com/asheshgoplani/agent-deck" xlink:title="https://github.com/asheshgoplani/agent&#45;deck">
<polygon fill="#f59e0b" stroke="black" stroke-width="0" points="375.68,-29 313.22,-14.5 375.68,0 438.14,-14.5 375.68,-29"/>
<text text-anchor="middle" x="375.68" y="-12.3" font-family="Helvetica,sans-Serif" font-size="9.00" fill="#1a1f2c">Agent Deck</text>
</a>
</g>
</g>
<!-- cat:frontends/tuis&#45;and&#45;clis&#45;&gt;proj:agent&#45;deck -->
<g id="edge8" class="edge">
<title>cat:frontends/tuis&#45;and&#45;clis&#45;&gt;proj:agent&#45;deck</title>
<path fill="none" stroke="#c8cfdb" stroke-width="0.8" d="M373.04,-65.58C373.62,-54.52 374.21,-43.26 374.69,-34.22"/>
<polygon fill="#c8cfdb" stroke="#c8cfdb" stroke-width="0.8" points="376.44,-34.26 374.96,-29.18 372.95,-34.08 376.44,-34.26"/>
</g>
</g>
</svg>
