<?xml version="1.0" encoding="UTF-8" standalone="no"?>
<!DOCTYPE svg PUBLIC "-//W3C//DTD SVG 1.1//EN"
 "http://www.w3.org/Graphics/SVG/1.1/DTD/svg11.dtd">
<!-- Generated by graphviz version 2.42.4 (0)
 -->
<!-- Title: G Pages: 1 -->
<svg width="330pt" height="298pt"
 viewBox="0.00 0.00 329.60 298.44" xmlns="http://www.w3.org/2000/svg" xmlns:xlink="http://www.w3.org/1999/xlink">
<g id="graph0" class="graph" transform="scale(1 1) rotate(0) translate(28.8 269.64)">
<title>G</title>
<polygon fill="#f7f8fa" stroke="transparent" points="-28.8,28.8 -28.8,-269.64 300.8,-269.64 300.8,28.8 -28.8,28.8"/>
<text text-anchor="middle" x="136" y="-219.24" font-family="Helvetica,sans-Serif" font-size="22.00">Geopolitical Simulation</text>
<!-- cat:geopolitical&#45;simulation -->
<g id="node1" class="node">
<title>cat:geopolitical&#45;simulation</title>
<g id="a_node1"><a xlink:title="Simulations focused specifically on geopolitical scenarios and dynamics.">
<ellipse fill="#6aa9ff" stroke="black" stroke-width="0" cx="139.61" cy="-136.92" rx="71.84" ry="71.84"/>
<text text-anchor="middle" x="139.61" y="-134.42" font-family="Helvetica,sans-Serif" font-size="10.00" fill="#1a1f2c">Geopolitical Simulation</text>
</a>
</g>
</g>
<!-- proj:wargamesai -->
<g id="node2" class="node">
<title>proj:wargamesai</title>
<g id="a_node2"><a xlink:href="https://github.com/user1342/WargamesAI" xlink:title="https://github.com/user1342/WargamesAI">
<polygon fill="#f59e0b" stroke="black" stroke-width="0" points="68.61,-29 2.94,-14.5 68.61,0 134.28,-14.5 68.61,-29"/>
<text text-anchor="middle" x="68.61" y="-12.3" font-family="Helvetica,sans-Serif" font-size="9.00" fill="#1a1f2c">WargamesAI</text>
</a>
</g>
</g>
<!-- cat:geopolitical&#45;simulation&#45;&gt;proj:wargamesai -->
<g id="edge1" class="edge">
<title>cat:geopolitical&#45;simulation&#45;&gt;proj:wargamesai</title>
<path fill="none" stroke="#c8cfdb" stroke-width="0.8" d="M103.48,-74.65C94.25,-58.99 85.08,-43.43 78.45,-32.2"/>
<polygon fill="#c8cfdb" stroke="#c8cfdb" stroke-width="0.8" points="79.83,-31.08 75.78,-27.67 76.81,-32.86 79.83,-31.08"/>
</g>
<!-- proj:snowglobe -->
<g id="node3" class="node">
<title>proj:snowglobe</title>
<g id="a_node3"><a xlink:href="https://github.com/IQTLabs/snowglobe" xlink:title="https://github.com/IQTLabs/snowglobe">
<polygon fill="#f59e0b" stroke="black" stroke-width="0" points="210.61,-29 151.87,-14.5 210.61,0 269.35,-14.5 210.61,-29"/>
<text text-anchor="middle" x="210.61" y="-12.3" font-family="Helvetica,sans-Serif" font-size="9.00" fill="#1a1f2c">snowglobe</text>
</a>
</g>
</g>
<!-- cat:geopolitical&#45;simulation&#45;&gt;proj:snowglobe -->
<g id="edge2" class="edge">
<title>cat:geopolitical&#45;simulation&#45;&gt;proj:snowglobe</title>
<path fill="none" stroke="#c8cfdb" stroke-width="0.8" d="M175.73,-74.65C184.96,-58.99 194.14,-43.43 200.76,-32.2"/>
<polygon fill="#c8cfdb" stroke="#c8cfdb" stroke-width="0.8" points="202.4,-32.86 203.43,-27.67 199.39,-31.08 202.4,-32.86"/>
</g>
</g>
</svg>
