<?xml version="1.0" encoding="UTF-8" standalone="no"?>
<!DOCTYPE svg PUBLIC "-//W3C//DTD SVG 1.1//EN"
 "http://www.w3.org/Graphics/SVG/1.1/DTD/svg11.dtd">
<!-- Generated by graphviz version 2.42.4 (0)
 -->
<!-- Title: G Pages: 1 -->
<svg width="444pt" height="466pt"
 viewBox="0.00 0.00 444.34 466.46" xmlns="http://www.w3.org/2000/svg" xmlns:xlink="http://www.w3.org/1999/xlink">
<g id="graph0" class="graph" transform="scale(1 1) rotate(0) translate(28.8 437.66)">
<title>G</title>
<polygon fill="#f7f8fa" stroke="transparent" points="-28.8,28.8 -28.8,-437.66 415.54,-437.66 415.54,28.8 -28.8,28.8"/>
<text text-anchor="middle" x="193.37" y="-387.26" font-family="Helvetica,sans-Serif" font-size="22.00">LLMs</text>
<!-- cat:llms -->
<g id="node1" class="node">
<title>cat:llms</title>
<g id="a_node1"><a xlink:title="Language models, including those trained or tuned specifically for agentic use cases.">
<ellipse fill="#6aa9ff" stroke="black" stroke-width="0" cx="184.52" cy="-351.36" rx="25.5" ry="25.5"/>
<text text-anchor="middle" x="184.52" y="-348.86" font-family="Helvetica,sans-Serif" font-size="10.00" fill="#1a1f2c">LLMs</text>
</a>
</g>
</g>
<!-- proj:gemini&#45;3&#45;1 -->
<g id="node2" class="node">
<title>proj:gemini&#45;3&#45;1</title>
<polygon fill="#f59e0b" stroke="black" stroke-width="0" points="59.52,-257.15 -0.02,-242.65 59.52,-228.15 119.07,-242.65 59.52,-257.15"/>
<text text-anchor="middle" x="59.52" y="-240.45" font-family="Helvetica,sans-Serif" font-size="9.00" fill="#1a1f2c">Gemini 3.1</text>
</g>
<!-- cat:llms&#45;&gt;proj:gemini&#45;3&#45;1 -->
<g id="edge1" class="edge">
<title>cat:llms&#45;&gt;proj:gemini&#45;3&#45;1</title>
<path fill="none" stroke="#c8cfdb" stroke-width="0.8" d="M165.54,-334.16C141.11,-313.3 99.06,-277.4 75.94,-257.66"/>
<polygon fill="#c8cfdb" stroke="#c8cfdb" stroke-width="0.8" points="76.79,-256.09 71.85,-254.17 74.52,-258.75 76.79,-256.09"/>
</g>
<!-- cat:llms/agent&#45;specific -->
<g id="node3" class="node">
<title>cat:llms/agent&#45;specific</title>
<ellipse fill="#6aa9ff" stroke="black" stroke-width="0" cx="184.52" cy="-242.65" rx="47.43" ry="47.43"/>
<text text-anchor="middle" x="184.52" y="-240.15" font-family="Helvetica,sans-Serif" font-size="10.00" fill="#1a1f2c">Agent Specific</text>
</g>
<!-- cat:llms&#45;&gt;cat:llms/agent&#45;specific -->
<g id="edge2" class="edge">
<title>cat:llms&#45;&gt;cat:llms/agent&#45;specific</title>
<path fill="none" stroke="#c8cfdb" stroke-width="0.8" d="M184.52,-325.61C184.52,-316.51 184.52,-305.83 184.52,-295.25"/>
<polygon fill="#c8cfdb" stroke="#c8cfdb" stroke-width="0.8" points="186.27,-295.07 184.52,-290.07 182.77,-295.07 186.27,-295.07"/>
</g>
<!-- cat:llms/by&#45;use&#45;case -->
<g id="node5" class="node">
<title>cat:llms/by&#45;use&#45;case</title>
<ellipse fill="#6aa9ff" stroke="black" stroke-width="0" cx="323.52" cy="-242.65" rx="42.65" ry="42.65"/>
<text text-anchor="middle" x="323.52" y="-240.15" font-family="Helvetica,sans-Serif" font-size="10.00" fill="#1a1f2c">By Use Case</text>
</g>
<!-- cat:llms&#45;&gt;cat:llms/by&#45;use&#45;case -->
<g id="edge4" class="edge">
<title>cat:llms&#45;&gt;cat:llms/by&#45;use&#45;case</title>
<path fill="none" stroke="#c8cfdb" stroke-width="0.8" d="M204.44,-335.07C225.6,-318.83 259.56,-292.75 285.81,-272.6"/>
<polygon fill="#c8cfdb" stroke="#c8cfdb" stroke-width="0.8" points="287.06,-273.85 289.96,-269.42 284.92,-271.07 287.06,-273.85"/>
</g>
<!-- proj:grok&#45;4&#45;20&#45;multi&#45;agent -->
<g id="node4" class="node">
<title>proj:grok&#45;4&#45;20&#45;multi&#45;agent</title>
<g id="a_node4"><a xlink:href="https://openrouter.ai/x-ai/grok-4.20-multi-agent" xlink:title="https://openrouter.ai/x&#45;ai/grok&#45;4.20&#45;multi&#45;agent">
<polygon fill="#f59e0b" stroke="black" stroke-width="0" points="169.52,-126.72 64.79,-112.22 169.52,-97.72 274.25,-112.22 169.52,-126.72"/>
<text text-anchor="middle" x="169.52" y="-110.02" font-family="Helvetica,sans-Serif" font-size="9.00" fill="#1a1f2c">Grok 4.20 Multi&#45;Agent</text>
</a>
</g>
</g>
<!-- cat:llms/agent&#45;specific&#45;&gt;proj:grok&#45;4&#45;20&#45;multi&#45;agent -->
<g id="edge3" class="edge">
<title>cat:llms/agent&#45;specific&#45;&gt;proj:grok&#45;4&#45;20&#45;multi&#45;agent</title>
<path fill="none" stroke="#c8cfdb" stroke-width="0.8" d="M179.15,-195.64C176.58,-173.66 173.65,-148.57 171.7,-131.9"/>
<polygon fill="#c8cfdb" stroke="#c8cfdb" stroke-width="0.8" points="173.4,-131.35 171.08,-126.59 169.93,-131.76 173.4,-131.35"/>
</g>
<!-- cat:llms/by&#45;use&#45;case/computer&#45;use -->
<g id="node6" class="node">
<title>cat:llms/by&#45;use&#45;case/computer&#45;use</title>
<g id="a_node6"><a xlink:title="Agents and frameworks that operate a computer the way a human would (mouse, keyboard, screen).">
<ellipse fill="#6aa9ff" stroke="black" stroke-width="0" cx="339.52" cy="-112.22" rx="47.43" ry="47.43"/>
<text text-anchor="middle" x="339.52" y="-109.72" font-family="Helvetica,sans-Serif" font-size="10.00" fill="#1a1f2c">Computer Use</text>
</a>
</g>
</g>
<!-- cat:llms/by&#45;use&#45;case&#45;&gt;cat:llms/by&#45;use&#45;case/computer&#45;use -->
<g id="edge5" class="edge">
<title>cat:llms/by&#45;use&#45;case&#45;&gt;cat:llms/by&#45;use&#45;case/computer&#45;use</title>
<path fill="none" stroke="#c8cfdb" stroke-width="0.8" d="M328.72,-199.95C330.14,-188.54 331.69,-176.05 333.17,-164.19"/>
<polygon fill="#c8cfdb" stroke="#c8cfdb" stroke-width="0.8" points="334.92,-164.32 333.8,-159.14 331.45,-163.89 334.92,-164.32"/>
</g>
<!-- proj:fara -->
<g id="node7" class="node">
<title>proj:fara</title>
<g id="a_node7"><a xlink:href="https://github.com/microsoft/fara" xlink:title="https://github.com/microsoft/fara">
<polygon fill="#f59e0b" stroke="black" stroke-width="0" points="339.52,-29 307.89,-14.5 339.52,0 371.15,-14.5 339.52,-29"/>
<text text-anchor="middle" x="339.52" y="-12.3" font-family="Helvetica,sans-Serif" font-size="9.00" fill="#1a1f2c">Fara</text>
</a>
</g>
</g>
<!-- cat:llms/by&#45;use&#45;case/computer&#45;use&#45;&gt;proj:fara -->
<g id="edge6" class="edge">
<title>cat:llms/by&#45;use&#45;case/computer&#45;use&#45;&gt;proj:fara</title>
<path fill="none" stroke="#c8cfdb" stroke-width="0.8" d="M339.52,-64.76C339.52,-54.03 339.52,-43.21 339.52,-34.45"/>
<polygon fill="#c8cfdb" stroke="#c8cfdb" stroke-width="0.8" points="341.27,-34.28 339.52,-29.28 337.77,-34.28 341.27,-34.28"/>
</g>
</g>
</svg>
