<?xml version="1.0" encoding="UTF-8" standalone="no"?>
<!DOCTYPE svg PUBLIC "-//W3C//DTD SVG 1.1//EN"
 "http://www.w3.org/Graphics/SVG/1.1/DTD/svg11.dtd">
<!-- Generated by graphviz version 2.42.4 (0)
 -->
<!-- Title: G Pages: 1 -->
<svg width="528pt" height="325pt"
 viewBox="0.00 0.00 527.86 325.05" xmlns="http://www.w3.org/2000/svg" xmlns:xlink="http://www.w3.org/1999/xlink">
<g id="graph0" class="graph" transform="scale(1 1) rotate(0) translate(28.8 296.25)">
<title>G</title>
<polygon fill="#f7f8fa" stroke="transparent" points="-28.8,28.8 -28.8,-296.25 499.06,-296.25 499.06,28.8 -28.8,28.8"/>
<text text-anchor="middle" x="235.13" y="-245.85" font-family="Helvetica,sans-Serif" font-size="22.00">MCP</text>
<!-- cat:mcp -->
<g id="node1" class="node">
<title>cat:mcp</title>
<g id="a_node1"><a xlink:title="Projects in the Model Context Protocol ecosystem — servers, gateways, aggregators, clients.">
<ellipse fill="#6aa9ff" stroke="black" stroke-width="0" cx="182.98" cy="-209.95" rx="25.5" ry="25.5"/>
<text text-anchor="middle" x="182.98" y="-207.45" font-family="Helvetica,sans-Serif" font-size="10.00" fill="#1a1f2c">MCP</text>
</a>
</g>
</g>
<!-- cat:mcp/aggregation -->
<g id="node2" class="node">
<title>cat:mcp/aggregation</title>
<ellipse fill="#6aa9ff" stroke="black" stroke-width="0" cx="62.98" cy="-106.73" rx="41.95" ry="41.95"/>
<text text-anchor="middle" x="62.98" y="-104.23" font-family="Helvetica,sans-Serif" font-size="10.00" fill="#1a1f2c">Aggregation</text>
</g>
<!-- cat:mcp&#45;&gt;cat:mcp/aggregation -->
<g id="edge1" class="edge">
<title>cat:mcp&#45;&gt;cat:mcp/aggregation</title>
<path fill="none" stroke="#c8cfdb" stroke-width="0.8" d="M163.96,-192.91C146.42,-178.11 119.92,-155.76 98.46,-137.66"/>
<polygon fill="#c8cfdb" stroke="#c8cfdb" stroke-width="0.8" points="99.47,-136.22 94.52,-134.33 97.21,-138.9 99.47,-136.22"/>
</g>
<!-- cat:mcp/gateways -->
<g id="node4" class="node">
<title>cat:mcp/gateways</title>
<g id="a_node4"><a xlink:title="Gateway services that sit between agents and upstream services (LLMs, tools, data).">
<ellipse fill="#6aa9ff" stroke="black" stroke-width="0" cx="182.98" cy="-106.73" rx="35.87" ry="35.87"/>
<text text-anchor="middle" x="182.98" y="-104.23" font-family="Helvetica,sans-Serif" font-size="10.00" fill="#1a1f2c">Gateways</text>
</a>
</g>
</g>
<!-- cat:mcp&#45;&gt;cat:mcp/gateways -->
<g id="edge3" class="edge">
<title>cat:mcp&#45;&gt;cat:mcp/gateways</title>
<path fill="none" stroke="#c8cfdb" stroke-width="0.8" d="M182.98,-184.45C182.98,-173.49 182.98,-160.29 182.98,-147.94"/>
<polygon fill="#c8cfdb" stroke="#c8cfdb" stroke-width="0.8" points="184.73,-147.72 182.98,-142.72 181.23,-147.72 184.73,-147.72"/>
</g>
<!-- cat:mcp/third&#45;party -->
<g id="node6" class="node">
<title>cat:mcp/third&#45;party</title>
<ellipse fill="#6aa9ff" stroke="black" stroke-width="0" cx="327.98" cy="-106.73" rx="37.77" ry="37.77"/>
<text text-anchor="middle" x="327.98" y="-104.23" font-family="Helvetica,sans-Serif" font-size="10.00" fill="#1a1f2c">Third Party</text>
</g>
<!-- cat:mcp&#45;&gt;cat:mcp/third&#45;party -->
<g id="edge5" class="edge">
<title>cat:mcp&#45;&gt;cat:mcp/third&#45;party</title>
<path fill="none" stroke="#c8cfdb" stroke-width="0.8" d="M203.44,-194.66C226.64,-178.47 264.85,-151.8 292.84,-132.26"/>
<polygon fill="#c8cfdb" stroke="#c8cfdb" stroke-width="0.8" points="294.14,-133.48 297.24,-129.19 292.13,-130.61 294.14,-133.48"/>
</g>
<!-- proj:klavis -->
<g id="node3" class="node">
<title>proj:klavis</title>
<g id="a_node3"><a xlink:href="https://github.com/Klavis-AI/klavis" xlink:title="https://github.com/Klavis&#45;AI/klavis">
<polygon fill="#f59e0b" stroke="black" stroke-width="0" points="36.98,-29 0.02,-14.5 36.98,0 73.93,-14.5 36.98,-29"/>
<text text-anchor="middle" x="36.98" y="-12.3" font-family="Helvetica,sans-Serif" font-size="9.00" fill="#1a1f2c">klavis</text>
</a>
</g>
</g>
<!-- cat:mcp/aggregation&#45;&gt;proj:klavis -->
<g id="edge2" class="edge">
<title>cat:mcp/aggregation&#45;&gt;proj:klavis</title>
<path fill="none" stroke="#c8cfdb" stroke-width="0.8" d="M51.65,-66.41C48.28,-54.71 44.75,-42.48 42,-32.94"/>
<polygon fill="#c8cfdb" stroke="#c8cfdb" stroke-width="0.8" points="43.63,-32.26 40.56,-27.94 40.26,-33.23 43.63,-32.26"/>
</g>
<!-- proj:mcp&#45;context&#45;forge -->
<g id="node5" class="node">
<title>proj:mcp&#45;context&#45;forge</title>
<g id="a_node5"><a xlink:href="https://github.com/IBM/mcp-context-forge" xlink:title="https://github.com/IBM/mcp&#45;context&#45;forge">
<polygon fill="#f59e0b" stroke="black" stroke-width="0" points="182.98,-29 91.8,-14.5 182.98,0 274.15,-14.5 182.98,-29"/>
<text text-anchor="middle" x="182.98" y="-12.3" font-family="Helvetica,sans-Serif" font-size="9.00" fill="#1a1f2c">mcp&#45;context&#45;forge</text>
</a>
</g>
</g>
<!-- cat:mcp/gateways&#45;&gt;proj:mcp&#45;context&#45;forge -->
<g id="edge4" class="edge">
<title>cat:mcp/gateways&#45;&gt;proj:mcp&#45;context&#45;forge</title>
<path fill="none" stroke="#c8cfdb" stroke-width="0.8" d="M182.98,-70.84C182.98,-58.51 182.98,-45.1 182.98,-34.58"/>
<polygon fill="#c8cfdb" stroke="#c8cfdb" stroke-width="0.8" points="184.73,-34.35 182.98,-29.35 181.23,-34.35 184.73,-34.35"/>
</g>
<!-- proj:mcp&#45;server&#45;airbnb -->
<g id="node7" class="node">
<title>proj:mcp&#45;server&#45;airbnb</title>
<g id="a_node7"><a xlink:href="https://github.com/openbnb-org/mcp-server-airbnb" xlink:title="https://github.com/openbnb&#45;org/mcp&#45;server&#45;airbnb">
<polygon fill="#f59e0b" stroke="black" stroke-width="0" points="380.98,-29 291.91,-14.5 380.98,0 470.04,-14.5 380.98,-29"/>
<text text-anchor="middle" x="380.98" y="-12.3" font-family="Helvetica,sans-Serif" font-size="9.00" fill="#1a1f2c">mcp&#45;server&#45;airbnb</text>
</a>
</g>
</g>
<!-- cat:mcp/third&#45;party&#45;&gt;proj:mcp&#45;server&#45;airbnb -->
<g id="edge6" class="edge">
<title>cat:mcp/third&#45;party&#45;&gt;proj:mcp&#45;server&#45;airbnb</title>
<path fill="none" stroke="#c8cfdb" stroke-width="0.8" d="M346.81,-73.66C355.01,-59.71 364.27,-43.94 371.08,-32.34"/>
<polygon fill="#c8cfdb" stroke="#c8cfdb" stroke-width="0.8" points="372.64,-33.15 373.66,-27.96 369.62,-31.38 372.64,-33.15"/>
</g>
</g>
</svg>
