<?xml version="1.0" encoding="UTF-8" standalone="no"?>
<!DOCTYPE svg PUBLIC "-//W3C//DTD SVG 1.1//EN"
 "http://www.w3.org/Graphics/SVG/1.1/DTD/svg11.dtd">
<!-- Generated by graphviz version 2.42.4 (0)
 -->
<!-- Title: G Pages: 1 -->
<svg width="872pt" height="340pt"
 viewBox="0.00 0.00 872.10 339.56" xmlns="http://www.w3.org/2000/svg" xmlns:xlink="http://www.w3.org/1999/xlink">
<g id="graph0" class="graph" transform="scale(1 1) rotate(0) translate(28.8 310.76)">
<title>G</title>
<polygon fill="#f7f8fa" stroke="transparent" points="-28.8,28.8 -28.8,-310.76 843.3,-310.76 843.3,28.8 -28.8,28.8"/>
<text text-anchor="middle" x="407.25" y="-260.36" font-family="Helvetica,sans-Serif" font-size="22.00">Memory</text>
<!-- cat:memory -->
<g id="node1" class="node">
<title>cat:memory</title>
<g id="a_node1"><a xlink:title="Memory systems for agents — short&#45;term, long&#45;term, episodic, file&#45;backed, graph&#45;backed.">
<ellipse fill="#6aa9ff" stroke="black" stroke-width="0" cx="417.09" cy="-214.46" rx="35.5" ry="35.5"/>
<text text-anchor="middle" x="417.09" y="-211.96" font-family="Helvetica,sans-Serif" font-size="10.00" fill="#1a1f2c">Memory</text>
</a>
</g>
</g>
<!-- proj:cognee -->
<g id="node2" class="node">
<title>proj:cognee</title>
<g id="a_node2"><a xlink:href="https://github.com/topoteretes/cognee" xlink:title="https://github.com/topoteretes/cognee">
<polygon fill="#f59e0b" stroke="black" stroke-width="0" points="45.09,-118.48 -0.09,-103.98 45.09,-89.48 90.28,-103.98 45.09,-118.48"/>
<text text-anchor="middle" x="45.09" y="-101.78" font-family="Helvetica,sans-Serif" font-size="9.00" fill="#1a1f2c">cognee</text>
</a>
</g>
</g>
<!-- cat:memory&#45;&gt;proj:cognee -->
<g id="edge1" class="edge">
<title>cat:memory&#45;&gt;proj:cognee</title>
<path fill="none" stroke="#c8cfdb" stroke-width="0.8" d="M381.81,-210.21C321.59,-203.69 196.1,-185.77 99.09,-142.96 85.02,-136.75 70.87,-126.62 60.58,-118.38"/>
<polygon fill="#c8cfdb" stroke="#c8cfdb" stroke-width="0.8" points="61.68,-117.01 56.7,-115.21 59.46,-119.73 61.68,-117.01"/>
</g>
<!-- proj:agentmemory -->
<g id="node3" class="node">
<title>proj:agentmemory</title>
<g id="a_node3"><a xlink:href="https://github.com/rohitg00/agentmemory" xlink:title="https://github.com/rohitg00/agentmemory">
<polygon fill="#f59e0b" stroke="black" stroke-width="0" points="180.09,-118.48 107.8,-103.98 180.09,-89.48 252.39,-103.98 180.09,-118.48"/>
<text text-anchor="middle" x="180.09" y="-101.78" font-family="Helvetica,sans-Serif" font-size="9.00" fill="#1a1f2c">agentmemory</text>
</a>
</g>
</g>
<!-- cat:memory&#45;&gt;proj:agentmemory -->
<g id="edge2" class="edge">
<title>cat:memory&#45;&gt;proj:agentmemory</title>
<path fill="none" stroke="#c8cfdb" stroke-width="0.8" d="M385,-198.94C353.64,-184.73 304.54,-162.45 262.09,-142.96 243.1,-134.24 221.67,-124.31 205.48,-116.79"/>
<polygon fill="#c8cfdb" stroke="#c8cfdb" stroke-width="0.8" points="205.9,-115.06 200.63,-114.54 204.43,-118.24 205.9,-115.06"/>
</g>
<!-- proj:mem0 -->
<g id="node4" class="node">
<title>proj:mem0</title>
<g id="a_node4"><a xlink:href="https://github.com/mem0ai/mem0" xlink:title="https://github.com/mem0ai/mem0">
<polygon fill="#f59e0b" stroke="black" stroke-width="0" points="312.09,-118.48 270.62,-103.98 312.09,-89.48 353.56,-103.98 312.09,-118.48"/>
<text text-anchor="middle" x="312.09" y="-101.78" font-family="Helvetica,sans-Serif" font-size="9.00" fill="#1a1f2c">mem0</text>
</a>
</g>
</g>
<!-- cat:memory&#45;&gt;proj:mem0 -->
<g id="edge3" class="edge">
<title>cat:memory&#45;&gt;proj:mem0</title>
<path fill="none" stroke="#c8cfdb" stroke-width="0.8" d="M392.74,-188.3C371.9,-166.77 342.66,-136.56 325.71,-119.05"/>
<polygon fill="#c8cfdb" stroke="#c8cfdb" stroke-width="0.8" points="326.82,-117.68 322.09,-115.31 324.31,-120.12 326.82,-117.68"/>
</g>
<!-- proj:memos -->
<g id="node5" class="node">
<title>proj:memos</title>
<g id="a_node5"><a xlink:href="https://github.com/MemTensor/MemOS" xlink:title="https://github.com/MemTensor/MemOS">
<polygon fill="#f59e0b" stroke="black" stroke-width="0" points="417.09,-118.48 371.1,-103.98 417.09,-89.48 463.08,-103.98 417.09,-118.48"/>
<text text-anchor="middle" x="417.09" y="-101.78" font-family="Helvetica,sans-Serif" font-size="9.00" fill="#1a1f2c">MemOS</text>
</a>
</g>
</g>
<!-- cat:memory&#45;&gt;proj:memos -->
<g id="edge4" class="edge">
<title>cat:memory&#45;&gt;proj:memos</title>
<path fill="none" stroke="#c8cfdb" stroke-width="0.8" d="M417.09,-178.84C417.09,-160.61 417.09,-138.98 417.09,-123.85"/>
<polygon fill="#c8cfdb" stroke="#c8cfdb" stroke-width="0.8" points="418.84,-123.59 417.09,-118.59 415.34,-123.59 418.84,-123.59"/>
</g>
<!-- cat:memory/file -->
<g id="node6" class="node">
<title>cat:memory/file</title>
<ellipse fill="#6aa9ff" stroke="black" stroke-width="0" cx="504.09" cy="-103.98" rx="23" ry="23"/>
<text text-anchor="middle" x="504.09" y="-101.48" font-family="Helvetica,sans-Serif" font-size="10.00" fill="#1a1f2c">File</text>
</g>
<!-- cat:memory&#45;&gt;cat:memory/file -->
<g id="edge5" class="edge">
<title>cat:memory&#45;&gt;cat:memory/file</title>
<path fill="none" stroke="#c8cfdb" stroke-width="0.8" d="M438.82,-186.37C453.58,-167.97 472.83,-143.96 486.6,-126.79"/>
<polygon fill="#c8cfdb" stroke="#c8cfdb" stroke-width="0.8" points="488.21,-127.58 489.97,-122.58 485.48,-125.39 488.21,-127.58"/>
</g>
<!-- cat:memory/regressive -->
<g id="node8" class="node">
<title>cat:memory/regressive</title>
<ellipse fill="#6aa9ff" stroke="black" stroke-width="0" cx="584.09" cy="-103.98" rx="38.96" ry="38.96"/>
<text text-anchor="middle" x="584.09" y="-101.48" font-family="Helvetica,sans-Serif" font-size="10.00" fill="#1a1f2c">Regressive</text>
</g>
<!-- cat:memory&#45;&gt;cat:memory/regressive -->
<g id="edge7" class="edge">
<title>cat:memory&#45;&gt;cat:memory/regressive</title>
<path fill="none" stroke="#c8cfdb" stroke-width="0.8" d="M447.87,-196.74C472.32,-183.09 507.1,-162.89 536.09,-142.96 540.72,-139.78 545.48,-136.3 550.12,-132.77"/>
<polygon fill="#c8cfdb" stroke="#c8cfdb" stroke-width="0.8" points="551.45,-133.96 554.35,-129.52 549.32,-131.18 551.45,-133.96"/>
</g>
<!-- cat:memory/skills -->
<g id="node10" class="node">
<title>cat:memory/skills</title>
<g id="a_node10"><a xlink:title="Agent skills ecosystems — registries, bundles, standards, guides and package libraries.">
<ellipse fill="#6aa9ff" stroke="black" stroke-width="0" cx="714.09" cy="-103.98" rx="23.72" ry="23.72"/>
<text text-anchor="middle" x="714.09" y="-101.48" font-family="Helvetica,sans-Serif" font-size="10.00" fill="#1a1f2c">Skills</text>
</a>
</g>
</g>
<!-- cat:memory&#45;&gt;cat:memory/skills -->
<g id="edge9" class="edge">
<title>cat:memory&#45;&gt;cat:memory/skills</title>
<path fill="none" stroke="#c8cfdb" stroke-width="0.8" d="M451.04,-203.67C493.79,-191.04 569.23,-167.73 632.09,-142.96 651.27,-135.4 672.37,-125.6 688.36,-117.84"/>
<polygon fill="#c8cfdb" stroke="#c8cfdb" stroke-width="0.8" points="689.42,-119.27 693.15,-115.51 687.89,-116.13 689.42,-119.27"/>
</g>
<!-- proj:memvid -->
<g id="node7" class="node">
<title>proj:memvid</title>
<g id="a_node7"><a xlink:href="https://github.com/memvid/memvid" xlink:title="https://github.com/memvid/memvid">
<polygon fill="#f59e0b" stroke="black" stroke-width="0" points="408.09,-29 360.5,-14.5 408.09,0 455.69,-14.5 408.09,-29"/>
<text text-anchor="middle" x="408.09" y="-12.3" font-family="Helvetica,sans-Serif" font-size="9.00" fill="#1a1f2c">memvid</text>
</a>
</g>
</g>
<!-- cat:memory/file&#45;&gt;proj:memvid -->
<g id="edge6" class="edge">
<title>cat:memory/file&#45;&gt;proj:memvid</title>
<path fill="none" stroke="#c8cfdb" stroke-width="0.8" d="M490.49,-85.28C485.06,-78.64 478.56,-71.21 472.09,-65 457.7,-51.2 439.59,-37.48 426.31,-28"/>
<polygon fill="#c8cfdb" stroke="#c8cfdb" stroke-width="0.8" points="427.1,-26.41 422.01,-24.95 425.08,-29.27 427.1,-26.41"/>
</g>
<!-- proj:agentic&#45;context&#45;engine -->
<g id="node9" class="node">
<title>proj:agentic&#45;context&#45;engine</title>
<g id="a_node9"><a xlink:href="https://github.com/kayba-ai/agentic-context-engine" xlink:title="https://github.com/kayba&#45;ai/agentic&#45;context&#45;engine">
<polygon fill="#f59e0b" stroke="black" stroke-width="0" points="584.09,-29 474.04,-14.5 584.09,0 694.15,-14.5 584.09,-29"/>
<text text-anchor="middle" x="584.09" y="-12.3" font-family="Helvetica,sans-Serif" font-size="9.00" fill="#1a1f2c">agentic&#45;context&#45;engine</text>
</a>
</g>
</g>
<!-- cat:memory/regressive&#45;&gt;proj:agentic&#45;context&#45;engine -->
<g id="edge8" class="edge">
<title>cat:memory/regressive&#45;&gt;proj:agentic&#45;context&#45;engine</title>
<path fill="none" stroke="#c8cfdb" stroke-width="0.8" d="M584.09,-64.86C584.09,-54.24 584.09,-43.17 584.09,-34.21"/>
<polygon fill="#c8cfdb" stroke="#c8cfdb" stroke-width="0.8" points="585.84,-34.2 584.09,-29.2 582.34,-34.2 585.84,-34.2"/>
</g>
<!-- proj:acontext -->
<g id="node11" class="node">
<title>proj:acontext</title>
<g id="a_node11"><a xlink:href="https://github.com/memodb-io/Acontext" xlink:title="https://github.com/memodb&#45;io/Acontext">
<polygon fill="#f59e0b" stroke="black" stroke-width="0" points="763.09,-29 711.78,-14.5 763.09,0 814.4,-14.5 763.09,-29"/>
<text text-anchor="middle" x="763.09" y="-12.3" font-family="Helvetica,sans-Serif" font-size="9.00" fill="#1a1f2c">Acontext</text>
</a>
</g>
</g>
<!-- cat:memory/skills&#45;&gt;proj:acontext -->
<g id="edge10" class="edge">
<title>cat:memory/skills&#45;&gt;proj:acontext</title>
<path fill="none" stroke="#c8cfdb" stroke-width="0.8" d="M725.21,-83.13C733.89,-67.64 745.79,-46.39 753.93,-31.86"/>
<polygon fill="#c8cfdb" stroke="#c8cfdb" stroke-width="0.8" points="755.61,-32.43 756.53,-27.21 752.56,-30.72 755.61,-32.43"/>
</g>
</g>
</svg>
