<?xml version="1.0" encoding="UTF-8" standalone="no"?>
<!DOCTYPE svg PUBLIC "-//W3C//DTD SVG 1.1//EN"
 "http://www.w3.org/Graphics/SVG/1.1/DTD/svg11.dtd">
<!-- Generated by graphviz version 2.42.4 (0)
 -->
<!-- Title: G Pages: 1 -->
<svg width="871pt" height="340pt"
 viewBox="0.00 0.00 871.10 339.56" xmlns="http://www.w3.org/2000/svg" xmlns:xlink="http://www.w3.org/1999/xlink">
<g id="graph0" class="graph" transform="scale(1 1) rotate(0) translate(28.8 310.76)">
<title>G</title>
<polygon fill="#f7f8fa" stroke="transparent" points="-28.8,28.8 -28.8,-310.76 842.3,-310.76 842.3,28.8 -28.8,28.8"/>
<text text-anchor="middle" x="406.75" y="-260.36" font-family="Helvetica,sans-Serif" font-size="22.00">Memory</text>
<!-- cat:memory -->
<g id="node1" class="node">
<title>cat:memory</title>
<g id="a_node1"><a xlink:title="Memory systems for agents — short&#45;term, long&#45;term, episodic, file&#45;backed, graph&#45;backed.">
<ellipse fill="#6aa9ff" stroke="black" stroke-width="0" cx="414.09" cy="-214.46" rx="35.5" ry="35.5"/>
<text text-anchor="middle" x="414.09" y="-211.96" font-family="Helvetica,sans-Serif" font-size="10.00" fill="#1a1f2c">Memory</text>
</a>
</g>
</g>
<!-- proj:cognee -->
<g id="node2" class="node">
<title>proj:cognee</title>
<g id="a_node2"><a xlink:href="https://github.com/topoteretes/cognee" xlink:title="https://github.com/topoteretes/cognee">
<polygon fill="#f59e0b" stroke="black" stroke-width="0" points="45.09,-118.48 -0.09,-103.98 45.09,-89.48 90.28,-103.98 45.09,-118.48"/>
<text text-anchor="middle" x="45.09" y="-101.78" font-family="Helvetica,sans-Serif" font-size="9.00" fill="#1a1f2c">Cognee</text>
</a>
</g>
</g>
<!-- cat:memory&#45;&gt;proj:cognee -->
<g id="edge1" class="edge">
<title>cat:memory&#45;&gt;proj:cognee</title>
<path fill="none" stroke="#c8cfdb" stroke-width="0.8" d="M378.66,-210.1C318.83,-203.44 194.93,-185.36 99.09,-142.96 85.03,-136.74 70.87,-126.6 60.58,-118.37"/>
<polygon fill="#c8cfdb" stroke="#c8cfdb" stroke-width="0.8" points="61.68,-117.01 56.7,-115.2 59.47,-119.72 61.68,-117.01"/>
</g>
<!-- proj:agentmemory -->
<g id="node3" class="node">
<title>proj:agentmemory</title>
<g id="a_node3"><a xlink:href="https://github.com/rohitg00/agentmemory" xlink:title="https://github.com/rohitg00/agentmemory">
<polygon fill="#f59e0b" stroke="black" stroke-width="0" points="180.09,-118.48 107.8,-103.98 180.09,-89.48 252.39,-103.98 180.09,-118.48"/>
<text text-anchor="middle" x="180.09" y="-101.78" font-family="Helvetica,sans-Serif" font-size="9.00" fill="#1a1f2c">AgentMemory</text>
</a>
</g>
</g>
<!-- cat:memory&#45;&gt;proj:agentmemory -->
<g id="edge2" class="edge">
<title>cat:memory&#45;&gt;proj:agentmemory</title>
<path fill="none" stroke="#c8cfdb" stroke-width="0.8" d="M382.12,-198.8C351.15,-184.59 302.86,-162.38 261.09,-142.96 242.33,-134.24 221.16,-124.31 205.17,-116.79"/>
<polygon fill="#c8cfdb" stroke="#c8cfdb" stroke-width="0.8" points="205.65,-115.08 200.38,-114.54 204.16,-118.25 205.65,-115.08"/>
</g>
<!-- proj:mem0 -->
<g id="node4" class="node">
<title>proj:mem0</title>
<g id="a_node4"><a xlink:href="https://github.com/mem0ai/mem0" xlink:title="https://github.com/mem0ai/mem0">
<polygon fill="#f59e0b" stroke="black" stroke-width="0" points="310.09,-118.48 270.23,-103.98 310.09,-89.48 349.96,-103.98 310.09,-118.48"/>
<text text-anchor="middle" x="310.09" y="-101.78" font-family="Helvetica,sans-Serif" font-size="9.00" fill="#1a1f2c">Mem0</text>
</a>
</g>
</g>
<!-- cat:memory&#45;&gt;proj:mem0 -->
<g id="edge3" class="edge">
<title>cat:memory&#45;&gt;proj:mem0</title>
<path fill="none" stroke="#c8cfdb" stroke-width="0.8" d="M389.97,-188.3C369.22,-166.65 340.06,-136.23 323.31,-118.77"/>
<polygon fill="#c8cfdb" stroke="#c8cfdb" stroke-width="0.8" points="324.46,-117.44 319.74,-115.04 321.93,-119.86 324.46,-117.44"/>
</g>
<!-- proj:memos -->
<g id="node5" class="node">
<title>proj:memos</title>
<g id="a_node5"><a xlink:href="https://github.com/MemTensor/MemOS" xlink:title="https://github.com/MemTensor/MemOS">
<polygon fill="#f59e0b" stroke="black" stroke-width="0" points="414.09,-118.48 368.1,-103.98 414.09,-89.48 460.08,-103.98 414.09,-118.48"/>
<text text-anchor="middle" x="414.09" y="-101.78" font-family="Helvetica,sans-Serif" font-size="9.00" fill="#1a1f2c">MemOS</text>
</a>
</g>
</g>
<!-- cat:memory&#45;&gt;proj:memos -->
<g id="edge4" class="edge">
<title>cat:memory&#45;&gt;proj:memos</title>
<path fill="none" stroke="#c8cfdb" stroke-width="0.8" d="M414.09,-178.84C414.09,-160.61 414.09,-138.98 414.09,-123.85"/>
<polygon fill="#c8cfdb" stroke="#c8cfdb" stroke-width="0.8" points="415.84,-123.59 414.09,-118.59 412.34,-123.59 415.84,-123.59"/>
</g>
<!-- cat:memory/file -->
<g id="node6" class="node">
<title>cat:memory/file</title>
<ellipse fill="#6aa9ff" stroke="black" stroke-width="0" cx="501.09" cy="-103.98" rx="23" ry="23"/>
<text text-anchor="middle" x="501.09" y="-101.48" font-family="Helvetica,sans-Serif" font-size="10.00" fill="#1a1f2c">File</text>
</g>
<!-- cat:memory&#45;&gt;cat:memory/file -->
<g id="edge5" class="edge">
<title>cat:memory&#45;&gt;cat:memory/file</title>
<path fill="none" stroke="#c8cfdb" stroke-width="0.8" d="M435.82,-186.37C450.58,-167.97 469.83,-143.96 483.6,-126.79"/>
<polygon fill="#c8cfdb" stroke="#c8cfdb" stroke-width="0.8" points="485.21,-127.58 486.97,-122.58 482.48,-125.39 485.21,-127.58"/>
</g>
<!-- cat:memory/regressive -->
<g id="node8" class="node">
<title>cat:memory/regressive</title>
<ellipse fill="#6aa9ff" stroke="black" stroke-width="0" cx="581.09" cy="-103.98" rx="38.96" ry="38.96"/>
<text text-anchor="middle" x="581.09" y="-101.48" font-family="Helvetica,sans-Serif" font-size="10.00" fill="#1a1f2c">Regressive</text>
</g>
<!-- cat:memory&#45;&gt;cat:memory/regressive -->
<g id="edge7" class="edge">
<title>cat:memory&#45;&gt;cat:memory/regressive</title>
<path fill="none" stroke="#c8cfdb" stroke-width="0.8" d="M444.87,-196.74C469.32,-183.09 504.1,-162.89 533.09,-142.96 537.72,-139.78 542.48,-136.3 547.12,-132.77"/>
<polygon fill="#c8cfdb" stroke="#c8cfdb" stroke-width="0.8" points="548.45,-133.96 551.35,-129.52 546.32,-131.18 548.45,-133.96"/>
</g>
<!-- cat:memory/skills -->
<g id="node10" class="node">
<title>cat:memory/skills</title>
<g id="a_node10"><a xlink:title="Agent skills ecosystems — registries, bundles, standards, guides and package libraries.">
<ellipse fill="#6aa9ff" stroke="black" stroke-width="0" cx="712.09" cy="-103.98" rx="23.72" ry="23.72"/>
<text text-anchor="middle" x="712.09" y="-101.48" font-family="Helvetica,sans-Serif" font-size="10.00" fill="#1a1f2c">Skills</text>
</a>
</g>
</g>
<!-- cat:memory&#45;&gt;cat:memory/skills -->
<g id="edge9" class="edge">
<title>cat:memory&#45;&gt;cat:memory/skills</title>
<path fill="none" stroke="#c8cfdb" stroke-width="0.8" d="M448.02,-203.62C490.75,-190.94 566.17,-167.58 629.09,-142.96 648.62,-135.32 670.13,-125.43 686.36,-117.66"/>
<polygon fill="#c8cfdb" stroke="#c8cfdb" stroke-width="0.8" points="687.48,-119.07 691.22,-115.32 685.96,-115.91 687.48,-119.07"/>
</g>
<!-- proj:memvid -->
<g id="node7" class="node">
<title>proj:memvid</title>
<g id="a_node7"><a xlink:href="https://github.com/memvid/memvid" xlink:title="https://github.com/memvid/memvid">
<polygon fill="#f59e0b" stroke="black" stroke-width="0" points="404.09,-29 357.3,-14.5 404.09,0 450.89,-14.5 404.09,-29"/>
<text text-anchor="middle" x="404.09" y="-12.3" font-family="Helvetica,sans-Serif" font-size="9.00" fill="#1a1f2c">Memvid</text>
</a>
</g>
</g>
<!-- cat:memory/file&#45;&gt;proj:memvid -->
<g id="edge6" class="edge">
<title>cat:memory/file&#45;&gt;proj:memvid</title>
<path fill="none" stroke="#c8cfdb" stroke-width="0.8" d="M487.51,-85.25C482.09,-78.61 475.59,-71.18 469.09,-65 454.42,-51.03 435.88,-37.24 422.36,-27.77"/>
<polygon fill="#c8cfdb" stroke="#c8cfdb" stroke-width="0.8" points="423.09,-26.15 417.98,-24.74 421.09,-29.02 423.09,-26.15"/>
</g>
<!-- proj:agentic&#45;context&#45;engine -->
<g id="node9" class="node">
<title>proj:agentic&#45;context&#45;engine</title>
<g id="a_node9"><a xlink:href="https://github.com/kayba-ai/agentic-context-engine" xlink:title="https://github.com/kayba&#45;ai/agentic&#45;context&#45;engine">
<polygon fill="#f59e0b" stroke="black" stroke-width="0" points="581.09,-29 469.43,-14.5 581.09,0 692.75,-14.5 581.09,-29"/>
<text text-anchor="middle" x="581.09" y="-12.3" font-family="Helvetica,sans-Serif" font-size="9.00" fill="#1a1f2c">Agentic Context Engine</text>
</a>
</g>
</g>
<!-- cat:memory/regressive&#45;&gt;proj:agentic&#45;context&#45;engine -->
<g id="edge8" class="edge">
<title>cat:memory/regressive&#45;&gt;proj:agentic&#45;context&#45;engine</title>
<path fill="none" stroke="#c8cfdb" stroke-width="0.8" d="M581.09,-64.86C581.09,-54.24 581.09,-43.17 581.09,-34.21"/>
<polygon fill="#c8cfdb" stroke="#c8cfdb" stroke-width="0.8" points="582.84,-34.2 581.09,-29.2 579.34,-34.2 582.84,-34.2"/>
</g>
<!-- proj:acontext -->
<g id="node11" class="node">
<title>proj:acontext</title>
<g id="a_node11"><a xlink:href="https://github.com/memodb-io/Acontext" xlink:title="https://github.com/memodb&#45;io/Acontext">
<polygon fill="#f59e0b" stroke="black" stroke-width="0" points="762.09,-29 710.78,-14.5 762.09,0 813.4,-14.5 762.09,-29"/>
<text text-anchor="middle" x="762.09" y="-12.3" font-family="Helvetica,sans-Serif" font-size="9.00" fill="#1a1f2c">Acontext</text>
</a>
</g>
</g>
<!-- cat:memory/skills&#45;&gt;proj:acontext -->
<g id="edge10" class="edge">
<title>cat:memory/skills&#45;&gt;proj:acontext</title>
<path fill="none" stroke="#c8cfdb" stroke-width="0.8" d="M723.44,-83.13C732.29,-67.64 744.44,-46.39 752.74,-31.86"/>
<polygon fill="#c8cfdb" stroke="#c8cfdb" stroke-width="0.8" points="754.44,-32.42 755.4,-27.21 751.4,-30.69 754.44,-32.42"/>
</g>
</g>
</svg>
