<?xml version="1.0" encoding="UTF-8" standalone="no"?>
<!DOCTYPE svg PUBLIC "-//W3C//DTD SVG 1.1//EN"
 "http://www.w3.org/Graphics/SVG/1.1/DTD/svg11.dtd">
<!-- Generated by graphviz version 2.42.4 (0)
 -->
<!-- Title: G Pages: 1 -->
<svg width="338pt" height="417pt"
 viewBox="0.00 0.00 337.82 416.80" xmlns="http://www.w3.org/2000/svg" xmlns:xlink="http://www.w3.org/1999/xlink">
<g id="graph0" class="graph" transform="scale(1 1) rotate(0) translate(28.8 388)">
<title>G</title>
<polygon fill="#f7f8fa" stroke="transparent" points="-28.8,28.8 -28.8,-388 309.02,-388 309.02,28.8 -28.8,28.8"/>
<text text-anchor="middle" x="140.11" y="-337.6" font-family="Helvetica,sans-Serif" font-size="22.00">Multiagent</text>
<!-- cat:multiagent -->
<g id="node1" class="node">
<title>cat:multiagent</title>
<g id="a_node1"><a xlink:title="Systems built around multiple cooperating or competing agents.">
<ellipse fill="#6aa9ff" stroke="black" stroke-width="0" cx="149.22" cy="-289.31" rx="37.77" ry="37.77"/>
<text text-anchor="middle" x="149.22" y="-286.81" font-family="Helvetica,sans-Serif" font-size="10.00" fill="#1a1f2c">Multiagent</text>
</a>
</g>
</g>
<!-- cat:multiagent/large&#45;scale&#45;experiments -->
<g id="node2" class="node">
<title>cat:multiagent/large&#45;scale&#45;experiments</title>
<ellipse fill="#6aa9ff" stroke="black" stroke-width="0" cx="75.22" cy="-140.22" rx="75.43" ry="75.43"/>
<text text-anchor="middle" x="75.22" y="-137.72" font-family="Helvetica,sans-Serif" font-size="10.00" fill="#1a1f2c">Large Scale Experiments</text>
</g>
<!-- cat:multiagent&#45;&gt;cat:multiagent/large&#45;scale&#45;experiments -->
<g id="edge1" class="edge">
<title>cat:multiagent&#45;&gt;cat:multiagent/large&#45;scale&#45;experiments</title>
<path fill="none" stroke="#c8cfdb" stroke-width="0.8" d="M132.42,-254.94C126.05,-242.26 118.52,-227.29 111.05,-212.44"/>
<polygon fill="#c8cfdb" stroke="#c8cfdb" stroke-width="0.8" points="112.54,-211.52 108.73,-207.84 109.42,-213.1 112.54,-211.52"/>
</g>
<!-- cat:multiagent/swarm&#45;prediction -->
<g id="node4" class="node">
<title>cat:multiagent/swarm&#45;prediction</title>
<ellipse fill="#6aa9ff" stroke="black" stroke-width="0" cx="224.22" cy="-140.22" rx="56" ry="56"/>
<text text-anchor="middle" x="224.22" y="-137.72" font-family="Helvetica,sans-Serif" font-size="10.00" fill="#1a1f2c">Swarm Prediction</text>
</g>
<!-- cat:multiagent&#45;&gt;cat:multiagent/swarm&#45;prediction -->
<g id="edge3" class="edge">
<title>cat:multiagent&#45;&gt;cat:multiagent/swarm&#45;prediction</title>
<path fill="none" stroke="#c8cfdb" stroke-width="0.8" d="M166.05,-255.3C175.12,-237.51 186.54,-215.1 196.86,-194.87"/>
<polygon fill="#c8cfdb" stroke="#c8cfdb" stroke-width="0.8" points="198.47,-195.57 199.18,-190.32 195.35,-193.98 198.47,-195.57"/>
</g>
<!-- proj:agenttorch -->
<g id="node3" class="node">
<title>proj:agenttorch</title>
<g id="a_node3"><a xlink:href="https://github.com/AgentTorch/AgentTorch" xlink:title="https://github.com/AgentTorch/AgentTorch">
<polygon fill="#f59e0b" stroke="black" stroke-width="0" points="75.22,-29 14.06,-14.5 75.22,0 136.37,-14.5 75.22,-29"/>
<text text-anchor="middle" x="75.22" y="-12.3" font-family="Helvetica,sans-Serif" font-size="9.00" fill="#1a1f2c">AgentTorch</text>
</a>
</g>
</g>
<!-- cat:multiagent/large&#45;scale&#45;experiments&#45;&gt;proj:agenttorch -->
<g id="edge2" class="edge">
<title>cat:multiagent/large&#45;scale&#45;experiments&#45;&gt;proj:agenttorch</title>
<path fill="none" stroke="#c8cfdb" stroke-width="0.8" d="M75.22,-64.75C75.22,-53.39 75.22,-42.63 75.22,-34.08"/>
<polygon fill="#c8cfdb" stroke="#c8cfdb" stroke-width="0.8" points="76.97,-34.05 75.22,-29.05 73.47,-34.05 76.97,-34.05"/>
</g>
<!-- proj:mirofish -->
<g id="node5" class="node">
<title>proj:mirofish</title>
<g id="a_node5"><a xlink:href="https://github.com/666ghj/MiroFish" xlink:title="https://github.com/666ghj/MiroFish">
<polygon fill="#f59e0b" stroke="black" stroke-width="0" points="224.22,-29 176.62,-14.5 224.22,0 271.81,-14.5 224.22,-29"/>
<text text-anchor="middle" x="224.22" y="-12.3" font-family="Helvetica,sans-Serif" font-size="9.00" fill="#1a1f2c">MiroFish</text>
</a>
</g>
</g>
<!-- cat:multiagent/swarm&#45;prediction&#45;&gt;proj:mirofish -->
<g id="edge4" class="edge">
<title>cat:multiagent/swarm&#45;prediction&#45;&gt;proj:mirofish</title>
<path fill="none" stroke="#c8cfdb" stroke-width="0.8" d="M224.22,-83.87C224.22,-66.19 224.22,-47.8 224.22,-34.55"/>
<polygon fill="#c8cfdb" stroke="#c8cfdb" stroke-width="0.8" points="225.97,-34.2 224.22,-29.2 222.47,-34.2 225.97,-34.2"/>
</g>
</g>
</svg>
