<?xml version="1.0" encoding="UTF-8" standalone="no"?>
<!DOCTYPE svg PUBLIC "-//W3C//DTD SVG 1.1//EN"
 "http://www.w3.org/Graphics/SVG/1.1/DTD/svg11.dtd">
<!-- Generated by graphviz version 2.42.4 (0)
 -->
<!-- Title: G Pages: 1 -->
<svg width="196pt" height="373pt"
 viewBox="0.00 0.00 195.60 372.81" xmlns="http://www.w3.org/2000/svg" xmlns:xlink="http://www.w3.org/1999/xlink">
<g id="graph0" class="graph" transform="scale(1 1) rotate(0) translate(28.8 344.01)">
<title>G</title>
<polygon fill="#f7f8fa" stroke="transparent" points="-28.8,28.8 -28.8,-344.01 166.8,-344.01 166.8,28.8 -28.8,28.8"/>
<text text-anchor="middle" x="69" y="-293.61" font-family="Helvetica,sans-Serif" font-size="22.00">Operations</text>
<!-- cat:operations -->
<g id="node1" class="node">
<title>cat:operations</title>
<g id="a_node1"><a xlink:title="Operational concerns for running agents in production — cost, monitoring, reliability.">
<ellipse fill="#6aa9ff" stroke="black" stroke-width="0" cx="69" cy="-243.71" rx="39.49" ry="39.49"/>
<text text-anchor="middle" x="69" y="-241.21" font-family="Helvetica,sans-Serif" font-size="10.00" fill="#1a1f2c">Operations</text>
</a>
</g>
</g>
<!-- cat:operations/cost&#45;monitoring -->
<g id="node2" class="node">
<title>cat:operations/cost&#45;monitoring</title>
<ellipse fill="#6aa9ff" stroke="black" stroke-width="0" cx="69" cy="-116.61" rx="51.72" ry="51.72"/>
<text text-anchor="middle" x="69" y="-114.11" font-family="Helvetica,sans-Serif" font-size="10.00" fill="#1a1f2c">Cost Monitoring</text>
</g>
<!-- cat:operations&#45;&gt;cat:operations/cost&#45;monitoring -->
<g id="edge1" class="edge">
<title>cat:operations&#45;&gt;cat:operations/cost&#45;monitoring</title>
<path fill="none" stroke="#c8cfdb" stroke-width="0.8" d="M69,-204.16C69,-194.41 69,-183.74 69,-173.33"/>
<polygon fill="#c8cfdb" stroke="#c8cfdb" stroke-width="0.8" points="70.75,-173.25 69,-168.25 67.25,-173.25 70.75,-173.25"/>
</g>
<!-- proj:agentops -->
<g id="node3" class="node">
<title>proj:agentops</title>
<g id="a_node3"><a xlink:href="https://github.com/AgentOps-AI/agentops" xlink:title="https://github.com/AgentOps&#45;AI/agentops">
<polygon fill="#f59e0b" stroke="black" stroke-width="0" points="69,-29 13.97,-14.5 69,0 124.03,-14.5 69,-29"/>
<text text-anchor="middle" x="69" y="-12.3" font-family="Helvetica,sans-Serif" font-size="9.00" fill="#1a1f2c">AgentOps</text>
</a>
</g>
</g>
<!-- cat:operations/cost&#45;monitoring&#45;&gt;proj:agentops -->
<g id="edge2" class="edge">
<title>cat:operations/cost&#45;monitoring&#45;&gt;proj:agentops</title>
<path fill="none" stroke="#c8cfdb" stroke-width="0.8" d="M69,-64.97C69,-54.04 69,-43.16 69,-34.39"/>
<polygon fill="#c8cfdb" stroke="#c8cfdb" stroke-width="0.8" points="70.75,-34.22 69,-29.22 67.25,-34.22 70.75,-34.22"/>
</g>
</g>
</svg>
