<?xml version="1.0" encoding="UTF-8" standalone="no"?>
<!DOCTYPE svg PUBLIC "-//W3C//DTD SVG 1.1//EN"
 "http://www.w3.org/Graphics/SVG/1.1/DTD/svg11.dtd">
<!-- Generated by graphviz version 2.42.4 (0)
 -->
<!-- Title: G Pages: 1 -->
<svg width="768pt" height="388pt"
 viewBox="0.00 0.00 767.74 387.75" xmlns="http://www.w3.org/2000/svg" xmlns:xlink="http://www.w3.org/1999/xlink">
<g id="graph0" class="graph" transform="scale(1 1) rotate(0) translate(28.8 358.95)">
<title>G</title>
<polygon fill="#f7f8fa" stroke="transparent" points="-28.8,28.8 -28.8,-358.95 738.94,-358.95 738.94,28.8 -28.8,28.8"/>
<text text-anchor="middle" x="355.07" y="-308.55" font-family="Helvetica,sans-Serif" font-size="22.00">Orchestration</text>
<!-- cat:orchestration -->
<g id="node1" class="node">
<title>cat:orchestration</title>
<g id="a_node1"><a xlink:title="Orchestration engines for coordinating agents, tools and workflows.">
<ellipse fill="#6aa9ff" stroke="black" stroke-width="0" cx="310.41" cy="-254.48" rx="43.85" ry="43.85"/>
<text text-anchor="middle" x="310.41" y="-251.98" font-family="Helvetica,sans-Serif" font-size="10.00" fill="#1a1f2c">Orchestration</text>
</a>
</g>
</g>
<!-- proj:shannon -->
<g id="node2" class="node">
<title>proj:shannon</title>
<g id="a_node2"><a xlink:href="https://github.com/Kocoro-lab/Shannon" xlink:title="https://github.com/Kocoro&#45;lab/Shannon">
<polygon fill="#f59e0b" stroke="black" stroke-width="0" points="51.41,-134.4 0.09,-119.9 51.41,-105.4 102.72,-119.9 51.41,-134.4"/>
<text text-anchor="middle" x="51.41" y="-117.7" font-family="Helvetica,sans-Serif" font-size="9.00" fill="#1a1f2c">Shannon</text>
</a>
</g>
</g>
<!-- cat:orchestration&#45;&gt;proj:shannon -->
<g id="edge1" class="edge">
<title>cat:orchestration&#45;&gt;proj:shannon</title>
<path fill="none" stroke="#c8cfdb" stroke-width="0.8" d="M268.37,-241.66C226.64,-228.85 161.79,-205.99 111.41,-174.8 93.65,-163.81 76.22,-147.33 64.76,-135.49"/>
<polygon fill="#c8cfdb" stroke="#c8cfdb" stroke-width="0.8" points="65.83,-134.08 61.11,-131.67 63.3,-136.49 65.83,-134.08"/>
</g>
<!-- proj:conductor -->
<g id="node3" class="node">
<title>proj:conductor</title>
<g id="a_node3"><a xlink:href="https://github.com/conductor-oss/conductor" xlink:title="https://github.com/conductor&#45;oss/conductor">
<polygon fill="#f59e0b" stroke="black" stroke-width="0" points="177.41,-134.4 120.77,-119.9 177.41,-105.4 234.04,-119.9 177.41,-134.4"/>
<text text-anchor="middle" x="177.41" y="-117.7" font-family="Helvetica,sans-Serif" font-size="9.00" fill="#1a1f2c">conductor</text>
</a>
</g>
</g>
<!-- cat:orchestration&#45;&gt;proj:conductor -->
<g id="edge2" class="edge">
<title>cat:orchestration&#45;&gt;proj:conductor</title>
<path fill="none" stroke="#c8cfdb" stroke-width="0.8" d="M279.89,-223.06C252.31,-195.57 212.92,-156.3 191.91,-135.36"/>
<polygon fill="#c8cfdb" stroke="#c8cfdb" stroke-width="0.8" points="192.98,-133.96 188.21,-131.67 190.51,-136.44 192.98,-133.96"/>
</g>
<!-- proj:ai&#45;maestro -->
<g id="node4" class="node">
<title>proj:ai&#45;maestro</title>
<g id="a_node4"><a xlink:href="https://github.com/23blocks-OS/ai-maestro" xlink:title="https://github.com/23blocks&#45;OS/ai&#45;maestro">
<polygon fill="#f59e0b" stroke="black" stroke-width="0" points="310.41,-134.4 252.47,-119.9 310.41,-105.4 368.34,-119.9 310.41,-134.4"/>
<text text-anchor="middle" x="310.41" y="-117.7" font-family="Helvetica,sans-Serif" font-size="9.00" fill="#1a1f2c">ai&#45;maestro</text>
</a>
</g>
</g>
<!-- cat:orchestration&#45;&gt;proj:ai&#45;maestro -->
<g id="edge3" class="edge">
<title>cat:orchestration&#45;&gt;proj:ai&#45;maestro</title>
<path fill="none" stroke="#c8cfdb" stroke-width="0.8" d="M310.41,-210.8C310.41,-186.93 310.41,-158.36 310.41,-139.93"/>
<polygon fill="#c8cfdb" stroke="#c8cfdb" stroke-width="0.8" points="312.16,-139.56 310.41,-134.56 308.66,-139.56 312.16,-139.56"/>
</g>
<!-- proj:agent&#45;orchestrator -->
<g id="node5" class="node">
<title>proj:agent&#45;orchestrator</title>
<g id="a_node5"><a xlink:href="https://github.com/ComposioHQ/agent-orchestrator" xlink:title="https://github.com/ComposioHQ/agent&#45;orchestrator">
<polygon fill="#f59e0b" stroke="black" stroke-width="0" points="478.41,-134.4 386.43,-119.9 478.41,-105.4 570.38,-119.9 478.41,-134.4"/>
<text text-anchor="middle" x="478.41" y="-117.7" font-family="Helvetica,sans-Serif" font-size="9.00" fill="#1a1f2c">agent&#45;orchestrator</text>
</a>
</g>
</g>
<!-- cat:orchestration&#45;&gt;proj:agent&#45;orchestrator -->
<g id="edge4" class="edge">
<title>cat:orchestration&#45;&gt;proj:agent&#45;orchestrator</title>
<path fill="none" stroke="#c8cfdb" stroke-width="0.8" d="M344.4,-226.65C379.17,-199.21 431.9,-157.6 459.72,-135.65"/>
<polygon fill="#c8cfdb" stroke="#c8cfdb" stroke-width="0.8" points="461.12,-136.77 463.96,-132.3 458.95,-134.03 461.12,-136.77"/>
</g>
<!-- cat:orchestration/platform&#45;specific -->
<g id="node6" class="node">
<title>cat:orchestration/platform&#45;specific</title>
<ellipse fill="#6aa9ff" stroke="black" stroke-width="0" cx="643.41" cy="-119.9" rx="54.8" ry="54.8"/>
<text text-anchor="middle" x="643.41" y="-117.4" font-family="Helvetica,sans-Serif" font-size="10.00" fill="#1a1f2c">Platform&#45;Specific</text>
</g>
<!-- cat:orchestration&#45;&gt;cat:orchestration/platform&#45;specific -->
<g id="edge5" class="edge">
<title>cat:orchestration&#45;&gt;cat:orchestration/platform&#45;specific</title>
<path fill="none" stroke="#c8cfdb" stroke-width="0.8" d="M353.51,-246.58C408.46,-236.53 505.22,-214.59 579.41,-174.8 586.4,-171.05 593.33,-166.44 599.9,-161.52"/>
<polygon fill="#c8cfdb" stroke="#c8cfdb" stroke-width="0.8" points="601.04,-162.85 603.94,-158.42 598.91,-160.07 601.04,-162.85"/>
</g>
<!-- proj:agent&#45;squad -->
<g id="node7" class="node">
<title>proj:agent&#45;squad</title>
<g id="a_node7"><a xlink:href="https://github.com/awslabs/agent-squad" xlink:title="https://github.com/awslabs/agent&#45;squad">
<polygon fill="#f59e0b" stroke="black" stroke-width="0" points="643.41,-29 576.43,-14.5 643.41,0 710.38,-14.5 643.41,-29"/>
<text text-anchor="middle" x="643.41" y="-12.3" font-family="Helvetica,sans-Serif" font-size="9.00" fill="#1a1f2c">agent&#45;squad</text>
</a>
</g>
</g>
<!-- cat:orchestration/platform&#45;specific&#45;&gt;proj:agent&#45;squad -->
<g id="edge6" class="edge">
<title>cat:orchestration/platform&#45;specific&#45;&gt;proj:agent&#45;squad</title>
<path fill="none" stroke="#c8cfdb" stroke-width="0.8" d="M643.41,-64.78C643.41,-53.77 643.41,-42.91 643.41,-34.2"/>
<polygon fill="#c8cfdb" stroke="#c8cfdb" stroke-width="0.8" points="645.16,-34.07 643.41,-29.07 641.66,-34.07 645.16,-34.07"/>
</g>
</g>
</svg>
