<?xml version="1.0" encoding="UTF-8" standalone="no"?>
<!DOCTYPE svg PUBLIC "-//W3C//DTD SVG 1.1//EN"
 "http://www.w3.org/Graphics/SVG/1.1/DTD/svg11.dtd">
<!-- Generated by graphviz version 2.42.4 (0)
 -->
<!-- Title: G Pages: 1 -->
<svg width="775pt" height="388pt"
 viewBox="0.00 0.00 774.55 387.75" xmlns="http://www.w3.org/2000/svg" xmlns:xlink="http://www.w3.org/1999/xlink">
<g id="graph0" class="graph" transform="scale(1 1) rotate(0) translate(28.8 358.95)">
<title>G</title>
<polygon fill="#f7f8fa" stroke="transparent" points="-28.8,28.8 -28.8,-358.95 745.75,-358.95 745.75,28.8 -28.8,28.8"/>
<text text-anchor="middle" x="358.47" y="-308.55" font-family="Helvetica,sans-Serif" font-size="22.00">Orchestration</text>
<!-- cat:orchestration -->
<g id="node1" class="node">
<title>cat:orchestration</title>
<g id="a_node1"><a xlink:title="Orchestration engines for coordinating agents, tools and workflows.">
<ellipse fill="#6aa9ff" stroke="black" stroke-width="0" cx="311.41" cy="-254.48" rx="43.85" ry="43.85"/>
<text text-anchor="middle" x="311.41" y="-251.98" font-family="Helvetica,sans-Serif" font-size="10.00" fill="#1a1f2c">Orchestration</text>
</a>
</g>
</g>
<!-- proj:shannon -->
<g id="node2" class="node">
<title>proj:shannon</title>
<g id="a_node2"><a xlink:href="https://github.com/Kocoro-lab/Shannon" xlink:title="https://github.com/Kocoro&#45;lab/Shannon">
<polygon fill="#f59e0b" stroke="black" stroke-width="0" points="51.41,-134.4 0.09,-119.9 51.41,-105.4 102.72,-119.9 51.41,-134.4"/>
<text text-anchor="middle" x="51.41" y="-117.7" font-family="Helvetica,sans-Serif" font-size="9.00" fill="#1a1f2c">Shannon</text>
</a>
</g>
</g>
<!-- cat:orchestration&#45;&gt;proj:shannon -->
<g id="edge1" class="edge">
<title>cat:orchestration&#45;&gt;proj:shannon</title>
<path fill="none" stroke="#c8cfdb" stroke-width="0.8" d="M269.55,-241.82C227.62,-229.07 162.2,-206.18 111.41,-174.8 93.64,-163.83 76.21,-147.35 64.75,-135.5"/>
<polygon fill="#c8cfdb" stroke="#c8cfdb" stroke-width="0.8" points="65.82,-134.09 61.11,-131.67 63.29,-136.5 65.82,-134.09"/>
</g>
<!-- proj:conductor -->
<g id="node3" class="node">
<title>proj:conductor</title>
<g id="a_node3"><a xlink:href="https://github.com/conductor-oss/conductor" xlink:title="https://github.com/conductor&#45;oss/conductor">
<polygon fill="#f59e0b" stroke="black" stroke-width="0" points="178.41,-134.4 120.47,-119.9 178.41,-105.4 236.34,-119.9 178.41,-134.4"/>
<text text-anchor="middle" x="178.41" y="-117.7" font-family="Helvetica,sans-Serif" font-size="9.00" fill="#1a1f2c">Conductor</text>
</a>
</g>
</g>
<!-- cat:orchestration&#45;&gt;proj:conductor -->
<g id="edge2" class="edge">
<title>cat:orchestration&#45;&gt;proj:conductor</title>
<path fill="none" stroke="#c8cfdb" stroke-width="0.8" d="M280.89,-223.06C253.46,-195.71 214.33,-156.71 193.24,-135.69"/>
<polygon fill="#c8cfdb" stroke="#c8cfdb" stroke-width="0.8" points="194.3,-134.27 189.52,-131.98 191.82,-136.75 194.3,-134.27"/>
</g>
<!-- proj:ai&#45;maestro -->
<g id="node4" class="node">
<title>proj:ai&#45;maestro</title>
<g id="a_node4"><a xlink:href="https://github.com/23blocks-OS/ai-maestro" xlink:title="https://github.com/23blocks&#45;OS/ai&#45;maestro">
<polygon fill="#f59e0b" stroke="black" stroke-width="0" points="311.41,-134.4 253.47,-119.9 311.41,-105.4 369.34,-119.9 311.41,-134.4"/>
<text text-anchor="middle" x="311.41" y="-117.7" font-family="Helvetica,sans-Serif" font-size="9.00" fill="#1a1f2c">AI Maestro</text>
</a>
</g>
</g>
<!-- cat:orchestration&#45;&gt;proj:ai&#45;maestro -->
<g id="edge3" class="edge">
<title>cat:orchestration&#45;&gt;proj:ai&#45;maestro</title>
<path fill="none" stroke="#c8cfdb" stroke-width="0.8" d="M311.41,-210.8C311.41,-186.93 311.41,-158.36 311.41,-139.93"/>
<polygon fill="#c8cfdb" stroke="#c8cfdb" stroke-width="0.8" points="313.16,-139.56 311.41,-134.56 309.66,-139.56 313.16,-139.56"/>
</g>
<!-- proj:agent&#45;orchestrator -->
<g id="node5" class="node">
<title>proj:agent&#45;orchestrator</title>
<g id="a_node5"><a xlink:href="https://github.com/ComposioHQ/agent-orchestrator" xlink:title="https://github.com/ComposioHQ/agent&#45;orchestrator">
<polygon fill="#f59e0b" stroke="black" stroke-width="0" points="481.41,-134.4 387.82,-119.9 481.41,-105.4 574.99,-119.9 481.41,-134.4"/>
<text text-anchor="middle" x="481.41" y="-117.7" font-family="Helvetica,sans-Serif" font-size="9.00" fill="#1a1f2c">Agent Orchestrator</text>
</a>
</g>
</g>
<!-- cat:orchestration&#45;&gt;proj:agent&#45;orchestrator -->
<g id="edge4" class="edge">
<title>cat:orchestration&#45;&gt;proj:agent&#45;orchestrator</title>
<path fill="none" stroke="#c8cfdb" stroke-width="0.8" d="M345.4,-226.97C380.68,-199.45 434.56,-157.44 462.75,-135.45"/>
<polygon fill="#c8cfdb" stroke="#c8cfdb" stroke-width="0.8" points="463.85,-136.82 466.71,-132.36 461.69,-134.06 463.85,-136.82"/>
</g>
<!-- cat:orchestration/platform&#45;specific -->
<g id="node6" class="node">
<title>cat:orchestration/platform&#45;specific</title>
<ellipse fill="#6aa9ff" stroke="black" stroke-width="0" cx="648.41" cy="-119.9" rx="54.8" ry="54.8"/>
<text text-anchor="middle" x="648.41" y="-117.4" font-family="Helvetica,sans-Serif" font-size="10.00" fill="#1a1f2c">Platform&#45;Specific</text>
</g>
<!-- cat:orchestration&#45;&gt;cat:orchestration/platform&#45;specific -->
<g id="edge5" class="edge">
<title>cat:orchestration&#45;&gt;cat:orchestration/platform&#45;specific</title>
<path fill="none" stroke="#c8cfdb" stroke-width="0.8" d="M354.67,-246.79C410.35,-236.91 508.91,-215.1 584.41,-174.8 591.41,-171.07 598.34,-166.47 604.91,-161.54"/>
<polygon fill="#c8cfdb" stroke="#c8cfdb" stroke-width="0.8" points="606.05,-162.88 608.95,-158.44 603.92,-160.1 606.05,-162.88"/>
</g>
<!-- proj:agent&#45;squad -->
<g id="node7" class="node">
<title>proj:agent&#45;squad</title>
<g id="a_node7"><a xlink:href="https://github.com/awslabs/agent-squad" xlink:title="https://github.com/awslabs/agent&#45;squad">
<polygon fill="#f59e0b" stroke="black" stroke-width="0" points="648.41,-29 579.82,-14.5 648.41,0 716.99,-14.5 648.41,-29"/>
<text text-anchor="middle" x="648.41" y="-12.3" font-family="Helvetica,sans-Serif" font-size="9.00" fill="#1a1f2c">Agent Squad</text>
</a>
</g>
</g>
<!-- cat:orchestration/platform&#45;specific&#45;&gt;proj:agent&#45;squad -->
<g id="edge6" class="edge">
<title>cat:orchestration/platform&#45;specific&#45;&gt;proj:agent&#45;squad</title>
<path fill="none" stroke="#c8cfdb" stroke-width="0.8" d="M648.41,-64.78C648.41,-53.77 648.41,-42.91 648.41,-34.2"/>
<polygon fill="#c8cfdb" stroke="#c8cfdb" stroke-width="0.8" points="650.16,-34.07 648.41,-29.07 646.66,-34.07 650.16,-34.07"/>
</g>
</g>
</svg>
