<?xml version="1.0" encoding="UTF-8" standalone="no"?>
<!DOCTYPE svg PUBLIC "-//W3C//DTD SVG 1.1//EN"
 "http://www.w3.org/Graphics/SVG/1.1/DTD/svg11.dtd">
<!-- Generated by graphviz version 2.42.4 (0)
 -->
<!-- Title: G Pages: 1 -->
<svg width="245pt" height="343pt"
 viewBox="0.00 0.00 245.37 342.92" xmlns="http://www.w3.org/2000/svg" xmlns:xlink="http://www.w3.org/1999/xlink">
<g id="graph0" class="graph" transform="scale(1 1) rotate(0) translate(28.8 314.12)">
<title>G</title>
<polygon fill="#f7f8fa" stroke="transparent" points="-28.8,28.8 -28.8,-314.12 216.57,-314.12 216.57,28.8 -28.8,28.8"/>
<text text-anchor="middle" x="93.89" y="-263.72" font-family="Helvetica,sans-Serif" font-size="22.00">Personal AI</text>
<!-- cat:personal&#45;ai -->
<g id="node1" class="node">
<title>cat:personal&#45;ai</title>
<g id="a_node1"><a xlink:title="Personal AI assistants and related projects.">
<ellipse fill="#6aa9ff" stroke="black" stroke-width="0" cx="104.21" cy="-213.26" rx="40.12" ry="40.12"/>
<text text-anchor="middle" x="104.21" y="-210.76" font-family="Helvetica,sans-Serif" font-size="10.00" fill="#1a1f2c">Personal AI</text>
</a>
</g>
</g>
<!-- cat:personal&#45;ai/assistants -->
<g id="node2" class="node">
<title>cat:personal&#45;ai/assistants</title>
<ellipse fill="#6aa9ff" stroke="black" stroke-width="0" cx="104.21" cy="-101.1" rx="36.2" ry="36.2"/>
<text text-anchor="middle" x="104.21" y="-98.6" font-family="Helvetica,sans-Serif" font-size="10.00" fill="#1a1f2c">Assistants</text>
</g>
<!-- cat:personal&#45;ai&#45;&gt;cat:personal&#45;ai/assistants -->
<g id="edge1" class="edge">
<title>cat:personal&#45;ai&#45;&gt;cat:personal&#45;ai/assistants</title>
<path fill="none" stroke="#c8cfdb" stroke-width="0.8" d="M104.21,-173.11C104.21,-163.21 104.21,-152.56 104.21,-142.59"/>
<polygon fill="#c8cfdb" stroke="#c8cfdb" stroke-width="0.8" points="105.96,-142.45 104.21,-137.45 102.46,-142.45 105.96,-142.45"/>
</g>
<!-- proj:openclaw -->
<g id="node3" class="node">
<title>proj:openclaw</title>
<g id="a_node3"><a xlink:href="https://github.com/openclaw/openclaw" xlink:title="https://github.com/openclaw/openclaw">
<polygon fill="#f59e0b" stroke="black" stroke-width="0" points="53.21,-29 -0.21,-14.5 53.21,0 106.63,-14.5 53.21,-29"/>
<text text-anchor="middle" x="53.21" y="-12.3" font-family="Helvetica,sans-Serif" font-size="9.00" fill="#1a1f2c">openclaw</text>
</a>
</g>
</g>
<!-- cat:personal&#45;ai/assistants&#45;&gt;proj:openclaw -->
<g id="edge2" class="edge">
<title>cat:personal&#45;ai/assistants&#45;&gt;proj:openclaw</title>
<path fill="none" stroke="#c8cfdb" stroke-width="0.8" d="M85.8,-69.56C78.11,-56.8 69.48,-42.5 63.04,-31.81"/>
<polygon fill="#c8cfdb" stroke="#c8cfdb" stroke-width="0.8" points="64.5,-30.84 60.42,-27.46 61.5,-32.65 64.5,-30.84"/>
</g>
<!-- proj:leon -->
<g id="node4" class="node">
<title>proj:leon</title>
<g id="a_node4"><a xlink:href="https://github.com/leon-ai/leon" xlink:title="https://github.com/leon&#45;ai/leon">
<polygon fill="#f59e0b" stroke="black" stroke-width="0" points="156.21,-29 124.58,-14.5 156.21,0 187.84,-14.5 156.21,-29"/>
<text text-anchor="middle" x="156.21" y="-12.3" font-family="Helvetica,sans-Serif" font-size="9.00" fill="#1a1f2c">leon</text>
</a>
</g>
</g>
<!-- cat:personal&#45;ai/assistants&#45;&gt;proj:leon -->
<g id="edge3" class="edge">
<title>cat:personal&#45;ai/assistants&#45;&gt;proj:leon</title>
<path fill="none" stroke="#c8cfdb" stroke-width="0.8" d="M122.69,-70.03C130.86,-56.74 140.12,-41.67 146.83,-30.75"/>
<polygon fill="#c8cfdb" stroke="#c8cfdb" stroke-width="0.8" points="148.42,-31.52 149.54,-26.34 145.44,-29.69 148.42,-31.52"/>
</g>
</g>
</svg>
