<?xml version="1.0" encoding="UTF-8" standalone="no"?>
<!DOCTYPE svg PUBLIC "-//W3C//DTD SVG 1.1//EN"
 "http://www.w3.org/Graphics/SVG/1.1/DTD/svg11.dtd">
<!-- Generated by graphviz version 2.42.4 (0)
 -->
<!-- Title: G Pages: 1 -->
<svg width="180pt" height="334pt"
 viewBox="0.00 0.00 179.60 334.20" xmlns="http://www.w3.org/2000/svg" xmlns:xlink="http://www.w3.org/1999/xlink">
<g id="graph0" class="graph" transform="scale(1 1) rotate(0) translate(28.8 305.4)">
<title>G</title>
<polygon fill="#f7f8fa" stroke="transparent" points="-28.8,28.8 -28.8,-305.4 150.8,-305.4 150.8,28.8 -28.8,28.8"/>
<text text-anchor="middle" x="61" y="-255" font-family="Helvetica,sans-Serif" font-size="22.00">Platforms</text>
<!-- cat:platforms -->
<g id="node1" class="node">
<title>cat:platforms</title>
<g id="a_node1"><a xlink:title="General platforms that host or enable agentic applications.">
<ellipse fill="#6aa9ff" stroke="black" stroke-width="0" cx="61" cy="-208.48" rx="36.22" ry="36.22"/>
<text text-anchor="middle" x="61" y="-205.98" font-family="Helvetica,sans-Serif" font-size="10.00" fill="#1a1f2c">Platforms</text>
</a>
</g>
</g>
<!-- cat:platforms/embodied -->
<g id="node2" class="node">
<title>cat:platforms/embodied</title>
<ellipse fill="#6aa9ff" stroke="black" stroke-width="0" cx="61" cy="-100.69" rx="35.87" ry="35.87"/>
<text text-anchor="middle" x="61" y="-98.19" font-family="Helvetica,sans-Serif" font-size="10.00" fill="#1a1f2c">Embodied</text>
</g>
<!-- cat:platforms&#45;&gt;cat:platforms/embodied -->
<g id="edge1" class="edge">
<title>cat:platforms&#45;&gt;cat:platforms/embodied</title>
<path fill="none" stroke="#c8cfdb" stroke-width="0.8" d="M61,-172.26C61,-162.43 61,-151.68 61,-141.6"/>
<polygon fill="#c8cfdb" stroke="#c8cfdb" stroke-width="0.8" points="62.75,-141.4 61,-136.4 59.25,-141.4 62.75,-141.4"/>
</g>
<!-- proj:fairo -->
<g id="node3" class="node">
<title>proj:fairo</title>
<g id="a_node3"><a xlink:href="https://github.com/facebookresearch/fairo" xlink:title="https://github.com/facebookresearch/fairo">
<polygon fill="#f59e0b" stroke="black" stroke-width="0" points="61,-29 28.57,-14.5 61,0 93.43,-14.5 61,-29"/>
<text text-anchor="middle" x="61" y="-12.3" font-family="Helvetica,sans-Serif" font-size="9.00" fill="#1a1f2c">fairo</text>
</a>
</g>
</g>
<!-- cat:platforms/embodied&#45;&gt;proj:fairo -->
<g id="edge2" class="edge">
<title>cat:platforms/embodied&#45;&gt;proj:fairo</title>
<path fill="none" stroke="#c8cfdb" stroke-width="0.8" d="M61,-64.96C61,-54.51 61,-43.43 61,-34.42"/>
<polygon fill="#c8cfdb" stroke="#c8cfdb" stroke-width="0.8" points="62.75,-34.37 61,-29.37 59.25,-34.37 62.75,-34.37"/>
</g>
</g>
</svg>
