<?xml version="1.0" encoding="UTF-8" standalone="no"?>
<!DOCTYPE svg PUBLIC "-//W3C//DTD SVG 1.1//EN"
 "http://www.w3.org/Graphics/SVG/1.1/DTD/svg11.dtd">
<!-- Generated by graphviz version 2.42.4 (0)
 -->
<!-- Title: G Pages: 1 -->
<svg width="422pt" height="337pt"
 viewBox="0.00 0.00 422.32 336.64" xmlns="http://www.w3.org/2000/svg" xmlns:xlink="http://www.w3.org/1999/xlink">
<g id="graph0" class="graph" transform="scale(1 1) rotate(0) translate(28.8 307.84)">
<title>G</title>
<polygon fill="#f7f8fa" stroke="transparent" points="-28.8,28.8 -28.8,-307.84 393.52,-307.84 393.52,28.8 -28.8,28.8"/>
<text text-anchor="middle" x="182.36" y="-257.44" font-family="Helvetica,sans-Serif" font-size="22.00">Proxy</text>
<!-- cat:proxy -->
<g id="node1" class="node">
<title>cat:proxy</title>
<g id="a_node1"><a xlink:title="Proxy services that sit between clients and LLM/agent backends.">
<ellipse fill="#6aa9ff" stroke="black" stroke-width="0" cx="264.85" cy="-222.88" rx="24.31" ry="24.31"/>
<text text-anchor="middle" x="264.85" y="-220.38" font-family="Helvetica,sans-Serif" font-size="10.00" fill="#1a1f2c">Proxy</text>
</a>
</g>
</g>
<!-- cat:proxy/gateways -->
<g id="node2" class="node">
<title>cat:proxy/gateways</title>
<g id="a_node2"><a xlink:title="Gateway services that sit between agents and upstream services (LLMs, tools, data).">
<ellipse fill="#6aa9ff" stroke="black" stroke-width="0" cx="213.85" cy="-113.86" rx="35.04" ry="35.04"/>
<text text-anchor="middle" x="213.85" y="-111.36" font-family="Helvetica,sans-Serif" font-size="10.00" fill="#1a1f2c">Gateways</text>
</a>
</g>
</g>
<!-- cat:proxy&#45;&gt;cat:proxy/gateways -->
<g id="edge1" class="edge">
<title>cat:proxy&#45;&gt;cat:proxy/gateways</title>
<path fill="none" stroke="#c8cfdb" stroke-width="0.8" d="M254.78,-200.74C247.93,-186.37 238.71,-167.02 230.75,-150.33"/>
<polygon fill="#c8cfdb" stroke="#c8cfdb" stroke-width="0.8" points="232.28,-149.45 228.55,-145.69 229.12,-150.96 232.28,-149.45"/>
</g>
<!-- cat:proxy/mcp&#45;to&#45;openai -->
<g id="node5" class="node">
<title>cat:proxy/mcp&#45;to&#45;openai</title>
<ellipse fill="#6aa9ff" stroke="black" stroke-width="0" cx="315.85" cy="-113.86" rx="48.73" ry="48.73"/>
<text text-anchor="middle" x="315.85" y="-111.36" font-family="Helvetica,sans-Serif" font-size="10.00" fill="#1a1f2c">MCP to OpenAI</text>
</g>
<!-- cat:proxy&#45;&gt;cat:proxy/mcp&#45;to&#45;openai -->
<g id="edge4" class="edge">
<title>cat:proxy&#45;&gt;cat:proxy/mcp&#45;to&#45;openai</title>
<path fill="none" stroke="#c8cfdb" stroke-width="0.8" d="M274.93,-200.74C280.05,-190 286.5,-176.47 292.75,-163.34"/>
<polygon fill="#c8cfdb" stroke="#c8cfdb" stroke-width="0.8" points="294.47,-163.8 295.04,-158.53 291.31,-162.3 294.47,-163.8"/>
</g>
<!-- proj:agentgateway -->
<g id="node3" class="node">
<title>proj:agentgateway</title>
<g id="a_node3"><a xlink:href="https://github.com/agentgateway/agentgateway" xlink:title="https://github.com/agentgateway/agentgateway">
<polygon fill="#f59e0b" stroke="black" stroke-width="0" points="74.85,-29 0.15,-14.5 74.85,0 149.56,-14.5 74.85,-29"/>
<text text-anchor="middle" x="74.85" y="-12.3" font-family="Helvetica,sans-Serif" font-size="9.00" fill="#1a1f2c">AgentGateway</text>
</a>
</g>
</g>
<!-- cat:proxy/gateways&#45;&gt;proj:agentgateway -->
<g id="edge2" class="edge">
<title>cat:proxy/gateways&#45;&gt;proj:agentgateway</title>
<path fill="none" stroke="#c8cfdb" stroke-width="0.8" d="M185.39,-92.93C158.17,-73.86 117.87,-45.63 94.2,-29.05"/>
<polygon fill="#c8cfdb" stroke="#c8cfdb" stroke-width="0.8" points="95.07,-27.53 89.98,-26.09 93.07,-30.39 95.07,-27.53"/>
</g>
<!-- proj:litellm -->
<g id="node4" class="node">
<title>proj:litellm</title>
<g id="a_node4"><a xlink:href="https://github.com/BerriAI/litellm" xlink:title="https://github.com/BerriAI/litellm">
<polygon fill="#f59e0b" stroke="black" stroke-width="0" points="213.85,-29 167.86,-14.5 213.85,0 259.84,-14.5 213.85,-29"/>
<text text-anchor="middle" x="213.85" y="-12.3" font-family="Helvetica,sans-Serif" font-size="9.00" fill="#1a1f2c">LiteLLM</text>
</a>
</g>
</g>
<!-- cat:proxy/gateways&#45;&gt;proj:litellm -->
<g id="edge3" class="edge">
<title>cat:proxy/gateways&#45;&gt;proj:litellm</title>
<path fill="none" stroke="#c8cfdb" stroke-width="0.8" d="M213.85,-78.81C213.85,-63.84 213.85,-46.83 213.85,-34.22"/>
<polygon fill="#c8cfdb" stroke="#c8cfdb" stroke-width="0.8" points="215.6,-34.1 213.85,-29.1 212.1,-34.1 215.6,-34.1"/>
</g>
<!-- proj:mcpo -->
<g id="node6" class="node">
<title>proj:mcpo</title>
<g id="a_node6"><a xlink:href="https://github.com/open-webui/mcpo" xlink:title="https://github.com/open&#45;webui/mcpo">
<polygon fill="#f59e0b" stroke="black" stroke-width="0" points="315.85,-29 278.1,-14.5 315.85,0 353.61,-14.5 315.85,-29"/>
<text text-anchor="middle" x="315.85" y="-12.3" font-family="Helvetica,sans-Serif" font-size="9.00" fill="#1a1f2c">MCPO</text>
</a>
</g>
</g>
<!-- cat:proxy/mcp&#45;to&#45;openai&#45;&gt;proj:mcpo -->
<g id="edge5" class="edge">
<title>cat:proxy/mcp&#45;to&#45;openai&#45;&gt;proj:mcpo</title>
<path fill="none" stroke="#c8cfdb" stroke-width="0.8" d="M315.85,-64.75C315.85,-53.96 315.85,-43.13 315.85,-34.39"/>
<polygon fill="#c8cfdb" stroke="#c8cfdb" stroke-width="0.8" points="317.6,-34.23 315.85,-29.23 314.1,-34.23 317.6,-34.23"/>
</g>
</g>
</svg>
