<?xml version="1.0" encoding="UTF-8" standalone="no"?>
<!DOCTYPE svg PUBLIC "-//W3C//DTD SVG 1.1//EN"
 "http://www.w3.org/Graphics/SVG/1.1/DTD/svg11.dtd">
<!-- Generated by graphviz version 2.42.4 (0)
 -->
<!-- Title: G Pages: 1 -->
<svg width="410pt" height="337pt"
 viewBox="0.00 0.00 409.51 336.64" xmlns="http://www.w3.org/2000/svg" xmlns:xlink="http://www.w3.org/1999/xlink">
<g id="graph0" class="graph" transform="scale(1 1) rotate(0) translate(28.8 307.84)">
<title>G</title>
<polygon fill="#f7f8fa" stroke="transparent" points="-28.8,28.8 -28.8,-307.84 380.71,-307.84 380.71,28.8 -28.8,28.8"/>
<text text-anchor="middle" x="175.96" y="-257.44" font-family="Helvetica,sans-Serif" font-size="22.00">Proxy</text>
<!-- cat:proxy -->
<g id="node1" class="node">
<title>cat:proxy</title>
<g id="a_node1"><a xlink:title="Proxy services that sit between clients and LLM/agent backends.">
<ellipse fill="#6aa9ff" stroke="black" stroke-width="0" cx="252.05" cy="-222.88" rx="24.31" ry="24.31"/>
<text text-anchor="middle" x="252.05" y="-220.38" font-family="Helvetica,sans-Serif" font-size="10.00" fill="#1a1f2c">Proxy</text>
</a>
</g>
</g>
<!-- cat:proxy/gateways -->
<g id="node2" class="node">
<title>cat:proxy/gateways</title>
<g id="a_node2"><a xlink:title="Gateway services that sit between agents and upstream services (LLMs, tools, data).">
<ellipse fill="#6aa9ff" stroke="black" stroke-width="0" cx="201.05" cy="-113.86" rx="35.04" ry="35.04"/>
<text text-anchor="middle" x="201.05" y="-111.36" font-family="Helvetica,sans-Serif" font-size="10.00" fill="#1a1f2c">Gateways</text>
</a>
</g>
</g>
<!-- cat:proxy&#45;&gt;cat:proxy/gateways -->
<g id="edge1" class="edge">
<title>cat:proxy&#45;&gt;cat:proxy/gateways</title>
<path fill="none" stroke="#c8cfdb" stroke-width="0.8" d="M241.97,-200.74C235.13,-186.37 225.91,-167.02 217.95,-150.33"/>
<polygon fill="#c8cfdb" stroke="#c8cfdb" stroke-width="0.8" points="219.47,-149.45 215.74,-145.69 216.31,-150.96 219.47,-149.45"/>
</g>
<!-- cat:proxy/mcp&#45;to&#45;openai -->
<g id="node5" class="node">
<title>cat:proxy/mcp&#45;to&#45;openai</title>
<ellipse fill="#6aa9ff" stroke="black" stroke-width="0" cx="303.05" cy="-113.86" rx="48.73" ry="48.73"/>
<text text-anchor="middle" x="303.05" y="-111.36" font-family="Helvetica,sans-Serif" font-size="10.00" fill="#1a1f2c">MCP to OpenAI</text>
</g>
<!-- cat:proxy&#45;&gt;cat:proxy/mcp&#45;to&#45;openai -->
<g id="edge4" class="edge">
<title>cat:proxy&#45;&gt;cat:proxy/mcp&#45;to&#45;openai</title>
<path fill="none" stroke="#c8cfdb" stroke-width="0.8" d="M262.13,-200.74C267.25,-190 273.69,-176.47 279.95,-163.34"/>
<polygon fill="#c8cfdb" stroke="#c8cfdb" stroke-width="0.8" points="281.67,-163.8 282.24,-158.53 278.51,-162.3 281.67,-163.8"/>
</g>
<!-- proj:agentgateway -->
<g id="node3" class="node">
<title>proj:agentgateway</title>
<g id="a_node3"><a xlink:href="https://github.com/agentgateway/agentgateway" xlink:title="https://github.com/agentgateway/agentgateway">
<polygon fill="#f59e0b" stroke="black" stroke-width="0" points="73.05,-29 -0.05,-14.5 73.05,0 146.15,-14.5 73.05,-29"/>
<text text-anchor="middle" x="73.05" y="-12.3" font-family="Helvetica,sans-Serif" font-size="9.00" fill="#1a1f2c">agentgateway</text>
</a>
</g>
</g>
<!-- cat:proxy/gateways&#45;&gt;proj:agentgateway -->
<g id="edge2" class="edge">
<title>cat:proxy/gateways&#45;&gt;proj:agentgateway</title>
<path fill="none" stroke="#c8cfdb" stroke-width="0.8" d="M173.59,-91.98C148.8,-73.12 113.01,-45.89 91.49,-29.52"/>
<polygon fill="#c8cfdb" stroke="#c8cfdb" stroke-width="0.8" points="92.42,-28.03 87.38,-26.4 90.3,-30.82 92.42,-28.03"/>
</g>
<!-- proj:litellm -->
<g id="node4" class="node">
<title>proj:litellm</title>
<g id="a_node4"><a xlink:href="https://github.com/BerriAI/litellm" xlink:title="https://github.com/BerriAI/litellm">
<polygon fill="#f59e0b" stroke="black" stroke-width="0" points="204.05,-29 164.19,-14.5 204.05,0 243.91,-14.5 204.05,-29"/>
<text text-anchor="middle" x="204.05" y="-12.3" font-family="Helvetica,sans-Serif" font-size="9.00" fill="#1a1f2c">litellm</text>
</a>
</g>
</g>
<!-- cat:proxy/gateways&#45;&gt;proj:litellm -->
<g id="edge3" class="edge">
<title>cat:proxy/gateways&#45;&gt;proj:litellm</title>
<path fill="none" stroke="#c8cfdb" stroke-width="0.8" d="M202.1,-78.81C202.56,-63.84 203.08,-46.83 203.47,-34.22"/>
<polygon fill="#c8cfdb" stroke="#c8cfdb" stroke-width="0.8" points="205.23,-34.15 203.63,-29.1 201.73,-34.05 205.23,-34.15"/>
</g>
<!-- proj:mcpo -->
<g id="node6" class="node">
<title>proj:mcpo</title>
<g id="a_node6"><a xlink:href="https://github.com/open-webui/mcpo" xlink:title="https://github.com/open&#45;webui/mcpo">
<polygon fill="#f59e0b" stroke="black" stroke-width="0" points="303.05,-29 265.29,-14.5 303.05,0 340.81,-14.5 303.05,-29"/>
<text text-anchor="middle" x="303.05" y="-12.3" font-family="Helvetica,sans-Serif" font-size="9.00" fill="#1a1f2c">mcpo</text>
</a>
</g>
</g>
<!-- cat:proxy/mcp&#45;to&#45;openai&#45;&gt;proj:mcpo -->
<g id="edge5" class="edge">
<title>cat:proxy/mcp&#45;to&#45;openai&#45;&gt;proj:mcpo</title>
<path fill="none" stroke="#c8cfdb" stroke-width="0.8" d="M303.05,-64.75C303.05,-53.96 303.05,-43.13 303.05,-34.39"/>
<polygon fill="#c8cfdb" stroke="#c8cfdb" stroke-width="0.8" points="304.8,-34.23 303.05,-29.23 301.3,-34.23 304.8,-34.23"/>
</g>
</g>
</svg>
