<?xml version="1.0" encoding="UTF-8" standalone="no"?>
<!DOCTYPE svg PUBLIC "-//W3C//DTD SVG 1.1//EN"
 "http://www.w3.org/Graphics/SVG/1.1/DTD/svg11.dtd">
<!-- Generated by graphviz version 2.42.4 (0)
 -->
<!-- Title: G Pages: 1 -->
<svg width="397pt" height="310pt"
 viewBox="0.00 0.00 396.74 309.68" xmlns="http://www.w3.org/2000/svg" xmlns:xlink="http://www.w3.org/1999/xlink">
<g id="graph0" class="graph" transform="scale(1 1) rotate(0) translate(28.8 280.88)">
<title>G</title>
<polygon fill="#f7f8fa" stroke="transparent" points="-28.8,28.8 -28.8,-280.88 367.94,-280.88 367.94,28.8 -28.8,28.8"/>
<text text-anchor="middle" x="169.57" y="-230.48" font-family="Helvetica,sans-Serif" font-size="22.00">RAG</text>
<!-- cat:rag -->
<g id="node1" class="node">
<title>cat:rag</title>
<g id="a_node1"><a xlink:title="Retrieval&#45;augmented generation engines, frameworks and components.">
<ellipse fill="#6aa9ff" stroke="black" stroke-width="0" cx="151.41" cy="-194.58" rx="25.5" ry="25.5"/>
<text text-anchor="middle" x="151.41" y="-192.08" font-family="Helvetica,sans-Serif" font-size="10.00" fill="#1a1f2c">RAG</text>
</a>
</g>
</g>
<!-- proj:airweave -->
<g id="node2" class="node">
<title>proj:airweave</title>
<g id="a_node2"><a xlink:href="https://github.com/airweave-ai/airweave" xlink:title="https://github.com/airweave&#45;ai/airweave">
<polygon fill="#f59e0b" stroke="black" stroke-width="0" points="51.41,-113.54 0.09,-99.04 51.41,-84.54 102.72,-99.04 51.41,-113.54"/>
<text text-anchor="middle" x="51.41" y="-96.84" font-family="Helvetica,sans-Serif" font-size="9.00" fill="#1a1f2c">Airweave</text>
</a>
</g>
</g>
<!-- cat:rag&#45;&gt;proj:airweave -->
<g id="edge1" class="edge">
<title>cat:rag&#45;&gt;proj:airweave</title>
<path fill="none" stroke="#c8cfdb" stroke-width="0.8" d="M133.06,-176.42C113.88,-158.48 84.13,-130.65 66.33,-114"/>
<polygon fill="#c8cfdb" stroke="#c8cfdb" stroke-width="0.8" points="67.35,-112.56 62.5,-110.42 64.96,-115.11 67.35,-112.56"/>
</g>
<!-- cat:rag/engines -->
<g id="node3" class="node">
<title>cat:rag/engines</title>
<ellipse fill="#6aa9ff" stroke="black" stroke-width="0" cx="151.41" cy="-99.04" rx="30.39" ry="30.39"/>
<text text-anchor="middle" x="151.41" y="-96.54" font-family="Helvetica,sans-Serif" font-size="10.00" fill="#1a1f2c">Engines</text>
</g>
<!-- cat:rag&#45;&gt;cat:rag/engines -->
<g id="edge2" class="edge">
<title>cat:rag&#45;&gt;cat:rag/engines</title>
<path fill="none" stroke="#c8cfdb" stroke-width="0.8" d="M151.41,-169C151.41,-158.49 151.41,-146.02 151.41,-134.61"/>
<polygon fill="#c8cfdb" stroke="#c8cfdb" stroke-width="0.8" points="153.16,-134.44 151.41,-129.44 149.66,-134.44 153.16,-134.44"/>
</g>
<!-- cat:rag/ingestion -->
<g id="node6" class="node">
<title>cat:rag/ingestion</title>
<g id="a_node6"><a xlink:title="Pipelines that ingest and process documents into retrieval systems.">
<ellipse fill="#6aa9ff" stroke="black" stroke-width="0" cx="259.41" cy="-99.04" rx="34.08" ry="34.08"/>
<text text-anchor="middle" x="259.41" y="-96.54" font-family="Helvetica,sans-Serif" font-size="10.00" fill="#1a1f2c">Ingestion</text>
</a>
</g>
</g>
<!-- cat:rag&#45;&gt;cat:rag/ingestion -->
<g id="edge5" class="edge">
<title>cat:rag&#45;&gt;cat:rag/ingestion</title>
<path fill="none" stroke="#c8cfdb" stroke-width="0.8" d="M170.22,-177.29C186.62,-163.08 210.71,-142.22 229.71,-125.76"/>
<polygon fill="#c8cfdb" stroke="#c8cfdb" stroke-width="0.8" points="231.3,-126.7 233.93,-122.1 229.01,-124.05 231.3,-126.7"/>
</g>
<!-- proj:ragflow -->
<g id="node4" class="node">
<title>proj:ragflow</title>
<g id="a_node4"><a xlink:href="https://github.com/infiniflow/ragflow" xlink:title="https://github.com/infiniflow/ragflow">
<polygon fill="#f59e0b" stroke="black" stroke-width="0" points="137.41,-29 86.9,-14.5 137.41,0 187.91,-14.5 137.41,-29"/>
<text text-anchor="middle" x="137.41" y="-12.3" font-family="Helvetica,sans-Serif" font-size="9.00" fill="#1a1f2c">RAGFlow</text>
</a>
</g>
</g>
<!-- cat:rag/engines&#45;&gt;proj:ragflow -->
<g id="edge3" class="edge">
<title>cat:rag/engines&#45;&gt;proj:ragflow</title>
<path fill="none" stroke="#c8cfdb" stroke-width="0.8" d="M146.51,-69.17C144.52,-57.45 142.28,-44.26 140.53,-33.89"/>
<polygon fill="#c8cfdb" stroke="#c8cfdb" stroke-width="0.8" points="142.21,-33.39 139.65,-28.75 138.76,-33.97 142.21,-33.39"/>
</g>
<!-- proj:agent&#45;reach -->
<g id="node5" class="node">
<title>proj:agent&#45;reach</title>
<g id="a_node5"><a xlink:href="https://github.com/Panniantong/Agent-Reach" xlink:title="https://github.com/Panniantong/Agent&#45;Reach">
<polygon fill="#f59e0b" stroke="black" stroke-width="0" points="272.41,-29 205.43,-14.5 272.41,0 339.38,-14.5 272.41,-29"/>
<text text-anchor="middle" x="272.41" y="-12.3" font-family="Helvetica,sans-Serif" font-size="9.00" fill="#1a1f2c">Agent&#45;Reach</text>
</a>
</g>
</g>
<!-- cat:rag/ingestion&#45;&gt;proj:agent&#45;reach -->
<g id="edge4" class="edge">
<title>cat:rag/ingestion&#45;&gt;proj:agent&#45;reach</title>
<path fill="none" stroke="#c8cfdb" stroke-width="0.8" d="M264.62,-64.94C266.3,-54.3 268.09,-42.89 269.54,-33.72"/>
<polygon fill="#c8cfdb" stroke="#c8cfdb" stroke-width="0.8" points="271.29,-33.82 270.34,-28.6 267.84,-33.27 271.29,-33.82"/>
</g>
</g>
</svg>
