<?xml version="1.0" encoding="UTF-8" standalone="no"?>
<!DOCTYPE svg PUBLIC "-//W3C//DTD SVG 1.1//EN"
 "http://www.w3.org/Graphics/SVG/1.1/DTD/svg11.dtd">
<!-- Generated by graphviz version 2.42.4 (0)
 -->
<!-- Title: G Pages: 1 -->
<svg width="545pt" height="363pt"
 viewBox="0.00 0.00 544.80 362.99" xmlns="http://www.w3.org/2000/svg" xmlns:xlink="http://www.w3.org/1999/xlink">
<g id="graph0" class="graph" transform="scale(1 1) rotate(0) translate(28.8 334.19)">
<title>G</title>
<polygon fill="#f7f8fa" stroke="transparent" points="-28.8,28.8 -28.8,-334.19 516,-334.19 516,28.8 -28.8,28.8"/>
<text text-anchor="middle" x="243.6" y="-283.79" font-family="Helvetica,sans-Serif" font-size="22.00">Routers</text>
<!-- cat:routers -->
<g id="node1" class="node">
<title>cat:routers</title>
<g id="a_node1"><a xlink:title="Routing layers that select between models, tools or agents based on cost, capability or intent.">
<ellipse fill="#6aa9ff" stroke="black" stroke-width="0" cx="265.87" cy="-244.29" rx="29.19" ry="29.19"/>
<text text-anchor="middle" x="265.87" y="-241.79" font-family="Helvetica,sans-Serif" font-size="10.00" fill="#1a1f2c">Routers</text>
</a>
</g>
</g>
<!-- cat:routers/cost&#45;optimisation -->
<g id="node2" class="node">
<title>cat:routers/cost&#45;optimisation</title>
<ellipse fill="#6aa9ff" stroke="black" stroke-width="0" cx="119.87" cy="-122.1" rx="57.2" ry="57.2"/>
<text text-anchor="middle" x="119.87" y="-119.6" font-family="Helvetica,sans-Serif" font-size="10.00" fill="#1a1f2c">Cost Optimisation</text>
</g>
<!-- cat:routers&#45;&gt;cat:routers/cost&#45;optimisation -->
<g id="edge1" class="edge">
<title>cat:routers&#45;&gt;cat:routers/cost&#45;optimisation</title>
<path fill="none" stroke="#c8cfdb" stroke-width="0.8" d="M243.7,-225.04C223.56,-208.45 193.17,-183.44 167.53,-162.34"/>
<polygon fill="#c8cfdb" stroke="#c8cfdb" stroke-width="0.8" points="168.44,-160.81 163.46,-158.98 166.21,-163.51 168.44,-160.81"/>
</g>
<!-- cat:routers/intelligent -->
<g id="node4" class="node">
<title>cat:routers/intelligent</title>
<ellipse fill="#6aa9ff" stroke="black" stroke-width="0" cx="265.87" cy="-122.1" rx="36.47" ry="36.47"/>
<text text-anchor="middle" x="265.87" y="-119.6" font-family="Helvetica,sans-Serif" font-size="10.00" fill="#1a1f2c">Intelligent</text>
</g>
<!-- cat:routers&#45;&gt;cat:routers/intelligent -->
<g id="edge3" class="edge">
<title>cat:routers&#45;&gt;cat:routers/intelligent</title>
<path fill="none" stroke="#c8cfdb" stroke-width="0.8" d="M265.87,-215.11C265.87,-199.77 265.87,-180.52 265.87,-163.59"/>
<polygon fill="#c8cfdb" stroke="#c8cfdb" stroke-width="0.8" points="267.62,-163.42 265.87,-158.42 264.12,-163.42 267.62,-163.42"/>
</g>
<!-- cat:routers/tool&#45;specific -->
<g id="node6" class="node">
<title>cat:routers/tool&#45;specific</title>
<ellipse fill="#6aa9ff" stroke="black" stroke-width="0" cx="393.87" cy="-122.1" rx="42.05" ry="42.05"/>
<text text-anchor="middle" x="393.87" y="-119.6" font-family="Helvetica,sans-Serif" font-size="10.00" fill="#1a1f2c">Tool Specific</text>
</g>
<!-- cat:routers&#45;&gt;cat:routers/tool&#45;specific -->
<g id="edge5" class="edge">
<title>cat:routers&#45;&gt;cat:routers/tool&#45;specific</title>
<path fill="none" stroke="#c8cfdb" stroke-width="0.8" d="M286.72,-223.71C306.49,-205.15 336.54,-176.93 359.8,-155.1"/>
<polygon fill="#c8cfdb" stroke="#c8cfdb" stroke-width="0.8" points="361.02,-156.35 363.47,-151.65 358.62,-153.8 361.02,-156.35"/>
</g>
<!-- proj:relayplane&#45;proxy -->
<g id="node3" class="node">
<title>proj:relayplane&#45;proxy</title>
<g id="a_node3"><a xlink:href="https://github.com/RelayPlane/proxy" xlink:title="https://github.com/RelayPlane/proxy">
<polygon fill="#f59e0b" stroke="black" stroke-width="0" points="83.87,-29 0.13,-14.5 83.87,0 167.62,-14.5 83.87,-29"/>
<text text-anchor="middle" x="83.87" y="-12.3" font-family="Helvetica,sans-Serif" font-size="9.00" fill="#1a1f2c">RelayPlane proxy</text>
</a>
</g>
</g>
<!-- cat:routers/cost&#45;optimisation&#45;&gt;proj:relayplane&#45;proxy -->
<g id="edge2" class="edge">
<title>cat:routers/cost&#45;optimisation&#45;&gt;proj:relayplane&#45;proxy</title>
<path fill="none" stroke="#c8cfdb" stroke-width="0.8" d="M101.66,-67.68C97.38,-55.13 93.12,-42.64 89.84,-33.02"/>
<polygon fill="#c8cfdb" stroke="#c8cfdb" stroke-width="0.8" points="91.49,-32.43 88.22,-28.26 88.18,-33.56 91.49,-32.43"/>
</g>
<!-- proj:semantic&#45;router -->
<g id="node5" class="node">
<title>proj:semantic&#45;router</title>
<g id="a_node5"><a xlink:href="https://github.com/vllm-project/semantic-router" xlink:title="https://github.com/vllm&#45;project/semantic&#45;router">
<polygon fill="#f59e0b" stroke="black" stroke-width="0" points="265.87,-29 185.84,-14.5 265.87,0 345.9,-14.5 265.87,-29"/>
<text text-anchor="middle" x="265.87" y="-12.3" font-family="Helvetica,sans-Serif" font-size="9.00" fill="#1a1f2c">semantic&#45;router</text>
</a>
</g>
</g>
<!-- cat:routers/intelligent&#45;&gt;proj:semantic&#45;router -->
<g id="edge4" class="edge">
<title>cat:routers/intelligent&#45;&gt;proj:semantic&#45;router</title>
<path fill="none" stroke="#c8cfdb" stroke-width="0.8" d="M265.87,-85.64C265.87,-68.5 265.87,-48.62 265.87,-34.41"/>
<polygon fill="#c8cfdb" stroke="#c8cfdb" stroke-width="0.8" points="267.62,-34.07 265.87,-29.07 264.12,-34.07 267.62,-34.07"/>
</g>
<!-- proj:clawrouter -->
<g id="node7" class="node">
<title>proj:clawrouter</title>
<g id="a_node7"><a xlink:href="https://github.com/BlockRunAI/ClawRouter" xlink:title="https://github.com/BlockRunAI/ClawRouter">
<polygon fill="#f59e0b" stroke="black" stroke-width="0" points="425.87,-29 364.72,-14.5 425.87,0 487.03,-14.5 425.87,-29"/>
<text text-anchor="middle" x="425.87" y="-12.3" font-family="Helvetica,sans-Serif" font-size="9.00" fill="#1a1f2c">ClawRouter</text>
</a>
</g>
</g>
<!-- cat:routers/tool&#45;specific&#45;&gt;proj:clawrouter -->
<g id="edge6" class="edge">
<title>cat:routers/tool&#45;specific&#45;&gt;proj:clawrouter</title>
<path fill="none" stroke="#c8cfdb" stroke-width="0.8" d="M405.88,-81.48C410.89,-64.94 416.46,-46.57 420.44,-33.42"/>
<polygon fill="#c8cfdb" stroke="#c8cfdb" stroke-width="0.8" points="422.17,-33.77 421.94,-28.47 418.82,-32.75 422.17,-33.77"/>
</g>
</g>
</svg>
