<?xml version="1.0" encoding="UTF-8" standalone="no"?>
<!DOCTYPE svg PUBLIC "-//W3C//DTD SVG 1.1//EN"
 "http://www.w3.org/Graphics/SVG/1.1/DTD/svg11.dtd">
<!-- Generated by graphviz version 2.42.4 (0)
 -->
<!-- Title: G Pages: 1 -->
<svg width="700pt" height="363pt"
 viewBox="0.00 0.00 699.90 362.99" xmlns="http://www.w3.org/2000/svg" xmlns:xlink="http://www.w3.org/1999/xlink">
<g id="graph0" class="graph" transform="scale(1 1) rotate(0) translate(28.8 334.19)">
<title>G</title>
<polygon fill="#f7f8fa" stroke="transparent" points="-28.8,28.8 -28.8,-334.19 671.1,-334.19 671.1,28.8 -28.8,28.8"/>
<text text-anchor="middle" x="321.15" y="-283.79" font-family="Helvetica,sans-Serif" font-size="22.00">Routers</text>
<!-- cat:routers -->
<g id="node1" class="node">
<title>cat:routers</title>
<g id="a_node1"><a xlink:title="Routing layers that select between models, tools or agents based on cost, capability or intent.">
<ellipse fill="#6aa9ff" stroke="black" stroke-width="0" cx="320.97" cy="-244.29" rx="29.19" ry="29.19"/>
<text text-anchor="middle" x="320.97" y="-241.79" font-family="Helvetica,sans-Serif" font-size="10.00" fill="#1a1f2c">Routers</text>
</a>
</g>
</g>
<!-- cat:routers/cost&#45;optimisation -->
<g id="node2" class="node">
<title>cat:routers/cost&#45;optimisation</title>
<ellipse fill="#6aa9ff" stroke="black" stroke-width="0" cx="173.97" cy="-122.1" rx="57.2" ry="57.2"/>
<text text-anchor="middle" x="173.97" y="-119.6" font-family="Helvetica,sans-Serif" font-size="10.00" fill="#1a1f2c">Cost Optimisation</text>
</g>
<!-- cat:routers&#45;&gt;cat:routers/cost&#45;optimisation -->
<g id="edge1" class="edge">
<title>cat:routers&#45;&gt;cat:routers/cost&#45;optimisation</title>
<path fill="none" stroke="#c8cfdb" stroke-width="0.8" d="M298.64,-225.04C278.37,-208.45 247.77,-183.44 221.96,-162.34"/>
<polygon fill="#c8cfdb" stroke="#c8cfdb" stroke-width="0.8" points="222.84,-160.79 217.86,-158.98 220.62,-163.5 222.84,-160.79"/>
</g>
<!-- cat:routers/intelligent -->
<g id="node4" class="node">
<title>cat:routers/intelligent</title>
<ellipse fill="#6aa9ff" stroke="black" stroke-width="0" cx="320.97" cy="-122.1" rx="35.62" ry="35.62"/>
<text text-anchor="middle" x="320.97" y="-119.6" font-family="Helvetica,sans-Serif" font-size="10.00" fill="#1a1f2c">Intelligent</text>
</g>
<!-- cat:routers&#45;&gt;cat:routers/intelligent -->
<g id="edge3" class="edge">
<title>cat:routers&#45;&gt;cat:routers/intelligent</title>
<path fill="none" stroke="#c8cfdb" stroke-width="0.8" d="M320.97,-215.11C320.97,-199.64 320.97,-180.2 320.97,-163.18"/>
<polygon fill="#c8cfdb" stroke="#c8cfdb" stroke-width="0.8" points="322.72,-162.98 320.97,-157.98 319.22,-162.98 322.72,-162.98"/>
</g>
<!-- cat:routers/tool&#45;specific -->
<g id="node6" class="node">
<title>cat:routers/tool&#45;specific</title>
<ellipse fill="#6aa9ff" stroke="black" stroke-width="0" cx="525.97" cy="-122.1" rx="42.05" ry="42.05"/>
<text text-anchor="middle" x="525.97" y="-119.6" font-family="Helvetica,sans-Serif" font-size="10.00" fill="#1a1f2c">Tool Specific</text>
</g>
<!-- cat:routers&#45;&gt;cat:routers/tool&#45;specific -->
<g id="edge5" class="edge">
<title>cat:routers&#45;&gt;cat:routers/tool&#45;specific</title>
<path fill="none" stroke="#c8cfdb" stroke-width="0.8" d="M345.7,-228.79C380.32,-208.49 443.68,-171.35 485.3,-146.94"/>
<polygon fill="#c8cfdb" stroke="#c8cfdb" stroke-width="0.8" points="486.34,-148.36 489.76,-144.33 484.57,-145.35 486.34,-148.36"/>
</g>
<!-- proj:relayplane&#45;proxy -->
<g id="node3" class="node">
<title>proj:relayplane&#45;proxy</title>
<g id="a_node3"><a xlink:href="https://github.com/RelayPlane/proxy" xlink:title="https://github.com/RelayPlane/proxy">
<polygon fill="#f59e0b" stroke="black" stroke-width="0" points="82.97,-29 0.03,-14.5 82.97,0 165.91,-14.5 82.97,-29"/>
<text text-anchor="middle" x="82.97" y="-12.3" font-family="Helvetica,sans-Serif" font-size="9.00" fill="#1a1f2c">RelayPlane Proxy</text>
</a>
</g>
</g>
<!-- cat:routers/cost&#45;optimisation&#45;&gt;proj:relayplane&#45;proxy -->
<g id="edge2" class="edge">
<title>cat:routers/cost&#45;optimisation&#45;&gt;proj:relayplane&#45;proxy</title>
<path fill="none" stroke="#c8cfdb" stroke-width="0.8" d="M136.96,-78.15C122.81,-61.73 107.53,-44 96.85,-31.6"/>
<polygon fill="#c8cfdb" stroke="#c8cfdb" stroke-width="0.8" points="98,-30.26 93.41,-27.61 95.35,-32.54 98,-30.26"/>
</g>
<!-- proj:semantic&#45;router -->
<g id="node5" class="node">
<title>proj:semantic&#45;router</title>
<g id="a_node5"><a xlink:href="https://github.com/vllm-project/semantic-router" xlink:title="https://github.com/vllm&#45;project/semantic&#45;router">
<polygon fill="#f59e0b" stroke="black" stroke-width="0" points="266.97,-29 184.03,-14.5 266.97,0 349.91,-14.5 266.97,-29"/>
<text text-anchor="middle" x="266.97" y="-12.3" font-family="Helvetica,sans-Serif" font-size="9.00" fill="#1a1f2c">Semantic Router</text>
</a>
</g>
</g>
<!-- cat:routers/intelligent&#45;&gt;proj:semantic&#45;router -->
<g id="edge4" class="edge">
<title>cat:routers/intelligent&#45;&gt;proj:semantic&#45;router</title>
<path fill="none" stroke="#c8cfdb" stroke-width="0.8" d="M305.06,-89.99C295.48,-71.24 283.63,-48.08 275.72,-32.61"/>
<polygon fill="#c8cfdb" stroke="#c8cfdb" stroke-width="0.8" points="277.23,-31.72 273.4,-28.07 274.12,-33.32 277.23,-31.72"/>
</g>
<!-- proj:agentic&#45;flow -->
<g id="node8" class="node">
<title>proj:agentic&#45;flow</title>
<g id="a_node8"><a xlink:href="https://github.com/ruvnet/agentic-flow" xlink:title="https://github.com/ruvnet/agentic&#45;flow">
<polygon fill="#f59e0b" stroke="black" stroke-width="0" points="434.97,-29 368,-14.5 434.97,0 501.95,-14.5 434.97,-29"/>
<text text-anchor="middle" x="434.97" y="-12.3" font-family="Helvetica,sans-Serif" font-size="9.00" fill="#1a1f2c">Agentic Flow</text>
</a>
</g>
</g>
<!-- cat:routers/intelligent&#45;&gt;proj:agentic&#45;flow -->
<g id="edge7" class="edge">
<title>cat:routers/intelligent&#45;&gt;proj:agentic&#45;flow</title>
<path fill="none" stroke="#c8cfdb" stroke-width="0.8" d="M346.55,-97.4C368.77,-76.82 400.24,-47.67 419.03,-30.26"/>
<polygon fill="#c8cfdb" stroke="#c8cfdb" stroke-width="0.8" points="420.59,-31.21 423.07,-26.53 418.21,-28.64 420.59,-31.21"/>
</g>
<!-- proj:clawrouter -->
<g id="node7" class="node">
<title>proj:clawrouter</title>
<g id="a_node7"><a xlink:href="https://github.com/BlockRunAI/ClawRouter" xlink:title="https://github.com/BlockRunAI/ClawRouter">
<polygon fill="#f59e0b" stroke="black" stroke-width="0" points="580.97,-29 519.82,-14.5 580.97,0 642.12,-14.5 580.97,-29"/>
<text text-anchor="middle" x="580.97" y="-12.3" font-family="Helvetica,sans-Serif" font-size="9.00" fill="#1a1f2c">ClawRouter</text>
</a>
</g>
</g>
<!-- cat:routers/tool&#45;specific&#45;&gt;proj:clawrouter -->
<g id="edge6" class="edge">
<title>cat:routers/tool&#45;specific&#45;&gt;proj:clawrouter</title>
<path fill="none" stroke="#c8cfdb" stroke-width="0.8" d="M545.21,-84.17C554.45,-66.42 565.06,-46.05 572.31,-32.13"/>
<polygon fill="#c8cfdb" stroke="#c8cfdb" stroke-width="0.8" points="573.87,-32.91 574.63,-27.67 570.77,-31.3 573.87,-32.91"/>
</g>
</g>
</svg>
