<?xml version="1.0" encoding="UTF-8" standalone="no"?>
<!DOCTYPE svg PUBLIC "-//W3C//DTD SVG 1.1//EN"
 "http://www.w3.org/Graphics/SVG/1.1/DTD/svg11.dtd">
<!-- Generated by graphviz version 2.42.4 (0)
 -->
<!-- Title: G Pages: 1 -->
<svg width="534pt" height="353pt"
 viewBox="0.00 0.00 533.66 353.10" xmlns="http://www.w3.org/2000/svg" xmlns:xlink="http://www.w3.org/1999/xlink">
<g id="graph0" class="graph" transform="scale(1 1) rotate(0) translate(28.8 324.3)">
<title>G</title>
<polygon fill="#f7f8fa" stroke="transparent" points="-28.8,28.8 -28.8,-324.3 504.86,-324.3 504.86,28.8 -28.8,28.8"/>
<text text-anchor="middle" x="238.03" y="-273.9" font-family="Helvetica,sans-Serif" font-size="22.00">Runtimes</text>
<!-- cat:runtimes -->
<g id="node1" class="node">
<title>cat:runtimes</title>
<g id="a_node1"><a xlink:title="Execution runtimes — sandboxes, data layers, kernels — that host running agents.">
<ellipse fill="#6aa9ff" stroke="black" stroke-width="0" cx="223.92" cy="-230.02" rx="33.47" ry="33.47"/>
<text text-anchor="middle" x="223.92" y="-227.52" font-family="Helvetica,sans-Serif" font-size="10.00" fill="#1a1f2c">Runtimes</text>
</a>
</g>
</g>
<!-- proj:openshell -->
<g id="node2" class="node">
<title>proj:openshell</title>
<g id="a_node2"><a xlink:href="https://github.com/NVIDIA/OpenShell" xlink:title="https://github.com/NVIDIA/OpenShell">
<polygon fill="#f59e0b" stroke="black" stroke-width="0" points="55.92,-127.26 0.08,-112.76 55.92,-98.26 111.75,-112.76 55.92,-127.26"/>
<text text-anchor="middle" x="55.92" y="-110.56" font-family="Helvetica,sans-Serif" font-size="9.00" fill="#1a1f2c">OpenShell</text>
</a>
</g>
</g>
<!-- cat:runtimes&#45;&gt;proj:openshell -->
<g id="edge1" class="edge">
<title>cat:runtimes&#45;&gt;proj:openshell</title>
<path fill="none" stroke="#c8cfdb" stroke-width="0.8" d="M196.19,-210.98C175.35,-197.32 146.17,-178 120.92,-160.53 104.89,-149.44 86.93,-136.48 73.96,-127.02"/>
<polygon fill="#c8cfdb" stroke="#c8cfdb" stroke-width="0.8" points="74.83,-125.49 69.76,-123.95 72.76,-128.31 74.83,-125.49"/>
</g>
<!-- cat:runtimes/data&#45;layers -->
<g id="node3" class="node">
<title>cat:runtimes/data&#45;layers</title>
<ellipse fill="#6aa9ff" stroke="black" stroke-width="0" cx="170.92" cy="-112.76" rx="41.35" ry="41.35"/>
<text text-anchor="middle" x="170.92" y="-110.26" font-family="Helvetica,sans-Serif" font-size="10.00" fill="#1a1f2c">Data Layers</text>
</g>
<!-- cat:runtimes&#45;&gt;cat:runtimes/data&#45;layers -->
<g id="edge2" class="edge">
<title>cat:runtimes&#45;&gt;cat:runtimes/data&#45;layers</title>
<path fill="none" stroke="#c8cfdb" stroke-width="0.8" d="M210.27,-199.34C204.09,-185.91 196.69,-169.82 189.99,-155.23"/>
<polygon fill="#c8cfdb" stroke="#c8cfdb" stroke-width="0.8" points="191.42,-154.16 187.74,-150.35 188.24,-155.62 191.42,-154.16"/>
</g>
<!-- cat:runtimes/policy&#45;engines -->
<g id="node5" class="node">
<title>cat:runtimes/policy&#45;engines</title>
<g id="a_node5"><a xlink:title="Runtime policy engines that evaluate and enforce rules on agent actions.">
<ellipse fill="#6aa9ff" stroke="black" stroke-width="0" cx="277.92" cy="-112.76" rx="47.53" ry="47.53"/>
<text text-anchor="middle" x="277.92" y="-110.26" font-family="Helvetica,sans-Serif" font-size="10.00" fill="#1a1f2c">Policy Engines</text>
</a>
</g>
</g>
<!-- cat:runtimes&#45;&gt;cat:runtimes/policy&#45;engines -->
<g id="edge4" class="edge">
<title>cat:runtimes&#45;&gt;cat:runtimes/policy&#45;engines</title>
<path fill="none" stroke="#c8cfdb" stroke-width="0.8" d="M237.82,-199.34C243.28,-187.69 249.67,-174.04 255.73,-161.11"/>
<polygon fill="#c8cfdb" stroke="#c8cfdb" stroke-width="0.8" points="257.41,-161.65 257.95,-156.38 254.24,-160.16 257.41,-161.65"/>
</g>
<!-- cat:runtimes/sandboxes -->
<g id="node7" class="node">
<title>cat:runtimes/sandboxes</title>
<ellipse fill="#6aa9ff" stroke="black" stroke-width="0" cx="392.92" cy="-112.76" rx="37.77" ry="37.77"/>
<text text-anchor="middle" x="392.92" y="-110.26" font-family="Helvetica,sans-Serif" font-size="10.00" fill="#1a1f2c">Sandboxes</text>
</g>
<!-- cat:runtimes&#45;&gt;cat:runtimes/sandboxes -->
<g id="edge6" class="edge">
<title>cat:runtimes&#45;&gt;cat:runtimes/sandboxes</title>
<path fill="none" stroke="#c8cfdb" stroke-width="0.8" d="M252.84,-212.52C275.62,-199.21 307.93,-179.62 334.92,-160.53 343.35,-154.56 352.18,-147.76 360.32,-141.23"/>
<polygon fill="#c8cfdb" stroke="#c8cfdb" stroke-width="0.8" points="361.47,-142.55 364.26,-138.05 359.27,-139.83 361.47,-142.55"/>
</g>
<!-- proj:deeplake -->
<g id="node4" class="node">
<title>proj:deeplake</title>
<g id="a_node4"><a xlink:href="https://github.com/activeloopai/deeplake" xlink:title="https://github.com/activeloopai/deeplake">
<polygon fill="#f59e0b" stroke="black" stroke-width="0" points="170.92,-29 119.6,-14.5 170.92,0 222.23,-14.5 170.92,-29"/>
<text text-anchor="middle" x="170.92" y="-12.3" font-family="Helvetica,sans-Serif" font-size="9.00" fill="#1a1f2c">deeplake</text>
</a>
</g>
</g>
<!-- cat:runtimes/data&#45;layers&#45;&gt;proj:deeplake -->
<g id="edge3" class="edge">
<title>cat:runtimes/data&#45;layers&#45;&gt;proj:deeplake</title>
<path fill="none" stroke="#c8cfdb" stroke-width="0.8" d="M170.92,-71.5C170.92,-58.69 170.92,-45.11 170.92,-34.54"/>
<polygon fill="#c8cfdb" stroke="#c8cfdb" stroke-width="0.8" points="172.67,-34.3 170.92,-29.3 169.17,-34.3 172.67,-34.3"/>
</g>
<!-- proj:aegis -->
<g id="node6" class="node">
<title>proj:aegis</title>
<g id="a_node6"><a xlink:href="https://github.com/Justin0504/Aegis" xlink:title="https://github.com/Justin0504/Aegis">
<polygon fill="#f59e0b" stroke="black" stroke-width="0" points="276.92,-29 239.96,-14.5 276.92,0 313.87,-14.5 276.92,-29"/>
<text text-anchor="middle" x="276.92" y="-12.3" font-family="Helvetica,sans-Serif" font-size="9.00" fill="#1a1f2c">Aegis</text>
</a>
</g>
</g>
<!-- cat:runtimes/policy&#45;engines&#45;&gt;proj:aegis -->
<g id="edge5" class="edge">
<title>cat:runtimes/policy&#45;engines&#45;&gt;proj:aegis</title>
<path fill="none" stroke="#c8cfdb" stroke-width="0.8" d="M277.43,-64.76C277.32,-54.01 277.2,-43.18 277.11,-34.43"/>
<polygon fill="#c8cfdb" stroke="#c8cfdb" stroke-width="0.8" points="278.86,-34.25 277.06,-29.27 275.36,-34.28 278.86,-34.25"/>
</g>
<!-- proj:opensandbox -->
<g id="node8" class="node">
<title>proj:opensandbox</title>
<g id="a_node8"><a xlink:href="https://github.com/alibaba/OpenSandbox" xlink:title="https://github.com/alibaba/OpenSandbox">
<polygon fill="#f59e0b" stroke="black" stroke-width="0" points="403.92,-29 331.62,-14.5 403.92,0 476.21,-14.5 403.92,-29"/>
<text text-anchor="middle" x="403.92" y="-12.3" font-family="Helvetica,sans-Serif" font-size="9.00" fill="#1a1f2c">OpenSandbox</text>
</a>
</g>
</g>
<!-- cat:runtimes/sandboxes&#45;&gt;proj:opensandbox -->
<g id="edge7" class="edge">
<title>cat:runtimes/sandboxes&#45;&gt;proj:opensandbox</title>
<path fill="none" stroke="#c8cfdb" stroke-width="0.8" d="M397.11,-75.1C398.71,-61.09 400.46,-45.71 401.79,-34.08"/>
<polygon fill="#c8cfdb" stroke="#c8cfdb" stroke-width="0.8" points="403.54,-34.18 402.37,-29.02 400.06,-33.79 403.54,-34.18"/>
</g>
</g>
</svg>
