<?xml version="1.0" encoding="UTF-8" standalone="no"?>
<!DOCTYPE svg PUBLIC "-//W3C//DTD SVG 1.1//EN"
 "http://www.w3.org/Graphics/SVG/1.1/DTD/svg11.dtd">
<!-- Generated by graphviz version 2.42.4 (0)
 -->
<!-- Title: G Pages: 1 -->
<svg width="890pt" height="480pt"
 viewBox="0.00 0.00 890.35 480.37" xmlns="http://www.w3.org/2000/svg" xmlns:xlink="http://www.w3.org/1999/xlink">
<g id="graph0" class="graph" transform="scale(1 1) rotate(0) translate(28.8 451.57)">
<title>G</title>
<polygon fill="#f7f8fa" stroke="transparent" points="-28.8,28.8 -28.8,-451.57 861.55,-451.57 861.55,28.8 -28.8,28.8"/>
<text text-anchor="middle" x="416.38" y="-401.17" font-family="Helvetica,sans-Serif" font-size="22.00">Skills</text>
<!-- cat:skills -->
<g id="node1" class="node">
<title>cat:skills</title>
<g id="a_node1"><a xlink:title="Agent skills ecosystems — registries, bundles, standards, guides and package libraries.">
<ellipse fill="#6aa9ff" stroke="black" stroke-width="0" cx="297.23" cy="-357.77" rx="33" ry="33"/>
<text text-anchor="middle" x="297.23" y="-355.27" font-family="Helvetica,sans-Serif" font-size="10.00" fill="#1a1f2c">Skills</text>
</a>
</g>
</g>
<!-- proj:agent&#45;skills -->
<g id="node2" class="node">
<title>proj:agent&#45;skills</title>
<g id="a_node2"><a xlink:href="https://github.com/addyosmani/agent-skills" xlink:title="https://github.com/addyosmani/agent&#45;skills">
<polygon fill="#f59e0b" stroke="black" stroke-width="0" points="62.23,-252.21 -0.23,-237.71 62.23,-223.21 124.69,-237.71 62.23,-252.21"/>
<text text-anchor="middle" x="62.23" y="-235.51" font-family="Helvetica,sans-Serif" font-size="9.00" fill="#1a1f2c">Agent Skills</text>
</a>
</g>
</g>
<!-- cat:skills&#45;&gt;proj:agent&#45;skills -->
<g id="edge1" class="edge">
<title>cat:skills&#45;&gt;proj:agent&#45;skills</title>
<path fill="none" stroke="#c8cfdb" stroke-width="0.8" d="M266.06,-346.18C232.36,-334.21 177.5,-313.16 133.23,-288.77 113.83,-278.08 93.33,-263.19 79.37,-252.43"/>
<polygon fill="#c8cfdb" stroke="#c8cfdb" stroke-width="0.8" points="80.28,-250.92 75.26,-249.23 78.13,-253.68 80.28,-250.92"/>
</g>
<!-- cat:skills/bundles -->
<g id="node3" class="node">
<title>cat:skills/bundles</title>
<ellipse fill="#6aa9ff" stroke="black" stroke-width="0" cx="173.23" cy="-237.71" rx="30.99" ry="30.99"/>
<text text-anchor="middle" x="173.23" y="-235.21" font-family="Helvetica,sans-Serif" font-size="10.00" fill="#1a1f2c">Bundles</text>
</g>
<!-- cat:skills&#45;&gt;cat:skills/bundles -->
<g id="edge2" class="edge">
<title>cat:skills&#45;&gt;cat:skills/bundles</title>
<path fill="none" stroke="#c8cfdb" stroke-width="0.8" d="M270.64,-337.59C253.47,-324.66 231.08,-306.73 213.23,-288.77 206.61,-282.11 200.01,-274.4 194.14,-267.06"/>
<polygon fill="#c8cfdb" stroke="#c8cfdb" stroke-width="0.8" points="195.42,-265.87 190.95,-263.03 192.68,-268.03 195.42,-265.87"/>
</g>
<!-- cat:skills/guides -->
<g id="node6" class="node">
<title>cat:skills/guides</title>
<ellipse fill="#6aa9ff" stroke="black" stroke-width="0" cx="249.23" cy="-237.71" rx="27.4" ry="27.4"/>
<text text-anchor="middle" x="249.23" y="-235.21" font-family="Helvetica,sans-Serif" font-size="10.00" fill="#1a1f2c">Guides</text>
</g>
<!-- cat:skills&#45;&gt;cat:skills/guides -->
<g id="edge5" class="edge">
<title>cat:skills&#45;&gt;cat:skills/guides</title>
<path fill="none" stroke="#c8cfdb" stroke-width="0.8" d="M285.12,-326.97C277.8,-308.99 268.52,-286.17 261.23,-268.23"/>
<polygon fill="#c8cfdb" stroke="#c8cfdb" stroke-width="0.8" points="262.74,-267.28 259.23,-263.31 259.49,-268.6 262.74,-267.28"/>
</g>
<!-- cat:skills/package&#45;library -->
<g id="node8" class="node">
<title>cat:skills/package&#45;library</title>
<ellipse fill="#6aa9ff" stroke="black" stroke-width="0" cx="346.23" cy="-237.71" rx="51.12" ry="51.12"/>
<text text-anchor="middle" x="346.23" y="-235.21" font-family="Helvetica,sans-Serif" font-size="10.00" fill="#1a1f2c">Package Library</text>
</g>
<!-- cat:skills&#45;&gt;cat:skills/package&#45;library -->
<g id="edge7" class="edge">
<title>cat:skills&#45;&gt;cat:skills/package&#45;library</title>
<path fill="none" stroke="#c8cfdb" stroke-width="0.8" d="M309.59,-326.97C314.29,-315.66 319.78,-302.42 325.06,-289.7"/>
<polygon fill="#c8cfdb" stroke="#c8cfdb" stroke-width="0.8" points="326.7,-290.33 327,-285.04 323.47,-288.99 326.7,-290.33"/>
</g>
<!-- cat:skills/registries -->
<g id="node10" class="node">
<title>cat:skills/registries</title>
<ellipse fill="#6aa9ff" stroke="black" stroke-width="0" cx="506.23" cy="-237.71" rx="35.87" ry="35.87"/>
<text text-anchor="middle" x="506.23" y="-235.21" font-family="Helvetica,sans-Serif" font-size="10.00" fill="#1a1f2c">Registries</text>
</g>
<!-- cat:skills&#45;&gt;cat:skills/registries -->
<g id="edge9" class="edge">
<title>cat:skills&#45;&gt;cat:skills/registries</title>
<path fill="none" stroke="#c8cfdb" stroke-width="0.8" d="M325.85,-340.6C363.71,-319.21 430.4,-281.54 471.22,-258.48"/>
<polygon fill="#c8cfdb" stroke="#c8cfdb" stroke-width="0.8" points="472.09,-260 475.58,-256.02 470.36,-256.96 472.09,-260"/>
</g>
<!-- cat:skills/standards -->
<g id="node12" class="node">
<title>cat:skills/standards</title>
<g id="a_node12"><a xlink:title="Proposed and emerging standards across the agentic ecosystem.">
<ellipse fill="#6aa9ff" stroke="black" stroke-width="0" cx="684.23" cy="-237.71" rx="35.87" ry="35.87"/>
<text text-anchor="middle" x="684.23" y="-235.21" font-family="Helvetica,sans-Serif" font-size="10.00" fill="#1a1f2c">Standards</text>
</a>
</g>
</g>
<!-- cat:skills&#45;&gt;cat:skills/standards -->
<g id="edge11" class="edge">
<title>cat:skills&#45;&gt;cat:skills/standards</title>
<path fill="none" stroke="#c8cfdb" stroke-width="0.8" d="M329.2,-349.28C377.64,-337.69 472.34,-314.1 551.23,-288.77 583.85,-278.29 620.21,-264.45 646.66,-253.98"/>
<polygon fill="#c8cfdb" stroke="#c8cfdb" stroke-width="0.8" points="647.48,-255.54 651.48,-252.06 646.19,-252.28 647.48,-255.54"/>
</g>
<!-- cat:skills/bundles/claude&#45;code -->
<g id="node4" class="node">
<title>cat:skills/bundles/claude&#45;code</title>
<ellipse fill="#6aa9ff" stroke="black" stroke-width="0" cx="97.23" cy="-107.82" rx="42.65" ry="42.65"/>
<text text-anchor="middle" x="97.23" y="-105.32" font-family="Helvetica,sans-Serif" font-size="10.00" fill="#1a1f2c">Claude Code</text>
</g>
<!-- cat:skills/bundles&#45;&gt;cat:skills/bundles/claude&#45;code -->
<g id="edge3" class="edge">
<title>cat:skills/bundles&#45;&gt;cat:skills/bundles/claude&#45;code</title>
<path fill="none" stroke="#c8cfdb" stroke-width="0.8" d="M157.85,-210.83C147.44,-193.32 133.48,-169.83 121.58,-149.81"/>
<polygon fill="#c8cfdb" stroke="#c8cfdb" stroke-width="0.8" points="122.98,-148.73 118.92,-145.33 119.97,-150.52 122.98,-148.73"/>
</g>
<!-- proj:marketingskills -->
<g id="node5" class="node">
<title>proj:marketingskills</title>
<g id="a_node5"><a xlink:href="https://github.com/coreyhaines31/marketingskills" xlink:title="https://github.com/coreyhaines31/marketingskills">
<polygon fill="#f59e0b" stroke="black" stroke-width="0" points="97.23,-29 18.8,-14.5 97.23,0 175.65,-14.5 97.23,-29"/>
<text text-anchor="middle" x="97.23" y="-12.3" font-family="Helvetica,sans-Serif" font-size="9.00" fill="#1a1f2c">Marketing Skills</text>
</a>
</g>
</g>
<!-- cat:skills/bundles/claude&#45;code&#45;&gt;proj:marketingskills -->
<g id="edge4" class="edge">
<title>cat:skills/bundles/claude&#45;code&#45;&gt;proj:marketingskills</title>
<path fill="none" stroke="#c8cfdb" stroke-width="0.8" d="M97.23,-64.9C97.23,-54.19 97.23,-43.19 97.23,-34.3"/>
<polygon fill="#c8cfdb" stroke="#c8cfdb" stroke-width="0.8" points="98.98,-34.06 97.23,-29.06 95.48,-34.06 98.98,-34.06"/>
</g>
<!-- proj:taste&#45;skill -->
<g id="node7" class="node">
<title>proj:taste&#45;skill</title>
<g id="a_node7"><a xlink:href="https://github.com/Leonxlnx/taste-skill" xlink:title="https://github.com/Leonxlnx/taste&#45;skill">
<polygon fill="#f59e0b" stroke="black" stroke-width="0" points="212.23,-122.32 158.01,-107.82 212.23,-93.32 266.45,-107.82 212.23,-122.32"/>
<text text-anchor="middle" x="212.23" y="-105.62" font-family="Helvetica,sans-Serif" font-size="9.00" fill="#1a1f2c">Taste Skill</text>
</a>
</g>
</g>
<!-- cat:skills/guides&#45;&gt;proj:taste&#45;skill -->
<g id="edge6" class="edge">
<title>cat:skills/guides&#45;&gt;proj:taste&#45;skill</title>
<path fill="none" stroke="#c8cfdb" stroke-width="0.8" d="M241.83,-211.13C234.57,-186.03 223.68,-148.41 217.33,-126.47"/>
<polygon fill="#c8cfdb" stroke="#c8cfdb" stroke-width="0.8" points="218.97,-125.82 215.9,-121.51 215.61,-126.8 218.97,-125.82"/>
</g>
<!-- proj:vercel&#45;labs&#45;skills -->
<g id="node9" class="node">
<title>proj:vercel&#45;labs&#45;skills</title>
<g id="a_node9"><a xlink:href="https://github.com/vercel-labs/skills" xlink:title="https://github.com/vercel&#45;labs/skills">
<polygon fill="#f59e0b" stroke="black" stroke-width="0" points="346.23,-122.32 283.77,-107.82 346.23,-93.32 408.69,-107.82 346.23,-122.32"/>
<text text-anchor="middle" x="346.23" y="-105.62" font-family="Helvetica,sans-Serif" font-size="9.00" fill="#1a1f2c">Vercel Skills</text>
</a>
</g>
</g>
<!-- cat:skills/package&#45;library&#45;&gt;proj:vercel&#45;labs&#45;skills -->
<g id="edge8" class="edge">
<title>cat:skills/package&#45;library&#45;&gt;proj:vercel&#45;labs&#45;skills</title>
<path fill="none" stroke="#c8cfdb" stroke-width="0.8" d="M346.23,-186.53C346.23,-165.96 346.23,-143.4 346.23,-127.92"/>
<polygon fill="#c8cfdb" stroke="#c8cfdb" stroke-width="0.8" points="347.98,-127.55 346.23,-122.55 344.48,-127.55 347.98,-127.55"/>
</g>
<!-- proj:agent&#45;skills&#45;tech&#45;leads&#45;club -->
<g id="node11" class="node">
<title>proj:agent&#45;skills&#45;tech&#45;leads&#45;club</title>
<g id="a_node11"><a xlink:href="https://github.com/tech-leads-club/agent-skills" xlink:title="https://github.com/tech&#45;leads&#45;club/agent&#45;skills">
<polygon fill="#f59e0b" stroke="black" stroke-width="0" points="561.23,-122.32 426.97,-107.82 561.23,-93.32 695.48,-107.82 561.23,-122.32"/>
<text text-anchor="middle" x="561.23" y="-105.62" font-family="Helvetica,sans-Serif" font-size="9.00" fill="#1a1f2c">Agent Skills (tech&#45;leads&#45;club)</text>
</a>
</g>
</g>
<!-- cat:skills/registries&#45;&gt;proj:agent&#45;skills&#45;tech&#45;leads&#45;club -->
<g id="edge10" class="edge">
<title>cat:skills/registries&#45;&gt;proj:agent&#45;skills&#45;tech&#45;leads&#45;club</title>
<path fill="none" stroke="#c8cfdb" stroke-width="0.8" d="M519.97,-204.77C530.58,-180.08 544.89,-146.81 553.57,-126.64"/>
<polygon fill="#c8cfdb" stroke="#c8cfdb" stroke-width="0.8" points="555.28,-127.09 555.64,-121.81 552.06,-125.71 555.28,-127.09"/>
</g>
<!-- proj:agentskills -->
<g id="node13" class="node">
<title>proj:agentskills</title>
<g id="a_node13"><a xlink:href="https://github.com/agentskills/agentskills" xlink:title="https://github.com/agentskills/agentskills">
<polygon fill="#f59e0b" stroke="black" stroke-width="0" points="773.23,-122.32 713.68,-107.82 773.23,-93.32 832.77,-107.82 773.23,-122.32"/>
<text text-anchor="middle" x="773.23" y="-105.62" font-family="Helvetica,sans-Serif" font-size="9.00" fill="#1a1f2c">AgentSkills</text>
</a>
</g>
</g>
<!-- cat:skills/standards&#45;&gt;proj:agentskills -->
<g id="edge12" class="edge">
<title>cat:skills/standards&#45;&gt;proj:agentskills</title>
<path fill="none" stroke="#c8cfdb" stroke-width="0.8" d="M704.2,-208.01C722.1,-182.29 747.69,-145.52 762.15,-124.74"/>
<polygon fill="#c8cfdb" stroke="#c8cfdb" stroke-width="0.8" points="763.65,-125.66 765.06,-120.55 760.77,-123.66 763.65,-125.66"/>
</g>
</g>
</svg>
