<?xml version="1.0" encoding="UTF-8" standalone="no"?>
<!DOCTYPE svg PUBLIC "-//W3C//DTD SVG 1.1//EN"
 "http://www.w3.org/Graphics/SVG/1.1/DTD/svg11.dtd">
<!-- Generated by graphviz version 2.42.4 (0)
 -->
<!-- Title: G Pages: 1 -->
<svg width="895pt" height="480pt"
 viewBox="0.00 0.00 894.74 480.37" xmlns="http://www.w3.org/2000/svg" xmlns:xlink="http://www.w3.org/1999/xlink">
<g id="graph0" class="graph" transform="scale(1 1) rotate(0) translate(28.8 451.57)">
<title>G</title>
<polygon fill="#f7f8fa" stroke="transparent" points="-28.8,28.8 -28.8,-451.57 865.94,-451.57 865.94,28.8 -28.8,28.8"/>
<text text-anchor="middle" x="418.57" y="-401.17" font-family="Helvetica,sans-Serif" font-size="22.00">Skills</text>
<!-- cat:skills -->
<g id="node1" class="node">
<title>cat:skills</title>
<g id="a_node1"><a xlink:title="Agent skills ecosystems — registries, bundles, standards, guides and package libraries.">
<ellipse fill="#6aa9ff" stroke="black" stroke-width="0" cx="293.42" cy="-357.77" rx="33" ry="33"/>
<text text-anchor="middle" x="293.42" y="-355.27" font-family="Helvetica,sans-Serif" font-size="10.00" fill="#1a1f2c">Skills</text>
</a>
</g>
</g>
<!-- proj:agent&#45;skills -->
<g id="node2" class="node">
<title>proj:agent&#45;skills</title>
<g id="a_node2"><a xlink:href="https://github.com/addyosmani/agent-skills" xlink:title="https://github.com/addyosmani/agent&#45;skills">
<polygon fill="#f59e0b" stroke="black" stroke-width="0" points="60.42,-252.21 0.08,-237.71 60.42,-223.21 120.77,-237.71 60.42,-252.21"/>
<text text-anchor="middle" x="60.42" y="-235.51" font-family="Helvetica,sans-Serif" font-size="9.00" fill="#1a1f2c">agent&#45;skills</text>
</a>
</g>
</g>
<!-- cat:skills&#45;&gt;proj:agent&#45;skills -->
<g id="edge1" class="edge">
<title>cat:skills&#45;&gt;proj:agent&#45;skills</title>
<path fill="none" stroke="#c8cfdb" stroke-width="0.8" d="M262.2,-346.3C228.43,-334.42 173.53,-313.46 129.42,-288.77 110.47,-278.15 90.56,-263.25 77.03,-252.47"/>
<polygon fill="#c8cfdb" stroke="#c8cfdb" stroke-width="0.8" points="78.03,-251.03 73.04,-249.26 75.84,-253.76 78.03,-251.03"/>
</g>
<!-- cat:skills/bundles -->
<g id="node3" class="node">
<title>cat:skills/bundles</title>
<ellipse fill="#6aa9ff" stroke="black" stroke-width="0" cx="169.42" cy="-237.71" rx="30.99" ry="30.99"/>
<text text-anchor="middle" x="169.42" y="-235.21" font-family="Helvetica,sans-Serif" font-size="10.00" fill="#1a1f2c">Bundles</text>
</g>
<!-- cat:skills&#45;&gt;cat:skills/bundles -->
<g id="edge2" class="edge">
<title>cat:skills&#45;&gt;cat:skills/bundles</title>
<path fill="none" stroke="#c8cfdb" stroke-width="0.8" d="M266.83,-337.59C249.66,-324.66 227.28,-306.73 209.42,-288.77 202.81,-282.11 196.21,-274.4 190.33,-267.06"/>
<polygon fill="#c8cfdb" stroke="#c8cfdb" stroke-width="0.8" points="191.62,-265.87 187.15,-263.03 188.87,-268.03 191.62,-265.87"/>
</g>
<!-- cat:skills/guides -->
<g id="node6" class="node">
<title>cat:skills/guides</title>
<ellipse fill="#6aa9ff" stroke="black" stroke-width="0" cx="245.42" cy="-237.71" rx="27.4" ry="27.4"/>
<text text-anchor="middle" x="245.42" y="-235.21" font-family="Helvetica,sans-Serif" font-size="10.00" fill="#1a1f2c">Guides</text>
</g>
<!-- cat:skills&#45;&gt;cat:skills/guides -->
<g id="edge5" class="edge">
<title>cat:skills&#45;&gt;cat:skills/guides</title>
<path fill="none" stroke="#c8cfdb" stroke-width="0.8" d="M281.31,-326.97C274,-308.99 264.72,-286.17 257.43,-268.23"/>
<polygon fill="#c8cfdb" stroke="#c8cfdb" stroke-width="0.8" points="258.93,-267.28 255.43,-263.31 255.69,-268.6 258.93,-267.28"/>
</g>
<!-- cat:skills/package&#45;library -->
<g id="node8" class="node">
<title>cat:skills/package&#45;library</title>
<ellipse fill="#6aa9ff" stroke="black" stroke-width="0" cx="342.42" cy="-237.71" rx="51.12" ry="51.12"/>
<text text-anchor="middle" x="342.42" y="-235.21" font-family="Helvetica,sans-Serif" font-size="10.00" fill="#1a1f2c">Package Library</text>
</g>
<!-- cat:skills&#45;&gt;cat:skills/package&#45;library -->
<g id="edge7" class="edge">
<title>cat:skills&#45;&gt;cat:skills/package&#45;library</title>
<path fill="none" stroke="#c8cfdb" stroke-width="0.8" d="M305.79,-326.97C310.49,-315.66 315.98,-302.42 321.26,-289.7"/>
<polygon fill="#c8cfdb" stroke="#c8cfdb" stroke-width="0.8" points="322.89,-290.33 323.19,-285.04 319.66,-288.99 322.89,-290.33"/>
</g>
<!-- cat:skills/registries -->
<g id="node10" class="node">
<title>cat:skills/registries</title>
<ellipse fill="#6aa9ff" stroke="black" stroke-width="0" cx="509.42" cy="-237.71" rx="35.87" ry="35.87"/>
<text text-anchor="middle" x="509.42" y="-235.21" font-family="Helvetica,sans-Serif" font-size="10.00" fill="#1a1f2c">Registries</text>
</g>
<!-- cat:skills&#45;&gt;cat:skills/registries -->
<g id="edge9" class="edge">
<title>cat:skills&#45;&gt;cat:skills/registries</title>
<path fill="none" stroke="#c8cfdb" stroke-width="0.8" d="M322.11,-341.09C361.3,-319.66 431.56,-281.26 474,-258.07"/>
<polygon fill="#c8cfdb" stroke="#c8cfdb" stroke-width="0.8" points="474.98,-259.53 478.53,-255.59 473.3,-256.46 474.98,-259.53"/>
</g>
<!-- cat:skills/standards -->
<g id="node12" class="node">
<title>cat:skills/standards</title>
<g id="a_node12"><a xlink:title="Proposed and emerging standards across the agentic ecosystem.">
<ellipse fill="#6aa9ff" stroke="black" stroke-width="0" cx="688.42" cy="-237.71" rx="35.87" ry="35.87"/>
<text text-anchor="middle" x="688.42" y="-235.21" font-family="Helvetica,sans-Serif" font-size="10.00" fill="#1a1f2c">Standards</text>
</a>
</g>
</g>
<!-- cat:skills&#45;&gt;cat:skills/standards -->
<g id="edge11" class="edge">
<title>cat:skills&#45;&gt;cat:skills/standards</title>
<path fill="none" stroke="#c8cfdb" stroke-width="0.8" d="M325.46,-349.54C374.99,-338.12 472.94,-314.52 554.42,-288.77 587.42,-278.34 624.19,-264.43 650.85,-253.92"/>
<polygon fill="#c8cfdb" stroke="#c8cfdb" stroke-width="0.8" points="651.71,-255.47 655.71,-252 650.42,-252.21 651.71,-255.47"/>
</g>
<!-- cat:skills/bundles/claude&#45;code -->
<g id="node4" class="node">
<title>cat:skills/bundles/claude&#45;code</title>
<ellipse fill="#6aa9ff" stroke="black" stroke-width="0" cx="77.42" cy="-107.82" rx="42.65" ry="42.65"/>
<text text-anchor="middle" x="77.42" y="-105.32" font-family="Helvetica,sans-Serif" font-size="10.00" fill="#1a1f2c">Claude Code</text>
</g>
<!-- cat:skills/bundles&#45;&gt;cat:skills/bundles/claude&#45;code -->
<g id="edge3" class="edge">
<title>cat:skills/bundles&#45;&gt;cat:skills/bundles/claude&#45;code</title>
<path fill="none" stroke="#c8cfdb" stroke-width="0.8" d="M151.9,-212.35C138.71,-194.01 120.35,-168.5 105.17,-147.39"/>
<polygon fill="#c8cfdb" stroke="#c8cfdb" stroke-width="0.8" points="106.52,-146.27 102.18,-143.23 103.68,-148.31 106.52,-146.27"/>
</g>
<!-- proj:marketingskills -->
<g id="node5" class="node">
<title>proj:marketingskills</title>
<g id="a_node5"><a xlink:href="https://github.com/coreyhaines31/marketingskills" xlink:title="https://github.com/coreyhaines31/marketingskills">
<polygon fill="#f59e0b" stroke="black" stroke-width="0" points="77.42,-29 1.91,-14.5 77.42,0 152.94,-14.5 77.42,-29"/>
<text text-anchor="middle" x="77.42" y="-12.3" font-family="Helvetica,sans-Serif" font-size="9.00" fill="#1a1f2c">marketingskills</text>
</a>
</g>
</g>
<!-- cat:skills/bundles/claude&#45;code&#45;&gt;proj:marketingskills -->
<g id="edge4" class="edge">
<title>cat:skills/bundles/claude&#45;code&#45;&gt;proj:marketingskills</title>
<path fill="none" stroke="#c8cfdb" stroke-width="0.8" d="M77.42,-64.9C77.42,-54.19 77.42,-43.19 77.42,-34.3"/>
<polygon fill="#c8cfdb" stroke="#c8cfdb" stroke-width="0.8" points="79.17,-34.06 77.42,-29.06 75.67,-34.06 79.17,-34.06"/>
</g>
<!-- proj:taste&#45;skill -->
<g id="node7" class="node">
<title>proj:taste&#45;skill</title>
<g id="a_node7"><a xlink:href="https://github.com/Leonxlnx/taste-skill" xlink:title="https://github.com/Leonxlnx/taste&#45;skill">
<polygon fill="#f59e0b" stroke="black" stroke-width="0" points="191.42,-122.32 138,-107.82 191.42,-93.32 244.84,-107.82 191.42,-122.32"/>
<text text-anchor="middle" x="191.42" y="-105.62" font-family="Helvetica,sans-Serif" font-size="9.00" fill="#1a1f2c">taste&#45;skill</text>
</a>
</g>
</g>
<!-- cat:skills/guides&#45;&gt;proj:taste&#45;skill -->
<g id="edge6" class="edge">
<title>cat:skills/guides&#45;&gt;proj:taste&#45;skill</title>
<path fill="none" stroke="#c8cfdb" stroke-width="0.8" d="M235.01,-212.05C224.3,-186.68 207.9,-147.83 198.57,-125.74"/>
<polygon fill="#c8cfdb" stroke="#c8cfdb" stroke-width="0.8" points="200.13,-124.95 196.58,-121.03 196.91,-126.31 200.13,-124.95"/>
</g>
<!-- proj:vercel&#45;labs&#45;skills -->
<g id="node9" class="node">
<title>proj:vercel&#45;labs&#45;skills</title>
<g id="a_node9"><a xlink:href="https://github.com/vercel-labs/skills" xlink:title="https://github.com/vercel&#45;labs/skills">
<polygon fill="#f59e0b" stroke="black" stroke-width="0" points="342.42,-122.32 262.39,-107.82 342.42,-93.32 422.46,-107.82 342.42,-122.32"/>
<text text-anchor="middle" x="342.42" y="-105.62" font-family="Helvetica,sans-Serif" font-size="9.00" fill="#1a1f2c">vercel&#45;labs/skills</text>
</a>
</g>
</g>
<!-- cat:skills/package&#45;library&#45;&gt;proj:vercel&#45;labs&#45;skills -->
<g id="edge8" class="edge">
<title>cat:skills/package&#45;library&#45;&gt;proj:vercel&#45;labs&#45;skills</title>
<path fill="none" stroke="#c8cfdb" stroke-width="0.8" d="M342.42,-186.53C342.42,-165.96 342.42,-143.4 342.42,-127.92"/>
<polygon fill="#c8cfdb" stroke="#c8cfdb" stroke-width="0.8" points="344.17,-127.55 342.42,-122.55 340.67,-127.55 344.17,-127.55"/>
</g>
<!-- proj:agent&#45;skills&#45;tech&#45;leads&#45;club -->
<g id="node11" class="node">
<title>proj:agent&#45;skills&#45;tech&#45;leads&#45;club</title>
<g id="a_node11"><a xlink:href="https://github.com/tech-leads-club/agent-skills" xlink:title="https://github.com/tech&#45;leads&#45;club/agent&#45;skills">
<polygon fill="#f59e0b" stroke="black" stroke-width="0" points="572.42,-122.32 440.58,-107.82 572.42,-93.32 704.27,-107.82 572.42,-122.32"/>
<text text-anchor="middle" x="572.42" y="-105.62" font-family="Helvetica,sans-Serif" font-size="9.00" fill="#1a1f2c">agent&#45;skills (tech&#45;leads&#45;club)</text>
</a>
</g>
</g>
<!-- cat:skills/registries&#45;&gt;proj:agent&#45;skills&#45;tech&#45;leads&#45;club -->
<g id="edge10" class="edge">
<title>cat:skills/registries&#45;&gt;proj:agent&#45;skills&#45;tech&#45;leads&#45;club</title>
<path fill="none" stroke="#c8cfdb" stroke-width="0.8" d="M524.84,-205.42C537.04,-180.64 553.66,-146.91 563.68,-126.57"/>
<polygon fill="#c8cfdb" stroke="#c8cfdb" stroke-width="0.8" points="565.32,-127.21 565.96,-121.95 562.18,-125.66 565.32,-127.21"/>
</g>
<!-- proj:agentskills -->
<g id="node13" class="node">
<title>proj:agentskills</title>
<g id="a_node13"><a xlink:href="https://github.com/agentskills/agentskills" xlink:title="https://github.com/agentskills/agentskills">
<polygon fill="#f59e0b" stroke="black" stroke-width="0" points="779.42,-122.32 721.49,-107.82 779.42,-93.32 837.36,-107.82 779.42,-122.32"/>
<text text-anchor="middle" x="779.42" y="-105.62" font-family="Helvetica,sans-Serif" font-size="9.00" fill="#1a1f2c">agentskills</text>
</a>
</g>
</g>
<!-- cat:skills/standards&#45;&gt;proj:agentskills -->
<g id="edge12" class="edge">
<title>cat:skills/standards&#45;&gt;proj:agentskills</title>
<path fill="none" stroke="#c8cfdb" stroke-width="0.8" d="M708.85,-208.01C727.14,-182.29 753.31,-145.52 768.1,-124.74"/>
<polygon fill="#c8cfdb" stroke="#c8cfdb" stroke-width="0.8" points="769.6,-125.64 771.08,-120.55 766.75,-123.61 769.6,-125.64"/>
</g>
</g>
</svg>
