<?xml version="1.0" encoding="UTF-8" standalone="no"?>
<!DOCTYPE svg PUBLIC "-//W3C//DTD SVG 1.1//EN"
 "http://www.w3.org/Graphics/SVG/1.1/DTD/svg11.dtd">
<!-- Generated by graphviz version 2.42.4 (0)
 -->
<!-- Title: G Pages: 1 -->
<svg width="1546pt" height="423pt"
 viewBox="0.00 0.00 1545.58 423.36" xmlns="http://www.w3.org/2000/svg" xmlns:xlink="http://www.w3.org/1999/xlink">
<g id="graph0" class="graph" transform="scale(1 1) rotate(0) translate(28.8 394.56)">
<title>G</title>
<polygon fill="#f7f8fa" stroke="transparent" points="-28.8,28.8 -28.8,-394.56 1516.78,-394.56 1516.78,28.8 -28.8,28.8"/>
<text text-anchor="middle" x="743.99" y="-344.16" font-family="Helvetica,sans-Serif" font-size="22.00">Standards</text>
<!-- cat:standards -->
<g id="node1" class="node">
<title>cat:standards</title>
<g id="a_node1"><a xlink:title="Proposed and emerging standards across the agentic ecosystem.">
<ellipse fill="#6aa9ff" stroke="black" stroke-width="0" cx="457.6" cy="-298.73" rx="35.04" ry="35.04"/>
<text text-anchor="middle" x="457.6" y="-296.23" font-family="Helvetica,sans-Serif" font-size="10.00" fill="#1a1f2c">Standards</text>
</a>
</g>
</g>
<!-- cat:standards/emerging&#45;ecosystem&#45;tied -->
<g id="node2" class="node">
<title>cat:standards/emerging&#45;ecosystem&#45;tied</title>
<g id="a_node2"><a xlink:title="Emerging standards whose adoption is tied to a specific host ecosystem (e.g. a browser engine or platform vendor) rather than being fully vendor&#45;neutral.">
<ellipse fill="#6aa9ff" stroke="black" stroke-width="0" cx="225.6" cy="-146.36" rx="81.21" ry="81.21"/>
<text text-anchor="middle" x="225.6" y="-143.86" font-family="Helvetica,sans-Serif" font-size="10.00" fill="#1a1f2c">Emerging (Ecosystem&#45;Tied)</text>
</a>
</g>
</g>
<!-- cat:standards&#45;&gt;cat:standards/emerging&#45;ecosystem&#45;tied -->
<g id="edge1" class="edge">
<title>cat:standards&#45;&gt;cat:standards/emerging&#45;ecosystem&#45;tied</title>
<path fill="none" stroke="#c8cfdb" stroke-width="0.8" d="M428.22,-278.69C395.62,-257.56 341.81,-222.68 297.84,-194.18"/>
<polygon fill="#c8cfdb" stroke="#c8cfdb" stroke-width="0.8" points="298.76,-192.69 293.61,-191.44 296.86,-195.63 298.76,-192.69"/>
</g>
<!-- cat:standards/proposed -->
<g id="node5" class="node">
<title>cat:standards/proposed</title>
<ellipse fill="#6aa9ff" stroke="black" stroke-width="0" cx="457.6" cy="-146.36" rx="33.31" ry="33.31"/>
<text text-anchor="middle" x="457.6" y="-143.86" font-family="Helvetica,sans-Serif" font-size="10.00" fill="#1a1f2c">Proposed</text>
</g>
<!-- cat:standards&#45;&gt;cat:standards/proposed -->
<g id="edge4" class="edge">
<title>cat:standards&#45;&gt;cat:standards/proposed</title>
<path fill="none" stroke="#c8cfdb" stroke-width="0.8" d="M457.6,-263.61C457.6,-240.15 457.6,-208.99 457.6,-184.84"/>
<polygon fill="#c8cfdb" stroke="#c8cfdb" stroke-width="0.8" points="459.35,-184.8 457.6,-179.8 455.85,-184.8 459.35,-184.8"/>
</g>
<!-- cat:standards/ratified -->
<g id="node8" class="node">
<title>cat:standards/ratified</title>
<g id="a_node8"><a xlink:title="Standards with a published specification and active governance.">
<ellipse fill="#6aa9ff" stroke="black" stroke-width="0" cx="864.6" cy="-146.36" rx="28.91" ry="28.91"/>
<text text-anchor="middle" x="864.6" y="-143.86" font-family="Helvetica,sans-Serif" font-size="10.00" fill="#1a1f2c">Ratified</text>
</a>
</g>
</g>
<!-- cat:standards&#45;&gt;cat:standards/ratified -->
<g id="edge7" class="edge">
<title>cat:standards&#45;&gt;cat:standards/ratified</title>
<path fill="none" stroke="#c8cfdb" stroke-width="0.8" d="M490.22,-285.68C566.82,-257.38 757.42,-186.96 833,-159.03"/>
<polygon fill="#c8cfdb" stroke="#c8cfdb" stroke-width="0.8" points="833.73,-160.63 837.81,-157.26 832.51,-157.35 833.73,-160.63"/>
</g>
<!-- proj:webmcp -->
<g id="node3" class="node">
<title>proj:webmcp</title>
<g id="a_node3"><a xlink:href="https://webmcp.dev/" xlink:title="https://webmcp.dev/">
<polygon fill="#f59e0b" stroke="black" stroke-width="0" points="49.6,-29 -0.1,-14.5 49.6,0 99.31,-14.5 49.6,-29"/>
<text text-anchor="middle" x="49.6" y="-12.3" font-family="Helvetica,sans-Serif" font-size="9.00" fill="#1a1f2c">WebMCP</text>
</a>
</g>
</g>
<!-- cat:standards/emerging&#45;ecosystem&#45;tied&#45;&gt;proj:webmcp -->
<g id="edge2" class="edge">
<title>cat:standards/emerging&#45;ecosystem&#45;tied&#45;&gt;proj:webmcp</title>
<path fill="none" stroke="#c8cfdb" stroke-width="0.8" d="M160.57,-97.37C126.97,-72.58 88.57,-44.25 66.89,-28.25"/>
<polygon fill="#c8cfdb" stroke="#c8cfdb" stroke-width="0.8" points="67.84,-26.79 62.78,-25.22 65.77,-29.6 67.84,-26.79"/>
</g>
<!-- proj:webmcp&#45;chrome&#45;epp -->
<g id="node4" class="node">
<title>proj:webmcp&#45;chrome&#45;epp</title>
<g id="a_node4"><a xlink:href="https://developer.chrome.com/blog/webmcp-epp" xlink:title="https://developer.chrome.com/blog/webmcp&#45;epp">
<polygon fill="#f59e0b" stroke="black" stroke-width="0" points="225.6,-29 117.16,-14.5 225.6,0 334.05,-14.5 225.6,-29"/>
<text text-anchor="middle" x="225.6" y="-12.3" font-family="Helvetica,sans-Serif" font-size="9.00" fill="#1a1f2c">WebMCP (Chrome EPP)</text>
</a>
</g>
</g>
<!-- cat:standards/emerging&#45;ecosystem&#45;tied&#45;&gt;proj:webmcp&#45;chrome&#45;epp -->
<g id="edge3" class="edge">
<title>cat:standards/emerging&#45;ecosystem&#45;tied&#45;&gt;proj:webmcp&#45;chrome&#45;epp</title>
<path fill="none" stroke="#c8cfdb" stroke-width="0.8" d="M225.6,-64.96C225.6,-53.45 225.6,-42.62 225.6,-34.05"/>
<polygon fill="#c8cfdb" stroke="#c8cfdb" stroke-width="0.8" points="227.35,-34.02 225.6,-29.02 223.85,-34.02 227.35,-34.02"/>
</g>
<!-- proj:gitagent -->
<g id="node6" class="node">
<title>proj:gitagent</title>
<g id="a_node6"><a xlink:href="https://github.com/open-gitagent/gitagent" xlink:title="https://github.com/open&#45;gitagent/gitagent">
<polygon fill="#f59e0b" stroke="black" stroke-width="0" points="402.6,-29 352.09,-14.5 402.6,0 453.11,-14.5 402.6,-29"/>
<text text-anchor="middle" x="402.6" y="-12.3" font-family="Helvetica,sans-Serif" font-size="9.00" fill="#1a1f2c">GitAgent</text>
</a>
</g>
</g>
<!-- cat:standards/proposed&#45;&gt;proj:gitagent -->
<g id="edge5" class="edge">
<title>cat:standards/proposed&#45;&gt;proj:gitagent</title>
<path fill="none" stroke="#c8cfdb" stroke-width="0.8" d="M444.85,-115.24C433.92,-89.44 418.58,-53.22 409.71,-32.27"/>
<polygon fill="#c8cfdb" stroke="#c8cfdb" stroke-width="0.8" points="411.26,-31.46 407.7,-27.54 408.04,-32.83 411.26,-31.46"/>
</g>
<!-- proj:aiuc&#45;1 -->
<g id="node7" class="node">
<title>proj:aiuc&#45;1</title>
<g id="a_node7"><a xlink:href="https://www.aiuc-1.com/" xlink:title="https://www.aiuc&#45;1.com/">
<polygon fill="#f59e0b" stroke="black" stroke-width="0" points="513.6,-29 471.33,-14.5 513.6,0 555.88,-14.5 513.6,-29"/>
<text text-anchor="middle" x="513.6" y="-12.3" font-family="Helvetica,sans-Serif" font-size="9.00" fill="#1a1f2c">AIUC&#45;1</text>
</a>
</g>
</g>
<!-- cat:standards/proposed&#45;&gt;proj:aiuc&#45;1 -->
<g id="edge6" class="edge">
<title>cat:standards/proposed&#45;&gt;proj:aiuc&#45;1</title>
<path fill="none" stroke="#c8cfdb" stroke-width="0.8" d="M470.59,-115.24C481.72,-89.44 497.34,-53.22 506.37,-32.27"/>
<polygon fill="#c8cfdb" stroke="#c8cfdb" stroke-width="0.8" points="508.04,-32.83 508.41,-27.54 504.82,-31.44 508.04,-32.83"/>
</g>
<!-- proj:a2a&#45;agent2agent&#45;protocol -->
<g id="node9" class="node">
<title>proj:a2a&#45;agent2agent&#45;protocol</title>
<g id="a_node9"><a xlink:href="https://github.com/a2aproject/A2A" xlink:title="https://github.com/a2aproject/A2A">
<polygon fill="#f59e0b" stroke="black" stroke-width="0" points="703.6,-29 573.87,-14.5 703.6,0 833.34,-14.5 703.6,-29"/>
<text text-anchor="middle" x="703.6" y="-12.3" font-family="Helvetica,sans-Serif" font-size="9.00" fill="#1a1f2c">A2A (Agent2Agent Protocol)</text>
</a>
</g>
</g>
<!-- cat:standards/ratified&#45;&gt;proj:a2a&#45;agent2agent&#45;protocol -->
<g id="edge8" class="edge">
<title>cat:standards/ratified&#45;&gt;proj:a2a&#45;agent2agent&#45;protocol</title>
<path fill="none" stroke="#c8cfdb" stroke-width="0.8" d="M842.55,-127.57C810.87,-102.02 752.97,-55.32 722.9,-31.06"/>
<polygon fill="#c8cfdb" stroke="#c8cfdb" stroke-width="0.8" points="723.66,-29.43 718.67,-27.65 721.46,-32.15 723.66,-29.43"/>
</g>
<!-- proj:ag&#45;ui&#45;agent&#45;user&#45;interaction&#45;protocol -->
<g id="node10" class="node">
<title>proj:ag&#45;ui&#45;agent&#45;user&#45;interaction&#45;protocol</title>
<g id="a_node10"><a xlink:href="https://docs.ag-ui.com/introduction" xlink:title="https://docs.ag&#45;ui.com/introduction">
<polygon fill="#f59e0b" stroke="black" stroke-width="0" points="1026.6,-29 851.68,-14.5 1026.6,0 1201.52,-14.5 1026.6,-29"/>
<text text-anchor="middle" x="1026.6" y="-12.3" font-family="Helvetica,sans-Serif" font-size="9.00" fill="#1a1f2c">AG&#45;UI (Agent User Interaction Protocol)</text>
</a>
</g>
</g>
<!-- cat:standards/ratified&#45;&gt;proj:ag&#45;ui&#45;agent&#45;user&#45;interaction&#45;protocol -->
<g id="edge9" class="edge">
<title>cat:standards/ratified&#45;&gt;proj:ag&#45;ui&#45;agent&#45;user&#45;interaction&#45;protocol</title>
<path fill="none" stroke="#c8cfdb" stroke-width="0.8" d="M886.79,-127.57C918.63,-102.05 976.8,-55.42 1007.09,-31.14"/>
<polygon fill="#c8cfdb" stroke="#c8cfdb" stroke-width="0.8" points="1008.19,-32.5 1011,-28.01 1006,-29.77 1008.19,-32.5"/>
</g>
<!-- proj:mcp&#45;model&#45;context&#45;protocol -->
<g id="node11" class="node">
<title>proj:mcp&#45;model&#45;context&#45;protocol</title>
<g id="a_node11"><a xlink:href="https://modelcontextprotocol.io/specification/2025-11-25" xlink:title="https://modelcontextprotocol.io/specification/2025&#45;11&#45;25">
<polygon fill="#f59e0b" stroke="black" stroke-width="0" points="1353.6,-29 1219.35,-14.5 1353.6,0 1487.86,-14.5 1353.6,-29"/>
<text text-anchor="middle" x="1353.6" y="-12.3" font-family="Helvetica,sans-Serif" font-size="9.00" fill="#1a1f2c">MCP (Model Context Protocol)</text>
</a>
</g>
</g>
<!-- cat:standards/ratified&#45;&gt;proj:mcp&#45;model&#45;context&#45;protocol -->
<g id="edge10" class="edge">
<title>cat:standards/ratified&#45;&gt;proj:mcp&#45;model&#45;context&#45;protocol</title>
<path fill="none" stroke="#c8cfdb" stroke-width="0.8" d="M892.29,-138C974.07,-116.29 1214.85,-52.35 1312.13,-26.51"/>
<polygon fill="#c8cfdb" stroke="#c8cfdb" stroke-width="0.8" points="1312.83,-28.14 1317.21,-25.16 1311.93,-24.76 1312.83,-28.14"/>
</g>
</g>
</svg>
