<?xml version="1.0" encoding="UTF-8" standalone="no"?>
<!DOCTYPE svg PUBLIC "-//W3C//DTD SVG 1.1//EN"
 "http://www.w3.org/Graphics/SVG/1.1/DTD/svg11.dtd">
<!-- Generated by graphviz version 2.42.4 (0)
 -->
<!-- Title: G Pages: 1 -->
<svg width="1675pt" height="516pt"
 viewBox="0.00 0.00 1675.29 516.37" xmlns="http://www.w3.org/2000/svg" xmlns:xlink="http://www.w3.org/1999/xlink">
<g id="graph0" class="graph" transform="scale(1 1) rotate(0) translate(28.8 487.57)">
<title>G</title>
<polygon fill="#f7f8fa" stroke="transparent" points="-28.8,28.8 -28.8,-487.57 1646.49,-487.57 1646.49,28.8 -28.8,28.8"/>
<text text-anchor="middle" x="808.84" y="-437.17" font-family="Helvetica,sans-Serif" font-size="22.00">Tools</text>
<!-- cat:tools -->
<g id="node1" class="node">
<title>cat:tools</title>
<g id="a_node1"><a xlink:title="Utility tools, SDKs and toolkits for building, debugging and extending agentic systems.">
<ellipse fill="#1f6feb" stroke="black" stroke-width="0" cx="769.7" cy="-370.77" rx="56" ry="56"/>
<text text-anchor="middle" x="769.7" y="-367.97" font-family="Helvetica,sans-Serif" font-size="11.00" fill="#1a1f2c">Tools</text>
</a>
</g>
</g>
<!-- proj:vercel&#45;ai -->
<g id="node2" class="node">
<title>proj:vercel&#45;ai</title>
<g id="a_node2"><a xlink:href="https://github.com/vercel/ai" xlink:title="https://github.com/vercel/ai">
<polygon fill="#f59e0b" stroke="black" stroke-width="0" points="48.7,-227.38 -0.2,-212.88 48.7,-198.38 97.6,-212.88 48.7,-227.38"/>
<text text-anchor="middle" x="48.7" y="-210.68" font-family="Helvetica,sans-Serif" font-size="9.00" fill="#1a1f2c">vercel/ai</text>
</a>
</g>
</g>
<!-- cat:tools&#45;&gt;proj:vercel&#45;ai -->
<g id="edge1" class="edge">
<title>cat:tools&#45;&gt;proj:vercel&#45;ai</title>
<path fill="none" stroke="#c8cfdb" stroke-width="0.8" d="M713.65,-367.09C573.35,-359.61 210.76,-335.22 105.7,-278.77 84.75,-267.51 67.88,-245.3 58.08,-230.03"/>
<polygon fill="#c8cfdb" stroke="#c8cfdb" stroke-width="0.8" points="59.4,-228.84 55.27,-225.53 56.43,-230.7 59.4,-228.84"/>
</g>
<!-- proj:langflow -->
<g id="node3" class="node">
<title>proj:langflow</title>
<g id="a_node3"><a xlink:href="https://github.com/langflow-ai/langflow" xlink:title="https://github.com/langflow&#45;ai/langflow">
<polygon fill="#f59e0b" stroke="black" stroke-width="0" points="164.7,-227.38 115,-212.88 164.7,-198.38 214.4,-212.88 164.7,-227.38"/>
<text text-anchor="middle" x="164.7" y="-210.68" font-family="Helvetica,sans-Serif" font-size="9.00" fill="#1a1f2c">langflow</text>
</a>
</g>
</g>
<!-- cat:tools&#45;&gt;proj:langflow -->
<g id="edge2" class="edge">
<title>cat:tools&#45;&gt;proj:langflow</title>
<path fill="none" stroke="#c8cfdb" stroke-width="0.8" d="M713.82,-365.19C592.03,-354.47 306.83,-325.07 222.7,-278.77 201.71,-267.21 184.47,-245.07 174.38,-229.9"/>
<polygon fill="#c8cfdb" stroke="#c8cfdb" stroke-width="0.8" points="175.68,-228.67 171.49,-225.43 172.74,-230.58 175.68,-228.67"/>
</g>
<!-- cat:tools/android -->
<g id="node4" class="node">
<title>cat:tools/android</title>
<ellipse fill="#6aa9ff" stroke="black" stroke-width="0" cx="261.7" cy="-212.88" rx="29.8" ry="29.8"/>
<text text-anchor="middle" x="261.7" y="-210.38" font-family="Helvetica,sans-Serif" font-size="10.00" fill="#1a1f2c">Android</text>
</g>
<!-- cat:tools&#45;&gt;cat:tools/android -->
<g id="edge3" class="edge">
<title>cat:tools&#45;&gt;cat:tools/android</title>
<path fill="none" stroke="#c8cfdb" stroke-width="0.8" d="M713.79,-364.63C604.4,-353.66 366.96,-325.13 300.7,-278.77 289.1,-270.65 280.36,-257.88 274.12,-245.8"/>
<polygon fill="#c8cfdb" stroke="#c8cfdb" stroke-width="0.8" points="275.56,-244.75 271.77,-241.05 272.42,-246.3 275.56,-244.75"/>
</g>
<!-- cat:tools/browser&#45;utils -->
<g id="node6" class="node">
<title>cat:tools/browser&#45;utils</title>
<ellipse fill="#6aa9ff" stroke="black" stroke-width="0" cx="354.7" cy="-212.88" rx="45.04" ry="45.04"/>
<text text-anchor="middle" x="354.7" y="-210.38" font-family="Helvetica,sans-Serif" font-size="10.00" fill="#1a1f2c">Browser Utils</text>
</g>
<!-- cat:tools&#45;&gt;cat:tools/browser&#45;utils -->
<g id="edge5" class="edge">
<title>cat:tools&#45;&gt;cat:tools/browser&#45;utils</title>
<path fill="none" stroke="#c8cfdb" stroke-width="0.8" d="M713.86,-366.38C639.12,-359.59 504.83,-339.28 408.7,-278.77 399,-272.66 390.19,-264.23 382.63,-255.47"/>
<polygon fill="#c8cfdb" stroke="#c8cfdb" stroke-width="0.8" points="383.56,-253.86 379.02,-251.14 380.88,-256.1 383.56,-253.86"/>
</g>
<!-- cat:tools/computer&#45;use -->
<g id="node9" class="node">
<title>cat:tools/computer&#45;use</title>
<g id="a_node9"><a xlink:title="Agents and frameworks that operate a computer the way a human would (mouse, keyboard, screen).">
<ellipse fill="#6aa9ff" stroke="black" stroke-width="0" cx="463.7" cy="-212.88" rx="46.17" ry="46.17"/>
<text text-anchor="middle" x="463.7" y="-210.38" font-family="Helvetica,sans-Serif" font-size="10.00" fill="#1a1f2c">Computer Use</text>
</a>
</g>
</g>
<!-- cat:tools&#45;&gt;cat:tools/computer&#45;use -->
<g id="edge8" class="edge">
<title>cat:tools&#45;&gt;cat:tools/computer&#45;use</title>
<path fill="none" stroke="#c8cfdb" stroke-width="0.8" d="M715.01,-358.37C661.69,-345.39 580.05,-320.4 519.7,-278.77 510.33,-272.3 501.56,-263.91 493.87,-255.32"/>
<polygon fill="#c8cfdb" stroke="#c8cfdb" stroke-width="0.8" points="494.79,-253.71 490.18,-251.09 492.15,-256.01 494.79,-253.71"/>
</g>
<!-- cat:tools/data&#45;ingestion -->
<g id="node13" class="node">
<title>cat:tools/data&#45;ingestion</title>
<ellipse fill="#6aa9ff" stroke="black" stroke-width="0" cx="576.7" cy="-212.88" rx="48.13" ry="48.13"/>
<text text-anchor="middle" x="576.7" y="-210.38" font-family="Helvetica,sans-Serif" font-size="10.00" fill="#1a1f2c">Data Ingestion</text>
</g>
<!-- cat:tools&#45;&gt;cat:tools/data&#45;ingestion -->
<g id="edge12" class="edge">
<title>cat:tools&#45;&gt;cat:tools/data&#45;ingestion</title>
<path fill="none" stroke="#c8cfdb" stroke-width="0.8" d="M721.57,-341.85C694.51,-325.13 660.83,-302.55 633.7,-278.77 625.56,-271.63 617.48,-263.36 610.07,-255.16"/>
<polygon fill="#c8cfdb" stroke="#c8cfdb" stroke-width="0.8" points="611.13,-253.71 606.49,-251.15 608.51,-256.04 611.13,-253.71"/>
</g>
<!-- cat:tools/debugging -->
<g id="node15" class="node">
<title>cat:tools/debugging</title>
<ellipse fill="#6aa9ff" stroke="black" stroke-width="0" cx="680.7" cy="-212.88" rx="37.77" ry="37.77"/>
<text text-anchor="middle" x="680.7" y="-210.38" font-family="Helvetica,sans-Serif" font-size="10.00" fill="#1a1f2c">Debugging</text>
</g>
<!-- cat:tools&#45;&gt;cat:tools/debugging -->
<g id="edge14" class="edge">
<title>cat:tools&#45;&gt;cat:tools/debugging</title>
<path fill="none" stroke="#c8cfdb" stroke-width="0.8" d="M742.27,-321.72C729.21,-298.84 713.83,-271.9 701.71,-250.68"/>
<polygon fill="#c8cfdb" stroke="#c8cfdb" stroke-width="0.8" points="703.17,-249.71 699.17,-246.24 700.13,-251.45 703.17,-249.71"/>
</g>
<!-- cat:tools/financial -->
<g id="node17" class="node">
<title>cat:tools/financial</title>
<ellipse fill="#6aa9ff" stroke="black" stroke-width="0" cx="769.7" cy="-212.88" rx="32.88" ry="32.88"/>
<text text-anchor="middle" x="769.7" y="-210.38" font-family="Helvetica,sans-Serif" font-size="10.00" fill="#1a1f2c">Financial</text>
</g>
<!-- cat:tools&#45;&gt;cat:tools/financial -->
<g id="edge16" class="edge">
<title>cat:tools&#45;&gt;cat:tools/financial</title>
<path fill="none" stroke="#c8cfdb" stroke-width="0.8" d="M769.7,-314.37C769.7,-293.41 769.7,-270.07 769.7,-251.17"/>
<polygon fill="#c8cfdb" stroke="#c8cfdb" stroke-width="0.8" points="771.45,-250.96 769.7,-245.96 767.95,-250.96 771.45,-250.96"/>
</g>
<!-- cat:tools/ide&#45;tools -->
<g id="node19" class="node">
<title>cat:tools/ide&#45;tools</title>
<ellipse fill="#6aa9ff" stroke="black" stroke-width="0" cx="853.7" cy="-212.88" rx="33.48" ry="33.48"/>
<text text-anchor="middle" x="853.7" y="-210.38" font-family="Helvetica,sans-Serif" font-size="10.00" fill="#1a1f2c">IDE Tools</text>
</g>
<!-- cat:tools&#45;&gt;cat:tools/ide&#45;tools -->
<g id="edge18" class="edge">
<title>cat:tools&#45;&gt;cat:tools/ide&#45;tools</title>
<path fill="none" stroke="#c8cfdb" stroke-width="0.8" d="M796.05,-320.87C808.98,-296.86 824.23,-268.57 835.8,-247.1"/>
<polygon fill="#c8cfdb" stroke="#c8cfdb" stroke-width="0.8" points="837.38,-247.86 838.21,-242.63 834.3,-246.2 837.38,-247.86"/>
</g>
<!-- cat:tools/integration&#45;platforms -->
<g id="node21" class="node">
<title>cat:tools/integration&#45;platforms</title>
<ellipse fill="#6aa9ff" stroke="black" stroke-width="0" cx="970.7" cy="-212.88" rx="65.77" ry="65.77"/>
<text text-anchor="middle" x="970.7" y="-210.38" font-family="Helvetica,sans-Serif" font-size="10.00" fill="#1a1f2c">Integration Platforms</text>
</g>
<!-- cat:tools&#45;&gt;cat:tools/integration&#45;platforms -->
<g id="edge20" class="edge">
<title>cat:tools&#45;&gt;cat:tools/integration&#45;platforms</title>
<path fill="none" stroke="#c8cfdb" stroke-width="0.8" d="M815.31,-338.28C839.57,-321.17 869.67,-299.36 895.7,-278.77 902.88,-273.09 910.31,-266.97 917.58,-260.84"/>
<polygon fill="#c8cfdb" stroke="#c8cfdb" stroke-width="0.8" points="918.91,-262 921.6,-257.44 916.65,-259.33 918.91,-262"/>
</g>
<!-- cat:tools/macos -->
<g id="node24" class="node">
<title>cat:tools/macos</title>
<ellipse fill="#6aa9ff" stroke="black" stroke-width="0" cx="1082.7" cy="-212.88" rx="28" ry="28"/>
<text text-anchor="middle" x="1082.7" y="-210.38" font-family="Helvetica,sans-Serif" font-size="10.00" fill="#1a1f2c">macOS</text>
</g>
<!-- cat:tools&#45;&gt;cat:tools/macos -->
<g id="edge23" class="edge">
<title>cat:tools&#45;&gt;cat:tools/macos</title>
<path fill="none" stroke="#c8cfdb" stroke-width="0.8" d="M825.38,-363.38C885.52,-353.97 981.36,-331.39 1045.7,-278.77 1056.78,-269.71 1065.18,-256.4 1071.15,-244.19"/>
<polygon fill="#c8cfdb" stroke="#c8cfdb" stroke-width="0.8" points="1072.86,-244.67 1073.41,-239.4 1069.7,-243.18 1072.86,-244.67"/>
</g>
<!-- cat:tools/model&#45;routing -->
<g id="node26" class="node">
<title>cat:tools/model&#45;routing</title>
<ellipse fill="#6aa9ff" stroke="black" stroke-width="0" cx="1187.7" cy="-212.88" rx="47.53" ry="47.53"/>
<text text-anchor="middle" x="1187.7" y="-210.38" font-family="Helvetica,sans-Serif" font-size="10.00" fill="#1a1f2c">Model Routing</text>
</g>
<!-- cat:tools&#45;&gt;cat:tools/model&#45;routing -->
<g id="edge25" class="edge">
<title>cat:tools&#45;&gt;cat:tools/model&#45;routing</title>
<path fill="none" stroke="#c8cfdb" stroke-width="0.8" d="M825.36,-364.06C897.23,-354.79 1024.4,-331.84 1119.7,-278.77 1131.76,-272.05 1143.28,-262.68 1153.29,-253.15"/>
<polygon fill="#c8cfdb" stroke="#c8cfdb" stroke-width="0.8" points="1154.54,-254.38 1156.91,-249.64 1152.11,-251.87 1154.54,-254.38"/>
</g>
<!-- cat:tools/semantic&#45;search -->
<g id="node28" class="node">
<title>cat:tools/semantic&#45;search</title>
<g id="a_node28"><a xlink:title="Semantic search tools for agents operating over codebases and local content.">
<ellipse fill="#6aa9ff" stroke="black" stroke-width="0" cx="1314.7" cy="-212.88" rx="53.61" ry="53.61"/>
<text text-anchor="middle" x="1314.7" y="-210.38" font-family="Helvetica,sans-Serif" font-size="10.00" fill="#1a1f2c">Semantic Search</text>
</a>
</g>
</g>
<!-- cat:tools&#45;&gt;cat:tools/semantic&#45;search -->
<g id="edge27" class="edge">
<title>cat:tools&#45;&gt;cat:tools/semantic&#45;search</title>
<path fill="none" stroke="#c8cfdb" stroke-width="0.8" d="M825.94,-368.87C918.25,-365.32 1105.53,-349.17 1244.7,-278.77 1255.57,-273.27 1265.97,-265.58 1275.27,-257.41"/>
<polygon fill="#c8cfdb" stroke="#c8cfdb" stroke-width="0.8" points="1276.64,-258.53 1279.18,-253.88 1274.3,-255.93 1276.64,-258.53"/>
</g>
<!-- cat:tools/vision&#45;ui -->
<g id="node30" class="node">
<title>cat:tools/vision&#45;ui</title>
<ellipse fill="#6aa9ff" stroke="black" stroke-width="0" cx="1422.7" cy="-212.88" rx="32.88" ry="32.88"/>
<text text-anchor="middle" x="1422.7" y="-210.38" font-family="Helvetica,sans-Serif" font-size="10.00" fill="#1a1f2c">Vision UI</text>
</g>
<!-- cat:tools&#45;&gt;cat:tools/vision&#45;ui -->
<g id="edge29" class="edge">
<title>cat:tools&#45;&gt;cat:tools/vision&#45;ui</title>
<path fill="none" stroke="#c8cfdb" stroke-width="0.8" d="M825.75,-367.01C958.11,-359.62 1285.83,-335.92 1377.7,-278.77 1389.83,-271.22 1399.54,-259.07 1406.79,-247.31"/>
<polygon fill="#c8cfdb" stroke="#c8cfdb" stroke-width="0.8" points="1408.3,-248.19 1409.35,-243 1405.29,-246.41 1408.3,-248.19"/>
</g>
<!-- cat:tools/world&#45;creation -->
<g id="node32" class="node">
<title>cat:tools/world&#45;creation</title>
<ellipse fill="#6aa9ff" stroke="black" stroke-width="0" cx="1524.7" cy="-212.88" rx="48.73" ry="48.73"/>
<text text-anchor="middle" x="1524.7" y="-210.38" font-family="Helvetica,sans-Serif" font-size="10.00" fill="#1a1f2c">World Creation</text>
</g>
<!-- cat:tools&#45;&gt;cat:tools/world&#45;creation -->
<g id="edge31" class="edge">
<title>cat:tools&#45;&gt;cat:tools/world&#45;creation</title>
<path fill="none" stroke="#c8cfdb" stroke-width="0.8" d="M825.61,-367.32C970.26,-360.24 1353.24,-336.42 1464.7,-278.77 1475.19,-273.34 1484.8,-265.31 1493.11,-256.73"/>
<polygon fill="#c8cfdb" stroke="#c8cfdb" stroke-width="0.8" points="1494.44,-257.86 1496.59,-253.02 1491.89,-255.47 1494.44,-257.86"/>
</g>
<!-- proj:agent&#45;device -->
<g id="node5" class="node">
<title>proj:agent&#45;device</title>
<g id="a_node5"><a xlink:href="https://github.com/callstackincubator/agent-device" xlink:title="https://github.com/callstackincubator/agent&#45;device">
<polygon fill="#f59e0b" stroke="black" stroke-width="0" points="198.7,-102.5 130.92,-88 198.7,-73.5 266.48,-88 198.7,-102.5"/>
<text text-anchor="middle" x="198.7" y="-85.8" font-family="Helvetica,sans-Serif" font-size="9.00" fill="#1a1f2c">agent&#45;device</text>
</a>
</g>
</g>
<!-- cat:tools/android&#45;&gt;proj:agent&#45;device -->
<g id="edge4" class="edge">
<title>cat:tools/android&#45;&gt;proj:agent&#45;device</title>
<path fill="none" stroke="#c8cfdb" stroke-width="0.8" d="M248.49,-186.12C236.13,-162.02 218.03,-126.69 207.39,-105.95"/>
<polygon fill="#c8cfdb" stroke="#c8cfdb" stroke-width="0.8" points="208.82,-104.91 204.99,-101.26 205.71,-106.51 208.82,-104.91"/>
</g>
<!-- cat:tools/browser&#45;utils/sdk -->
<g id="node7" class="node">
<title>cat:tools/browser&#45;utils/sdk</title>
<ellipse fill="#6aa9ff" stroke="black" stroke-width="0" cx="307.7" cy="-88" rx="23" ry="23"/>
<text text-anchor="middle" x="307.7" y="-85.5" font-family="Helvetica,sans-Serif" font-size="10.00" fill="#1a1f2c">SDK</text>
</g>
<!-- cat:tools/browser&#45;utils&#45;&gt;cat:tools/browser&#45;utils/sdk -->
<g id="edge6" class="edge">
<title>cat:tools/browser&#45;utils&#45;&gt;cat:tools/browser&#45;utils/sdk</title>
<path fill="none" stroke="#c8cfdb" stroke-width="0.8" d="M338.92,-170.62C331.81,-152.05 323.65,-130.7 317.45,-114.5"/>
<polygon fill="#c8cfdb" stroke="#c8cfdb" stroke-width="0.8" points="319.02,-113.69 315.6,-109.64 315.75,-114.94 319.02,-113.69"/>
</g>
<!-- proj:stagehand -->
<g id="node8" class="node">
<title>proj:stagehand</title>
<g id="a_node8"><a xlink:href="https://github.com/browserbase/stagehand" xlink:title="https://github.com/browserbase/stagehand">
<polygon fill="#f59e0b" stroke="black" stroke-width="0" points="305.7,-29 246.96,-14.5 305.7,0 364.44,-14.5 305.7,-29"/>
<text text-anchor="middle" x="305.7" y="-12.3" font-family="Helvetica,sans-Serif" font-size="9.00" fill="#1a1f2c">stagehand</text>
</a>
</g>
</g>
<!-- cat:tools/browser&#45;utils/sdk&#45;&gt;proj:stagehand -->
<g id="edge7" class="edge">
<title>cat:tools/browser&#45;utils/sdk&#45;&gt;proj:stagehand</title>
<path fill="none" stroke="#c8cfdb" stroke-width="0.8" d="M307.08,-64.77C306.81,-55.04 306.49,-43.74 306.23,-34.42"/>
<polygon fill="#c8cfdb" stroke="#c8cfdb" stroke-width="0.8" points="307.97,-34.13 306.08,-29.18 304.47,-34.23 307.97,-34.13"/>
</g>
<!-- proj:cua -->
<g id="node10" class="node">
<title>proj:cua</title>
<g id="a_node10"><a xlink:href="https://github.com/trycua/cua" xlink:title="https://github.com/trycua/cua">
<polygon fill="#f59e0b" stroke="black" stroke-width="0" points="378.7,-102.5 349.18,-88 378.7,-73.5 408.22,-88 378.7,-102.5"/>
<text text-anchor="middle" x="378.7" y="-85.8" font-family="Helvetica,sans-Serif" font-size="9.00" fill="#1a1f2c">cua</text>
</a>
</g>
</g>
<!-- cat:tools/computer&#45;use&#45;&gt;proj:cua -->
<g id="edge9" class="edge">
<title>cat:tools/computer&#45;use&#45;&gt;proj:cua</title>
<path fill="none" stroke="#c8cfdb" stroke-width="0.8" d="M437.74,-174.35C421.17,-150.4 400.64,-120.72 388.67,-103.41"/>
<polygon fill="#c8cfdb" stroke="#c8cfdb" stroke-width="0.8" points="390.1,-102.41 385.82,-99.29 387.22,-104.4 390.1,-102.41"/>
</g>
<!-- cat:tools/computer&#45;use/cli -->
<g id="node11" class="node">
<title>cat:tools/computer&#45;use/cli</title>
<ellipse fill="#6aa9ff" stroke="black" stroke-width="0" cx="449.7" cy="-88" rx="23" ry="23"/>
<text text-anchor="middle" x="449.7" y="-85.5" font-family="Helvetica,sans-Serif" font-size="10.00" fill="#1a1f2c">CLI</text>
</g>
<!-- cat:tools/computer&#45;use&#45;&gt;cat:tools/computer&#45;use/cli -->
<g id="edge10" class="edge">
<title>cat:tools/computer&#45;use&#45;&gt;cat:tools/computer&#45;use/cli</title>
<path fill="none" stroke="#c8cfdb" stroke-width="0.8" d="M458.57,-166.82C456.63,-149.86 454.5,-131.11 452.81,-116.26"/>
<polygon fill="#c8cfdb" stroke="#c8cfdb" stroke-width="0.8" points="454.51,-115.75 452.2,-110.98 451.03,-116.14 454.51,-115.75"/>
</g>
<!-- proj:usecomputer -->
<g id="node12" class="node">
<title>proj:usecomputer</title>
<g id="a_node12"><a xlink:href="https://github.com/remorses/usecomputer" xlink:title="https://github.com/remorses/usecomputer">
<polygon fill="#f59e0b" stroke="black" stroke-width="0" points="451.7,-29 382.31,-14.5 451.7,0 521.09,-14.5 451.7,-29"/>
<text text-anchor="middle" x="451.7" y="-12.3" font-family="Helvetica,sans-Serif" font-size="9.00" fill="#1a1f2c">usecomputer</text>
</a>
</g>
</g>
<!-- cat:tools/computer&#45;use/cli&#45;&gt;proj:usecomputer -->
<g id="edge11" class="edge">
<title>cat:tools/computer&#45;use/cli&#45;&gt;proj:usecomputer</title>
<path fill="none" stroke="#c8cfdb" stroke-width="0.8" d="M450.32,-64.77C450.59,-55.04 450.91,-43.74 451.17,-34.42"/>
<polygon fill="#c8cfdb" stroke="#c8cfdb" stroke-width="0.8" points="452.93,-34.23 451.32,-29.18 449.43,-34.13 452.93,-34.23"/>
</g>
<!-- proj:agent&#45;reach -->
<g id="node14" class="node">
<title>proj:agent&#45;reach</title>
<g id="a_node14"><a xlink:href="https://github.com/Panniantong/Agent-Reach" xlink:title="https://github.com/Panniantong/Agent&#45;Reach">
<polygon fill="#f59e0b" stroke="black" stroke-width="0" points="557.7,-102.5 490.72,-88 557.7,-73.5 624.68,-88 557.7,-102.5"/>
<text text-anchor="middle" x="557.7" y="-85.8" font-family="Helvetica,sans-Serif" font-size="9.00" fill="#1a1f2c">Agent&#45;Reach</text>
</a>
</g>
</g>
<!-- cat:tools/data&#45;ingestion&#45;&gt;proj:agent&#45;reach -->
<g id="edge13" class="edge">
<title>cat:tools/data&#45;ingestion&#45;&gt;proj:agent&#45;reach</title>
<path fill="none" stroke="#c8cfdb" stroke-width="0.8" d="M569.46,-165.08C566.36,-145.02 562.92,-122.76 560.56,-107.52"/>
<polygon fill="#c8cfdb" stroke="#c8cfdb" stroke-width="0.8" points="562.24,-106.92 559.75,-102.25 558.78,-107.46 562.24,-106.92"/>
</g>
<!-- proj:vllora -->
<g id="node16" class="node">
<title>proj:vllora</title>
<g id="a_node16"><a xlink:href="https://github.com/vllora/vllora" xlink:title="https://github.com/vllora/vllora">
<polygon fill="#f59e0b" stroke="black" stroke-width="0" points="679.7,-102.5 642.75,-88 679.7,-73.5 716.65,-88 679.7,-102.5"/>
<text text-anchor="middle" x="679.7" y="-85.8" font-family="Helvetica,sans-Serif" font-size="9.00" fill="#1a1f2c">vllora</text>
</a>
</g>
</g>
<!-- cat:tools/debugging&#45;&gt;proj:vllora -->
<g id="edge15" class="edge">
<title>cat:tools/debugging&#45;&gt;proj:vllora</title>
<path fill="none" stroke="#c8cfdb" stroke-width="0.8" d="M680.4,-174.68C680.22,-152.53 680,-125.38 679.85,-107.65"/>
<polygon fill="#c8cfdb" stroke="#c8cfdb" stroke-width="0.8" points="681.6,-107.46 679.81,-102.47 678.1,-107.49 681.6,-107.46"/>
</g>
<!-- proj:agentkit -->
<g id="node18" class="node">
<title>proj:agentkit</title>
<g id="a_node18"><a xlink:href="https://github.com/coinbase/agentkit" xlink:title="https://github.com/coinbase/agentkit">
<polygon fill="#f59e0b" stroke="black" stroke-width="0" points="783.7,-102.5 734.8,-88 783.7,-73.5 832.6,-88 783.7,-102.5"/>
<text text-anchor="middle" x="783.7" y="-85.8" font-family="Helvetica,sans-Serif" font-size="9.00" fill="#1a1f2c">agentkit</text>
</a>
</g>
</g>
<!-- cat:tools/financial&#45;&gt;proj:agentkit -->
<g id="edge17" class="edge">
<title>cat:tools/financial&#45;&gt;proj:agentkit</title>
<path fill="none" stroke="#c8cfdb" stroke-width="0.8" d="M773.34,-179.92C775.98,-156.78 779.45,-126.33 781.63,-107.2"/>
<polygon fill="#c8cfdb" stroke="#c8cfdb" stroke-width="0.8" points="783.38,-107.29 782.2,-102.13 779.9,-106.9 783.38,-107.29"/>
</g>
<!-- proj:roo&#45;code -->
<g id="node20" class="node">
<title>proj:roo&#45;code</title>
<g id="a_node20"><a xlink:href="https://github.com/RooCodeInc/Roo-Code" xlink:title="https://github.com/RooCodeInc/Roo&#45;Code">
<polygon fill="#f59e0b" stroke="black" stroke-width="0" points="903.7,-102.5 850.28,-88 903.7,-73.5 957.12,-88 903.7,-102.5"/>
<text text-anchor="middle" x="903.7" y="-85.8" font-family="Helvetica,sans-Serif" font-size="9.00" fill="#1a1f2c">Roo&#45;Code</text>
</a>
</g>
</g>
<!-- cat:tools/ide&#45;tools&#45;&gt;proj:roo&#45;code -->
<g id="edge19" class="edge">
<title>cat:tools/ide&#45;tools&#45;&gt;proj:roo&#45;code</title>
<path fill="none" stroke="#c8cfdb" stroke-width="0.8" d="M866.06,-181.51C875.76,-157.66 888.92,-125.33 896.83,-105.89"/>
<polygon fill="#c8cfdb" stroke="#c8cfdb" stroke-width="0.8" points="898.46,-106.53 898.72,-101.24 895.22,-105.21 898.46,-106.53"/>
</g>
<!-- cat:tools/integration&#45;platforms/saas -->
<g id="node22" class="node">
<title>cat:tools/integration&#45;platforms/saas</title>
<ellipse fill="#6aa9ff" stroke="black" stroke-width="0" cx="997.7" cy="-88" rx="23" ry="23"/>
<text text-anchor="middle" x="997.7" y="-85.5" font-family="Helvetica,sans-Serif" font-size="10.00" fill="#1a1f2c">SaaS</text>
</g>
<!-- cat:tools/integration&#45;platforms&#45;&gt;cat:tools/integration&#45;platforms/saas -->
<g id="edge21" class="edge">
<title>cat:tools/integration&#45;platforms&#45;&gt;cat:tools/integration&#45;platforms/saas</title>
<path fill="none" stroke="#c8cfdb" stroke-width="0.8" d="M984.67,-148.28C987.22,-136.71 989.74,-125.24 991.87,-115.52"/>
<polygon fill="#c8cfdb" stroke="#c8cfdb" stroke-width="0.8" points="993.59,-115.87 992.95,-110.61 990.17,-115.11 993.59,-115.87"/>
</g>
<!-- proj:composio -->
<g id="node23" class="node">
<title>proj:composio</title>
<g id="a_node23"><a xlink:href="https://github.com/ComposioHQ/composio" xlink:title="https://github.com/ComposioHQ/composio">
<polygon fill="#f59e0b" stroke="black" stroke-width="0" points="997.7,-29 944.28,-14.5 997.7,0 1051.12,-14.5 997.7,-29"/>
<text text-anchor="middle" x="997.7" y="-12.3" font-family="Helvetica,sans-Serif" font-size="9.00" fill="#1a1f2c">composio</text>
</a>
</g>
</g>
<!-- cat:tools/integration&#45;platforms/saas&#45;&gt;proj:composio -->
<g id="edge22" class="edge">
<title>cat:tools/integration&#45;platforms/saas&#45;&gt;proj:composio</title>
<path fill="none" stroke="#c8cfdb" stroke-width="0.8" d="M997.7,-64.77C997.7,-55.04 997.7,-43.74 997.7,-34.42"/>
<polygon fill="#c8cfdb" stroke="#c8cfdb" stroke-width="0.8" points="999.45,-34.18 997.7,-29.18 995.95,-34.18 999.45,-34.18"/>
</g>
<!-- proj:cmux -->
<g id="node25" class="node">
<title>proj:cmux</title>
<g id="a_node25"><a xlink:href="https://github.com/manaflow-ai/cmux" xlink:title="https://github.com/manaflow&#45;ai/cmux">
<polygon fill="#f59e0b" stroke="black" stroke-width="0" points="1076.7,-102.5 1038.94,-88 1076.7,-73.5 1114.46,-88 1076.7,-102.5"/>
<text text-anchor="middle" x="1076.7" y="-85.8" font-family="Helvetica,sans-Serif" font-size="9.00" fill="#1a1f2c">cmux</text>
</a>
</g>
</g>
<!-- cat:tools/macos&#45;&gt;proj:cmux -->
<g id="edge24" class="edge">
<title>cat:tools/macos&#45;&gt;proj:cmux</title>
<path fill="none" stroke="#c8cfdb" stroke-width="0.8" d="M1081.37,-184.61C1080.23,-161.24 1078.61,-128.21 1077.61,-107.72"/>
<polygon fill="#c8cfdb" stroke="#c8cfdb" stroke-width="0.8" points="1079.35,-107.45 1077.36,-102.55 1075.86,-107.63 1079.35,-107.45"/>
</g>
<!-- proj:agentic&#45;flow -->
<g id="node27" class="node">
<title>proj:agentic&#45;flow</title>
<g id="a_node27"><a xlink:href="https://github.com/ruvnet/agentic-flow" xlink:title="https://github.com/ruvnet/agentic&#45;flow">
<polygon fill="#f59e0b" stroke="black" stroke-width="0" points="1197.7,-102.5 1132.83,-88 1197.7,-73.5 1262.57,-88 1197.7,-102.5"/>
<text text-anchor="middle" x="1197.7" y="-85.8" font-family="Helvetica,sans-Serif" font-size="9.00" fill="#1a1f2c">agentic&#45;flow</text>
</a>
</g>
</g>
<!-- cat:tools/model&#45;routing&#45;&gt;proj:agentic&#45;flow -->
<g id="edge26" class="edge">
<title>cat:tools/model&#45;routing&#45;&gt;proj:agentic&#45;flow</title>
<path fill="none" stroke="#c8cfdb" stroke-width="0.8" d="M1191.51,-165.08C1193.13,-145.14 1194.93,-123.02 1196.17,-107.8"/>
<polygon fill="#c8cfdb" stroke="#c8cfdb" stroke-width="0.8" points="1197.94,-107.65 1196.6,-102.52 1194.45,-107.36 1197.94,-107.65"/>
</g>
<!-- proj:osgrep -->
<g id="node29" class="node">
<title>proj:osgrep</title>
<g id="a_node29"><a xlink:href="https://github.com/Ryandonofrio3/osgrep" xlink:title="https://github.com/Ryandonofrio3/osgrep">
<polygon fill="#f59e0b" stroke="black" stroke-width="0" points="1322.7,-102.5 1280.43,-88 1322.7,-73.5 1364.98,-88 1322.7,-102.5"/>
<text text-anchor="middle" x="1322.7" y="-85.8" font-family="Helvetica,sans-Serif" font-size="9.00" fill="#1a1f2c">osgrep</text>
</a>
</g>
</g>
<!-- cat:tools/semantic&#45;search&#45;&gt;proj:osgrep -->
<g id="edge28" class="edge">
<title>cat:tools/semantic&#45;search&#45;&gt;proj:osgrep</title>
<path fill="none" stroke="#c8cfdb" stroke-width="0.8" d="M1318.14,-159.06C1319.34,-140.68 1320.6,-121.25 1321.49,-107.53"/>
<polygon fill="#c8cfdb" stroke="#c8cfdb" stroke-width="0.8" points="1323.25,-107.49 1321.83,-102.38 1319.76,-107.26 1323.25,-107.49"/>
</g>
<!-- proj:ui&#45;venus -->
<g id="node31" class="node">
<title>proj:ui&#45;venus</title>
<g id="a_node31"><a xlink:href="https://github.com/inclusionAI/UI-Venus" xlink:title="https://github.com/inclusionAI/UI&#45;Venus">
<polygon fill="#f59e0b" stroke="black" stroke-width="0" points="1433.7,-102.5 1383.19,-88 1433.7,-73.5 1484.21,-88 1433.7,-102.5"/>
<text text-anchor="middle" x="1433.7" y="-85.8" font-family="Helvetica,sans-Serif" font-size="9.00" fill="#1a1f2c">UI&#45;Venus</text>
</a>
</g>
</g>
<!-- cat:tools/vision&#45;ui&#45;&gt;proj:ui&#45;venus -->
<g id="edge30" class="edge">
<title>cat:tools/vision&#45;ui&#45;&gt;proj:ui&#45;venus</title>
<path fill="none" stroke="#c8cfdb" stroke-width="0.8" d="M1425.56,-179.92C1427.62,-156.91 1430.33,-126.67 1432.04,-107.53"/>
<polygon fill="#c8cfdb" stroke="#c8cfdb" stroke-width="0.8" points="1433.79,-107.57 1432.5,-102.44 1430.31,-107.26 1433.79,-107.57"/>
</g>
<!-- cat:tools/world&#45;creation/mcp -->
<g id="node33" class="node">
<title>cat:tools/world&#45;creation/mcp</title>
<g id="a_node33"><a xlink:title="Projects in the Model Context Protocol ecosystem — servers, gateways, aggregators, clients.">
<ellipse fill="#6aa9ff" stroke="black" stroke-width="0" cx="1525.7" cy="-88" rx="23" ry="23"/>
<text text-anchor="middle" x="1525.7" y="-85.5" font-family="Helvetica,sans-Serif" font-size="10.00" fill="#1a1f2c">MCP</text>
</a>
</g>
</g>
<!-- cat:tools/world&#45;creation&#45;&gt;cat:tools/world&#45;creation/mcp -->
<g id="edge32" class="edge">
<title>cat:tools/world&#45;creation&#45;&gt;cat:tools/world&#45;creation/mcp</title>
<path fill="none" stroke="#c8cfdb" stroke-width="0.8" d="M1525.09,-164.02C1525.22,-147.82 1525.36,-130.28 1525.48,-116.25"/>
<polygon fill="#c8cfdb" stroke="#c8cfdb" stroke-width="0.8" points="1527.23,-116.26 1525.52,-111.24 1523.73,-116.23 1527.23,-116.26"/>
</g>
<!-- proj:unreal&#45;engine&#45;mcp -->
<g id="node34" class="node">
<title>proj:unreal&#45;engine&#45;mcp</title>
<g id="a_node34"><a xlink:href="https://github.com/flopperam/unreal-engine-mcp" xlink:title="https://github.com/flopperam/unreal&#45;engine&#45;mcp">
<polygon fill="#f59e0b" stroke="black" stroke-width="0" points="1525.7,-29 1433.72,-14.5 1525.7,0 1617.68,-14.5 1525.7,-29"/>
<text text-anchor="middle" x="1525.7" y="-12.3" font-family="Helvetica,sans-Serif" font-size="9.00" fill="#1a1f2c">unreal&#45;engine&#45;mcp</text>
</a>
</g>
</g>
<!-- cat:tools/world&#45;creation/mcp&#45;&gt;proj:unreal&#45;engine&#45;mcp -->
<g id="edge33" class="edge">
<title>cat:tools/world&#45;creation/mcp&#45;&gt;proj:unreal&#45;engine&#45;mcp</title>
<path fill="none" stroke="#c8cfdb" stroke-width="0.8" d="M1525.7,-64.77C1525.7,-55.04 1525.7,-43.74 1525.7,-34.42"/>
<polygon fill="#c8cfdb" stroke="#c8cfdb" stroke-width="0.8" points="1527.45,-34.18 1525.7,-29.18 1523.95,-34.18 1527.45,-34.18"/>
</g>
</g>
</svg>
