<?xml version="1.0" encoding="UTF-8" standalone="no"?>
<!DOCTYPE svg PUBLIC "-//W3C//DTD SVG 1.1//EN"
 "http://www.w3.org/Graphics/SVG/1.1/DTD/svg11.dtd">
<!-- Generated by graphviz version 2.42.4 (0)
 -->
<!-- Title: G Pages: 1 -->
<svg width="310pt" height="349pt"
 viewBox="0.00 0.00 309.84 349.06" xmlns="http://www.w3.org/2000/svg" xmlns:xlink="http://www.w3.org/1999/xlink">
<g id="graph0" class="graph" transform="scale(1 1) rotate(0) translate(28.8 320.26)">
<title>G</title>
<polygon fill="#f7f8fa" stroke="transparent" points="-28.8,28.8 -28.8,-320.26 281.04,-320.26 281.04,28.8 -28.8,28.8"/>
<text text-anchor="middle" x="126.12" y="-269.86" font-family="Helvetica,sans-Serif" font-size="22.00">UX</text>
<!-- cat:ux -->
<g id="node1" class="node">
<title>cat:ux</title>
<g id="a_node1"><a xlink:title="User&#45;experience patterns and components specifically for agent systems.">
<ellipse fill="#6aa9ff" stroke="black" stroke-width="0" cx="131.03" cy="-238.96" rx="20.5" ry="20.5"/>
<text text-anchor="middle" x="131.03" y="-236.46" font-family="Helvetica,sans-Serif" font-size="10.00" fill="#1a1f2c">UX</text>
</a>
</g>
</g>
<!-- cat:ux/human&#45;in&#45;the&#45;loop -->
<g id="node2" class="node">
<title>cat:ux/human&#45;in&#45;the&#45;loop</title>
<g id="a_node2"><a xlink:title="Interfaces and workflows for inserting humans into agent execution — approvals, task handoff, review queues.">
<ellipse fill="#6aa9ff" stroke="black" stroke-width="0" cx="131.03" cy="-123.73" rx="58.96" ry="58.96"/>
<text text-anchor="middle" x="131.03" y="-121.23" font-family="Helvetica,sans-Serif" font-size="10.00" fill="#1a1f2c">Human in the Loop</text>
</a>
</g>
</g>
<!-- cat:ux&#45;&gt;cat:ux/human&#45;in&#45;the&#45;loop -->
<g id="edge1" class="edge">
<title>cat:ux&#45;&gt;cat:ux/human&#45;in&#45;the&#45;loop</title>
<path fill="none" stroke="#c8cfdb" stroke-width="0.8" d="M131.03,-218.23C131.03,-209.55 131.03,-198.82 131.03,-187.76"/>
<polygon fill="#c8cfdb" stroke="#c8cfdb" stroke-width="0.8" points="132.78,-187.66 131.03,-182.66 129.28,-187.66 132.78,-187.66"/>
</g>
<!-- proj:agent&#45;inbox -->
<g id="node3" class="node">
<title>proj:agent&#45;inbox</title>
<g id="a_node3"><a xlink:href="https://github.com/langchain-ai/agent-inbox" xlink:title="https://github.com/langchain&#45;ai/agent&#45;inbox">
<polygon fill="#f59e0b" stroke="black" stroke-width="0" points="64.03,-29 -0.03,-14.5 64.03,0 128.1,-14.5 64.03,-29"/>
<text text-anchor="middle" x="64.03" y="-12.3" font-family="Helvetica,sans-Serif" font-size="9.00" fill="#1a1f2c">agent&#45;inbox</text>
</a>
</g>
</g>
<!-- cat:ux/human&#45;in&#45;the&#45;loop&#45;&gt;proj:agent&#45;inbox -->
<g id="edge2" class="edge">
<title>cat:ux/human&#45;in&#45;the&#45;loop&#45;&gt;proj:agent&#45;inbox</title>
<path fill="none" stroke="#c8cfdb" stroke-width="0.8" d="M100.28,-73.51C91.01,-58.67 81.45,-43.38 74.48,-32.23"/>
<polygon fill="#c8cfdb" stroke="#c8cfdb" stroke-width="0.8" points="75.8,-31.03 71.66,-27.71 72.83,-32.88 75.8,-31.03"/>
</g>
<!-- proj:orchestra -->
<g id="node4" class="node">
<title>proj:orchestra</title>
<g id="a_node4"><a xlink:href="https://github.com/b12io/orchestra" xlink:title="https://github.com/b12io/orchestra">
<polygon fill="#f59e0b" stroke="black" stroke-width="0" points="199.03,-29 145.61,-14.5 199.03,0 252.45,-14.5 199.03,-29"/>
<text text-anchor="middle" x="199.03" y="-12.3" font-family="Helvetica,sans-Serif" font-size="9.00" fill="#1a1f2c">orchestra</text>
</a>
</g>
</g>
<!-- cat:ux/human&#45;in&#45;the&#45;loop&#45;&gt;proj:orchestra -->
<g id="edge3" class="edge">
<title>cat:ux/human&#45;in&#45;the&#45;loop&#45;&gt;proj:orchestra</title>
<path fill="none" stroke="#c8cfdb" stroke-width="0.8" d="M162.05,-73.82C171.7,-58.61 181.67,-42.88 188.82,-31.6"/>
<polygon fill="#c8cfdb" stroke="#c8cfdb" stroke-width="0.8" points="190.31,-32.52 191.51,-27.36 187.36,-30.64 190.31,-32.52"/>
</g>
</g>
</svg>
