<?xml version="1.0" encoding="UTF-8" standalone="no"?>
<!DOCTYPE svg PUBLIC "-//W3C//DTD SVG 1.1//EN"
 "http://www.w3.org/Graphics/SVG/1.1/DTD/svg11.dtd">
<!-- Generated by graphviz version 2.42.4 (0)
 -->
<!-- Title: G Pages: 1 -->
<svg width="424pt" height="235pt"
 viewBox="0.00 0.00 424.14 235.42" xmlns="http://www.w3.org/2000/svg" xmlns:xlink="http://www.w3.org/1999/xlink">
<g id="graph0" class="graph" transform="scale(1 1) rotate(0) translate(28.8 206.62)">
<title>G</title>
<polygon fill="#f7f8fa" stroke="transparent" points="-28.8,28.8 -28.8,-206.62 395.34,-206.62 395.34,28.8 -28.8,28.8"/>
<text text-anchor="middle" x="183.27" y="-156.22" font-family="Helvetica,sans-Serif" font-size="22.00">Workspaces</text>
<!-- proj:agentsmesh -->
<g id="node1" class="node">
<title>proj:agentsmesh</title>
<g id="a_node1"><a xlink:href="https://github.com/AgentsMesh/AgentsMesh" xlink:title="https://github.com/AgentsMesh/AgentsMesh">
<polygon fill="#f59e0b" stroke="black" stroke-width="0" points="64.03,-29 -0.03,-14.5 64.03,0 128.1,-14.5 64.03,-29"/>
<text text-anchor="middle" x="64.03" y="-12.3" font-family="Helvetica,sans-Serif" font-size="9.00" fill="#1a1f2c">AgentsMesh</text>
</a>
</g>
</g>
<!-- proj:gastown -->
<g id="node2" class="node">
<title>proj:gastown</title>
<g id="a_node2"><a xlink:href="https://github.com/gastownhall/gastown" xlink:title="https://github.com/gastownhall/gastown">
<polygon fill="#f59e0b" stroke="black" stroke-width="0" points="197.03,-29 146.52,-14.5 197.03,0 247.54,-14.5 197.03,-29"/>
<text text-anchor="middle" x="197.03" y="-12.3" font-family="Helvetica,sans-Serif" font-size="9.00" fill="#1a1f2c">Gastown</text>
</a>
</g>
</g>
<!-- cat:workspaces -->
<g id="node3" class="node">
<title>cat:workspaces</title>
<g id="a_node3"><a xlink:title="Shared workspaces where agents and humans (or multiple agents) collaborate.">
<ellipse fill="#6aa9ff" stroke="black" stroke-width="0" cx="197.03" cy="-105.41" rx="40.32" ry="40.32"/>
<text text-anchor="middle" x="197.03" y="-102.91" font-family="Helvetica,sans-Serif" font-size="10.00" fill="#1a1f2c">Workspaces</text>
</a>
</g>
</g>
<!-- cat:workspaces&#45;&gt;proj:agentsmesh -->
<g id="edge1" class="edge">
<title>cat:workspaces&#45;&gt;proj:agentsmesh</title>
<path fill="none" stroke="#c8cfdb" stroke-width="0.8" d="M163.81,-82.2C138.53,-65.3 104.6,-42.62 83.53,-28.54"/>
<polygon fill="#c8cfdb" stroke="#c8cfdb" stroke-width="0.8" points="84.37,-26.99 79.24,-25.67 82.42,-29.9 84.37,-26.99"/>
</g>
<!-- cat:workspaces&#45;&gt;proj:gastown -->
<g id="edge2" class="edge">
<title>cat:workspaces&#45;&gt;proj:gastown</title>
<path fill="none" stroke="#c8cfdb" stroke-width="0.8" d="M197.03,-64.89C197.03,-54.19 197.03,-43.11 197.03,-34.16"/>
<polygon fill="#c8cfdb" stroke="#c8cfdb" stroke-width="0.8" points="198.78,-34.15 197.03,-29.15 195.28,-34.15 198.78,-34.15"/>
</g>
<!-- proj:lobehub -->
<g id="node4" class="node">
<title>proj:lobehub</title>
<g id="a_node4"><a xlink:href="https://github.com/lobehub/lobehub" xlink:title="https://github.com/lobehub/lobehub">
<polygon fill="#f59e0b" stroke="black" stroke-width="0" points="316.03,-29 265.52,-14.5 316.03,0 366.54,-14.5 316.03,-29"/>
<text text-anchor="middle" x="316.03" y="-12.3" font-family="Helvetica,sans-Serif" font-size="9.00" fill="#1a1f2c">LobeHub</text>
</a>
</g>
</g>
<!-- cat:workspaces&#45;&gt;proj:lobehub -->
<g id="edge3" class="edge">
<title>cat:workspaces&#45;&gt;proj:lobehub</title>
<path fill="none" stroke="#c8cfdb" stroke-width="0.8" d="M228.92,-80.58C251.26,-63.89 280.28,-42.21 298.53,-28.58"/>
<polygon fill="#c8cfdb" stroke="#c8cfdb" stroke-width="0.8" points="299.97,-29.69 302.93,-25.29 297.87,-26.88 299.97,-29.69"/>
</g>
</g>
</svg>
