<?xml version="1.0" encoding="UTF-8" standalone="no"?>
<!DOCTYPE svg PUBLIC "-//W3C//DTD SVG 1.1//EN"
 "http://www.w3.org/Graphics/SVG/1.1/DTD/svg11.dtd">
<!-- Generated by graphviz version 2.42.4 (0)
 -->
<!-- Title: G Pages: 1 -->
<svg width="304pt" height="348pt"
 viewBox="0.00 0.00 304.41 347.50" xmlns="http://www.w3.org/2000/svg" xmlns:xlink="http://www.w3.org/1999/xlink">
<g id="graph0" class="graph" transform="scale(1 1) rotate(0) translate(28.8 318.7)">
<title>G</title>
<polygon fill="#f7f8fa" stroke="transparent" points="-28.8,28.8 -28.8,-318.7 275.61,-318.7 275.61,28.8 -28.8,28.8"/>
<text text-anchor="middle" x="123.4" y="-268.3" font-family="Helvetica,sans-Serif" font-size="22.00">World Generation</text>
<!-- proj:unreal&#45;engine&#45;mcp -->
<g id="node1" class="node">
<title>proj:unreal&#45;engine&#45;mcp</title>
<g id="a_node1"><a xlink:href="https://github.com/flopperam/unreal-engine-mcp" xlink:title="https://github.com/flopperam/unreal&#45;engine&#45;mcp">
<polygon fill="#f59e0b" stroke="black" stroke-width="0" points="154.82,-29 62.84,-14.5 154.82,0 246.8,-14.5 154.82,-29"/>
<text text-anchor="middle" x="154.82" y="-12.3" font-family="Helvetica,sans-Serif" font-size="9.00" fill="#1a1f2c">Unreal Engine MCP</text>
</a>
</g>
</g>
<!-- cat:world&#45;generation -->
<g id="node2" class="node">
<title>cat:world&#45;generation</title>
<g id="a_node2"><a xlink:title="Tools and models for generating simulated worlds for agents to operate in.">
<ellipse fill="#6aa9ff" stroke="black" stroke-width="0" cx="105.82" cy="-202.45" rx="55.4" ry="55.4"/>
<text text-anchor="middle" x="105.82" y="-199.95" font-family="Helvetica,sans-Serif" font-size="10.00" fill="#1a1f2c">World Generation</text>
</a>
</g>
</g>
<!-- proj:ml&#45;agents -->
<g id="node3" class="node">
<title>proj:ml&#45;agents</title>
<g id="a_node3"><a xlink:href="https://github.com/Unity-Technologies/ml-agents" xlink:title="https://github.com/Unity&#45;Technologies/ml&#45;agents">
<polygon fill="#f59e0b" stroke="black" stroke-width="0" points="56.82,-102.5 0.18,-88 56.82,-73.5 113.45,-88 56.82,-102.5"/>
<text text-anchor="middle" x="56.82" y="-85.8" font-family="Helvetica,sans-Serif" font-size="9.00" fill="#1a1f2c">ML&#45;Agents</text>
</a>
</g>
</g>
<!-- cat:world&#45;generation&#45;&gt;proj:ml&#45;agents -->
<g id="edge2" class="edge">
<title>cat:world&#45;generation&#45;&gt;proj:ml&#45;agents</title>
<path fill="none" stroke="#c8cfdb" stroke-width="0.8" d="M83.9,-151.15C76.85,-134.98 69.52,-118.15 64.26,-106.09"/>
<polygon fill="#c8cfdb" stroke="#c8cfdb" stroke-width="0.8" points="65.75,-105.11 62.14,-101.22 62.54,-106.51 65.75,-105.11"/>
</g>
<!-- cat:world&#45;generation/mcp -->
<g id="node4" class="node">
<title>cat:world&#45;generation/mcp</title>
<g id="a_node4"><a xlink:title="MCP servers for world and scene generation.">
<ellipse fill="#6aa9ff" stroke="black" stroke-width="0" cx="154.82" cy="-88" rx="23" ry="23"/>
<text text-anchor="middle" x="154.82" y="-85.5" font-family="Helvetica,sans-Serif" font-size="10.00" fill="#1a1f2c">MCP</text>
</a>
</g>
</g>
<!-- cat:world&#45;generation&#45;&gt;cat:world&#45;generation/mcp -->
<g id="edge3" class="edge">
<title>cat:world&#45;generation&#45;&gt;cat:world&#45;generation/mcp</title>
<path fill="none" stroke="#c8cfdb" stroke-width="0.8" d="M127.74,-151.15C133.31,-138.37 139.05,-125.17 143.81,-114.25"/>
<polygon fill="#c8cfdb" stroke="#c8cfdb" stroke-width="0.8" points="145.53,-114.68 145.93,-109.4 142.33,-113.29 145.53,-114.68"/>
</g>
<!-- cat:world&#45;generation/mcp&#45;&gt;proj:unreal&#45;engine&#45;mcp -->
<g id="edge1" class="edge">
<title>cat:world&#45;generation/mcp&#45;&gt;proj:unreal&#45;engine&#45;mcp</title>
<path fill="none" stroke="#c8cfdb" stroke-width="0.8" d="M154.82,-64.77C154.82,-55.04 154.82,-43.74 154.82,-34.42"/>
<polygon fill="#c8cfdb" stroke="#c8cfdb" stroke-width="0.8" points="156.57,-34.18 154.82,-29.18 153.07,-34.18 156.57,-34.18"/>
</g>
</g>
</svg>
